<svg version="1.1" xmlns="http://www.w3.org/2000/svg" viewBox="0 0 607.9375 820.5" width="1215.875" height="1641">
  <!-- svg-source:excalidraw -->
  
  <defs>
    <style>
      @font-face {
        font-family: "Virgil";
        src: url("https://excalidraw.com/Virgil.woff2");
      }
      @font-face {
        font-family: "Cascadia";
        src: url("https://excalidraw.com/Cascadia.woff2");
      }
    </style>
  </defs>
  <g stroke-linecap="round" transform="translate(91.5 89.25) rotate(0 103.5 90)"><path d="M-0.5 1.24 L206.32 -0.26 L206.26 179.93 L0.57 179.24" stroke="none" stroke-width="0" fill="#12b886"></path><path d="M0.21 -1.2 C46.57 1.6, 93.58 2.43, 206.53 0.08 M0.66 0.44 C52.29 -0.96, 104.66 0.33, 206.81 0.81 M207.27 -0.14 C208.66 67.33, 206 136.34, 206.78 179.35 M206.48 0.44 C206.41 50.84, 206.76 99.49, 206.6 179.77 M208.76 180.64 C135.61 178.69, 63.09 176.66, -1.18 181.53 M206.37 180.29 C155.8 180.58, 103.98 180.94, -0.28 179.13 M1.21 182 C-1.8 111.34, -0.03 41.27, -0.3 -0.28 M-0.62 179.64 C-0.97 140.52, -0.93 99.09, 0.19 0.7" stroke="#000000" stroke-width="2" fill="none"></path></g><g stroke-linecap="round" transform="translate(46.5 134.25) rotate(0 103.5 90)"><path d="M1.24 -0.68 L206.74 -0.74 L206.93 180.57 L-0.76 178.35" stroke="none" stroke-width="0" fill="#228be6"></path><path d="M-1.2 -0.5 C73.01 -0.79, 146.11 -0.69, 207.08 -0.83 M0.44 -0.1 C70.02 -1.48, 142.08 -1.55, 207.81 0.72 M206.86 1.36 C206.03 55.74, 206.51 113.86, 206.35 179.58 M207.44 0.54 C209.03 43.61, 207.43 85.04, 206.77 180.48 M207.64 180.72 C126.04 182.13, 42.57 180.63, 1.53 179.09 M207.29 180.35 C125.61 178.78, 44.68 178.42, -0.87 180.72 M2 178.7 C0.88 121.49, -0.59 61.76, -0.28 -1.55 M-0.36 179.22 C0 123.37, -1.34 68.42, 0.7 -0.25" stroke="#000000" stroke-width="2" fill="none"></path></g><g stroke-linecap="round" transform="translate(10 172.25) rotate(0 103.5 90)"><path d="M-0.68 -0.26 L206.26 -0.07 L207.57 179.24 L-1.65 180.59" stroke="none" stroke-width="0" fill="#fa5252"></path><path d="M-0.5 0.75 C51.95 2.82, 104.58 1.32, 206.17 0.74 M-0.1 -0.75 C64.35 -0.36, 128.75 -0.1, 207.72 0.15 M208.36 -1.19 C205.94 55.48, 207.03 111.71, 206.58 178.75 M207.54 0.6 C206.95 67.28, 205.67 136.32, 207.48 180.93 M207.72 180.49 C165.49 179.12, 122.17 182.19, -0.91 181.65 M207.35 179.9 C137.39 180.86, 67.33 179.72, 0.72 180.25 M-1.3 179.94 C-0.62 133.85, -1.38 90.49, -1.55 0.21 M-0.78 180.61 C0.38 119.19, 1.31 60.54, -0.25 0.62" stroke="#000000" stroke-width="2" fill="none"></path></g><g stroke-linecap="round"><g transform="translate(213.625 275.00000034026607) rotate(0 114.38295132837891 -1.240771684081551)"><path d="M0.31 0.61 C38.29 -0.02, 189.32 -2.6, 227.55 -3.09 M-0.99 -0.12 C37.39 -0.62, 191.33 -1, 229.76 -1.72" stroke="#000000" stroke-width="2" fill="none"></path></g></g><g stroke-linecap="round"><g transform="translate(239.62035718833363 202.10267107538584) rotate(0 108.12411912008832 -0.21238119821111923)"><path d="M-0.82 0.54 C35.41 0.6, 180.93 0.85, 217.07 0.64 M0.95 -0.22 C37.09 -0.53, 180.72 -1.21, 216.38 -1.15" stroke="#000000" stroke-width="2" fill="none"></path></g></g><g stroke-linecap="round"><g transform="translate(279.2289365201134 148.2756755863993) rotate(0 92.49407683887404 -2.3215445403801596)"><path d="M-0.21 -0.34 C30.47 -0.96, 153.48 -3.91, 184.6 -4.3 M-1.78 -1.57 C29.22 -1.97, 155.43 -2.55, 186.77 -3.03" stroke="#000000" stroke-width="2" fill="none"></path></g></g><g transform="translate(460.625 252.216494845361) rotate(0 56.74226804123714 20.391752577319608)"><text x="0" y="28.78350515463918" font-family="Virgil, Segoe UI Emoji" font-size="31.91752577319588px" fill="#000000" text-anchor="start" style="white-space: pre;" direction="ltr">S0, Z0</text></g><g transform="translate(472.150773195875 181.28865979381544) rotate(0 43.443298969072146 20.391752577319608)"><text x="0" y="28.78350515463918" font-family="Virgil, Segoe UI Emoji" font-size="31.917525773195887px" fill="#000000" text-anchor="start" style="white-space: pre;" direction="ltr">S1, Z1</text></g><g transform="translate(481.903350515463 121) rotate(0 57.62886597938143 20.391752577319608)"><text x="0" y="28.78350515463918" font-family="Virgil, Segoe UI Emoji" font-size="31.917525773195884px" fill="#000000" text-anchor="start" style="white-space: pre;" direction="ltr">S2, Z2</text></g><g stroke-linecap="round" transform="translate(95.8125 547.5) rotate(0 103.5 90)"><path d="M1.13 -1.49 L205.51 -0.13 L208.23 180.71 L-0.4 178.52" stroke="none" stroke-width="0" fill="#12b886"></path><path d="M0.3 1.21 C71.62 -3.08, 146.28 -1.88, 207.93 -0.04 M-0.23 0.87 C50.35 -0.55, 102.63 -0.57, 206.26 0.71 M207.42 -1.42 C205.22 35.06, 206.99 73.67, 206.31 179.92 M206.17 0.32 C207.98 57.79, 207.99 115.61, 207.74 180.5 M205.59 180.06 C150.87 180.26, 96.85 182.09, -1.23 180.77 M207.05 179.8 C141.36 180.44, 75.95 181.02, 0.59 180.52 M-1.41 178.91 C1.15 143.55, 0.55 107.89, -0.83 -1.59 M-0.92 180.28 C-0.64 120.38, -0.19 61.36, -1 0.6" stroke="#000000" stroke-width="2" fill="none"></path></g><g stroke-linecap="round" transform="translate(50.8125 592.5) rotate(0 103.5 90)"><path d="M-1.49 -1.49 L206.87 1.23 L207.71 179.6 L-1.48 181.05" stroke="none" stroke-width="0" fill="#228be6"></path><path d="M1.21 -1.35 C54.29 0.02, 111.16 0.61, 206.96 -0.95 M0.87 -0.71 C54.09 0.99, 107.76 -0.25, 207.71 -0.84 M205.58 -0.53 C205.05 42.72, 206.71 82.25, 206.92 180.39 M207.32 -0.79 C206.77 70.9, 207.09 144.09, 207.5 179.66 M207.06 178.93 C145.97 178.5, 86.94 177.31, 0.77 180.28 M206.8 179.67 C125.77 179.68, 45.12 180.7, 0.52 179.16 M-1.09 179.84 C-0.62 138.34, 0.77 97.39, -1.59 0.58 M0.28 180.19 C-2.19 118.36, -2 54.47, 0.6 0.57" stroke="#000000" stroke-width="2" fill="none"></path></g><g stroke-linecap="round" transform="translate(14.3125 630.5) rotate(0 103.5 90)"><path d="M-1.49 -0.13 L208.23 0.71 L206.6 178.52 L1.05 181.98" stroke="none" stroke-width="0" fill="#fa5252"></path><path d="M-1.35 -1.38 C81.52 -1.43, 163.3 -1.3, 206.05 -0.72 M-0.71 0.41 C73.43 -1.41, 145.12 -1.1, 206.16 -0.62 M206.47 -1.88 C208.62 53.07, 206.69 106.5, 207.39 181.96 M206.21 0.29 C204.73 49.42, 206.25 98.11, 206.66 179.94 M205.93 179.82 C139.94 181.72, 71.72 180.84, 0.28 181.64 M206.67 179.99 C139.46 180.17, 73.37 180.11, -0.84 179.35 M-0.16 180.59 C0.51 115.91, 0.44 46.28, 0.58 0.92 M0.19 179.6 C2.28 107.95, 0.65 36.93, 0.57 -0.74" stroke="#000000" stroke-width="2" fill="none"></path></g><g stroke-linecap="round"><g transform="translate(217.9375 758.25) rotate(0 142.76856933962557 -28.027494083354213)"><path d="M-0.91 -0.93 C46.79 -10.61, 238.49 -47.87, 286.45 -57.24 M0.81 1.19 C48.36 -8.37, 238.02 -46.26, 285.62 -55.77" stroke="#000000" stroke-width="2" fill="none"></path></g></g><g stroke-linecap="round"><g transform="translate(246.9375 672.25) rotate(0 128.47169160358607 -0.2679098169020335)"><path d="M-0.93 0.23 C41.91 0.48, 214.73 0.77, 257.88 0.62 M0.78 -0.7 C43.38 -0.72, 214.13 -1.34, 256.87 -1.17" stroke="#000000" stroke-width="2" fill="none"></path></g></g><g stroke-linecap="round"><g transform="translate(295.9375 607.25) rotate(0 99.56755577416163 20.615809527132683)"><path d="M0.23 -0.12 C33.75 6.86, 167.12 34.17, 200.25 40.94 M-1.11 -1.23 C32.39 6.03, 166.46 35.33, 199.63 42.46" stroke="#000000" stroke-width="2" fill="none"></path></g></g><g transform="translate(518.9375 650.25) rotate(0 39.5 23)"><text x="0" y="32" font-family="Virgil, Segoe UI Emoji" font-size="36px" fill="#000000" text-anchor="start" style="white-space: pre;" direction="ltr">S, Z</text></g><g transform="translate(149.625 10) rotate(0 214 23)"><text x="0" y="32" font-family="Virgil, Segoe UI Emoji" font-size="36px" fill="#000000" text-anchor="start" style="white-space: pre;" direction="ltr">per-channel quantization</text></g><g transform="translate(166.625 484) rotate(0 208.5 23)"><text x="0" y="32" font-family="Virgil, Segoe UI Emoji" font-size="36px" fill="#000000" text-anchor="start" style="white-space: pre;" direction="ltr">per-tensor quantization</text></g></svg>