<svg version="1.1" xmlns="http://www.w3.org/2000/svg" viewBox="0 0 624.916513761468 672.6585676235568" width="1249.833027522936" height="1345.3171352471136">
  <!-- svg-source:excalidraw -->
  
  <defs>
    <style>
      @font-face {
        font-family: "Virgil";
        src: url("https://excalidraw.com/Virgil.woff2");
      }
      @font-face {
        font-family: "Cascadia";
        src: url("https://excalidraw.com/Cascadia.woff2");
      }
    </style>
  </defs>
  <g stroke-opacity="0.6" fill-opacity="0.6" stroke-linecap="round" transform="translate(10 10) rotate(0 135.91651376146797 30.690825688073346)"><path d="M15.05 -1.5 L259.57 -0.63 L269.95 1.85 L270.14 8.98 L271.91 50.6 L267.52 58.05 L262.87 59.99 L257.15 60.35 L10.19 63.03 L7.68 57.26 L-0.34 54.67 L-1.82 16.26 L1.03 10.2 L4.17 5.53 L10.43 1.59 L14.27 -0.61" stroke="none" stroke-width="0" fill="#868e96"></path><path d="M15.35 0 M15.35 0 C95.97 1.66, 178.23 0.27, 256.49 0 M15.35 0 C64.69 0.83, 113.42 1.79, 256.49 0 M256.49 0 C264.77 -0.78, 272.19 7.08, 271.83 15.35 M256.49 0 C268.23 -1.91, 273.35 5.39, 271.83 15.35 M271.83 15.35 C273.71 21.27, 271.7 26.16, 271.83 46.04 M271.83 15.35 C271.65 21.67, 272.25 27.61, 271.83 46.04 M271.83 46.04 C270.83 56.11, 267.76 62.02, 256.49 61.38 M271.83 46.04 C271.54 55.06, 266.41 61.61, 256.49 61.38 M256.49 61.38 C184.29 59.55, 113.89 61.52, 15.35 61.38 M256.49 61.38 C192.96 61.09, 130.56 60, 15.35 61.38 M15.35 61.38 C6.65 63.36, 0.28 57.8, 0 46.04 M15.35 61.38 C7.06 60.31, -1.25 54.28, 0 46.04 M0 46.04 C0.77 38.39, 0.62 31.5, 0 15.35 M0 46.04 C-0.82 35.52, 0.39 23.34, 0 15.35 M0 15.35 C-0.69 5.12, 3.92 1.47, 15.35 0 M0 15.35 C0.45 4.6, 5.2 -1.28, 15.35 0" stroke="#000000" stroke-width="2" fill="none"></path></g><g stroke-opacity="0.7" fill-opacity="0.7" transform="translate(62.61284403669811 29.486238532110747) rotate(0 84.2779816513762 12.66605504587153)"><text x="84.27798165137617" y="17.332110091743104" font-family="Virgil, Segoe UI Emoji" font-size="19.4862385321101px" fill="#000000" text-anchor="middle" style="white-space: pre;" direction="ltr">Pre-trained model</text></g><g stroke-opacity="0.6" fill-opacity="0.6" stroke-linecap="round" transform="translate(13.384403669725089 115.48165137614524) rotate(0 135.91651376146797 30.690825688073346)"><path d="M16.01 0.47 L261.43 -1.37 L269.77 2.6 L272.49 7.61 L271.29 51.06 L268.22 55.81 L264.17 58.68 L255.92 60.96 L12.79 61.79 L7.36 60.1 L-0.78 52.32 L-1.91 16.02 L0.86 8.25 L5.41 3.94 L8.74 1.91 L17.03 0.88" stroke="none" stroke-width="0" fill="#82c91e"></path><path d="M15.35 0 M15.35 0 C110.77 -0.65, 205.79 0.45, 256.49 0 M15.35 0 C90.96 1.44, 167.27 1.86, 256.49 0 M256.49 0 C267.17 0.56, 270.86 5.58, 271.83 15.35 M256.49 0 C264.9 -1.6, 270.59 3.22, 271.83 15.35 M271.83 15.35 C271.3 26.15, 272.87 36.02, 271.83 46.04 M271.83 15.35 C271.48 25.09, 271.9 34.73, 271.83 46.04 M271.83 46.04 C270.1 56.41, 265.86 62.35, 256.49 61.38 M271.83 46.04 C270.6 57.07, 267.45 63.33, 256.49 61.38 M256.49 61.38 C197.08 63.2, 141.21 62.8, 15.35 61.38 M256.49 61.38 C191.54 60.7, 125.77 60.88, 15.35 61.38 M15.35 61.38 C7.08 59.98, 1.5 58.13, 0 46.04 M15.35 61.38 C7.06 60.18, -1.16 55.7, 0 46.04 M0 46.04 C0.23 39.12, 0.42 28.18, 0 15.35 M0 46.04 C-0.76 36.56, -0.07 28.54, 0 15.35 M0 15.35 C0.55 4.54, 6.35 -1.52, 15.35 0 M0 15.35 C-0.51 7.36, 2.92 1.24, 15.35 0" stroke="#000000" stroke-width="2" fill="none"></path></g><g stroke-opacity="0.7" fill-opacity="0.7" transform="translate(85.48348623853303 133.99357798165147) rotate(0 62.843119266055055 12.66605504587153)"><text x="62.84311926605505" y="17.332110091743104" font-family="Virgil, Segoe UI Emoji" font-size="19.486238532110097px" fill="#000000" text-anchor="middle" style="white-space: pre;" direction="ltr">Fuse modules</text></g><g stroke-opacity="0.6" fill-opacity="0.6" stroke-linecap="round" transform="translate(15.358715596329148 214.11834862385285) rotate(0 135.91651376146797 30.690825688073346)"><path d="M13.69 0.84 L259.48 1.83 L269.05 4.33 L270 9.68 L272.86 48.87 L267.8 57.27 L261.74 58.46 L258.05 62.15 L11.81 60.9 L7.12 59.48 L-0.46 51.92 L1.79 16.51 L-0.57 9.59 L3.31 3.22 L10.3 2.67 L16.02 1.71" stroke="none" stroke-width="0" fill="#82c91e"></path><path d="M15.35 0 M15.35 0 C108.4 1.01, 203.41 0, 256.49 0 M15.35 0 C91.29 -0.74, 167.21 -0.71, 256.49 0 M256.49 0 C268.07 1.48, 271.1 5.05, 271.83 15.35 M256.49 0 C267.14 -0.16, 272.51 6.9, 271.83 15.35 M271.83 15.35 C271.48 27.1, 273.22 33.62, 271.83 46.04 M271.83 15.35 C272.19 26.8, 271.76 39.86, 271.83 46.04 M271.83 46.04 C272.71 54.73, 264.8 59.51, 256.49 61.38 M271.83 46.04 C270.87 58.31, 265.15 60.09, 256.49 61.38 M256.49 61.38 C178.12 61.66, 101.47 61.54, 15.35 61.38 M256.49 61.38 C186.33 62.67, 117.08 63.2, 15.35 61.38 M15.35 61.38 C5.2 60.24, 1.6 57.08, 0 46.04 M15.35 61.38 C7.18 63.39, -2.19 57.4, 0 46.04 M0 46.04 C-1.15 35.21, -0.61 26.84, 0 15.35 M0 46.04 C-0.21 36.66, 0.7 26.01, 0 15.35 M0 15.35 C-1.86 3.44, 4.56 0.74, 15.35 0 M0 15.35 C2.05 4.14, 4.89 1.68, 15.35 0" stroke="#000000" stroke-width="2" fill="none"></path></g><g stroke-opacity="0.7" fill-opacity="0.7" transform="translate(26.563302752293566 234.57889908256857) rotate(0 123.73761467889909 12.66605504587153)"><text x="123.7376146788991" y="17.332110091743104" font-family="Virgil, Segoe UI Emoji" font-size="19.486238532110097px" fill="#000000" text-anchor="middle" style="white-space: pre;" direction="ltr">Insert stubs &amp; observers</text></g><g stroke-opacity="0.6" fill-opacity="0.6" stroke-linecap="round" transform="translate(343.08348623853203 15.309174311926654) rotate(0 135.91651376146797 121.19082568807335)"><path d="M59.03 0.08 L219.82 -1.1 L231.5 3.06 L241.23 4.01 L251.08 12.36 L261.05 20.96 L269.38 35.11 L272.01 53.46 L272.57 188.85 L270.31 203.82 L267.71 215.25 L260.3 224.37 L250.83 230.36 L236.09 239.22 L218.95 243.89 L62.52 243.08 L46.99 241.86 L26.84 236.3 L18.08 229.39 L13.05 223.27 L5.09 208.19 L-0.88 190.16 L1.7 59.05 L2.72 41.98 L8.41 24.76 L20.77 11.33 L33.67 4.94 L46.19 -0.36 L59.01 0.62" stroke="none" stroke-width="0" fill="#fab005"></path><path d="M60.6 0 M60.6 0 C91.03 -3.4, 121.3 0.03, 211.24 0 M60.6 0 C110.61 -0.26, 160.55 1.21, 211.24 0 M211.24 0 C251.72 0.67, 271.22 18.34, 271.83 60.6 M211.24 0 C253.41 -0.63, 271.6 18.49, 271.83 60.6 M271.83 60.6 C272.67 94.27, 271.16 133.61, 271.83 181.79 M271.83 60.6 C271.66 89.03, 273.02 119.59, 271.83 181.79 M271.83 181.79 C271.36 223.77, 253.4 242.27, 211.24 242.38 M271.83 181.79 C270.22 221.66, 252.8 240.6, 211.24 242.38 M211.24 242.38 C160.24 241.08, 112.9 243.63, 60.6 242.38 M211.24 242.38 C172.55 243.9, 132.75 243.45, 60.6 242.38 M60.6 242.38 C22.13 242.18, -1.32 222.92, 0 181.79 M60.6 242.38 C18.4 244.44, 0.7 223.48, 0 181.79 M0 181.79 C-0.04 148.32, 0.6 117.85, 0 60.6 M0 181.79 C0.03 142.18, -0.69 102.02, 0 60.6 M0 60.6 C-1.29 19.11, 18.89 1.1, 60.6 0 M0 60.6 C-1.95 21.19, 18.01 -1.22, 60.6 0" stroke="#000000" stroke-width="2" fill="none"></path></g><g stroke-opacity="0.7" fill-opacity="0.7" transform="translate(393.97431192660633 82.7954128440374) rotate(0 83.91666666666663 57)"><text x="83.91666666666667" y="40.00000000000004" font-family="Virgil, Segoe UI Emoji" font-size="44.33333333333335px" fill="#000000" text-anchor="middle" style="white-space: pre;" direction="ltr">Training</text><text x="83.91666666666667" y="97.00000000000009" font-family="Virgil, Segoe UI Emoji" font-size="44.33333333333335px" fill="#000000" text-anchor="middle" style="white-space: pre;" direction="ltr">data</text></g><g stroke-opacity="0.6" fill-opacity="0.6" stroke-linecap="round" transform="translate(127.08348623853362 317.5027226990205) rotate(0 188.91651376146706 42.65856762355702)"><path d="M22.98 1.26 L359.53 1.28 L371.42 3.43 L375.55 13.51 L375.89 21.75 L378.77 67 L374.1 79.95 L367.12 82.89 L357.23 84.01 L17.63 85.5 L6.5 81.46 L0.44 74.4 L1.28 64.76 L-1.91 20.09 L1.32 13.92 L6.58 6.95 L12.82 3.2 L22.47 1.59" stroke="none" stroke-width="0" fill="#82c91e"></path><path d="M21.33 0 M21.33 0 C137.54 -0.87, 252.77 -1.24, 356.5 0 M21.33 0 C127.56 1.78, 233.42 1.06, 356.5 0 M356.5 0 C370.18 0.77, 376.89 7.97, 377.83 21.33 M356.5 0 C370.15 -1.66, 376.74 7.92, 377.83 21.33 M377.83 21.33 C377.21 37.03, 375.92 51.79, 377.83 63.99 M377.83 21.33 C378.2 33.31, 377.27 47.06, 377.83 63.99 M377.83 63.99 C377.25 77.69, 370.05 85.55, 356.5 85.32 M377.83 63.99 C376.06 76.32, 369.87 86.86, 356.5 85.32 M356.5 85.32 C250.73 85.18, 144.45 83.26, 21.33 85.32 M356.5 85.32 C249.5 84.77, 140.72 85.07, 21.33 85.32 M21.33 85.32 C8.77 85.76, 1.55 78.15, 0 63.99 M21.33 85.32 C7.53 86.34, -1.15 75.98, 0 63.99 M0 63.99 C0.29 50.55, -1.82 40.02, 0 21.33 M0 63.99 C-0.71 51.98, -0.05 37.42, 0 21.33 M0 21.33 C-0.17 5.18, 6 -0.58, 21.33 0 M0 21.33 C1.5 4.97, 5.68 1.15, 21.33 0" stroke="#000000" stroke-width="2" fill="none"></path></g><g stroke-opacity="0.7" fill-opacity="0.7" transform="translate(181.64575975798778 345.94176778139786) rotate(0 134 17.5)"><text x="134" y="24" font-family="Virgil, Segoe UI Emoji" font-size="27.08480484035369px" fill="#000000" text-anchor="middle" style="white-space: pre;" direction="ltr">Training / Finetuning</text></g><g stroke-opacity="0.6" fill-opacity="0.6" stroke-linecap="round" transform="translate(131.08348623853294 448.34143237644275) rotate(0 188.91651376146706 42.65856762355702)"><path d="M20.01 1.79 L360.05 -0.16 L367.74 1.05 L375.96 12.43 L377.27 22.8 L379.25 70.96 L373.65 80.91 L364.2 85.69 L357.4 85.54 L18.19 84.12 L9.1 82.36 L-0.3 74.98 L1.45 63.99 L1.63 19.91 L1.54 12.59 L4.29 4.44 L12.93 2.58 L22.61 -1.63" stroke="none" stroke-width="0" fill="#82c91e"></path><path d="M21.33 0 M21.33 0 C122.85 -0.78, 224.47 -2.23, 356.5 0 M21.33 0 C106.29 0.23, 191.59 0.28, 356.5 0 M356.5 0 C371.45 -0.21, 376.92 7.45, 377.83 21.33 M356.5 0 C372.58 -2.07, 375.73 6.88, 377.83 21.33 M377.83 21.33 C378.03 36.59, 377.31 47.05, 377.83 63.99 M377.83 21.33 C378.2 38.07, 378.73 52.35, 377.83 63.99 M377.83 63.99 C376.53 78.47, 370 83.46, 356.5 85.32 M377.83 63.99 C378.35 78.38, 369.7 85.83, 356.5 85.32 M356.5 85.32 C239.67 84.38, 122.26 84.15, 21.33 85.32 M356.5 85.32 C230.96 88.09, 106.84 87.96, 21.33 85.32 M21.33 85.32 C5.41 85.9, 1.29 77.28, 0 63.99 M21.33 85.32 C5.06 84.33, -0.76 79.84, 0 63.99 M0 63.99 C-1.54 48.98, 0.1 33.96, 0 21.33 M0 63.99 C-0.21 51.1, 0.2 36.93, 0 21.33 M0 21.33 C-1.82 5.83, 6.27 0.22, 21.33 0 M0 21.33 C-0.25 5.96, 7.09 -1.39, 21.33 0" stroke="#000000" stroke-width="2" fill="none"></path></g><g stroke-opacity="0.7" fill-opacity="0.7" transform="translate(237.6457597579871 476.7804774588203) rotate(0 85 17.5)"><text x="85" y="24" font-family="Virgil, Segoe UI Emoji" font-size="27.08480484035369px" fill="#000000" text-anchor="middle" style="white-space: pre;" direction="ltr">Quantization</text></g><g stroke-opacity="0.6" fill-opacity="0.6" stroke-linecap="round" transform="translate(137.08348623853294 577.3414323764428) rotate(0 188.91651376146706 42.65856762355702)"><path d="M22.31 -0.31 L361.3 -1.63 L367.77 4.19 L375.74 13.2 L376.38 19.62 L378.72 68.63 L372.15 80.22 L367.61 85.64 L357.81 86.19 L18.19 86.1 L7.51 82.95 L2.65 72.83 L-1.18 64.53 L0.91 21.26 L3.03 12.22 L5.64 6.37 L11.16 1.24 L21.41 -0.91" stroke="none" stroke-width="0" fill="#228be6"></path><path d="M21.33 0 M21.33 0 C98.31 0.95, 172.03 0.04, 356.5 0 M21.33 0 C105.99 -0.15, 191.75 -0.09, 356.5 0 M356.5 0 C368.8 1.87, 378.71 6.49, 377.83 21.33 M356.5 0 C370.74 0.48, 377.2 8.08, 377.83 21.33 M377.83 21.33 C378.05 35.15, 378.57 52.19, 377.83 63.99 M377.83 21.33 C377.14 32.56, 377.63 42.68, 377.83 63.99 M377.83 63.99 C378.83 78.92, 370.9 86.86, 356.5 85.32 M377.83 63.99 C378.51 76.46, 369.57 86.81, 356.5 85.32 M356.5 85.32 C258.7 85.73, 158.02 85.52, 21.33 85.32 M356.5 85.32 C238.2 87.36, 119.4 86.8, 21.33 85.32 M21.33 85.32 C6.67 85.76, 1.83 78.86, 0 63.99 M21.33 85.32 C5.48 83.16, 0.08 76.85, 0 63.99 M0 63.99 C-1.38 50.19, -1.51 36.6, 0 21.33 M0 63.99 C-0.57 53.66, 0.08 42.4, 0 21.33 M0 21.33 C0.48 8.92, 7.37 0.76, 21.33 0 M0 21.33 C1.93 4.91, 6.17 0.35, 21.33 0" stroke="#000000" stroke-width="2" fill="none"></path></g><g stroke-opacity="0.7" fill-opacity="0.7" transform="translate(251.6457597579871 605.7804774588203) rotate(0 73 17.5)"><text x="73" y="24" font-family="Virgil, Segoe UI Emoji" font-size="27.08480484035369px" fill="#000000" text-anchor="middle" style="white-space: pre;" direction="ltr">QAT Model</text></g><g stroke-linecap="round"><g transform="translate(149 81) rotate(0 1 25)"><path d="M0 0 C0.33 8.33, 1.67 41.67, 2 50 M0 0 C0.33 8.33, 1.67 41.67, 2 50" stroke="#000000" stroke-width="2" fill="none"></path></g><g transform="translate(149 81) rotate(0 1 25)"><path d="M-7.49 26.85 C-5.27 32.26, -3.05 37.67, 2 50 M-7.49 26.85 C-5.06 32.78, -2.63 38.7, 2 50" stroke="#000000" stroke-width="2" fill="none"></path></g><g transform="translate(149 81) rotate(0 1 25)"><path d="M9.61 26.17 C7.83 31.74, 6.05 37.31, 2 50 M9.61 26.17 C7.66 32.27, 5.71 38.37, 2 50" stroke="#000000" stroke-width="2" fill="none"></path></g></g><g stroke-linecap="round"><g transform="translate(152 170) rotate(0 1 25)"><path d="M0 0 C0.33 8.33, 1.67 41.67, 2 50 M0 0 C0.33 8.33, 1.67 41.67, 2 50" stroke="#000000" stroke-width="2" fill="none"></path></g><g transform="translate(152 170) rotate(0 1 25)"><path d="M-7.49 26.85 C-5.03 32.84, -2.58 38.83, 2 50 M-7.49 26.85 C-4.48 34.19, -1.47 41.53, 2 50" stroke="#000000" stroke-width="2" fill="none"></path></g><g transform="translate(152 170) rotate(0 1 25)"><path d="M9.61 26.17 C7.64 32.33, 5.67 38.5, 2 50 M9.61 26.17 C7.2 33.73, 4.78 41.28, 2 50" stroke="#000000" stroke-width="2" fill="none"></path></g></g><g stroke-linecap="round"><g transform="translate(151 283) rotate(0 69.5 21.5)"><path d="M0 0 C23.17 7.17, 115.83 35.83, 139 43 M0 0 C23.17 7.17, 115.83 35.83, 139 43" stroke="#000000" stroke-width="2" fill="none"></path></g><g transform="translate(151 283) rotate(0 69.5 21.5)"><path d="M109.04 44.47 C116.15 44.12, 123.26 43.77, 139 43 M109.04 44.47 C116.77 44.09, 124.51 43.71, 139 43" stroke="#000000" stroke-width="2" fill="none"></path></g><g transform="translate(151 283) rotate(0 69.5 21.5)"><path d="M115.1 24.87 C120.77 29.17, 126.45 33.47, 139 43 M115.1 24.87 C121.27 29.55, 127.44 34.23, 139 43" stroke="#000000" stroke-width="2" fill="none"></path></g></g><g stroke-linecap="round"><g transform="translate(473.35368964778263 256.5593449465341) rotate(0 -49.86277318741918 28.756951788201604)"><path d="M0 0 C-16.62 9.59, -83.1 47.93, -99.73 57.51 M0 0 C-16.62 9.59, -83.1 47.93, -99.73 57.51" stroke="#000000" stroke-width="2" fill="none"></path></g><g transform="translate(473.35368964778263 256.5593449465341) rotate(0 -49.86277318741918 28.756951788201604)"><path d="M-80.43 34.54 C-84.3 39.15, -88.17 43.76, -99.73 57.51 M-80.43 34.54 C-86.38 41.62, -92.32 48.7, -99.73 57.51" stroke="#000000" stroke-width="2" fill="none"></path></g><g transform="translate(473.35368964778263 256.5593449465341) rotate(0 -49.86277318741918 28.756951788201604)"><path d="M-70.18 52.32 C-76.11 53.36, -82.03 54.4, -99.73 57.51 M-70.18 52.32 C-79.29 53.92, -88.39 55.52, -99.73 57.51" stroke="#000000" stroke-width="2" fill="none"></path></g></g><g stroke-linecap="round"><g transform="translate(316.75414839827226 395.9282345093179) rotate(0 0.6229258008638681 28.53588274534104)"><path d="M0 0 C0.21 9.51, 1.04 47.56, 1.25 57.07 M0 0 C0.21 9.51, 1.04 47.56, 1.25 57.07" stroke="#000000" stroke-width="2" fill="none"></path></g><g transform="translate(316.75414839827226 395.9282345093179) rotate(0 0.6229258008638681 28.53588274534104)"><path d="M-9.1 30.47 C-6.51 37.13, -3.92 43.79, 1.25 57.07 M-9.1 30.47 C-5.53 39.65, -1.96 48.82, 1.25 57.07" stroke="#000000" stroke-width="2" fill="none"></path></g><g transform="translate(316.75414839827226 395.9282345093179) rotate(0 0.6229258008638681 28.53588274534104)"><path d="M10.42 30.04 C8.12 36.81, 5.83 43.58, 1.25 57.07 M10.42 30.04 C7.26 39.37, 4.09 48.69, 1.25 57.07" stroke="#000000" stroke-width="2" fill="none"></path></g></g><g stroke-linecap="round"><g transform="translate(324.01892335775574 519) rotate(0 -0.006633355104213479 36.5)"><path d="M0 0 C0 12.17, -0.01 60.83, -0.01 73 M0 0 C0 12.17, -0.01 60.83, -0.01 73" stroke="#000000" stroke-width="2" fill="none"></path></g><g transform="translate(324.01892335775574 519) rotate(0 -0.006633355104213479 36.5)"><path d="M-10.27 44.81 C-6.28 55.78, -2.29 66.75, -0.01 73 M-10.27 44.81 C-6.72 54.55, -3.18 64.29, -0.01 73" stroke="#000000" stroke-width="2" fill="none"></path></g><g transform="translate(324.01892335775574 519) rotate(0 -0.006633355104213479 36.5)"><path d="M10.25 44.81 C6.26 55.78, 2.26 66.75, -0.01 73 M10.25 44.81 C6.71 54.55, 3.16 64.29, -0.01 73" stroke="#000000" stroke-width="2" fill="none"></path></g></g></svg>