<svg xmlns="http://www.w3.org/2000/svg" role="img" viewBox="11.78 11.78 76.31 76.31"><path fill="#E12353" d="M46.6666 46.6667H13.3333V13.3333h33.3333v33.3334zM19.9999 40h20V20h-20v20zm26.6667 46.6667H13.3333V53.3333h33.3333v33.3334zM19.9999 80h20V60h-20v20zm66.6667-33.3333H53.3333V13.3333h33.3333v33.3334zM59.9999 40h20V20h-20v20zm26.6667 46.6667H53.3333V53.3333h33.3333v33.3334zM59.9999 80h20V60h-20v20z"/><path fill="#E12353" d="M56.6666 26.6667H43.3333v6.6666h13.3333v-6.6666zm0 40H43.3333v6.6666h13.3333v-6.6666zm16.6668-23.3334h-6.6667v13.3334h6.6667V43.3333zm-40 0h-6.6667v13.3334h6.6667V43.3333z"/></svg>