<svg xmlns="http://www.w3.org/2000/svg" role="img" viewBox="-1.37 -2.00 74.62 103.87"><g clip-path="url(#clip0_14_242)"><path fill="#F2765D" d="M36.0001 0C16.5227 0 .67749 15.8452.67749 35.3226c0 12.2043 6.23742 23.4064 16.45161 29.858v21.5936H54.871V65.1806c10.2142-6.4516 16.4517-17.6537 16.4517-29.858C71.3227 15.8452 55.4775 0 36.0001 0zm12.2462 58.585l-2.4076 1.2709v17.886H26.1613V59.857l-2.4077-1.271C15.0918 54.0144 9.70954 45.1011 9.70954 35.3237c0-14.4957 11.79466-26.29037 26.29036-26.29037S62.2902 20.828 62.2902 35.3237c0 9.7757-5.3818 18.6892-14.0441 23.2602l.0002.0011zM26.1614 100h19.6774v-9.0323H26.1614V100z"/></g><defs><clipPath id="clip0_14_242"><path fill="#fff" d="M0 0h70.645v100H0z" transform="translate(.677)"/></clipPath></defs></svg>