<svg width="18" height="22" viewBox="0 0 18 22" fill="none" xmlns="http://www.w3.org/2000/svg">
<path d="M15.3247 6.52632L13.7439 8.1071C16.3643 10.7276 16.3643 14.9744 13.7439 17.5933C11.1249 20.2138 6.87659 20.2138 4.25766 17.5933C1.63721 14.9744 1.63721 10.726 4.25766 8.1071H4.25614L8.43457 3.92715L8.99849 3.36323H9.00001V0.203186L2.67536 6.52784C-0.817566 10.0208 -0.817566 15.6842 2.67536 19.1771C6.16828 22.6701 11.8317 22.6701 15.3247 19.1771C18.8176 15.6842 18.8176 10.0208 15.3247 6.52784" fill="#DE3412"/>
<path d="M12.9808 5.76941C13.4353 5.31494 13.4353 4.57927 12.9808 4.12479C12.5264 3.67032 11.7907 3.67032 11.3362 4.12479C10.8817 4.57927 10.8817 5.31494 11.3362 5.76941C11.7907 6.22389 12.5264 6.22389 12.9808 5.76941Z" fill="#DE3412"/>
</svg>
