<svg xmlns="http://www.w3.org/2000/svg" role="img" viewBox="-1.71 -2.33 121.29 104.54"><g fill="#DE3412" clip-path="url(#clip0_14_217)"><path d="M89.3838 49.9995c-.0454.8839-.4506 1.8421-1.1738 2.7719-4.4689 5.6859-16.3604 16.4737-29.2953 16.4737-12.9327 0-24.8268-10.7857-29.3088-16.4894-.7245-.9201-1.1297-1.8727-1.1752-2.7556.0472-.8826.452-1.8338 1.1765-2.7584 4.4806-5.7003 16.3727-16.486 29.2942-16.486 12.9449 0 24.8413 10.7857 29.3232 16.4883.7092.9149 1.1145 1.8705 1.1604 2.7556M58.9147 75.8902c6.7454 0 14.0104-2.3874 21.01-6.9082 5.075-3.2757 10.129-7.8069 13.5151-12.1196 1.6328-2.1027 2.5207-4.443 2.5814-6.7766a3.90422 3.90422 0 0 0 0-.1745c-.0602-2.3349-.9485-4.6756-2.5691-6.7617-3.3993-4.3263-8.4546-8.8566-13.5364-12.1342-7.0017-4.5181-14.2686-6.9082-21.0144-6.9082-6.7402 0-13.9993 2.3887-20.9955 6.9095-5.0751 3.2758-10.1277 7.807-13.5152 12.1174-1.6394 2.0905-2.5356 4.4338-2.597 6.7793-.0013.059-.0013.118 0 .1745.0615 2.3472.9577 4.69 2.5931 6.7739 3.3915 4.3153 8.4464 8.8471 13.5207 12.1219 6.997 4.5208 14.2631 6.9082 21.0067 6.9082"/><path d="M54.2125 54.7085c2.5959 2.5996 6.8057 2.5996 9.4032 0 2.5958-2.6008 2.5958-6.8168 0-9.4181-2.5971-2.5996-6.8082-2.5996-9.4032 0-2.5983 2.6013-2.5983 6.8173 0 9.4181zm-3.8487-13.2716c4.7239-4.729 12.3782-4.729 17.1005 0 4.7221 4.7307 4.7221 12.395 0 17.123-4.7221 4.7308-12.3771 4.7308-17.1005 0-4.7225-4.728-4.7225-12.3939 0-17.123zM94.8371 5.90977l4.2286 4.23473-11.6992 11.7161-4.2286-4.2347L94.8371 5.90977zM17.2719 47.0052v5.9887H.72672v-5.9887H17.2719zm100.0011 0v5.9887h-16.545v-5.9887h16.545zM99.0666 89.8569l-4.2286 4.2347-11.6992-11.7162 4.2286-4.2347 11.6992 11.7162zM61.4614 100h-5.9801V83.4309h5.9801V100zm0-83.4308h-5.9801V.00001h5.9801V16.5692zm-26.2898 1.0567l-4.2286 4.2347-11.6992-11.7161 4.2286-4.23472L35.1716 17.6259zm-4.2295 60.5148l4.2286 4.2347-11.6992 11.7162-4.2286-4.2347 11.6992-11.7162z"/></g><defs><clipPath id="clip0_14_217"><path fill="#fff" d="M0 0h116.547v100H0z" transform="matrix(-1 0 0 1 117.273 0)"/></clipPath></defs></svg>