<svg xmlns="http://www.w3.org/2000/svg" viewBox="0 0 20 20">
	<g transform="translate(-115 -55)">
		<circle fill="#f5f5f5" cx="10" cy="10" r="10" transform="translate(115 55)"/>
		<path d="M96.829,94.845a6.334,6.334,0,1,1,5.425,11.355.369.369,0,0,1-.482-.327c0-.548,0-1.1,0-1.644a1.681,1.681,0,0,0-.338-1.157,3.689,3.689,0,0,0,2.137-1.017,2.8,2.8,0,0,0,.692-1.929,2.867,2.867,0,0,0-.644-1.961,3.726,3.726,0,0,0,.042-1.247.652.652,0,0,0-.186-.379,1.052,1.052,0,0,0-.61.044,4.528,4.528,0,0,0-1.085.583,7.607,7.607,0,0,0-3.161,0,4.3,4.3,0,0,0-1.148-.6.988.988,0,0,0-.551-.025.8.8,0,0,0-.2.5,4.178,4.178,0,0,0,.063,1.122,3.171,3.171,0,0,0,.028,3.868,3.648,3.648,0,0,0,2.154,1.038,1.386,1.386,0,0,0-.314.777,3.5,3.5,0,0,1-.832.143,1.248,1.248,0,0,1-.945-.617,3,3,0,0,0-.474-.58.839.839,0,0,0-.764-.077.18.18,0,0,0-.089.086,3.207,3.207,0,0,1,.679.562c.2.24.263.555.435.811a1.335,1.335,0,0,0,1.036.627,3.9,3.9,0,0,0,.93-.09c0,.385,0,.77,0,1.155a.37.37,0,0,1-.48.329,6.332,6.332,0,0,1-1.317-11.352Z" transform="translate(24.801 -35.205)"/>
	</g>
</svg>