<?xml version="1.0" encoding="utf-8"?>
<!-- Generator: Adobe Illustrator 22.1.0, SVG Export Plug-In . SVG Version: 6.00 Build 0)  -->
<svg version="1.1" id="Layer_1" xmlns="http://www.w3.org/2000/svg" xmlns:xlink="http://www.w3.org/1999/xlink" x="0px" y="0px"
	 viewBox="0 0 199.7 40.2" style="enable-background:new 0 0 199.7 40.2;" xml:space="preserve">
<style type="text/css">
	.st0{fill:#EE4C2C;}
	.st1{fill:#FFFFFF;}
</style>
<g>
	<path class="st0" d="M21,9.2l-2.2,2.2c3.6,3.6,3.6,9.4,0,12.9c-3.6,3.6-9.4,3.6-12.9,0c-3.6-3.6-3.6-9.4,0-12.9l0,0l5.7-5.7
		l0.8-0.8l0,0V0.6L3.8,9.2C-1,14-1,21.7,3.8,26.5s12.5,4.8,17.2,0C25.8,21.7,25.8,14,21,9.2z"/>
	<circle class="st0" cx="16.7" cy="7.1" r="1.6"/>
</g>
<g>
	<g>
		<path class="st1" d="M43.2,20.2l-3.7,0v9.5h-2.8v-27c0,0,6.4,0,6.8,0c7.1,0,10.5,3.5,10.5,8.4C54.1,17.1,49.9,20.2,43.2,20.2z
			 M43.5,5.4c-0.3,0-3.9,0-3.9,0v12.4l3.8-0.1c5.1-0.1,7.9-2.1,7.9-6.3C51.3,7.5,48.5,5.4,43.5,5.4z"/>
		<path class="st1" d="M66.5,29.6l-1.6,4.3c-1.8,4.8-3.7,6.2-6.4,6.2c-1.5,0-2.6-0.4-3.8-0.9l0.8-2.5c0.9,0.5,1.9,0.9,3,0.9
			c1.5,0,2.6-0.8,4.1-4.6l1.3-3.5L56.2,10h2.9l6.2,16.3L71.4,10h2.8L66.5,29.6z"/>
		<path class="st1" d="M83.3,5.4v24.4h-2.8V5.4h-9.5V2.8h21.7v2.6H83.3z"/>
		<path class="st1" d="M100.6,30.3c-5.5,0-9.5-4.1-9.5-10.4c0-6.3,4.2-10.5,9.8-10.5s9.5,4.1,9.5,10.4
			C110.3,26.1,106.1,30.3,100.6,30.3z M100.7,11.9c-4.2,0-6.9,3.3-6.9,8c0,4.8,2.8,8.1,7,8.1c4.2,0,6.9-3.3,6.9-8
			C107.7,15.1,104.9,11.9,100.7,11.9z"/>
		<path class="st1" d="M117.1,29.8h-2.7V10l2.7-0.6v4.2c1.3-2.5,3.2-4.2,5.8-4.2c1.3,0,2.5,0.4,3.5,0.9l-0.7,2.5
			c-0.9-0.5-1.9-0.9-3-0.9c-2.1,0-4,1.6-5.6,5.1V29.8z"/>
		<path class="st1" d="M136.9,30.3c-6,0-9.7-4.3-9.7-10.4c0-6.2,4.1-10.5,9.7-10.5c2.4,0,4.5,0.6,6.2,1.7l-0.7,2.4
			c-1.5-1-3.4-1.6-5.5-1.6c-4.3,0-6.9,3.2-6.9,7.9c0,4.8,2.8,8,7,8c2,0,4-0.6,5.5-1.6l0.6,2.5C141.3,29.7,139.2,30.3,136.9,30.3z"/>
		<path class="st1" d="M159.6,29.8V17c0-3.5-1.4-5-4.2-5c-2.3,0-4.5,1.2-6.1,2.8v15h-2.7V0.7l2.7-0.6c0,0,0,12.4,0,12.5
			c2.1-2.1,4.7-3.1,6.9-3.1c3.8,0,6.2,2.5,6.2,6.8v13.5H159.6z"/>
	</g>
</g>
</svg>
