<svg xmlns="http://www.w3.org/2000/svg" viewBox="0 0 20 20">
	<g transform="translate(-85 -145)">
		<circle fill="#f5f5f5" cx="10" cy="10" r="10" transform="translate(85 145)"/>
		<path d="M123.692,136.651a1.993,1.993,0,0,1,1.314.075,2.4,2.4,0,0,1,.829.6,5.034,5.034,0,0,0,1.416-.581,2.4,2.4,0,0,1-.955,1.291,3.409,3.409,0,0,0,1.247-.377,4.94,4.94,0,0,1-1.161,1.325,7.689,7.689,0,0,1-.412,2.659,6.8,6.8,0,0,1-2.036,3,5.793,5.793,0,0,1-3.329,1.326,5.853,5.853,0,0,1-3.834-1.056,4.253,4.253,0,0,0,3.232-.968,2.01,2.01,0,0,1-1.409-.575,2.459,2.459,0,0,1-.634-1.046,2.128,2.128,0,0,0,1-.047,2.293,2.293,0,0,1-1.391-1.046,2.534,2.534,0,0,1-.36-1.326,2.015,2.015,0,0,0,.988.289,2.385,2.385,0,0,1-.931-1.689,2.472,2.472,0,0,1,.275-1.474,6.527,6.527,0,0,0,2.172,1.821,5.864,5.864,0,0,0,2.369.638,2.745,2.745,0,0,1,.255-1.729A2.238,2.238,0,0,1,123.692,136.651Z" transform="translate(-27.209 13.761)"/>
	</g>
</svg>