<svg enable-background="new 0 0 199.7 40.2" viewBox="0 0 199.7 40.2" xmlns="http://www.w3.org/2000/svg"><path d="m40.8 9.3-2.1 2.1c3.5 3.5 3.5 9.2 0 12.7s-9.2 3.5-12.7 0-3.5-9.2 0-12.7l5.6-5.6.7-.8v-4.2l-8.5 8.5c-4.7 4.7-4.7 12.2 0 16.9s12.2 4.7 16.9 0c4.8-4.7 4.8-12.3.1-16.9z" fill="#ee4c2c"/><circle cx="36.6" cy="7.1" fill="#ee4c2c" r="1.6"/><g fill="#252525"><path d="m62.6 20h-3.6v9.3h-2.7v-26.4h6.6c7 0 10.3 3.4 10.3 8.3 0 5.8-4.1 8.7-10.6 8.8zm.2-14.6c-.3 0-3.9 0-3.9 0v12.1l3.8-.1c5-.1 7.7-2.1 7.7-6.2 0-3.7-2.6-5.8-7.6-5.8z"/><path d="m85.4 29.2-1.6 4.2c-1.8 4.7-3.6 6.1-6.3 6.1-1.5 0-2.6-.4-3.8-.9l.8-2.4c.9.5 1.9.8 3 .8 1.5 0 2.6-.8 4-4.5l1.3-3.4-7.5-19.1h2.8l6.1 16 6-16h2.7z"/><path d="m101.9 5.5v23.9h-2.7v-23.9h-9.3v-2.6h21.3v2.5h-9.3z"/><path d="m118.8 29.9c-5.4 0-9.4-4-9.4-10.2s4.1-10.3 9.6-10.3c5.4 0 9.3 4 9.3 10.2s-4.1 10.3-9.5 10.3zm.1-18.1c-4.1 0-6.8 3.3-6.8 7.8 0 4.7 2.8 7.9 6.9 7.9s6.8-3.3 6.8-7.8c0-4.7-2.8-7.9-6.9-7.9z"/><path d="m135 29.4h-2.6v-19.4l2.6-.5v4.1c1.3-2.5 3.2-4.1 5.7-4.1 1.3 0 2.5.4 3.4.9l-.7 2.5c-.8-.5-1.9-.8-3-.8-2 0-3.9 1.5-5.5 5v12.3z"/><path d="m154.4 29.9c-5.8 0-9.5-4.2-9.5-10.2 0-6.1 4-10.3 9.5-10.3 2.4 0 4.4.6 6.1 1.7l-.7 2.4c-1.5-1-3.3-1.6-5.4-1.6-4.2 0-6.8 3.1-6.8 7.7 0 4.7 2.8 7.8 6.9 7.8 1.9 0 3.9-.6 5.4-1.6l.5 2.4c-1.7 1.1-3.8 1.7-6 1.7z"/><path d="m176.7 29.4v-12.5c0-3.4-1.4-4.9-4.1-4.9-2.2 0-4.4 1.1-6 2.8v14.7h-2.6v-28.6l2.6-.5v12.2c2-2 4.6-3.1 6.7-3.1 3.8 0 6.1 2.4 6.1 6.6v13.3z"/></g></svg>