<svg height="220.97278" viewBox="0 0 404.04837 220.97278" width="404.04837" xmlns="http://www.w3.org/2000/svg" xmlns:xlink="http://www.w3.org/1999/xlink"><clipPath id="a"><path d="m59.04 73.44h702.72v479.52h-702.72z"/></clipPath><path d="m0 0h792v612h-792z" fill="#fff" transform="matrix(1.3333333 0 0 -1.3333333 636.51282127542 1315.16075889882)"/><g clip-path="url(#a)" transform="matrix(.37626043059 0 0 -.4118147497 48.436406644 225.52113280647)"><path d="m85.07 535.2 13.84-216.25 27.69-113.34 27.69-42.78 27.68-26.23 27.69-13.44 27.69-9.77 27.69-6.72 27.69-5.71 27.68-3.07 27.69-3.03 27.69-2.06 27.69-1.6 27.69 19.61 27.68-1.17 27.69-4.12 27.69-2.15 27.69.09 27.69-.77 27.68 4.24 27.69 16.79 27.69 3.79 27.69 16.36 27.69 31.36 27.68 60.87" style="fill:none;stroke:#000;stroke-width:.75;stroke-linecap:round;stroke-linejoin:round;stroke-miterlimit:10"/></g><g transform="matrix(.37626043059 0 0 -.4118147497 48.436406644 225.52113280647)"><g style="fill:none;stroke:#000;stroke-width:.75;stroke-linecap:round;stroke-linejoin:round;stroke-miterlimit:10"><path d="m71.22 73.44h553.76"/><path d="m71.22 73.44v-7.2"/><path d="m209.66 73.44v-7.2"/><path d="m348.1 73.44v-7.2"/><path d="m486.54 73.44v-7.2"/><path d="m624.98 73.44v-7.2"/></g><text font-family="Helvetica" font-size="12" transform="matrix(1 0 0 -1 67.89 47.52)"><tspan x="0" y="0">0</tspan></text><text font-family="Helvetica" font-size="12" transform="matrix(1 0 0 -1 202.99 47.52)"><tspan x="0 6.672" y="0">10</tspan></text><text font-family="Helvetica" font-size="12" transform="matrix(1 0 0 -1 341.43 47.52)"><tspan x="0 6.672" y="0">20</tspan></text><text font-family="Helvetica" font-size="12" transform="matrix(1 0 0 -1 479.87 47.52)"><tspan x="0 6.672" y="0">30</tspan></text><text font-family="Helvetica" font-size="12" transform="matrix(1 0 0 -1 618.31 47.52)"><tspan x="0 6.672" y="0">40</tspan></text><path d="m59.04 155.99v379.18" style="fill:none;stroke:#000;stroke-width:.75;stroke-linecap:round;stroke-linejoin:round;stroke-miterlimit:10"/><path d="m59.04 155.99h-7.2" style="fill:none;stroke:#000;stroke-width:.75;stroke-linecap:round;stroke-linejoin:round;stroke-miterlimit:10"/><path d="m59.04 250.79h-7.2" style="fill:none;stroke:#000;stroke-width:.75;stroke-linecap:round;stroke-linejoin:round;stroke-miterlimit:10"/><path d="m59.04 345.58h-7.2" style="fill:none;stroke:#000;stroke-width:.75;stroke-linecap:round;stroke-linejoin:round;stroke-miterlimit:10"/><path d="m59.04 440.37h-7.2" style="fill:none;stroke:#000;stroke-width:.75;stroke-linecap:round;stroke-linejoin:round;stroke-miterlimit:10"/><path d="m59.04 535.17h-7.2" style="fill:none;stroke:#000;stroke-width:.75;stroke-linecap:round;stroke-linejoin:round;stroke-miterlimit:10"/><text font-family="Helvetica" font-size="12" transform="matrix(0 1 1 0 41.76 147.65)"><tspan x="0 6.672 10.008" y="0">0.5</tspan></text><text font-family="Helvetica" font-size="12" transform="matrix(0 1 1 0 41.76 242.45)"><tspan x="0 6.672 10.008" y="0">1.0</tspan></text><text font-family="Helvetica" font-size="12" transform="matrix(0 1 1 0 41.76 337.24)"><tspan x="0 6.672 10.008" y="0">1.5</tspan></text><text font-family="Helvetica" font-size="12" transform="matrix(0 1 1 0 41.76 432.03)"><tspan x="0 6.672 10.008" y="0">2.0</tspan></text><text font-family="Helvetica" font-size="12" transform="matrix(0 1 1 0 41.76 526.83)"><tspan x="0 6.672 10.008" y="0">2.5</tspan></text><path d="m59.04 73.44h702.72v479.52h-702.72z" style="fill:none;stroke:#000;stroke-width:.75;stroke-linecap:round;stroke-linejoin:round;stroke-miterlimit:10"/></g><g font-family="Helvetica" font-size="12"><text transform="matrix(.37626043059 0 0 .4118147497 192.69089312924 217.811960692)"><tspan x="0 6.672 10.008 17.34 24.011999 28.007999 34.68 41.352001 48.023998" y="0"># Threads</tspan></text><text transform="matrix(0 -.4118147497 .37626043059 0 53.31274182449 104.6040859982)"><tspan x="0 7.332 9.996 19.992001 26.483999 29.82 33.155998" y="0">Time, s</tspan></text></g></svg>