<?xml version="1.0" standalone="no"?>
<svg version="1.0" xmlns="http://www.w3.org/2000/svg"
 height="26px" width="50px" viewBox="0 0 1000.000000 688.000000"
 preserveAspectRatio="xMidYMid meet">
<metadata>
Created by potrace 1.15, written by Peter Selinger 2001-2017
</metadata>
<g transform="translate(0.000000,688.000000) scale(0.100000,-0.100000)"
fill="#000000" stroke="none">
<path d="M3285 4790 c-3 -5 -24 -15 -45 -21 -22 -7 -40 -16 -40 -21 0 -4 -5
-8 -11 -8 -20 0 -132 -82 -184 -134 -28 -28 -67 -73 -86 -101 -35 -48 -89
-155 -89 -175 0 -6 -4 -10 -10 -10 -7 0 -10 -291 -10 -853 l0 -854 44 -87 c53
-104 80 -142 160 -222 72 -71 170 -135 246 -159 30 -10 63 -22 72 -26 10 -5
31 -9 48 -9 20 0 30 -5 30 -15 0 -13 77 -15 635 -15 l635 0 0 44 c0 25 -4 47
-9 50 -5 3 -12 27 -15 53 -8 50 -23 106 -36 134 -5 9 -11 41 -15 73 -4 31 -11
59 -16 62 -5 3 -9 13 -9 22 0 23 -43 41 -118 48 -34 4 -62 11 -62 15 0 5 -10
9 -22 9 -24 0 -174 29 -198 38 -8 3 -44 11 -80 18 -36 7 -85 17 -110 23 -25 6
-76 17 -115 25 -38 8 -90 20 -115 26 -25 5 -72 15 -105 21 -88 16 -141 43
-175 91 l-30 41 0 587 0 587 28 39 c31 42 54 56 117 74 40 12 54 15 195 45 41
9 93 20 115 25 67 15 188 41 220 46 17 3 37 8 45 12 8 3 44 11 80 18 36 7 85
17 110 22 25 5 74 15 110 22 82 16 110 29 110 51 0 10 4 20 9 23 4 3 11 27 15
53 5 41 16 83 34 133 5 14 26 101 39 163 l5 27 -695 0 c-440 0 -698 -4 -702
-10z"/>
<path d="M5280 4797 c0 -5 30 -137 50 -222 12 -49 26 -98 31 -107 5 -10 9 -29
9 -42 0 -29 22 -54 53 -60 60 -13 88 -18 152 -32 39 -8 102 -21 140 -29 39 -8
90 -19 115 -25 25 -6 74 -17 110 -24 36 -7 72 -15 80 -18 8 -4 29 -9 45 -12
41 -7 162 -33 210 -45 22 -6 62 -15 89 -20 62 -14 110 -50 136 -103 19 -40 20
-62 20 -598 0 -527 -1 -558 -19 -596 -33 -69 -98 -109 -190 -120 -34 -4 -64
-11 -67 -15 -3 -5 -20 -9 -38 -9 -18 0 -36 -3 -40 -7 -4 -5 -40 -14 -79 -21
-125 -22 -132 -23 -147 -30 -8 -3 -44 -11 -80 -18 -91 -18 -207 -42 -260 -55
-25 -6 -74 -16 -110 -23 -105 -21 -108 -23 -120 -75 -6 -25 -15 -62 -20 -81
-5 -19 -16 -60 -23 -90 -7 -30 -16 -62 -19 -70 -4 -8 -11 -40 -17 -70 -6 -30
-13 -65 -17 -77 l-6 -23 647 0 c571 0 646 2 641 15 -4 11 2 15 20 15 97 0 294
109 400 221 45 48 124 160 124 175 0 7 27 70 41 96 5 10 9 27 9 38 0 11 7 23
15 26 13 5 15 102 15 789 0 687 -2 784 -15 789 -8 3 -15 17 -15 31 0 14 -4 33
-10 43 -5 9 -21 44 -36 77 -51 111 -138 218 -239 290 -53 37 -147 88 -167 89
-4 1 -13 7 -19 14 -10 9 -165 12 -706 12 -381 0 -693 -1 -693 -3z"/>
<path d="M4550 3460 l0 -70 433 2 432 3 0 65 0 65 -432 3 -433 2 0 -70z"/>
</g>
</svg>
