<svg xmlns="http://www.w3.org/2000/svg" role="img" viewBox="3.35 9.66 53.23 40.61"><defs><style>.cls-1{fill:#000}</style></defs><path d="M31.29 22.89c1.27-1.27 3.33-1.27 4.59 0s1.26 3.32 0 4.59-3.33 1.27-4.59 0-1.26-3.32 0-4.59" class="cls-1"/><path d="M55.55 49.23l-17.28.03L16.1 27.25l.01-5.73 23.84 23.67 11.54-.02.04-22.68 4.07-4.07-.05 30.81z" class="cls-1"/><path d="M8.52 14.83l-.04 22.72-4.08 4.07.05-30.85 17.29-.03 8.64 8.57-2.88 2.88-7.45-7.38-11.53.02zm35.95 24.23l-7.81-7.75 2.86-2.9 4.96 4.92-.01 5.73z" class="cls-1"/></svg>