<?xml version="1.0" encoding="utf-8"?>
<!-- Generator: Adobe Illustrator 22.1.0, SVG Export Plug-In . SVG Version: 6.00 Build 0)  -->
<svg height="25px" width="25px" version="1.1" id="Layer_1" xmlns="http://www.w3.org/2000/svg" xmlns:xlink="http://www.w3.org/1999/xlink" x="0px" y="0px"
	 viewBox="0 0 1030 610" style="enable-background:new 0 0 1030 610;" xml:space="preserve">
<path d="M507.3,609.9c-2.4-0.1-4.9-0.3-7.3-0.4c-14-0.6-28-0.8-42-1.8c-13.1-0.9-26.1-2.4-39.2-3.9c-36-4.2-71.4-11.3-106.3-20.9
	c-57-15.6-111.2-37.8-162.8-66.5c-33.6-18.7-65.6-39.7-95.7-63.7c-13.3-10.6-26-21.8-39-32.7c-1.3-1.1-2.4-2.4-3.3-3.8
	c-2.2-3.5-2.2-7.2-0.1-10c2.2-3,6.2-4.4,10-2.9c3.7,1.4,7.2,3.4,10.6,5.3c42.7,24.3,87.1,45,133,62.5
	c34.6,13.2,69.9,24.7,105.9,33.6c23.3,5.8,46.8,11,70.4,15.7c17.8,3.5,35.9,5.9,53.8,8.4c13.8,1.9,27.7,3.3,41.6,4.6
	c33.1,3.2,66.2,4.4,99.4,3.9c16.7-0.3,33.4-1,50.1-2.1c14.9-0.9,29.7-2.2,44.5-4.1c18.5-2.3,36.9-4.9,55.2-8
	c67.7-11.2,133.3-29.8,197.2-54.7c7.6-3,15.1-6.2,22.7-9.3c4.5-1.8,9.2-2.2,13.8-0.3c9.3,3.7,12.3,14.2,5.6,21.5
	c-4,4.4-9.1,7.9-14,11.3c-39.8,28-83,49.6-128.3,67.1c-32.3,12.5-65.4,22.7-99.2,30.3c-19.8,4.4-39.7,8.1-59.7,11.4
	c-15.8,2.6-31.8,4.7-47.8,6c-19.2,1.6-38.4,2-57.7,3c-0.8,0-1.7,0.2-2.5,0.3C513.4,609.9,510.4,609.9,507.3,609.9z"/>
<path d="M876.3,7.1c3.7,0.3,7.4,0.6,11.1,1c19,2.3,37.8,5.8,55.4,13.7c5.2,2.3,10.4,5.1,13.4,10.1c1.6,2.6,2.8,5.7,3,8.7
	c0.4,6.7,0.2,13.4,0.1,20.1c-0.1,6.9-4.5,10.2-11,8.2c-5.1-1.6-10.1-3.9-15.1-5.9c-14.8-5.9-30.2-9.1-46.2-10.2
	c-12.3-0.8-24.6-0.8-36.7,1.7c-6,1.3-12,3.2-17.5,5.8c-13.5,6.5-18.9,18-18.5,32.6c0.5,14.7,9,23.7,21.2,30.2
	c10.8,5.8,22.4,9.5,34,13.3c16.7,5.4,33.5,10.6,50.1,16.4c11.5,4,22.1,9.9,31.4,17.9c12.9,11.2,20.9,25.3,23.8,42.1
	c3.4,19.3,1.2,38.1-8.2,55.5c-10.3,19.3-26.1,32.7-46,41.3c-15.4,6.7-31.6,10.6-48.3,11.8c-33.3,2.4-65.5-2.8-96.6-15
	c-4.7-1.9-9.1-4.8-13.4-7.6c-4.7-3.1-6.5-7.9-6.7-13.3c-0.2-6.5-0.1-13.1,0-19.6c0.1-7.9,4.2-11.2,11.8-8.8c6.2,1.9,12.1,4.7,18.2,7
	c14.5,5.5,29.5,9.2,45,11c12.5,1.5,25,2.1,37.6,0.9c13.9-1.3,27.4-4.1,38.7-13c11-8.8,15.2-20.4,13.5-34.2
	c-1.6-14.1-10.7-22.2-22.7-28.1c-11.9-5.8-24.7-9.2-37.2-13.3c-14.6-4.7-29.4-9-43.8-14.4c-14.3-5.3-27.2-13.2-37.3-24.9
	c-11.7-13.6-18.9-29.2-20.2-47.2c-2.2-29.9,9.9-53.1,33.4-71c15.3-11.6,32.8-18.1,51.7-20.9c5.4-0.8,11-1.1,16.4-1.6
	c0.7-0.1,1.3-0.3,2-0.4C867.1,7.1,871.7,7.1,876.3,7.1z"/>
<path d="M614.4,255.9c1.5-5.7,3-11.4,4.5-17.1C633.1,183.9,647.3,129,661.4,74c3.5-13.5,6.9-27,10.5-40.5c0.8-3.1,2.1-6.1,3.3-9
	c2.2-5.4,6.6-7.8,12.1-8.2c4.5-0.4,9-0.4,13.5-0.4c7.1-0.1,14.3-0.1,21.4,0c7.2,0.1,10.7,4,8.9,11c-2.8,10.9-6,21.6-9.4,32.4
	c-24.7,79.5-49.6,158.9-74.4,238.4c-0.7,2.1-1.5,4.1-2.3,6.2c-2.6,6.3-7.6,9.3-14.1,9.4c-12.1,0.2-24.1,0.2-36.2,0
	c-6.8-0.1-11.7-3.6-13.7-10.2c-2-6.5-3.5-13-5.1-19.6c-10.5-43.5-20.9-87-31.3-130.4c-5.7-23.8-11.5-47.7-17.6-71.6
	c-0.8,3.3-1.7,6.5-2.4,9.8c-16.2,67.8-32.4,135.7-48.6,203.5c-0.8,3.4-2,6.8-3.3,10.1c-2,5.3-6.3,7.7-11.7,8
	c-6.9,0.3-13.7,0.4-20.6,0.4c-5.9,0-11.9-0.1-17.8-0.4c-5.7-0.2-10-3-12.1-8.2c-2.6-6.7-4.9-13.5-7-20.3
	c-18.9-61.9-37.7-123.9-56.5-185.8c-6.6-21.8-13.2-43.5-19.7-65.3c-1.1-3.6-1.5-7.6-1.4-11.4c0.1-3.3,2.3-5,5.6-5.5
	c1.8-0.2,3.5-0.3,5.3-0.3c9.4,0,18.9,0,28.3,0c2.4,0,4.8,0.1,7.1,0.4c4.9,0.6,8.9,2.9,10.5,7.7c2.5,7.2,4.8,14.4,6.7,21.8
	c15.3,59.9,30.5,119.8,45.7,179.6c2.3,9.3,4.7,18.5,7.5,27.8c0.8-3.2,1.6-6.4,2.4-9.6c16.5-70.2,33-140.4,49.6-210.6
	c0.5-2.3,1.3-4.5,2-6.8c2.1-6.6,6.9-9.8,13.5-10c10.9-0.3,21.9-0.3,32.8-0.4c1.9,0,3.9,0.4,5.8,0.7c4.9,0.8,8.4,3.6,9.8,8.2
	c2,6.2,3.6,12.7,5.2,19.1c8.9,37.7,17.8,75.4,26.7,113c7.6,32.1,15.2,64.2,22.7,96.3c0.2,0.9,0.4,1.8,0.7,2.7
	C614.1,255.9,614.3,255.9,614.4,255.9z"/>
<path d="M238.1,146.7c0-11.3,0.4-22.8-0.2-34.3c-0.4-7.3-1.7-14.6-3.5-21.7c-4.7-18.5-17.1-29.2-35.4-33.6
	c-14.3-3.4-28.7-3.8-43.2-2.7C134,56,113.4,62.6,93.2,70.5c-4,1.6-8.1,2.9-12.3,4c-4.9,1.3-8.7-0.8-9-5.8c-0.5-9-0.2-18,0-27
	c0.1-4.2,2.8-7.2,6.2-9.4c8.3-5.3,17.3-8.8,26.5-12c15.4-5.3,31.1-9.2,47.3-11C166,7.7,180,7.6,194,8.5c13,0.8,25.7,2.9,38.1,7
	c30.5,10,48.8,31.1,56.7,61.8c3.2,12.4,4.5,25,4.6,37.8c0.1,34.9,0,69.8,0,104.7c0,21.2,4,41.5,14.9,60c4.5,7.7,2.9,13.2-4.5,18.3
	c-6.8,4.6-13.6,9.2-20.5,13.7c-7.4,4.8-14.1,3.6-19.9-2.9c-8.4-9.4-14.4-20.2-19.9-31.5c-0.4-0.8-0.8-1.7-1.7-3.3
	c-0.5,1-0.7,1.6-1.2,2.1c-16.6,19.1-36.7,33.1-61.3,39.9c-16.6,4.6-33.5,5.8-50.6,3.9c-16.1-1.8-31.1-6.7-44.2-16.5
	c-16.2-12.2-26.3-28.3-30.5-48.1c-3.9-18.8-3.5-37.4,2.9-55.7c7.7-22,22.9-37.5,43.1-48.4c13.5-7.3,28.1-11.1,43.3-12.9
	c17.6-2,35.1-1.5,52.5,1.1C209.9,141.7,224,144.3,238.1,146.7z M239.1,198.1c0-3.7-0.1-7.3,0-11c0.1-1.8-0.5-2.4-2.3-2.9
	c-19.9-4.6-40-7.2-60.4-7.1c-10.9,0-21.7,0.9-32.1,4.2c-15.6,5-26.9,14.5-31.7,30.5c-2.9,9.8-2.8,19.9-1.2,30
	c2.7,17.4,15.2,30.4,32.4,33.8c10.1,2,20.3,1.7,30.3-0.1c12.1-2.1,23.8-5.4,34.1-12.3c12.3-8.2,22.3-18.4,26.7-32.8
	C238.3,220,239,209.1,239.1,198.1z"/>
<path d="M916,421.7c-13.9,0.9-28.6,1.6-43.3,2.9c-11.5,1-22.9,2.6-34.3,3.8c-3.2,0.4-6.8,0.5-8.6-2.9c-1.8-3.3-0.3-6.5,2.1-8.7
	c3-2.8,6.4-5.3,9.9-7.5c17.7-10.9,37-17.5,57.3-21.6c19.7-4,39.6-5.3,59.7-4.5c15.3,0.6,30.5,2.4,45.1,7.6c0.7,0.3,1.4,0.6,2.1,0.8
	c8,2.6,10.8,8.6,11.4,16.4c1.5,19.6-2.2,38.4-7.3,57.1c-7.3,26.7-18.4,51.7-34.8,74.2c-6.9,9.5-14.8,18.1-23.9,25.7
	c-2.5,2.1-5.2,3.8-8.7,3.8c-3.8,0-6.1-2.3-5.6-6.1c0.3-2.3,1.1-4.6,2-6.8c8.7-21.8,17.4-43.6,23.7-66.2c3-10.7,5.4-21.6,7.3-32.6
	c0.9-5.2,0.6-10.8,0.1-16.2c-0.6-7.2-5.1-11.8-11.8-13.7c-6-1.8-12.3-3.3-18.5-4C932.4,422.2,924.6,422.1,916,421.7z"/>
</svg>
