<svg width="16" height="16" viewBox="0 0 16 16" fill="none" xmlns="http://www.w3.org/2000/svg">
<path d="M13.8929 15.5H2.10714C1.21953 15.5 0.5 14.7805 0.5 13.8929V2.10714C0.5 1.21953 1.21953 0.5 2.10714 0.5H13.8929C14.7805 0.5 15.5 1.21953 15.5 2.10714V13.8929C15.5 14.7805 14.7805 15.5 13.8929 15.5ZM7.03953 12.2168L13.2002 6.05606C13.4094 5.84686 13.4094 5.50766 13.2002 5.29846L12.4426 4.54086C12.2334 4.33166 11.8942 4.33163 11.685 4.54086L6.66071 9.56512L4.31499 7.2194C4.10579 7.0102 3.76658 7.0102 3.55735 7.2194L2.79975 7.977C2.59056 8.18619 2.59056 8.5254 2.79975 8.7346L6.2819 12.2167C6.49113 12.426 6.8303 12.426 7.03953 12.2168Z" fill="#812CE5"/>
</svg>
