<svg xmlns="http://www.w3.org/2000/svg" role="img" viewBox="42.96 43.84 118.08 119.08"><g fill="#000" fill-rule="nonzero"><path d="M80.1718 142.61088c1.65685 0 3 1.34314 3 3v12.0476c0 1.65686-1.34315 3-3 3-1.65686 0-3-1.34314-3-3v-12.0476c0-1.65686 1.34314-3 3-3zm21.91185 0c1.65686 0 3 1.34314 3 3v12.0476c0 1.65686-1.34314 3-3 3-1.65685 0-3-1.34314-3-3v-12.0476c0-1.65686 1.34315-3 3-3zm21.91186 0c1.65686 0 3 1.34314 3 3v12.0476c0 1.65686-1.34314 3-3 3-1.65685 0-3-1.34314-3-3v-12.0476c0-1.65686 1.34315-3 3-3zm-63.74359-20.07935c1.65686 0 3 1.34314 3 3 0 1.65685-1.34314 3-3 3H48.3c-1.65685 0-3-1.34315-3-3 0-1.65686 1.34315-3 3-3h11.95192zm95.61539 0c1.65685 0 3 1.34314 3 3 0 1.65685-1.34315 3-3 3h-11.95193c-1.65685 0-3-1.34315-3-3 0-1.65686 1.34315-3 3-3h11.95193zm-95.61539-22.08729c1.65686 0 3 1.34315 3 3 0 1.65686-1.34314 3-3 3H48.3c-1.65685 0-3-1.34314-3-3 0-1.65685 1.34315-3 3-3h11.95192zm95.61539 0c1.65685 0 3 1.34315 3 3 0 1.65686-1.34315 3-3 3h-11.95193c-1.65685 0-3-1.34314-3-3 0-1.65685 1.34315-3 3-3h11.95193zM60.25192 78.35696c1.65686 0 3 1.34315 3 3s-1.34314 3-3 3H48.3c-1.65685 0-3-1.34315-3-3s1.34315-3 3-3h11.95192zm95.61539 0c1.65685 0 3 1.34315 3 3s-1.34315 3-3 3h-11.95193c-1.65685 0-3-1.34315-3-3s1.34315-3 3-3h11.95193zM80.17179 46.23c1.65686 0 3 1.34315 3 3v12.04761c0 1.65685-1.34314 3-3 3-1.65685 0-3-1.34315-3-3V49.23c0-1.65685 1.34315-3 3-3zm21.91186 0c1.65686 0 3 1.34315 3 3v12.04761c0 1.65685-1.34314 3-3 3-1.65685 0-3-1.34315-3-3V49.23c0-1.65685 1.34315-3 3-3zm21.91186 0c1.65686 0 3 1.34315 3 3v12.04761c0 1.65685-1.34314 3-3 3-1.65685 0-3-1.34315-3-3V49.23c0-1.65685 1.34315-3 3-3z"/><path d="M136.91538 61.27761c3.866 0 7 3.134 7 7v70.33327c0 3.866-3.134 7-7 7H67.25192c-3.86599 0-7-3.134-7-7V68.2776c0-3.866 3.13401-7 7-7h69.66346zm0 6H67.25192c-.55228 0-1 .44771-1 1v70.33327c0 .55228.44772 1 1 1h69.66346c.55229 0 1-.44772 1-1V68.2776c0-.55229-.44771-1-1-1zm-12.04912 9.30273c2.20914 0 4 1.79086 4 4v45.7278c0 2.20915-1.79086 4-4 4H79.30105c-2.20914 0-4-1.79085-4-4v-45.7278c0-2.20914 1.79086-4 4-4h45.56521zm-2 6H81.30105v41.7278h41.56521v-41.7278z"/><path d="M111.00032 93.99989v13c0 1.65685 1.34315 3 3 3s3-1.34315 3-3v-15c0-2.20914-1.79086-4-4-4h-14c-1.65685 0-3 1.34314-3 3 0 1.65685 1.34315 3 3 3h12z"/></g></svg>