<svg height="16" viewBox="0 0 26 16" width="26" xmlns="http://www.w3.org/2000/svg" xmlns:xlink="http://www.w3.org/1999/xlink"><mask id="a" fill="#fff"><path d="m.1196097 0h14.9699248v15.0833196h-14.9699248z" fill="#fff" fill-rule="evenodd"/></mask><mask id="b" fill="#fff"><path d="m0 0h11.5004406v15.0833196h-11.5004406z" fill="#fff" fill-rule="evenodd"/></mask><g fill="#9b9b9b" fill-rule="evenodd" opacity=".5"><path d="m7.60457211 10.9530916c-1.8698797 0-3.38578873-1.52739319-3.38578873-3.41143865 0-1.88404545 1.51590903-3.41143863 3.38578873-3.41143863 1.86987969 0 3.38578869 1.52739318 3.38578869 3.41143863 0 1.88404546-1.515909 3.41143865-3.38578869 3.41143865m0-10.95310531c-4.1338767 0-7.48496241 3.37647273-7.48496241 7.54166666 0 4.16519395 3.35108571 7.54166665 7.48496241 7.54166665 4.13387669 0 7.48496239-3.3764727 7.48496239-7.54166665 0-4.16519393-3.3510857-7.54166666-7.48496239-7.54166666" mask="url(#a)" transform="translate(10.751128)"/><path d="m7.48496241 10.9530916c-1.8698797 0-3.38578873-1.52739319-3.38578873-3.41143865 0-1.88404545 1.51590903-3.41143863 3.38578873-3.41143863.7323015 0 1.40948646.23502576 1.96350977.63308863.41466692-1.35078106 1.12396922-2.57061136 2.05196842-3.58475984-1.1605774-.74511667-2.53740225-1.17855682-4.01547819-1.17855682-4.1338767 0-7.48496241 3.37647273-7.48496241 7.54166666 0 4.16519395 3.35108571 7.54166665 7.48496241 7.54166665 1.47807594 0 2.85490079-.4334401 4.01547819-1.1785568-.9279992-1.0141485-1.6373015-2.2339788-2.05196842-3.5847598-.55402331.3980628-1.23120827.6330886-1.96350977.6330886" mask="url(#b)"/></g></svg>