<svg width="26px" height="16px" viewBox="0 0 26 16" version="1.1" xmlns="http://www.w3.org/2000/svg" xmlns:xlink="http://www.w3.org/1999/xlink">
    <!-- Generator: Sketch 51.2 (57519) - http://www.bohemiancoding.com/sketch -->
    <desc>Created with Sketch.</desc>
    <defs>
        <polygon id="path-1" points="0.119609699 0 15.0895345 0 15.0895345 15.0833196 0.119609699 15.0833196"></polygon>
        <polygon id="path-3" points="0 0 11.5004406 0 11.5004406 15.0833196 0 15.0833196"></polygon>
    </defs>
    <g id="desktop" stroke="none" stroke-width="1" fill="none" fill-rule="evenodd" opacity="0.5">
        <g id="01_Homepage" transform="translate(-980.000000, -4085.000000)">
            <g id="GetStarted" transform="translate(0.000000, 3522.000000)">
                <g id="Via-CLoud" transform="translate(953.000000, 71.000000)">
                    <g id="Button-Copy" transform="translate(0.000000, 468.000000)">
                        <g id="Cloud_CoLab" transform="translate(27.000000, 24.000000)">
                            <g id="Page-1">
							<g id="Group-3" transform="translate(10.751128, 0.000000)">
								<g id="Clip-2">
								</g>
								<defs>
									<filter id="Adobe_OpacityMaskFilter" filterUnits="userSpaceOnUse" x="0.1" y="0" width="15" height="15.1">
										<feColorMatrix  type="matrix" values="1 0 0 0 0  0 1 0 0 0  0 0 1 0 0  0 0 0 1 0"/>
									</filter>
								</defs>
								<mask maskUnits="userSpaceOnUse" x="0.1" y="0" width="15" height="15.1" id="mask-2">
									<g filter="url(#Adobe_OpacityMaskFilter)">
										<polygon id="path-1" fill="#FFFFFF" points="0.1,0 15.1,0 15.1,15.1 0.1,15.1 										"/>
									</g>
								</mask>
								<path id="Fill-1" mask="url(#mask-2)" fill="#262626" d="M7.6,11c-1.9,0-3.4-1.5-3.4-3.4s1.5-3.4,3.4-3.4S11,5.7,11,7.5
									S9.5,11,7.6,11 M7.6,0C3.5,0,0.1,3.4,0.1,7.5s3.4,7.5,7.5,7.5s7.5-3.4,7.5-7.5S11.7,0,7.6,0"/>
							</g>
							<g id="Group-6">
								<g id="Clip-5">
								</g>
								<defs>
									<filter id="Adobe_OpacityMaskFilter_1_" filterUnits="userSpaceOnUse" x="0" y="0" width="11.5" height="15.1">
										<feColorMatrix  type="matrix" values="1 0 0 0 0  0 1 0 0 0  0 0 1 0 0  0 0 0 1 0"/>
									</filter>
								</defs>
								<mask maskUnits="userSpaceOnUse" x="0" y="0" width="11.5" height="15.1" id="mask-4">
									<g filter="url(#Adobe_OpacityMaskFilter_1_)">
										<polygon id="path-3" fill="#FFFFFF" points="0,0 11.5,0 11.5,15.1 0,15.1 										"/>
									</g>
								</mask>
								<path id="Fill-4" mask="url(#mask-4)" fill="#262626" d="M7.5,11c-1.9,0-3.4-1.5-3.4-3.4s1.5-3.4,3.4-3.4
									c0.7,0,1.4,0.2,2,0.6c0.4-1.4,1.1-2.6,2.1-3.6C10.3,0.4,9,0,7.5,0C3.4,0,0,3.4,0,7.5s3.4,7.5,7.5,7.5c1.5,0,2.9-0.4,4-1.2
									c-0.9-1-1.6-2.2-2.1-3.6C8.9,10.7,8.2,11,7.5,11"/>
							</g>
						</g>
                        </g>
                    </g>
                </g>
            </g>
        </g>
    </g>
</svg>