<?xml version="1.0" encoding="UTF-8"?>
<svg width="19px" height="16px" viewBox="0 0 19 16" version="1.1" xmlns="http://www.w3.org/2000/svg" xmlns:xlink="http://www.w3.org/1999/xlink">
    <!-- Generator: Sketch 57.1 (83088) - https://sketch.com -->
    <title>Group 449</title>
    <desc>Created with Sketch.</desc>
    <defs>
        <polygon id="path-1" points="0 0 2 0 2 2 0 2"></polygon>
        <polygon id="path-3" points="0 0 2 0 2 2 0 2"></polygon>
        <polygon id="path-5" points="0 0 2 0 2 2 0 2"></polygon>
        <polygon id="path-7" points="0 0 12 0 12 2 0 2"></polygon>
        <polygon id="path-9" points="0 0 12 0 12 2 0 2"></polygon>
        <polygon id="path-11" points="0 0 12 0 12 2 0 2"></polygon>
    </defs>
    <g id="Page-2" stroke="none" stroke-width="1" fill="none" fill-rule="evenodd">
        <g id="071519_Airlift_PyTorchOrg_HubCompactTemplate_v2" transform="translate(-1149.000000, -532.000000)">
            <polygon id="Fill-273" fill="#F3F4F7" points="0 0 1440 0 1440 1302 0 1302"></polygon>
            <g id="Group-427" transform="translate(345.000000, 526.000000)"></g>
            <g id="Group-449" transform="translate(1150.000000, 533.000000)">
                <g id="Group-433">
                    <mask id="mask-2" fill="white">
                        <use xlink:href="#path-1"></use>
                    </mask>
                    <g id="Clip-432"></g>
                    <polygon id="Fill-431" fill-opacity="0.25" fill="#979797" mask="url(#mask-2)" points="-5 -5 7 -5 7 7 -5 7"></polygon>
                </g>
                <g id="Group-436" transform="translate(0.000000, 6.000000)">
                    <mask id="mask-4" fill="white">
                        <use xlink:href="#path-3"></use>
                    </mask>
                    <g id="Clip-435"></g>
                    <polygon id="Fill-434" fill-opacity="0.25" fill="#979797" mask="url(#mask-4)" points="-5 -5 7 -5 7 7 -5 7"></polygon>
                </g>
                <g id="Group-439" transform="translate(0.000000, 12.000000)">
                    <mask id="mask-6" fill="white">
                        <use xlink:href="#path-5"></use>
                    </mask>
                    <g id="Clip-438"></g>
                    <polygon id="Fill-437" fill-opacity="0.25" fill="#979797" mask="url(#mask-6)" points="-5 -5 7 -5 7 7 -5 7"></polygon>
                </g>
                <g id="Group-442" transform="translate(4.000000, 0.000000)">
                    <mask id="mask-8" fill="white">
                        <use xlink:href="#path-7"></use>
                    </mask>
                    <g id="Clip-441"></g>
                    <polygon id="Fill-440" fill-opacity="0.25" fill="#979797" mask="url(#mask-8)" points="-5 -5 17 -5 17 7 -5 7"></polygon>
                </g>
                <g id="Group-445" transform="translate(4.000000, 6.000000)">
                    <mask id="mask-10" fill="white">
                        <use xlink:href="#path-9"></use>
                    </mask>
                    <g id="Clip-444"></g>
                    <polygon id="Fill-443" fill-opacity="0.25" fill="#979797" mask="url(#mask-10)" points="-5 -5 17 -5 17 7 -5 7"></polygon>
                </g>
                <g id="Group-448" transform="translate(4.000000, 12.000000)">
                    <mask id="mask-12" fill="white">
                        <use xlink:href="#path-11"></use>
                    </mask>
                    <g id="Clip-447"></g>
                    <polygon id="Fill-446" fill-opacity="0.25" fill="#979797" mask="url(#mask-12)" points="-5 -5 17 -5 17 7 -5 7"></polygon>
                </g>
            </g>
        </g>
    </g>
</svg>
