<svg height="16" viewBox="0 0 19 16" width="19" xmlns="http://www.w3.org/2000/svg" xmlns:xlink="http://www.w3.org/1999/xlink"><mask id="a" fill="#fff"><path d="m0 0h2v2h-2z" fill="#fff" fill-rule="evenodd"/></mask><mask id="b" fill="#fff"><path d="m0 0h2v2h-2z" fill="#fff" fill-rule="evenodd"/></mask><mask id="c" fill="#fff"><path d="m0 0h2v2h-2z" fill="#fff" fill-rule="evenodd"/></mask><mask id="d" fill="#fff"><path d="m0 0h12v2h-12z" fill="#fff" fill-rule="evenodd"/></mask><mask id="e" fill="#fff"><path d="m0 0h12v2h-12z" fill="#fff" fill-rule="evenodd"/></mask><mask id="f" fill="#fff"><path d="m0 0h12v2h-12z" fill="#fff" fill-rule="evenodd"/></mask><g fill="none" fill-rule="evenodd" transform="translate(-1149 -532)"><path d="m0 0h1440v1302h-1440z" fill="#f3f4f7"/><g fill="#979797" fill-opacity=".25"><path d="m-5-5h12v12h-12z" mask="url(#a)" transform="translate(1150 533)"/><path d="m-5-5h12v12h-12z" mask="url(#b)" transform="translate(1150 539)"/><path d="m-5-5h12v12h-12z" mask="url(#c)" transform="translate(1150 545)"/><path d="m-5-5h22v12h-22z" mask="url(#d)" transform="translate(1154 533)"/><path d="m-5-5h22v12h-22z" mask="url(#e)" transform="translate(1154 539)"/><path d="m-5-5h22v12h-22z" mask="url(#f)" transform="translate(1154 545)"/></g></g></svg>