<svg xmlns="http://www.w3.org/2000/svg" role="img" viewBox="334.06 43.56 74.88 56.88"><path fill-opacity="0" fill="#fff" d="M-45-15h540v180H-45z"/><path fill-opacity="0" fill="#fff" d="M-45-15h540v180H-45z"/><path fill="#cc2faa" d="M373.48828 62.30078c1.79297-1.79297 4.70313-1.79297 6.48047 0 1.78125 1.79297 1.78125 4.6875 0 6.48438-1.77734 1.79296-4.70313 1.79296-6.48047 0-1.78125-1.79688-1.78125-4.69141 0-6.48438"/><path fill="#cc2faa" d="M407.7539 99.50781l-24.40624.03906-31.31641-31.08593.01172-8.09375 33.67578 33.4336 16.30078-.03126.05469-32.03516 5.75-5.74609zm0 0"/><path fill="#cc2faa" d="M341.32422 50.91406l-.0586 32.09375-5.76171 5.75.0703-43.57812 24.42188-.03907 12.20313 12.10157-4.0664 4.07031-10.52344-10.42578zm50.77734 34.22657L381.07031 74.1953l4.04297-4.09765 7.0039 6.94921zm0 0"/></svg>