<svg height="16" viewBox="0 0 16 16" width="16" xmlns="http://www.w3.org/2000/svg"><g opacity=".315331"><path d="m14.497561 13.795122c0 .3902439-.3121951.702439-.702439.702439h-11.59024395c-.3902439 0-.70243903-.3121951-.70243903-.702439v-11.59024395c0-.3902439.31219513-.70243903.70243903-.70243903h4.56585366v-1.40487804h-4.56585366c-1.17073171 0-2.10731707.93658536-2.10731707 2.10731707v11.59024395c0 1.1707317.93658536 2.107317 2.10731707 2.107317h11.59024395c1.1707317 0 2.107317-.9365853 2.107317-2.107317v-4.56585371h-1.404878z"/><path d="m9.22926829.09756098v1.40487804h4.27317071l-5.5219512 5.52195122.99512196.99512196 5.52195124-5.52195122v4.27317073h1.404878v-6.67317073z"/></g></svg>