<svg height="19" viewBox="0 0 24 19" width="24" xmlns="http://www.w3.org/2000/svg" xmlns:xlink="http://www.w3.org/1999/xlink"><mask id="a" height="18.9" maskUnits="userSpaceOnUse" width="23.6" x="0" y="0"><path d="m0 0h23.6v18.9h-23.6z" fill="#fff" fill-rule="evenodd"/></mask><path d="m6.6 5.6h.7c-.2 0-.4 0-.7 0m10.2 9.2h-5.1-5.1c-.4 0-.7-.1-1-.2-1.6-.7-2-2.9-.8-4.1 1.3-1.3 3.4-.9 4.1.8l3-3c-1.1-1.4-2.6-2.3-4.3-2.5h.3.1c1.8-2 4.9-2.2 7-.5 1.2 1 1.9 2.5 1.8 4v.5c3.5-.1 3.5 5 0 5m-12-8.9h-.1zm-.9.3s-.1 0-.1.1c0 0 0 0 .1-.1m1.8-.5c-.1 0 0 0 0 0m14.9 1.1c-.5-1.7-1.4-3.3-2.8-4.5v-.1c-2.4-2.1-5.7-2.8-8.7-1.9-3.1 1-5.4 3.4-6.3 6.5h.2.1c-1.2.8-2.2 2-2.7 3.4-.9 2.7 0 5.6 2.2 7.4l.7-.7-.7.7c1.2.9 2.6 1.3 4 1.3h5.1 5.1c2.9 0 5.5-1.9 6.4-4.7s-.1-5.8-2.6-7.4" fill="#262626" fill-rule="evenodd" mask="url(#a)" opacity=".5"/></svg>