<svg xmlns="http://www.w3.org/2000/svg" role="img" viewBox="2.06 -1.94 100.88 95.25"><g clip-path="url(#clip0_2266_13540)"><path d="M90.663 21.526l-1.896-1.896c-.335-.334-.335-1.003 0-1.338l5.242-5.242-5.13-5.242c-.336-.335-.336-1.004 0-1.339l1.895-1.896c.335-.334 1.004-.334 1.339 0l8.476 8.477-8.476 8.476c-.447.447-1.004.447-1.45 0zm-19.968 0L62.22 13.05l8.476-8.477c.335-.335 1.004-.335 1.339 0l1.896 1.896c.334.335.334 1.004 0 1.338l-5.242 5.243 5.242 5.242c.334.334.334 1.003 0 1.338l-1.896 1.896c-.446.446-1.004.446-1.339 0zm8.146-1.227l-2.23-1.227c-.447-.223-.559-.78-.335-1.227l6.469-11.488c.223-.446.78-.557 1.226-.334l2.231 1.227c.335.223.558.78.335 1.226l-6.47 11.488c-.222.447-.78.67-1.226.335zM7.904 49.856L4 67.032l10.93 13.719h17.623l9.257-11.6a33.223 33.223 0 0 0 8.142 1.004c7.138 0 13.83-2.12 19.407-5.911l26.322 26.322c.558.669 1.45.892 2.23.892.781 0 1.562-.335 2.231-.892a3.164 3.164 0 0 0 0-4.462L74.266 60.34c6.358-6.134 10.485-14.723 10.708-24.315 0-.557-.446-.892-.892-.892h-4.35c-.558 0-.893.446-.893.892-.223 6.135-2.342 11.823-5.91 16.396a27.493 27.493 0 0 1-4.24 4.573c-5.018 4.35-11.599 6.915-18.737 6.915-2.565 0-5.019-.335-7.361-1.004l-2.008-8.7-1.004-4.238-3.457-1.673-12.38-5.911-15.838 7.473zm27.66 17.176l-6.023 7.473h-11.6l-7.249-9.034 2.565-11.265 5.689-2.677 4.795-2.343 1.562.781 3.123 1.45 5.8 2.789.223 1.003 1.115 4.796 1.227 5.465-1.227 1.562zM20.73 37.476c.335-.112.558-.447.446-.893v-1.561c0-15.615 12.492-28.33 27.884-28.776.557 0 .892-.446.892-.892V.892c0-.557-.446-.892-.892-.892-18.961.558-34.13 16.06-34.13 35.022 0 1.338.112 2.565.223 3.903.112.558.781 1.004 1.227.67l4.35-2.12z"/><path fill="url(#paint0_linear_2266_13540)" d="M60.655 47.96h-6.58v-5.02c5.687-1.672 9.703-7.026 9.703-13.16 0-7.585-6.135-13.83-13.719-13.83s-13.83 6.134-13.83 13.83a13.685 13.685 0 0 0 9.815 13.16v5.02h-6.692c-1.116 0-2.12.111-3.235.223l3.458 1.673 1.004 4.238h20.076c2.9 0 5.8 1.004 8.03 2.788a27.493 27.493 0 0 0 4.239-4.573c-3.347-2.788-7.808-4.35-12.27-4.35zm-18.18-18.18c0-4.127 3.346-7.585 7.584-7.585 4.127 0 7.473 3.346 7.473 7.584a7.473 7.473 0 0 1-7.473 7.473c-4.238 0-7.584-3.346-7.584-7.473z"/></g><defs><linearGradient id="paint0_linear_2266_13540" x1="37.681" x2="73.212" y1="24.625" y2="60.156" gradientUnits="userSpaceOnUse"><stop stop-color="#FF6DA0"/><stop offset="1" stop-color="#F9A738"/></linearGradient><clipPath id="clip0_2266_13540"><path fill="#fff" d="M0 0h105v91.458H0z"/></clipPath></defs></svg>