<svg xmlns="http://www.w3.org/2000/svg" role="img" viewBox="-2.46 -1.84 127.92 79.92"><path d="M122.717 45.0895C122.018 41.6766 120.577 38.4584 118.495 35.6621C116.412 32.8658 113.739 30.5598 110.665 28.9069C111.488 26.2237 113.059 23.8291 115.195 22.0024C117.33 20.1756 119.942 18.9921 122.727 18.5897V10.162C121.964 10.1185 121.2 10.1722 120.451 10.3217C111.878 12.2587 105.081 18.3892 102.549 26.3412C101.617 26.2268 100.678 26.1689 99.7384 26.1679C99.0876 26.1679 98.4573 26.1985 97.8065 26.2529L96.1506 26.4024L95.5952 24.8358C93.1231 17.7839 88.5139 11.6731 82.4058 7.34944C76.2976 3.02576 68.9928 0.703125 61.5028 0.703125C54.0127 0.703125 46.7078 3.02576 40.5997 7.34944C34.4916 11.6731 29.8824 17.7839 27.4103 24.8358L26.8549 26.4024L25.199 26.2529C24.5551 26.1985 23.9043 26.1679 23.2535 26.1679C22.275 26.1689 21.2976 26.2302 20.3267 26.3514C19.0716 22.3113 16.7408 18.6866 13.5828 15.8637C10.4249 13.0407 6.55807 11.1254 2.39461 10.3217C1.83924 10.2164 0.118598 10.0227 0.118598 10.0227V18.5897C2.90982 18.9931 5.52792 20.1818 7.66598 22.0163C9.80405 23.8508 11.3735 26.2553 12.1903 28.9477C9.1245 30.5875 6.4635 32.8879 4.4007 35.6819C2.33791 38.4758 0.925153 41.693 0.265108 45.0997C0.159485 45.6536 0.101562 47.2406 0.101562 47.2406H8.54461C9.08799 43.7455 10.8668 40.5594 13.5596 38.2579C16.2524 35.9565 19.6817 34.6916 23.2279 34.6916C26.7742 34.6916 30.2035 35.9565 32.8963 38.2579C35.5891 40.5594 37.3679 43.7455 37.9113 47.2406H46.4293C46.4185 46.5259 46.3489 45.8133 46.2215 45.1099C45.6301 42.0831 44.4464 39.2022 42.7381 36.6319C41.0299 34.0616 38.8304 31.8523 36.2656 30.1303L34.9027 29.2026L35.4479 27.6495C37.34 22.2658 40.8625 17.6014 45.5283 14.3014C50.1941 11.0015 55.7727 9.22889 61.4925 9.22889C67.2124 9.22889 72.791 11.0015 77.4568 14.3014C82.1226 17.6014 85.6451 22.2658 87.5372 27.6495L88.0823 29.2026L86.7195 30.1303C81.5546 33.6108 77.9765 38.9846 76.7636 45.0827C76.658 45.6366 76.4229 47.3528 76.4229 47.3528H85.0397C85.5565 43.8327 87.3259 40.6155 90.0247 38.2892C92.7235 35.963 96.1714 34.6829 99.7384 34.6829C103.305 34.6829 106.753 35.963 109.452 38.2892C112.151 40.6155 113.92 43.8327 114.437 47.3528H123.091C123.024 46.5899 122.899 45.8333 122.717 45.0895Z"/><path fill="url(#paint0_linear_3350_12625)" d="M65.2175 63.8923L60.8188 59.4745C60.7292 59.3867 60.6679 59.2743 60.6428 59.1516C60.6177 59.0289 60.6299 58.9015 60.6779 58.7858C60.7258 58.67 60.8073 58.5712 60.912 58.502C61.0166 58.4328 61.1396 58.3963 61.2651 58.3972H66.6928C66.824 58.3944 66.9543 58.4186 67.0756 58.4683C67.197 58.518 67.3068 58.5922 67.3981 58.6861L74.9825 66.2405C75.201 66.4601 75.3236 66.7569 75.3236 67.0662C75.3236 67.3756 75.201 67.6724 74.9825 67.892L67.3981 75.4464C67.3073 75.5417 67.1978 75.6174 67.0765 75.6688C66.9552 75.7202 66.8246 75.7463 66.6928 75.7454H61.2651C61.1389 75.7451 61.0157 75.7075 60.911 75.6372C60.8063 75.5669 60.7248 75.4672 60.677 75.3507C60.6292 75.2342 60.6172 75.1062 60.6424 74.9829C60.6676 74.8595 60.729 74.7465 60.8188 74.658L65.2175 70.281H33.7894C31.9662 70.2792 30.1611 69.9191 28.4774 69.2212C26.7937 68.5234 25.2644 67.5014 23.9769 66.2138C22.6894 64.9262 21.6689 63.3982 20.9737 61.717C20.2786 60.0359 19.9224 58.2345 19.9255 56.416V46.0955C19.9115 45.667 19.984 45.2401 20.1388 44.8401C20.2935 44.4401 20.5273 44.0753 20.8262 43.7672C21.1252 43.4592 21.4832 43.2142 21.879 43.0469C22.2747 42.8797 22.7002 42.7935 23.13 42.7935C23.5598 42.7935 23.9853 42.8797 24.3811 43.0469C24.7768 43.2142 25.1348 43.4592 25.4338 43.7672C25.7327 44.0753 25.9665 44.4401 26.1212 44.8401C26.276 45.2401 26.3485 45.667 26.3345 46.0955V56.416C26.3363 58.3875 27.1223 60.2777 28.52 61.6717C29.9177 63.0657 31.8128 63.8497 33.7894 63.8515L65.2175 63.8923ZM91.7937 57.3744L96.1924 52.9872V65.4657C96.1941 65.8856 96.2788 66.3011 96.4416 66.6884C96.6044 67.0757 96.8421 67.4272 97.1411 67.7229C97.44 68.0185 97.7945 68.2526 98.1842 68.4116C98.5739 68.5707 98.9911 68.6516 99.4122 68.6498C99.833 68.6498 100.25 68.5671 100.639 68.4064C101.027 68.2456 101.381 68.01 101.678 67.713C101.976 67.416 102.211 67.0635 102.372 66.6755C102.533 66.2876 102.615 65.8718 102.615 65.4521V52.9736L107.017 57.3608C107.106 57.4484 107.218 57.5081 107.341 57.5322C107.463 57.5563 107.59 57.5438 107.705 57.4962C107.821 57.4487 107.92 57.3682 107.989 57.2649C108.059 57.1616 108.096 57.0401 108.097 56.9156V51.5021C108.095 51.2363 107.991 50.9812 107.808 50.7885L100.244 43.2341C100.022 43.0187 99.725 42.8981 99.4156 42.8981C99.1062 42.8981 98.8091 43.0187 98.5876 43.2341L91.0134 50.7885C90.8246 50.9784 90.7181 51.2347 90.717 51.5021V56.9156C90.7173 57.0415 90.7551 57.1644 90.8255 57.2688C90.896 57.3733 90.996 57.4545 91.1127 57.5022C91.2295 57.5498 91.3579 57.5619 91.4816 57.5367C91.6052 57.5115 91.7186 57.4503 91.8073 57.3608L91.7937 57.3744Z"/><defs><linearGradient id="paint0_linear_3350_12625" x1="40.335" x2="84.532" y1="29.746" y2="79.748" gradientUnits="userSpaceOnUse"><stop stop-color="#5EC3B1"/><stop offset="1" stop-color="#F244B1"/></linearGradient></defs></svg>