<?xml version="1.0" encoding="UTF-8"?> <svg xmlns="http://www.w3.org/2000/svg" width="113" height="91" fill="none"><g clip-path="url(#clip0_2266_13514)"><path d="M32.619 89.782l-3.022-9.444c-1.763-.126-3.4-.503-5.037-1.007a19.629 19.629 0 0 1-4.66-2.14l-8.058 5.791c-.378.252-.882.126-1.133-.125L.13 68.376c-.252-.378-.126-.882.252-1.134l8.059-5.792c-.378-1.637-.504-3.4-.504-5.163 0-1.763.126-3.4.504-5.163l-8.06-5.792c-.377-.252-.377-.756-.125-1.134l10.577-14.48c.252-.378.756-.378 1.134-.127l8.059 5.793c1.51-.882 3.022-1.511 4.659-2.14 1.637-.505 3.274-.882 5.037-1.008l3.022-9.444c.126-.378.63-.63 1.007-.504l17 5.54c.378.126.63.63.503 1.008l-3.022 9.444a24.279 24.279 0 0 1 3.4 3.778c1.008 1.385 1.89 2.896 2.519 4.407H64.1c.377 0 .755.378.755.755v17.882c0 .377-.378.755-.755.755h-9.948c-.756 1.511-1.511 3.022-2.519 4.533a24.278 24.278 0 0 1-3.4 3.778l3.023 9.444c.126.378-.126.882-.504 1.008l-17 5.54c-.503.252-1.007 0-1.133-.378zm-12.97-18.636l1.385 1.007c1.511 1.008 3.148 1.889 4.911 2.393 1.763.63 3.526.881 5.415.881h1.763l2.644 8.06c.126.377.63.629 1.008.503l7.555-2.519c.378-.126.63-.63.504-1.007l-2.645-8.059 1.385-1.007c1.511-1.134 2.77-2.393 3.778-3.904 1.133-1.511 2.015-3.148 2.518-4.91l.63-1.638h8.437c.378 0 .755-.378.755-.755v-8.06c0-.377-.377-.755-.755-.755H50.5l-.63-1.637c-.63-1.763-1.51-3.4-2.518-4.911-1.133-1.511-2.393-2.77-3.778-3.904l-1.385-1.007 2.645-8.059c.125-.378-.126-.881-.504-1.007l-7.555-2.519c-.378-.126-.882.126-1.008.504l-2.644 8.059H31.36c-.63 0-1.133 0-1.763.126-3.148.378-6.044 1.51-8.689 3.274l-1.385 1.007-6.674-4.785c-.378-.252-.881-.126-1.133.126l-4.66 6.422c-.251.378-.125.882.127 1.133l6.8 4.911-.504 1.637a20.063 20.063 0 0 0-.756 5.415c0 1.889.252 3.652.756 5.415l.504 1.637-6.8 4.91c-.378.252-.378.756-.126 1.134l4.659 6.422c.252.378.755.378 1.133.126l6.8-4.66zm20.142-57.043l-5.54 5.54c-.126.127-.378.252-.504.252h-3.903c-.378 0-.63-.503-.378-.755l3.022-3.022c-10.703 0-20.777 4.281-28.333 11.837-.377.377-1.007.503-1.637.503-.63 0-1.259-.252-1.762-.755-1.008-1.008-1.008-2.519 0-3.526C9.318 15.74 20.526 11.08 32.614 11.08l-3.022-3.022c-.252-.252-.126-.756.378-.756h3.903c.252 0 .378.126.504.252l5.54 5.54c.252.127.252.63-.126 1.008z" fill="#000"></path><path d="M32.746 62.206a5.918 5.918 0 1 0 0-11.837 5.918 5.918 0 0 0 0 11.837z" fill="#000"></path><path d="M86.26 15.362l-8.31 4.786v-9.445c0-.755-.505-1.259-1.26-1.259h-5.037c-.756 0-1.26.504-1.26 1.26v9.444l-8.184-4.786c-.63-.377-1.385-.126-1.763.504l-2.518 4.407c-.378.63-.126 1.386.503 1.763l8.185 4.785-8.185 4.785c-.63.378-.755 1.134-.503 1.763l2.518 4.408c.378.63 1.133.755 1.763.503l8.185-4.785v9.445c0 .755.503 1.259 1.26 1.259h5.036c.755 0 1.26-.504 1.26-1.26v-9.444l8.184 4.785c.63.378 1.385.126 1.763-.503l2.518-4.408c.378-.63.126-1.385-.503-1.763l-8.185-4.785 8.185-4.785c.63-.377.755-1.133.503-1.763l-2.518-4.407a1.274 1.274 0 0 0-1.637-.504z" fill="url(#paint0_linear_2266_13514)"></path><path d="M74.172 0v5.289c11.837 0 21.407 9.57 21.407 21.407h5.288C100.867 11.963 88.905 0 74.172 0zm27.455 75.68l-2.14-2.016c-.378-.377-.378-1.133 0-1.51l5.918-5.919-5.918-6.044c-.378-.378-.378-1.134 0-1.511l2.14-2.141c.378-.378 1.133-.378 1.511 0l9.57 9.57-9.57 9.57c-.503.378-1.133.378-1.511 0zm-22.666 0l-9.57-9.571 9.57-9.57c.377-.378 1.133-.378 1.51 0l2.141 2.14c.378.378.378 1.134 0 1.512l-5.918 5.918 5.918 5.918c.378.378.378 1.134 0 1.511l-2.14 2.141c-.378.378-1.133.378-1.511 0zm9.194-1.386l-2.519-1.385c-.503-.252-.63-.882-.377-1.385l7.303-12.97c.252-.504.882-.63 1.385-.378l2.519 1.385c.504.252.63.882.378 1.385l-7.304 12.97c-.252.504-.881.63-1.385.378z" fill="#000"></path></g><defs><linearGradient id="paint0_linear_2266_13514" x1="61.949" y1="38.96" x2="86.512" y2="14.396" gradientUnits="userSpaceOnUse"><stop stop-color="#99FF91"></stop><stop offset="1" stop-color="#00CEFF"></stop></linearGradient><clipPath id="clip0_2266_13514"><path fill="#fff" d="M0 0H112.575V90.286H0z"></path></clipPath></defs></svg> 