<svg xmlns="http://www.w3.org/2000/svg" role="img" viewBox="62.02 160.52 674.96 277.46"><style>svg {enable-background:new 0 0 800 600}</style><path fill="#0b68b2" d="M75.3 177.2h47v47h-47z"/><path fill="#010202" d="M121.2 422V252.8H76.7V422h44.5zm295.5 1.6v-41.5c-6.5 0-12-.3-16-1-4.7-.7-8.2-2.3-10.5-4.7-2.3-2.3-3.8-5.7-4.7-10-.7-4.2-1-9.7-1-16.4v-59.2h32.3v-38.1h-32.3v-66h-44.6v163.7c0 13.9 1.2 25.6 3.5 34.9 2.3 9.2 6.4 16.7 11.9 22.4 5.5 5.7 12.9 9.7 21.7 12.2 9 2.5 20.4 3.7 33.9 3.7h5.8zm255.5-1.6V173.7h-44.6V422h44.6zM296.8 269.3c-12.4-13.4-29.8-20.1-51.8-20.1-10.7 0-20.4 2.2-29.3 6.5-8.7 4.3-16.2 10.4-22.1 18.1l-2.5 3.2v-24.2h-44V422h44.3v-90.1 3.2c.5-15.9 4.3-27.6 11.7-35.1 7.9-8 17.4-12 28.3-12 12.9 0 22.7 4 29.3 11.7 6.4 7.7 9.7 18.6 9.7 32.4v89.7h45v-96c.2-24-6.2-43.1-18.6-56.5zM604.4 337c0-12.2-2.2-23.6-6.4-34.3-4.3-10.5-10.4-19.9-17.9-27.9-7.7-8-16.9-14.2-27.6-18.7-10.7-4.5-22.6-6.7-35.4-6.7-12.2 0-23.7 2.3-34.4 6.9-10.7 4.7-20.1 10.9-27.9 18.7-7.9 7.9-14.2 17.2-18.7 27.9-4.7 10.7-6.9 22.2-6.9 34.4s2.2 23.7 6.5 34.4 10.5 20.1 18.2 27.9c7.7 7.9 17.2 14.2 28.3 18.7 11 4.7 23.2 7 36.3 7 37.8 0 61.2-17.2 75.2-33.3l-32.1-24.4c-6.7 8-22.7 18.9-42.8 18.9-12.5 0-22.9-2.8-30.8-8.7-7.9-5.7-13.2-13.7-16-23.6l-.5-1.5h132.9V337zm-132.5-15.5c0-12.4 14.2-33.9 44.8-34.1 30.6 0 45 21.6 45 33.9l-89.8.2zM723 399.9c-.8-2-2-3.7-3.5-5.2s-3.2-2.7-5.2-3.5c-2-.8-4.2-1.3-6.4-1.3-2.3 0-4.3.5-6.4 1.3-2 .8-3.7 2-5.2 3.5s-2.7 3.2-3.5 5.2c-.8 2-1.3 4.2-1.3 6.4 0 2.3.5 4.3 1.3 6.4s2 3.7 3.5 5.2 3.2 2.7 5.2 3.5c2 .8 4.2 1.3 6.4 1.3 2.3 0 4.3-.5 6.4-1.3 2-.8 3.7-2 5.2-3.5s2.7-3.2 3.5-5.2c.8-2 1.3-4.2 1.3-6.4s-.5-4.4-1.3-6.4zm-2.7 11.7c-.7 1.7-1.7 3.2-2.8 4.3s-2.7 2.2-4.3 2.8c-1.7.7-3.3 1-5.3 1-1.8 0-3.7-.3-5.3-1-1.7-.7-3.2-1.7-4.3-2.8-1.2-1.2-2.2-2.7-2.8-4.3s-1-3.3-1-5.3c0-1.8.3-3.7 1-5.3.7-1.7 1.7-3.2 2.8-4.3 1.2-1.2 2.7-2.2 4.3-2.8 1.7-.7 3.3-1 5.3-1 1.8 0 3.7.3 5.3 1s3.2 1.7 4.3 2.8c1.2 1.2 2.2 2.7 2.8 4.3.7 1.7 1 3.3 1 5.3.2 1.9-.3 3.6-1 5.3zm-9.4-4c1.3-.2 2.3-.7 3.2-1.5s1.3-2 1.3-3.7c0-1.8-.5-3.2-1.7-4.2-1-1-2.8-1.5-5-1.5h-7.4v18.9h3.5v-7.7h2.5l4.7 7.7h3.7l-4.8-8zm-1.8-2.7h-4.2v-5.3h4.2c.5 0 1 .2 1.5.3.5.2.8.5 1 .8.2.3.3.8.3 1.5s-.2 1.2-.3 1.5c-.3.3-.7.7-1 .8-.5.2-1 .4-1.5.4z"/></svg>