<svg width="24" height="29" viewBox="0 0 24 29" fill="none" xmlns="http://www.w3.org/2000/svg">
<path fill-rule="evenodd" clip-rule="evenodd" d="M0.524209 6.67675L11.4741 0.145325C11.634 0.0501086 11.8154 0 12 0C12.1846 0 12.366 0.0501086 12.5259 0.145325L23.4758 6.67675C23.6352 6.77208 23.7675 6.9089 23.8595 7.07354C23.9515 7.23818 23.9999 7.42485 24 7.61488V20.6795C23.9999 20.8695 23.9515 21.0562 23.8595 21.2208C23.7675 21.3855 23.6352 21.5223 23.4758 21.6176L12.5259 28.1481C12.366 28.2433 12.1846 28.2935 12 28.2935C11.8154 28.2935 11.634 28.2433 11.4741 28.1481L0.524209 21.6176C0.364821 21.5223 0.232505 21.3855 0.140506 21.2208C0.048508 21.0562 5.9473e-05 20.8695 0 20.6795V7.61488C5.9473e-05 7.42485 0.048508 7.23818 0.140506 7.07354C0.232505 6.9089 0.364821 6.77208 0.524209 6.67675ZM10.9942 16.2172L9.69407 21.9296H9.68976C9.6784 21.9814 9.68355 22.0356 9.70445 22.0841C9.72535 22.1326 9.76089 22.1728 9.80576 22.1988C9.85063 22.2248 9.90244 22.2351 9.95347 22.2283C10.0045 22.2214 10.052 22.1978 10.0889 22.1608L16.2304 15.8357C16.2529 15.8129 16.2709 15.7856 16.2831 15.7555C16.2954 15.7255 16.3017 15.6932 16.3017 15.6605C16.3017 15.6279 16.2954 15.5957 16.2831 15.5656C16.2709 15.5355 16.2529 15.5082 16.2304 15.4854L13.0971 12.3322C13.0674 12.3026 13.0458 12.2656 13.0343 12.2247C13.0228 12.1838 13.0219 12.1405 13.0316 12.0992L14.3335 6.37253C14.3456 6.32049 14.3409 6.26578 14.32 6.21678C14.2992 6.16778 14.2634 6.12715 14.2181 6.10107C14.1728 6.07499 14.1204 6.0649 14.0691 6.07232C14.0177 6.07975 13.9701 6.10429 13.9335 6.14221L7.77138 12.4629C7.74877 12.4858 7.73082 12.5131 7.71856 12.5433C7.70631 12.5734 7.7 12.6058 7.7 12.6385C7.7 12.6712 7.70631 12.7036 7.71856 12.7337C7.73082 12.7639 7.74877 12.7912 7.77138 12.8141L10.9287 15.9842C10.9581 16.014 10.9795 16.0511 10.991 16.0919C11.0025 16.1327 11.0036 16.1758 10.9942 16.2172Z" fill="#262626" style="fill:#262626;fill:color(display-p3 0.1490 0.1490 0.1490);fill-opacity:1;"/>
</svg>
