<svg enable-background="new 120 420 358.8 350.6" viewBox="120 420 358.8 350.6" xmlns="http://www.w3.org/2000/svg"><path d="m300 420c-99.6 0-180 80.4-180 180 0 79.2 51.6 146.4 123.6 170.4 9.6 1.2 12-3.6 12-8.4v-31.2c-50.4 10.8-61.2-24-61.2-24-8.4-20.4-20.4-26.4-20.4-26.4-16.8-10.8 1.2-10.8 1.2-10.8 18 1.2 27.6 18 27.6 18 15.6 27.6 42 19.2 52.8 14.4 1.2-12 6-19.2 12-24-39.6-4.8-81.6-20.4-81.6-88.8 0-19.2 7.2-36 18-48-2.4-4.8-8.4-22.8 1.2-48 0 0 15.6-4.8 49.2 18 14.4-3.6 30-6 45.6-6s31.2 2.4 45.6 6c34.8-22.8 49.2-18 49.2-18 9.6 25.2 3.6 43.2 1.2 48 12 12 18 28.8 18 48 0 69.6-42 84-81.6 88.8 6 6 12 16.8 12 33.6v49.2c0 4.8 3.6 10.8 12 8.4 72-24 122.4-91.2 122.4-170.4 1.2-98.4-79.2-178.8-178.8-178.8z" fill="#181616"/></svg>