<svg height="32" viewBox="0 0 32 32" width="32" xmlns="http://www.w3.org/2000/svg" xmlns:xlink="http://www.w3.org/1999/xlink"><mask id="a" fill="#fff"><path d="m.26666667.36363636h19.00000003v13.00000004h-19.00000003z" fill="#fff" fill-rule="evenodd"/></mask><g fill="none" fill-rule="evenodd"><circle cx="16" cy="16" fill="#cccdd1" r="16"/><path d="m7.8729924 9.64708726v-5.56690179l4.9454361 2.78345089zm9.3276342-8.88579018c-1.4867843-.39766072-7.43392171-.39766072-7.43392171-.39766072s-5.94719675 0-7.43398109.38245536c-.7982372.21397768-1.45572429.85649107-1.6746887 1.65175447-.39136843 1.4529241-.39136843 4.46579017-.39136843 4.46579017s0 3.02830358.39136843 4.46579014c.21920196.7952634.86089179 1.4225715 1.6746887 1.6366072 1.50234406.3976027 7.43398109.3976027 7.43398109.3976027s5.94713741 0 7.43392171-.3824554c.8138563-.2139777 1.4554867-.8410536 1.6747481-1.636317.391212-1.45292406.391212-4.46602228.391212-4.46602228s.0156567-3.02807143-.391212-4.48099553c-.2192614-.7952634-.8608918-1.42257143-1.6747481-1.63654911z" fill="#000" mask="url(#a)" transform="translate(6 9)"/></g></svg>