<svg height="19" viewBox="0 0 24 19" width="24" xmlns="http://www.w3.org/2000/svg" xmlns:xlink="http://www.w3.org/1999/xlink"><mask id="a" height="15.8" maskUnits="userSpaceOnUse" width="17" x="0" y="0"><path d="m0 0h17v15.9h-17z" fill="#fff" fill-rule="evenodd"/></mask><mask id="b" height="16.7" maskUnits="userSpaceOnUse" width="13.9" x="0" y=".1"><path d="m0 .1h13.9v16.7h-13.9z" fill="#fff" fill-rule="evenodd"/></mask><g fill="#262626" fill-rule="evenodd" opacity=".5"><path d="m7.8.3c-1.1 2.2-2.2 4.4-3.3 6.5-.1.3 0 .4.1.6 1.9 2.2 3.9 4.5 5.8 6.7.1.1.2.2.3.4-3.6.3-7.1.8-10.7 1.2 5.6.1 11.3.1 17 .2-3-5.4-6-10.6-9-15.9-.1.1-.1.2-.2.3" mask="url(#a)" transform="translate(6.926582 2.674876)"/><path d="m13.9.1c-.1 0-.1 0-.2.1-2.5 2.1-4.9 4.1-7.4 6.2-.2.2-.4.4-.5.6-1.8 3-3.6 6-5.3 9-.2.3-.3.5-.5.8h.4c.6-.1 1.1-.1 1.7-.2.9-.1 1.7-.2 2.6-.3.3 0 .5-.1.6-.4 2.5-4.5 4.9-9 7.4-13.5.4-.7.8-1.5 1.2-2.3" mask="url(#b)" transform="translate(0 .001458)"/></g></svg>