
<svg width="24px" height="19px" viewBox="0 0 24 19" version="1.1" xmlns="http://www.w3.org/2000/svg" xmlns:xlink="http://www.w3.org/1999/xlink">
    <!-- Generator: Sketch 51.2 (57519) - http://www.bohemiancoding.com/sketch -->
    <desc>Created with Sketch.</desc>
    <defs>
        <polygon id="path-1" points="0.0201356962 0.0391473418 17.0132051 0.0391473418 17.0132051 15.8582278 0.0201356962 15.8582278"></polygon>
        <polygon id="path-3" points="3.64556962e-05 0.0593012658 13.945677 0.0593012658 13.945677 16.8022366 3.64556962e-05 16.8022366"></polygon>
    </defs>
    <g id="desktop" stroke="none" stroke-width="1" fill="none" fill-rule="evenodd" opacity="0.5">
        <g id="01_Homepage" transform="translate(-981.000000, -3943.000000)">
            <g id="GetStarted" transform="translate(0.000000, 3522.000000)">
                <g id="Via-CLoud" transform="translate(953.000000, 71.000000)">
                    <g id="Button" transform="translate(0.000000, 328.000000)">
                        <g id="Cloud_Azure" transform="translate(28.000000, 22.000000)">
                            <g id="Page-1">
                                <g id="Group-3" transform="translate(6.926582, 2.674876)">
                                    <mask id="mask-2" fill="white">
                                        <use xlink:href="#path-1"></use>
                                    </mask>
                                    <g id="Clip-2"></g>
                                    <path d="M7.81958886,0.275562532 C6.72810532,2.46642835 5.64044962,4.65911696 4.54264709,6.84682329 C4.4361357,7.05911696 4.48905722,7.18549671 4.63147747,7.35009418 C6.56660658,9.58494987 8.49480911,11.82576 10.4239838,14.0657803 C10.5078319,14.163117 10.5840243,14.2671372 10.7187281,14.4376284 C7.10444962,14.8484841 3.56229266,15.2510765 0.0201356962,15.6537296 C0.0214116456,15.6677651 0.0228091139,15.6818613 0.0241458228,15.6959575 C5.66068253,15.7497904 11.2972192,15.8036233 17.0132294,15.8582461 C13.9729458,10.5458005 10.975923,5.30881823 7.96012557,0.0391473418 C7.89875848,0.141830886 7.85416101,0.20611443 7.81958886,0.275562532" id="Fill-1" fill="#9B9B9B" mask="url(#mask-2)"></path>
                                </g>
                                <g id="Group-6" transform="translate(0.000000, 0.001458)">
                                    <mask id="mask-4" fill="white">
                                        <use xlink:href="#path-3"></use>
                                    </mask>
                                    <g id="Clip-5"></g>
                                    <path d="M13.945677,0.0880587342 C13.9342542,0.0784587342 13.9227099,0.0689194937 13.9112263,0.0592587342 C13.8590947,0.098995443 13.8052618,0.136666329 13.7550744,0.178651139 C11.2858694,2.24325873 8.81447696,4.30537519 6.35195544,6.37794228 C6.13322127,6.56204354 5.93587443,6.79274734 5.78938329,7.03803342 C4.0102238,10.0169499 2.24224405,13.0025499 0.471955443,15.9867524 C0.319206076,16.2442511 0.170892152,16.5044233 3.64556962e-05,16.7986815 C0.154973165,16.7986815 0.263368101,16.8076132 0.369757975,16.7971625 C0.922183291,16.7431473 1.47400101,16.6822056 2.02636557,16.6274005 C2.90039089,16.5406359 3.77423392,16.4515625 4.64910987,16.3748233 C4.93498329,16.3497296 5.10553519,16.230398 5.24935291,15.9668233 C7.70549468,11.465517 10.1743352,6.97113722 12.6399554,2.47499544 C13.0760263,1.67983595 13.5105175,0.883765063 13.945677,0.0880587342" id="Fill-4" fill="#9B9B9B" mask="url(#mask-4)"></path>
                                </g>
                            </g>
                        </g>
                    </g>
                </g>
            </g>
        </g>
    </g>
</svg>