<svg xmlns="http://www.w3.org/2000/svg" role="img" viewBox="11.74 10.18 36.46 39.59"><style>svg {enable-background:new 0 0 60 60}</style><path d="M34.0673218,10.94104H15.442749c-1.5932007,0-2.8893433,1.2931519-2.8893433,2.881897v27.1099243v5.2449341 c0,1.5887451,1.2961426,2.8811646,2.8893433,2.8811646h18.6245728c1.5887451,0,2.8815918-1.2924194,2.8815918-2.8811646v-5.2449341 V33.682251h7.8927002c1.4365234,0,2.6049805-1.1688843,2.6049805-2.6049805v-7.9414673 c0-1.4361572-1.168457-2.604248-2.6049805-2.604248h-7.8927002V13.822937 C36.9489136,12.2341919,35.6560669,10.94104,34.0673218,10.94104z M35.4241943,46.1777954 c0,0.7481689-0.6086426,1.3564453-1.3568726,1.3564453H15.442749c-0.7522583,0-1.364624-0.6082764-1.364624-1.3564453V43.456604 c0.4083252,0.2205811,0.8685303,0.3574219,1.364624,0.3574219h18.6245728c0.493103,0,0.9505615-0.1359863,1.3568726-0.3552246 V46.1777954z M35.4241943,40.9328613c0,0.7481689-0.6086426,1.3564453-1.3568726,1.3564453H15.442749 c-0.7522583,0-1.364624-0.6082764-1.364624-1.3564453V13.822937c0-0.74823,0.6123657-1.3572388,1.364624-1.3572388h18.6245728 c0.74823,0,1.3568726,0.6090088,1.3568726,1.3572388v6.7086182h-3.4786377c-1.4365234,0-2.6049805,1.1680908-2.6049805,2.604248 v13.5958862c0,0.3260498,0.2073364,0.616394,0.5162964,0.7213745c0.0807495,0.0275879,0.1637573,0.0409546,0.2460327,0.0409546 c0.2315674,0,0.4559937-0.1057129,0.6034546-0.2962646l2.7151489-3.5155029h2.0026855V40.9328613z M44.8416138,22.0562744 c0.5955811,0,1.0802612,0.4838867,1.0802612,1.0795288v7.9414673c0,0.5955811-0.4846802,1.0802612-1.0802612,1.0802612H33.0469971 c-0.2359619,0-0.4589844,0.109436-0.6033936,0.2963257l-1.5783081,2.0435791V23.1358032 c0-0.5956421,0.4846802-1.0795288,1.0802612-1.0795288H44.8416138z"/><path d="M26.779541 44.9136353h-4.0496826c-.4210205 0-.7623901.3410034-.7623901.7623291 0 .4213867.3413696.7623901.7623901.7623901h4.0496826c.4209595 0 .7623291-.3410034.7623291-.7623901C27.5418701 45.2546387 27.2005005 44.9136353 26.779541 44.9136353zM25.3534546 13.7640991h-5.1489258c-.4210205 0-.7623291.3410034-.7623291.7623901s.3413086.7623291.7623291.7623291h5.1489258c.4210205 0 .7623291-.3409424.7623291-.7623291S25.7744751 13.7640991 25.3534546 13.7640991zM30.0675659 14.5264893c0-.4213867-.3413696-.7623901-.7623901-.7623901h-1.4293823c-.4210205 0-.7623901.3410034-.7623901.7623901s.3413696.7623291.7623901.7623291h1.4293823C29.7261963 15.2888184 30.0675659 14.947876 30.0675659 14.5264893zM34.0442505 25.9343262h8.7038574c.4210205 0 .7623291-.3410034.7623291-.7623901s-.3413086-.7623291-.7623291-.7623291h-8.7038574c-.4210205 0-.7623291.3409424-.7623291.7623291S33.62323 25.9343262 34.0442505 25.9343262zM34.0442505 29.8093872h8.7038574c.4210205 0 .7623291-.3409424.7623291-.7623291s-.3413086-.7623901-.7623291-.7623901h-8.7038574c-.4210205 0-.7623291.3410034-.7623291.7623901S33.62323 29.8093872 34.0442505 29.8093872z"/></svg>