<svg id="Layer_1" data-name="Layer 1" xmlns="http://www.w3.org/2000/svg" viewBox="0 0 361.95 68.68"><defs><style>.cls-1{fill:#262626;}.cls-2{fill:#ee4c2c;}.cls-3{fill:#bbb;}</style></defs><path class="cls-1" d="M80.17,38.56l-5.58.06V53.06h-4.2V12H80.7c10.82,0,16,5.25,16,12.8C96.71,33.83,90.34,38.43,80.17,38.56Zm.39-22.65h-6V34.75l5.84-.13c7.75-.13,11.95-3.22,11.95-9.58C92.38,19.2,88.24,15.91,80.56,15.91Z"/><path class="cls-1" d="M115.41,52.73,113,59.23c-2.76,7.35-5.65,9.45-9.72,9.45a13.91,13.91,0,0,1-5.84-1.38l1.25-3.74a9.49,9.49,0,0,0,4.59,1.32c2.3,0,4-1.25,6.17-7l2-5.32L99.73,23h4.4l9.45,24.81L122.83,23h4.27Z"/><path class="cls-1" d="M141,16V53.06h-4.2V16H122.31V12h33.07V16Z"/><path class="cls-1" d="M167.92,53.92c-8.34,0-14.5-6.17-14.5-15.82s6.43-16,14.83-16S182.69,28.32,182.69,38,176.26,53.92,167.92,53.92Zm.13-28.09c-6.37,0-10.57,5.05-10.57,12.14,0,7.35,4.27,12.27,10.64,12.27s10.56-5.05,10.56-12.14C178.68,30.75,174.42,25.83,168.05,25.83Z"/><path class="cls-1" d="M193,53.06h-4.07V23l4.07-.85v6.43c2-3.87,4.92-6.43,8.86-6.43a10.89,10.89,0,0,1,5.25,1.38l-1,3.8A9,9,0,0,0,201.46,26c-3.15,0-6.11,2.36-8.47,7.75Z"/><path class="cls-1" d="M223.05,53.92c-9.06,0-14.7-6.5-14.7-15.82s6.23-16,14.77-16a17.12,17.12,0,0,1,9.38,2.56l-1.05,3.67A15.25,15.25,0,0,0,223.12,26c-6.5,0-10.57,4.85-10.57,12,0,7.35,4.27,12.14,10.63,12.14a15.59,15.59,0,0,0,8.34-2.5l.85,3.75A18,18,0,0,1,223.05,53.92Z"/><path class="cls-1" d="M257.11,53.06V33.64c0-5.26-2.1-7.62-6.43-7.62a13.57,13.57,0,0,0-9.32,4.27V53.06h-4.07V8.83L241.36,8v19a15.4,15.4,0,0,1,10.44-4.79c5.84,0,9.38,3.74,9.38,10.3V53.06Z"/><path class="cls-2" d="M37.61,15.58l-3.9,3.89a16.52,16.52,0,1,1-23.36,0h0l10.3-10.3L22,7.78h0V0L6.45,15.58a22,22,0,1,0,31.16,0Z"/><path class="cls-2" d="M31.83,13.71a2.86,2.86,0,1,0-4,0A2.86,2.86,0,0,0,31.83,13.71Z"/><path class="cls-1" d="M302.35,17.38V8.12H308V9h-4.66v3.32h3.89v.85h-3.89v3.34H308v.87Z"/><path class="cls-1" d="M314.14,17.38V13c0-1.19-.48-1.72-1.5-1.72a3.06,3.06,0,0,0-2.06,1v5.14h-.92V10.6l.92-.2v1.12a3.49,3.49,0,0,1,2.31-1.12,2.06,2.06,0,0,1,2.17,2.33v4.65Z"/><path class="cls-1" d="M319.11,17.6c-1.29,0-1.87-.71-1.82-2.13l.1-4-1-.06,0-.58,1-.24L317.47,9h.87l0,1.59h2.26l0,.81h-2.25l-.11,4.06c0,.86.28,1.27,1,1.27a3.36,3.36,0,0,0,1.3-.32l.16.8A3.7,3.7,0,0,1,319.11,17.6Z"/><path class="cls-1" d="M322.48,14.09a2.41,2.41,0,0,0,2.37,2.63,3.68,3.68,0,0,0,2-.57L327,17a4.22,4.22,0,0,1-2.18.57,3.25,3.25,0,0,1-3.27-3.52c0-2.13,1.36-3.65,3.2-3.65a2.34,2.34,0,0,1,2.47,2.51,4.14,4.14,0,0,1-.15,1.08l-4.59,0Zm3.82-.81a1.51,1.51,0,0,0,0-.3,1.56,1.56,0,0,0-1.63-1.75,2.2,2.2,0,0,0-2.15,2.06Z"/><path class="cls-1" d="M330,17.38H329V10.6l.92-.2v1.46a2.28,2.28,0,0,1,2-1.46,2.44,2.44,0,0,1,1.19.32l-.24.85a2.1,2.1,0,0,0-1-.29c-.71,0-1.37.53-1.91,1.75Z"/><path class="cls-1" d="M337.41,10.45c1.84,0,3,1.45,3,3.51a3.36,3.36,0,0,1-3.35,3.61,4.36,4.36,0,0,1-1.66-.35v3.61h-.92V10.57l.92-.2v.91A2.91,2.91,0,0,1,337.41,10.45Zm-2,5.76a2.83,2.83,0,0,0,1.71.54c1.45,0,2.35-1.18,2.35-2.78s-.86-2.68-2.24-2.68a2.73,2.73,0,0,0-1.82.76Z"/><path class="cls-1" d="M343.17,17.38h-.91V10.6l.91-.2v1.46a2.28,2.28,0,0,1,2-1.46,2.44,2.44,0,0,1,1.19.32l-.24.85a2.07,2.07,0,0,0-1-.29c-.71,0-1.37.53-1.91,1.75Z"/><path class="cls-1" d="M348.2,9a.62.62,0,0,1-.62-.68.62.62,0,1,1,1.24,0A.61.61,0,0,1,348.2,9Zm-.46,8.34V10.6l.92-.2v7Z"/><path class="cls-1" d="M352.51,17.57a4.36,4.36,0,0,1-2.23-.6l.26-.85a3.64,3.64,0,0,0,2,.63c.81,0,1.52-.41,1.52-1.15s-.86-1-1.7-1.31-2-.75-2-1.93a2,2,0,0,1,2.29-2,4.58,4.58,0,0,1,2.06.51l-.26.83a4.1,4.1,0,0,0-1.86-.51c-.82,0-1.36.39-1.36,1s.8,1,1.68,1.27,2,.73,2,2A2.18,2.18,0,0,1,352.51,17.57Z"/><path class="cls-1" d="M357.21,14.09a2.41,2.41,0,0,0,2.37,2.63,3.63,3.63,0,0,0,2-.57l.18.85a4.22,4.22,0,0,1-2.18.57,3.25,3.25,0,0,1-3.27-3.52c0-2.13,1.36-3.65,3.2-3.65A2.33,2.33,0,0,1,362,12.91a4.15,4.15,0,0,1-.14,1.08l-4.6,0Zm3.83-.81c0-.08,0-.22,0-.3a1.56,1.56,0,0,0-1.63-1.75,2.21,2.21,0,0,0-2.15,2.06Z"/><path class="cls-1" d="M306.89,32.75c0-1.08-.88-1.51-2.34-1.94-1.3-.38-2.69-.94-2.69-2.59a2.67,2.67,0,0,1,3-2.52,5.13,5.13,0,0,1,2.79.8l-.35.83a4.5,4.5,0,0,0-2.42-.77c-1.4,0-2.06.74-2.06,1.59,0,1,.91,1.4,2.34,1.85s2.68,1,2.68,2.68-1.28,2.67-3.13,2.67a5.62,5.62,0,0,1-3-.86l.35-.85a4.59,4.59,0,0,0,2.66.86C306,34.5,306.89,33.73,306.89,32.75Z"/><path class="cls-1" d="M310.41,28.37v4.38c0,1.19.47,1.72,1.47,1.72a3,3,0,0,0,2.08-1V28.37h.92v6.78l-.92.2v-1.1a3.43,3.43,0,0,1-2.34,1.1A2.06,2.06,0,0,1,309.49,33V28.37Z"/><path class="cls-1" d="M320,28.22c1.84,0,3,1.45,3,3.51a3.36,3.36,0,0,1-3.35,3.62A4.37,4.37,0,0,1,318,35v3.62h-.92V28.34l.92-.19v.9A2.91,2.91,0,0,1,320,28.22ZM318,34a2.83,2.83,0,0,0,1.7.54c1.46,0,2.36-1.17,2.36-2.77s-.86-2.68-2.24-2.68a2.76,2.76,0,0,0-1.82.75Z"/><path class="cls-1" d="M327.69,28.22c1.84,0,3,1.45,3,3.51a3.36,3.36,0,0,1-3.35,3.62,4.37,4.37,0,0,1-1.66-.36v3.62h-.91V28.34l.91-.19v.9A2.91,2.91,0,0,1,327.69,28.22Zm-2,5.76a2.86,2.86,0,0,0,1.71.54c1.45,0,2.35-1.17,2.35-2.77s-.86-2.68-2.23-2.68a2.77,2.77,0,0,0-1.83.75Z"/><path class="cls-1" d="M335.43,35.35a3.27,3.27,0,0,1-3.27-3.57,3.34,3.34,0,0,1,3.34-3.6,3.25,3.25,0,0,1,3.26,3.57A3.35,3.35,0,0,1,335.43,35.35Zm0-6.34a2.45,2.45,0,0,0-2.38,2.74c0,1.66,1,2.77,2.4,2.77a2.46,2.46,0,0,0,2.38-2.74C337.86,30.12,336.9,29,335.46,29Z"/><path class="cls-1" d="M341.49,35.15h-.92V28.37l.92-.19v1.45a2.26,2.26,0,0,1,2-1.45,2.43,2.43,0,0,1,1.18.31l-.23.86a2,2,0,0,0-1-.3c-.71,0-1.38.53-1.91,1.75Z"/><path class="cls-1" d="M348.36,35.38c-1.29,0-1.87-.71-1.83-2.14l.11-4-1-.06,0-.58,1-.24,0-1.54h.87l0,1.59h2.27l-.05.81h-2.25l-.1,4.06c0,.86.28,1.28,1,1.28a3.33,3.33,0,0,0,1.3-.33l.17.8A3.79,3.79,0,0,1,348.36,35.38Z"/><path class="cls-1" d="M304.55,49.65l-1.26,0v3.26h-.94V43.67h2.32c2.45,0,3.62,1.18,3.62,2.89C308.29,48.59,306.85,49.62,304.55,49.65Zm.09-5.11h-1.35v4.25l1.32,0c1.75,0,2.7-.72,2.7-2.16S306.38,44.54,304.64,44.54Z"/><path class="cls-1" d="M310.84,52.93h-.92V46.14l.92-.19V47.4a2.29,2.29,0,0,1,2-1.45,2.44,2.44,0,0,1,1.19.31l-.24.86a2,2,0,0,0-1-.3c-.71,0-1.37.54-1.91,1.75Z"/><path class="cls-1" d="M318,53.12a3.26,3.26,0,0,1-3.27-3.57,3.35,3.35,0,0,1,3.34-3.6,3.25,3.25,0,0,1,3.26,3.57A3.35,3.35,0,0,1,318,53.12Zm0-6.34a2.45,2.45,0,0,0-2.38,2.74c0,1.66,1,2.77,2.4,2.77a2.46,2.46,0,0,0,2.38-2.74C320.45,47.89,319.49,46.78,318.05,46.78Z"/><path class="cls-1" d="M322.78,51.86a1.54,1.54,0,0,1,1.11-1.29,2.37,2.37,0,0,1-1.09-2.07A2.51,2.51,0,0,1,325.46,46a3.17,3.17,0,0,1,1.6.4l1.88-.15.05.92-1.5-.15A2.36,2.36,0,0,1,328,48.5,2.5,2.5,0,0,1,325.4,51a2.83,2.83,0,0,1-1-.2c-.36.15-.76.43-.76.82s.33.69,1.54.69h.87c2,0,2.82.67,2.82,1.78,0,1.5-1.68,2.52-3.57,2.52s-3.07-.8-3.07-2a1.81,1.81,0,0,1,1.47-1.68A1.19,1.19,0,0,1,322.78,51.86Zm.34,2.59c0,.8.87,1.4,2.31,1.4s2.55-.69,2.55-1.6-.71-1.09-2.06-1.09c-.46,0-1,0-1.42,0C323.68,53.34,323.12,53.88,323.12,54.45Zm2.33-4.2a1.65,1.65,0,0,0,1.69-1.78,1.63,1.63,0,0,0-1.74-1.76,1.77,1.77,0,0,0,.05,3.54Z"/><path class="cls-1" d="M331.27,52.93h-.92V46.14l.92-.19V47.4a2.28,2.28,0,0,1,2-1.45,2.43,2.43,0,0,1,1.18.31l-.23.86a2,2,0,0,0-1-.3c-.71,0-1.38.54-1.91,1.75Z"/><path class="cls-1" d="M339.59,52.11a2.59,2.59,0,0,1-2,1,2,2,0,0,1-2.15-1.88c0-1.23,1-2.24,4.12-2.42v-.4a1.4,1.4,0,0,0-1.6-1.61,4.14,4.14,0,0,0-2.22.81l-.21-.86a4.8,4.8,0,0,1,2.52-.81,2.12,2.12,0,0,1,2.43,2.43v3.26c0,.49.09.69.68.68l-.06.76c-.89.05-1.38-.3-1.48-1Zm0-2.66c-2.33.26-3.16.78-3.16,1.68a1.25,1.25,0,0,0,1.4,1.19,2.42,2.42,0,0,0,1.76-.89Z"/><path class="cls-1" d="M351.19,52.93V48.56c0-1.19-.46-1.74-1.44-1.74a2.87,2.87,0,0,0-1.91.88c0,.09,0,.44,0,.61v4.62H347V48.56c0-1.19-.46-1.74-1.44-1.74a2.88,2.88,0,0,0-1.88.79v5.32h-.92V46.14l.92-.19v.93a3.25,3.25,0,0,1,2.15-.93,1.87,1.87,0,0,1,1.84,1.13A3.44,3.44,0,0,1,350,46c1.28,0,2.08.84,2.08,2.34v4.64Z"/><rect class="cls-3" x="281.87" y="7.97" width="0.92" height="45.09"/></svg>
