<svg xmlns="http://www.w3.org/2000/svg" role="img" viewBox="317.20 14.20 93.60 87.60"><path fill-opacity="0" fill="#fff" d="M-45-15h540v180H-45z"/><path fill-opacity="0" fill="#fff" d="M-45-15h540v180H-45z"/><path fill="#cc2faa" d="M409.4375 100.53516h-63.13672l31.57031-54.67579 3.23829 5.61329-3.23829 5.61718v-.01562l-21.85156 37.84375h43.69922l-13.21484-22.90234 4.85156-2.79688zm0 0"/><path fill="#cc2faa" d="M386.55469 66.5039c-2.23828 1.28907-5.08985.52735-6.3789-1.71484-.13282-.2539-.25392-.48828-.35548-.76172-.7461-2.08593.07031-4.47656 2.05078-5.6328 1.96875-1.13673 4.4297-.67579 5.85547.98437.1875.22265.375.47656.52735.73047 1.28515 2.23828.52343 5.08984-1.71485 6.3789m-57.5586-44.58203h43.69923l-21.85156 37.84766zm-9.71874-5.61328l31.5664 54.67187 31.57032-54.67187zm0 0"/></svg>