<?xml version="1.0" encoding="UTF-8"?>
<svg xmlns="http://www.w3.org/2000/svg" width="800" height="200" viewBox="0 0 800 200" fill="none">
  <mask id="mask0_1855_241" style="mask-type:luminance" maskUnits="userSpaceOnUse" x="0" y="30" width="800" height="141">
    <path d="M800 30H0V170.852H800V30Z" fill="white"></path>
  </mask>
  <g mask="url(#mask0_1855_241)">
    <path d="M103.72 65.774C99.2325 65.774 94.8675 66.5914 90.5891 68.2435C86.3281 69.8782 82.4847 72.3479 79.111 75.6176C75.7197 78.9044 72.9891 83.061 70.9022 88.0869C68.8153 93.1132 67.7891 99.026 67.7891 105.809C67.7891 111.496 68.6066 116.783 70.2588 121.652C71.8934 126.522 74.3632 130.696 77.6325 134.209C80.9197 137.704 85.0412 140.47 90.0153 142.504C94.9891 144.522 100.763 145.53 107.32 145.53C112.676 145.53 117.493 145.043 121.754 144.052C126.015 143.061 129.285 141.739 130.92 140.852L128.815 129.774C127.059 130.643 124.502 131.461 121.111 132.226C117.72 132.991 113.615 133.374 108.798 133.374C100.38 133.374 93.8412 131.322 89.1978 127.218C84.5544 123.113 81.9456 117.13 81.4066 109.252H135.876V104.487C135.876 91.4782 133.093 81.7566 127.511 75.3566C121.928 68.9566 113.998 65.7566 103.72 65.7566M81.7369 98.2435C82.0675 95.6176 82.7803 93.061 83.8759 90.5391C84.9719 88.0176 86.45 85.7913 88.311 83.8088C90.1719 81.8435 92.3803 80.261 94.9544 79.061C97.5281 77.861 100.398 77.2522 103.563 77.2522C109.146 77.2522 113.632 79.1479 117.024 82.922C120.415 86.6957 122.102 91.8088 122.102 98.261H81.7369V98.2435Z" fill="black"></path>
    <path d="M600.228 65.9476C598.887 65.8955 597.756 65.9476 597.756 65.9476C588.8 66.3476 581.931 68.9564 577.165 73.7739C571.965 79.0257 569.375 87.4608 569.375 99.0432V143.687H582.834V101.495C582.834 96.5739 583.272 92.5739 584.141 89.513C585.028 86.452 586.244 84.0695 587.828 82.3651C589.409 80.6779 591.322 79.4954 593.565 78.8345C593.565 78.8345 598.975 77.252 604.4 78.8345C606.644 79.4954 608.556 80.6608 610.141 82.3651C611.722 84.0695 612.956 86.452 613.828 89.513C614.697 92.5739 615.15 96.5739 615.15 101.495V143.687H628.609V99.0432C628.609 87.4432 626 79.0257 620.819 73.7739C616.053 68.9564 609.185 66.3476 600.209 65.9476" fill="black"></path>
    <path d="M208.922 76.9219C206.14 73.4259 202.713 70.6956 198.661 68.7131C194.609 66.7478 190.018 65.7565 184.87 65.7565C181.044 65.7565 177.566 66.2782 174.453 67.3218C171.34 68.3653 168.957 69.3741 167.322 70.3478V30H153.705V141.565C156.54 142.452 160.313 143.322 165.027 144.191C169.722 145.061 175.096 145.513 181.113 145.513C186.574 145.513 191.566 144.574 196.035 142.73C200.522 140.87 204.349 138.226 207.513 134.765C210.679 131.322 213.149 127.13 214.888 122.209C216.644 117.287 217.513 111.757 217.513 105.635C217.513 99.5131 216.766 94.3478 215.305 89.4781C213.827 84.6088 211.688 80.4347 208.905 76.9219M197.183 126.557C192.922 131.2 187.009 133.53 179.461 133.53C177.601 133.53 175.635 133.391 173.549 133.113C171.479 132.835 169.392 132.435 167.322 131.878V83.6522C168.853 82.2259 171.096 80.8869 174.053 79.6347C177.009 78.3825 180.07 77.7566 183.235 77.7566C186.853 77.7566 189.931 78.4697 192.505 79.8956C195.079 81.3219 197.183 83.2522 198.818 85.7219C200.453 88.1912 201.653 91.1303 202.418 94.5912C203.183 98.0347 203.566 101.722 203.566 105.67C203.566 114.974 201.427 121.948 197.166 126.591" fill="black"></path>
    <path d="M268.452 65.774C263.965 65.774 259.582 66.5914 255.321 68.2435C251.061 69.8782 247.217 72.3479 243.843 75.6176C240.452 78.9044 237.721 83.061 235.635 88.0869C233.548 93.1132 232.521 99.026 232.521 105.809C232.521 111.496 233.339 116.783 234.991 121.652C236.626 126.522 239.096 130.696 242.382 134.209C245.669 137.704 249.791 140.47 254.765 142.504C259.739 144.522 265.513 145.53 272.069 145.53C277.426 145.53 282.243 145.043 286.504 144.052C290.765 143.061 294.035 141.739 295.669 140.852L293.565 129.774C291.808 130.643 289.252 131.461 285.861 132.226C282.469 132.991 278.365 133.374 273.548 133.374C265.13 133.374 258.591 131.322 253.948 127.218C249.304 123.113 246.696 117.13 246.156 109.252H300.626V104.487C300.626 91.4782 297.843 81.7566 292.261 75.3566C286.678 68.9566 278.748 65.7566 268.469 65.7566M246.487 98.2435C246.817 95.6176 247.53 93.061 248.626 90.5391C249.721 88.0176 251.2 85.7913 253.061 83.8088C254.921 81.8435 257.13 80.261 259.704 79.061C262.278 77.861 265.148 77.2522 268.313 77.2522C273.896 77.2522 278.382 79.1479 281.774 82.922C285.165 86.6957 286.852 91.8088 286.852 98.261H246.487V98.2435Z" fill="black"></path>
    <path d="M543.861 76.678C540.798 73.2346 537.13 70.5565 532.871 68.6433C528.608 66.7303 523.949 65.7738 518.92 65.7738C513.896 65.7738 509.427 66.7303 505.217 68.6433C501.008 70.5565 497.358 73.2346 494.296 76.678C491.237 80.1218 488.852 84.313 487.164 89.2346C485.48 94.1565 484.627 99.6346 484.627 105.635C484.627 111.635 485.48 117.096 487.164 121.965C488.852 126.835 491.237 131.026 494.296 134.522C497.358 138.017 500.993 140.73 505.217 142.643C509.427 144.556 513.998 145.513 518.92 145.513C523.842 145.513 528.608 144.556 532.871 142.643C537.13 140.73 540.798 138.017 543.861 134.522C546.92 131.026 549.305 126.835 550.993 121.965C552.68 117.096 553.53 111.652 553.53 105.635C553.53 99.6174 552.68 94.1565 550.993 89.2346C549.286 84.313 546.92 80.1218 543.861 76.678ZM534.017 125.896C530.296 130.87 525.271 133.356 518.92 133.356C512.574 133.356 507.739 130.87 504.071 125.896C500.398 120.922 498.574 114.156 498.574 105.635C498.574 97.113 500.398 90.1911 504.071 85.1999C507.739 80.2258 512.68 77.7389 518.92 77.7389C525.164 77.7389 530.296 80.2258 534.017 85.1999C537.739 90.174 539.598 96.9911 539.598 105.635C539.598 114.278 537.739 120.922 534.017 125.896Z" fill="black"></path>
    <path d="M695.323 106.139C691.933 104.174 688.264 102.504 684.333 101.13C680.386 99.7565 676.733 98.4174 673.342 97.113C669.948 95.7911 667.133 94.3477 664.889 92.7652C662.645 91.1824 661.533 89.2346 661.533 86.9389C661.533 80.4868 667.445 77.2521 679.255 77.2521C681.323 77.2521 683.499 77.3565 685.742 77.5824C687.986 77.8087 690.089 78.1043 692.055 78.4868C694.02 78.8696 695.777 79.3043 697.308 79.8087C698.836 80.2955 700.036 80.7652 700.923 81.1999L704.47 69.6868C701.308 68.6955 696.401 67.2869 691.967 66.6781C687.533 66.0695 683.236 65.7738 679.079 65.7738C668.47 65.7738 660.679 67.826 655.708 71.9302C650.733 76.0346 648.245 81.1477 648.245 87.2696C648.245 91.6521 649.358 95.1999 651.601 97.9302C653.845 100.661 656.63 102.956 659.967 104.817C663.308 106.678 666.942 108.243 670.87 109.496C674.82 110.765 678.436 112.035 681.792 113.356C685.133 114.678 687.914 116.209 690.158 117.948C692.401 119.704 693.514 121.948 693.514 124.678C693.514 130.922 687.342 134.035 674.977 134.035C670.158 134.035 665.655 133.461 661.445 132.313C657.236 131.165 654.508 130.296 650.679 128.539L646.748 140.261C650.699 142.017 654.855 143.322 659.22 144.191C663.601 145.061 668.401 145.513 673.655 145.513C685.255 145.513 693.723 143.635 699.079 139.843C704.436 136.07 707.114 130.748 707.114 123.843C707.114 119.582 705.986 116.052 703.758 113.27C701.514 110.487 698.699 108.104 695.308 106.139" fill="black"></path>
    <path d="M9.53007 77.8954C-0.348198 89.1301 -0.122112 102.956 0.0344101 114.765L0.0691926 143.704H13.5996L13.5648 114.591C13.4431 104.852 13.2344 94.1388 19.6866 86.8344C27.1648 78.3476 39.4952 76.1388 53.4255 81.8607L59.2343 69.6173C39.965 61.7041 20.8344 65.078 9.54744 77.8954" fill="black"></path>
    <path d="M454.867 39.5478C454.867 34.2782 450.604 30 445.336 30C440.067 30 435.789 34.2782 435.789 39.5478C435.789 44.8174 440.067 49.0957 445.336 49.0957C450.604 49.0957 454.882 44.8174 454.882 39.5478" fill="black"></path>
    <path d="M407.668 133.374C405.58 133.374 403.79 133.096 402.258 132.557C400.727 132 399.439 130.991 398.395 129.513C397.355 128.035 396.589 126.104 396.102 123.687C395.614 121.287 395.37 118.157 395.37 114.33V30H364.084V41.4782H381.911V114.33C381.911 119.478 382.292 123.982 383.058 127.861C383.824 131.739 385.127 134.991 386.989 137.618C388.849 140.243 391.37 142.209 394.536 143.53C397.702 144.852 401.702 145.496 406.517 145.496C408.589 145.496 410.589 145.322 412.502 145.009C414.083 144.748 416.068 144.418 417.458 144.07V132.07C417.317 132.104 417.18 132.157 417.039 132.191C414.311 132.957 410.833 133.339 407.668 133.339" fill="black"></path>
    <path d="M464.364 133.374C462.295 133.374 460.486 133.096 458.954 132.557C457.423 132.018 456.139 130.991 455.095 129.513C454.051 128.035 453.286 126.104 452.798 123.687C452.31 121.287 452.066 118.157 452.066 114.33V65.9305H438.607V114.33C438.607 119.478 438.988 123.983 439.754 127.861C440.52 131.739 441.823 134.991 443.686 137.618C445.545 140.244 448.066 142.209 451.232 143.53C454.398 144.852 458.398 145.496 463.217 145.496C465.286 145.496 467.286 145.322 469.198 145.009C470.779 144.748 472.764 144.418 474.154 144.07V132.07C474.017 132.104 473.876 132.157 473.739 132.191C471.007 132.957 467.529 133.339 464.364 133.339" fill="black"></path>
    <path d="M351.039 133.374C348.953 133.374 347.161 133.096 345.631 132.557C344.1 132 342.814 130.991 341.77 129.513C340.727 128.035 339.961 126.104 339.474 123.687C338.987 121.287 338.727 118.157 338.727 114.33V30H307.439V41.4782H325.266V114.33C325.266 119.478 325.648 123.982 326.414 127.861C327.178 131.739 328.483 134.991 330.344 137.618C332.205 140.243 334.709 142.209 337.892 143.53C341.057 144.852 345.057 145.496 349.874 145.496C351.944 145.496 353.944 145.322 355.857 145.009C357.439 144.748 359.422 144.418 360.814 144.07V132.07C360.674 132.104 360.535 132.157 360.396 132.191C357.666 132.957 354.187 133.339 351.022 133.339" fill="black"></path>
    <path d="M800.016 159.356H720.588V170.835H800.016V159.356Z" fill="black"></path>
  </g>
</svg>
