
<svg width="12px" height="12px" viewBox="0 0 12 12" version="1.1" xmlns="http://www.w3.org/2000/svg" xmlns:xlink="http://www.w3.org/1999/xlink">
    <g id="Page-1" stroke="none" stroke-width="1" fill="none" fill-rule="evenodd">
        <g id="Search_Default" transform="translate(-1328.000000, -57.000000)" fill="#000000" fill-rule="nonzero">
            <g id="noun_Search_1868255" transform="translate(1334.000000, 63.000000) scale(-1, 1) translate(-1334.000000, -63.000000) translate(1328.000000, 57.000000)">
                <path d="M1.71428812,5.12081655 C1.72644866,2.28339606 4.03435115,-0.00807691871 6.87179861,2.13992511e-05 C9.70924607,0.00811971721 12.0040308,2.31272915 11.9999947,5.15017284 C11.9959585,7.98761653 9.69462663,10.2856882 6.85716762,10.2857143 C4.01215037,10.2762637 1.71157187,7.9658357 1.71428812,5.12081655 Z M3.2228661,5.12081655 C3.23637113,7.12556915 4.87023136,8.7410115 6.87501708,8.73179823 C8.8798028,8.72258497 10.4987462,7.09219391 10.4938247,5.08740187 C10.4889031,3.08260982 8.86197441,1.46018696 6.85716762,1.46081671 C4.84340075,1.46959016 3.2168953,3.10704501 3.22164161,5.12081655 L3.2228661,5.12081655 Z" id="Shape"></path>
                <polygon id="Shape" points="1.05745077 12 4.28571429 8.77717214 3.22826351 7.71428571 0 10.9371136"></polygon>
            </g>
        </g>
    </g>
</svg>
