<svg height="12" viewBox="0 0 12 12" width="12" xmlns="http://www.w3.org/2000/svg"><g transform="matrix(-1 0 0 1 12 0)"><path d="m1.71428812 5.12081655c.01216054-2.83742049 2.32006303-5.12889347 5.15751049-5.12079515s5.13223219 2.31270775 5.12819609 5.15015144c-.0040362 2.83744369-2.30536807 5.13551536-5.14282708 5.13554146-2.84501725-.0094506-5.14559575-2.3198786-5.1428795-5.16489775zm1.50857798 0c.01350503 2.0047526 1.64736526 3.62019495 3.65215098 3.61098168 2.00478572-.00921326 3.62372912-1.63960432 3.61880762-3.64439636-.0049216-2.00479205-1.63185029-3.62721491-3.63665708-3.62658516-2.01376687.00877345-3.64027232 1.6462283-3.63552601 3.65999984z"/><path d="m1.05745077 12 3.22826352-3.22282786-1.05745078-1.06288643-3.22826351 3.22282789z"/></g></svg>