<svg xmlns="http://www.w3.org/2000/svg" role="img" viewBox="0.09 25.59 255.58 204.83"><style>svg {enable-background:new 0 0 256 256}</style><path d="M63.1 106.3H9.9c-2.7 0-4.9 2.2-4.9 4.9s2.2 4.9 4.9 4.9h53.2c2.7 0 4.9-2.2 4.9-4.9s-2.2-4.9-4.9-4.9zm0 28.9H38.6c-2.7 0-4.9 2.2-4.9 4.9s2.2 4.9 4.9 4.9h24.5c2.7 0 4.9-2.2 4.9-4.9s-2.2-4.9-4.9-4.9zm0 28.9H22.7c-2.7 0-4.9 2.2-4.9 4.9s2.2 4.9 4.9 4.9h40.4c2.7 0 4.9-2.2 4.9-4.9s-2.2-4.9-4.9-4.9zm179.8-60.2c-4-8.5-9.3-16.2-15.8-22.9-3.1-3.3-6.6-6.3-10.2-9l6.4-8.5c1.6-2.2 1.2-5.3-1-6.9-2.2-1.6-5.3-1.2-6.9 1l-6.8 9c-4.5-2.7-9.3-4.9-14.2-6.7-4.3-1.5-8.7-2.7-13.2-3.6-2.9-.5-5.9-.9-8.8-1.1V40.3h9.9c2.7 0 4.9-2.2 4.9-4.9s-2.2-4.9-4.9-4.9h-29.7c-2.7 0-4.9 2.2-4.9 4.9s2.2 4.9 4.9 4.9h9.9v14.5c-11.4.4-22.7 3.1-33.1 7.9-8.5 4-16.2 9.2-23 15.7-9.5 9-16.8 20.3-21.3 32.6-1.6 4.3-2.8 8.9-3.7 13.5-.9 4.6-1.3 9.2-1.5 13.8-.3 13.2 2.5 26.4 8.2 38.4 4 8.4 9.2 16 15.7 22.7 9.1 9.5 20.4 16.8 32.7 21.2 4.3 1.5 8.7 2.7 13.2 3.6 4.5.8 9 1.3 13.6 1.4h2.2c12.4 0 24.8-2.7 36-8 8.4-3.9 16.1-9.1 22.8-15.5 9.6-9.1 17-20.4 21.5-32.8 1.6-4.3 2.8-8.9 3.6-13.4.9-4.6 1.4-9.3 1.5-13.9.4-13.1-2.4-26.3-8-38.1zm-3.1 50.1c-.8 4.1-1.8 8-3.2 11.9-4 10.9-10.5 21-19 29-5.9 5.6-12.7 10.3-20.2 13.7-10.5 4.9-22.3 7.4-33.7 7-4-.1-8-.5-12-1.3-4-.7-7.9-1.8-11.7-3.1-10.9-3.9-20.9-10.4-28.9-18.8-5.7-5.9-10.4-12.7-13.9-20.1-5-10.5-7.5-22.3-7.2-33.9.1-4.1.5-8.2 1.3-12.2.8-4.1 1.9-8.1 3.2-11.9 3.9-10.9 10.4-20.8 18.8-28.8 6-5.7 12.8-10.4 20.4-13.9 9.9-4.6 20.9-7 31.8-7h1.9c4 .1 8 .5 12 1.3 4 .7 7.9 1.8 11.7 3.2C202 73 212 79.4 220 87.8c5.7 6 10.4 12.8 14 20.3 4.9 10.5 7.4 22.1 7.1 33.7-.1 4-.5 8.2-1.3 12.2z"/><path d="M196.1 105.9L175 125c-1.1-.7-2.2-1.2-3.4-1.7-.9-.3-1.8-.6-2.7-.7-1-.2-1.9-.3-2.8-.3-2.7-.1-5.5.5-8 1.7-1.8.8-3.4 1.9-4.8 3.3-2 1.9-3.5 4.2-4.4 6.8-.3.9-.6 1.8-.8 2.8-.2 1-.3 1.9-.3 2.9-.1 2.8.5 5.5 1.7 8 .8 1.8 1.9 3.3 3.3 4.7 1.9 2 4.3 3.5 6.8 4.4.9.3 1.8.6 2.7.7.9.2 1.9.3 2.8.3h.5c2.6 0 5.2-.6 7.5-1.7 1.7-.8 3.4-1.9 4.8-3.2 2-1.9 3.5-4.3 4.5-6.8.3-.9.6-1.8.8-2.8.2-1 .3-1.9.3-2.9.1-2.7-.5-5.5-1.7-8 0-.1-.1-.1-.1-.2l21.2-19.1c2-1.8 2.2-5 .4-7-2-1.9-5.1-2.1-7.2-.3zm-22.7 35.7c-.1.4-.2.9-.3 1.3-.4 1.1-1.1 2.2-2 3-.6.6-1.3 1.1-2.1 1.4-1.1.5-2.3.7-3.5.7-.4 0-.9-.1-1.3-.1l-1.2-.3c-1.1-.4-2.2-1.1-3-2-.6-.6-1.1-1.3-1.5-2.1-.5-1.1-.8-2.3-.8-3.5 0-.4.1-.9.1-1.3.1-.4.2-.9.3-1.3.4-1.1 1.1-2.2 2-3 .6-.6 1.3-1.1 2.1-1.5 1.1-.5 2.2-.7 3.3-.7h.2c.4 0 .8.1 1.3.1l1.2.3c1.2.4 2.2 1.1 3 2 .6.6 1.1 1.4 1.5 2.1.5 1.1.8 2.3.7 3.5.1.5 0 1 0 1.4z"/></svg>