<svg width="16" height="16" viewBox="0 0 16 16" fill="none" xmlns="http://www.w3.org/2000/svg">
<path d="M10.8432 8L15.1075 3.73565C15.6308 3.21236 15.6308 2.36392 15.1075 1.8402L14.1598 0.892472C13.6365 0.369176 12.7881 0.369176 12.2643 0.892472L8 5.15682L3.73565 0.892472C3.21236 0.369176 2.36392 0.369176 1.8402 0.892472L0.892472 1.8402C0.369176 2.36349 0.369176 3.21193 0.892472 3.73565L5.15682 8L0.892472 12.2643C0.369176 12.7876 0.369176 13.6361 0.892472 14.1598L1.8402 15.1075C2.36349 15.6308 3.21236 15.6308 3.73565 15.1075L8 10.8432L12.2643 15.1075C12.7876 15.6308 13.6365 15.6308 14.1598 15.1075L15.1075 14.1598C15.6308 13.6365 15.6308 12.7881 15.1075 12.2643L10.8432 8Z" fill="#BBBBBB"/>
</svg>
