<svg height="336" viewBox="0 0 576 336" width="576" xmlns="http://www.w3.org/2000/svg" xmlns:xlink="http://www.w3.org/1999/xlink"><clipPath id="a"><path clip-rule="evenodd" d="m0 .00006104h432v251.99999896h-432z"/></clipPath><clipPath id="b"><path clip-rule="evenodd" d="m.00000644 0h432.00000356v252h-432.00000356z"/></clipPath><clipPath id="c"><path clip-rule="evenodd" d="m.00000644 0h432.00000356v252h-432.00000356z"/></clipPath><clipPath id="d"><path clip-rule="evenodd" d="m.00000644 0h432.00000356v252h-432.00000356z"/></clipPath><clipPath id="e"><path clip-rule="evenodd" d="m.00000644 0h432.00000356v252h-432.00000356z"/></clipPath><clipPath id="f"><path clip-rule="evenodd" d="m.00000644 0h432.00000356v252h-432.00000356z"/></clipPath><clipPath id="g"><path clip-rule="evenodd" d="m.00000644 0h432.00000356v252h-432.00000356z"/></clipPath><clipPath id="h"><path clip-rule="evenodd" d="m.00000644 0h432.00000356v252h-432.00000356z"/></clipPath><clipPath id="i"><path clip-rule="evenodd" d="m.00000644 0h432.00000356v252h-432.00000356z"/></clipPath><clipPath id="j"><path clip-rule="evenodd" d="m.00000644 0h432.00000356v252h-432.00000356z"/></clipPath><clipPath id="k"><path clip-rule="evenodd" d="m.00000644 0h432.00000356v252h-432.00000356z"/></clipPath><clipPath id="l"><path clip-rule="evenodd" d="m.00000644 0h432.00000356v252h-432.00000356z"/></clipPath><clipPath id="m"><path clip-rule="evenodd" d="m.00000644 0h432.00000356v252h-432.00000356z"/></clipPath><clipPath id="n"><path clip-rule="evenodd" d="m.00000644 0h432.00000356v252h-432.00000356z"/></clipPath><clipPath id="o"><path clip-rule="evenodd" d="m.00000644 0h432.00000356v252h-432.00000356z"/></clipPath><clipPath id="p"><path clip-rule="evenodd" d="m.00000644 0h432.00000356v252h-432.00000356z"/></clipPath><clipPath id="q"><path clip-rule="evenodd" d="m.00000644 0h432.00000356v252h-432.00000356z"/></clipPath><clipPath id="r"><path clip-rule="evenodd" d="m.00000644 0h432.00000356v252h-432.00000356z"/></clipPath><clipPath id="s"><path clip-rule="evenodd" d="m.00000644 0h432.00000356v252h-432.00000356z"/></clipPath><clipPath id="t"><path clip-rule="evenodd" d="m.00000644 0h432.00000356v252h-432.00000356z"/></clipPath><clipPath id="u"><path clip-rule="evenodd" d="m.00000644 0h432.00000356v252h-432.00000356z"/></clipPath><clipPath id="v"><path clip-rule="evenodd" d="m.00000644 0h432.00000356v252h-432.00000356z"/></clipPath><clipPath id="w"><path clip-rule="evenodd" d="m.00000644 0h432.00000356v252h-432.00000356z"/></clipPath><clipPath id="x"><path clip-rule="evenodd" d="m.00000644 0h432.00000356v252h-432.00000356z"/></clipPath><clipPath id="y"><path clip-rule="evenodd" d="m.00000644 0h432.00000356v252h-432.00000356z"/></clipPath><clipPath id="z"><path clip-rule="evenodd" d="m.00000644 0h432.00000356v252h-432.00000356z"/></clipPath><clipPath id="A"><path clip-rule="evenodd" d="m.00000644 0h432.00000356v252h-432.00000356z"/></clipPath><clipPath id="B"><path clip-rule="evenodd" d="m.00000644 0h432.00000356v252h-432.00000356z"/></clipPath><clipPath id="C"><path clip-rule="evenodd" d="m.00000644 0h432.00000356v252h-432.00000356z"/></clipPath><clipPath id="D"><path clip-rule="evenodd" d="m.00000644 0h432.00000356v252h-432.00000356z"/></clipPath><clipPath id="E"><path clip-rule="evenodd" d="m.00000644 0h432.00000356v252h-432.00000356z"/></clipPath><clipPath id="F"><path clip-rule="evenodd" d="m.00000644 0h432.00000356v252h-432.00000356z"/></clipPath><clipPath id="G"><path clip-rule="evenodd" d="m.00000644 0h432.00000356v252h-432.00000356z"/></clipPath><clipPath id="H"><path clip-rule="evenodd" d="m.00000644 0h432.00000356v252h-432.00000356z"/></clipPath><g transform="matrix(1.3333333 0 0 -1.3333333 0 336)"><g clip-path="url(#a)"><path d="m0 .00001526h432v252.00000474h-432z" fill="#fff" fill-rule="evenodd"/></g><path d="m95.58 212.04h96.5v-1.56h-96.5zm95.5 2.22 6-3-6-3z"/><path d="m95.58 198.96h96.5v-1.56h-96.5zm95.5 2.22 6-3-6-3z"/><path d="m96.3 171.48h96.5v-1.56h-96.5zm95.5 2.22 6-3-6-3z"/><g clip-path="url(#b)"><text font-family="Calibri" font-size="18" transform="matrix(1 0 0 -1 139.54 183.77)"><tspan x="0" y="0">…</tspan></text></g><path d="m9.72 196.11h54.54v6.45l12.9-12.9-12.9-12.9v6.45h-54.54z" fill="#4472c4" fill-opacity=".12941" fill-rule="evenodd"/><path d="m9.72 196.11h54.54v6.45l12.9-12.9-12.9-12.9v6.45h-54.54z" fill="none" stroke="#000" stroke-miterlimit="10" stroke-width=".24"/><path d="m93.24 158.88c-3.479 0-6.3.47-6.3 1.05v28.68c0 .58-2.821 1.05-6.3 1.05 3.479 0 6.3.47 6.3 1.05v28.68c0 .58 2.821 1.05 6.3 1.05" fill="none" stroke="#000" stroke-miterlimit="10" stroke-width=".96"/><g clip-path="url(#c)"><text font-family="Calibri" font-size="9.984" transform="matrix(1 0 0 -1 26.496 186.98)"><tspan x="0 2.515968 7.78752 13.059072 18.330624 21.675264" y="0">Inputs</tspan></text></g><g clip-path="url(#d)"><text font-family="Calibri" font-size="9.96" transform="matrix(1 0 0 -1 87.888 229.97)"><tspan x="0 5.76684 11.02572 16.294559 18.58536 20.87616 25.059361 29.8302 33.206638 35.49744 40.746361 46.035118 48.07692 52.87764 58.146481 61.62252 66.542763 71.313599 76.61232 78.863281 84.04248 89.311317 94.580162" y="0">Application Thread Pool</tspan></text></g><path d="m117.24 167.64h6.48v6.36h-6.48z" fill-rule="evenodd"/><path d="m117.24 167.64h6.48v6.36h-6.48z" fill="none" stroke="#000" stroke-miterlimit="10" stroke-width=".96"/><path d="m129.12 167.64h6.36v6.36h-6.36z" fill-rule="evenodd"/><path d="m129.12 167.64h6.36v6.36h-6.36z" fill="none" stroke="#000" stroke-miterlimit="10" stroke-width=".96"/><path d="m140.88 167.64h6.36v6.36h-6.36z" fill-rule="evenodd"/><g fill="none" stroke="#000" stroke-miterlimit="10"><path d="m140.88 167.64h6.36v6.36h-6.36z" stroke-width=".96"/><path d="m112.92 162.12h38.76v17.28h-38.76z" stroke-dasharray="1.92 1.44" stroke-width=".48"/><path d="m112.92 162.24 22.56-42.97" stroke-dasharray="1.92 1.44" stroke-width=".48"/><path d="m151.68 160.92 143.62-40.88" stroke-dasharray="1.92 1.44" stroke-width=".48"/><path d="m135.48 11.28h159.84v108h-159.84z" stroke-dasharray="1.92 1.44" stroke-width=".48"/><path d="m138.06 100.86h154.58" stroke-width="1.56"/></g><path d="m161.88 98.52h6.36v6.36h-6.36z" fill-rule="evenodd"/><path d="m161.88 98.52h6.36v6.36h-6.36z" fill="none" stroke="#000" stroke-miterlimit="10" stroke-width=".96"/><path d="m173.76 98.52h6.36v6.36h-6.36z" fill-rule="evenodd"/><path d="m173.76 98.52h6.36v6.36h-6.36z" fill="none" stroke="#000" stroke-miterlimit="10" stroke-width=".96"/><path d="m250.92 98.52h6.36v6.36h-6.36z" fill-rule="evenodd"/><path d="m250.92 98.52h6.36v6.36h-6.36z" fill="none" stroke="#000" stroke-miterlimit="10" stroke-width=".96"/><g clip-path="url(#e)"><text font-family="Calibri" font-size="9.96" transform="matrix(1 0 0 -1 206.16 97.704)"><tspan x="0" y="0">…</tspan></text></g><g clip-path="url(#f)"><text font-family="Calibri" font-size="8.04" transform="matrix(1 0 0 -1 160.66 108.98)"><tspan x="0 5.27998" y="0">Op</tspan></text></g><g clip-path="url(#g)"><text font-family="Calibri" font-size="8.04" transform="matrix(1 0 0 -1 172.34 108.82)"><tspan x="0 5.27998" y="0">Op</tspan></text></g><g clip-path="url(#h)"><text font-family="Calibri" font-size="8.04" transform="matrix(1 0 0 -1 249.19 109.1)"><tspan x="0 5.27998" y="0">Op</tspan></text></g><g clip-path="url(#i)"><text font-family="Calibri" font-size="9.96" transform="matrix(1 0 0 -1 61.512 97.632)"><tspan x="0 2.50992 7.78872 10.78668 15.70692 19.182961 24.103201 29.37204 33.585121 38.495399 41.005322 44.341919 49.63068 53.10672 58.026958 62.797798" y="0">Inference thread</tspan></text></g><path d="m152.58 78.6h115.91v-1.56h-115.91zm114.91 2.22 6-3-6-3z"/><path d="m151.2 21.48c-3.48 0-6.3.47-6.3 1.05v28.62c0 .58-2.82 1.05-6.3 1.05 3.48 0 6.3.47 6.3 1.05v28.62c0 .58 2.82 1.05 6.3 1.05" fill="none" stroke="#000" stroke-miterlimit="10" stroke-width=".96"/><path d="m176.38 98.52v-17.562h1v17.562zm-1.5-16.562 2-4 2 4z"/><g clip-path="url(#j)"><text font-family="Calibri" font-size="6.96" transform="matrix(1 0 0 -1 162.79 86.064)"><tspan x="0 3.2364 6.94608 9.34728" y="0">Fork</tspan></text></g><path d="m242.42 77.356v18.164h-1v-18.164zm1.5 17.164-2 4-2-4z"/><path d="m238.68 98.52h6.48v6.36h-6.48z" fill-rule="evenodd"/><path d="m238.68 98.52h6.48v6.36h-6.48z" fill="none" stroke="#000" stroke-miterlimit="10" stroke-width=".96"/><g clip-path="url(#k)"><text font-family="Calibri" font-size="8.064" transform="matrix(1 0 0 -1 236.54 109.2)"><tspan x="0 5.279968" y="0">Op</tspan></text></g><g clip-path="url(#l)"><text font-family="Calibri" font-size="6.96" transform="matrix(1 0 0 -1 229.08 86.016)"><tspan x="0 2.27592 5.9856 7.54464" y="0">Join</tspan></text></g><path d="m185.88 74.76h6.36v6.36h-6.36z" fill-rule="evenodd"/><path d="m185.88 74.76h6.36v6.36h-6.36z" fill="none" stroke="#000" stroke-miterlimit="10" stroke-width=".96"/><path d="m223.56 74.76h6.36v6.36h-6.36z" fill-rule="evenodd"/><path d="m223.56 74.76h6.36v6.36h-6.36z" fill="none" stroke="#000" stroke-miterlimit="10" stroke-width=".96"/><path d="m198.36 74.76h6.36v6.36h-6.36z" fill-rule="evenodd"/><path d="m198.36 74.76h6.36v6.36h-6.36z" fill="none" stroke="#000" stroke-miterlimit="10" stroke-width=".96"/><g clip-path="url(#m)"><text font-family="Calibri" font-size="9.96" transform="matrix(1 0 0 -1 210.7 74.544)"><tspan x="0" y="0">…</tspan></text></g><path d="m152.58 59.64h115.91v-1.56h-115.91zm114.91 2.22 6-3-6-3z"/><g clip-path="url(#n)"><text font-family="Calibri" font-size="9.96" transform="matrix(1 0 0 -1 210.7 42.384)"><tspan x="0" y="0">…</tspan></text></g><path d="m152.58 28.32h115.91v-1.56h-115.91zm114.91 2.22 6-3-6-3z"/><path d="m188.62 74.28v-12.389h1v12.389zm-1.5-11.389 2-4 2 4z"/><path d="m227.3 58.948v12.812h-1v-12.812zm1.5 11.812-2 4-2-4z"/><path d="m193.08 56.04h6.36v6.36h-6.36z" fill-rule="evenodd"/><path d="m193.08 56.04h6.36v6.36h-6.36z" fill="none" stroke="#000" stroke-miterlimit="10" stroke-width=".96"/><path d="m216.36 55.68h6.36v6.36h-6.36z" fill-rule="evenodd"/><path d="m216.36 55.68h6.36v6.36h-6.36z" fill="none" stroke="#000" stroke-miterlimit="10" stroke-width=".96"/><g clip-path="url(#o)"><text font-family="Calibri" font-size="9.984" transform="matrix(1 0 0 -1 50.928 50.4)"><tspan x="0 2.515968 7.78752 11.13216 16.064257" y="0">Inter</tspan></text></g><g clip-path="url(#p)"><text font-family="Calibri" font-size="9.984" transform="matrix(1 0 0 -1 70.488 50.4)"><tspan x="0" y="0">-</tspan></text></g><g clip-path="url(#q)"><text font-family="Calibri" font-size="9.984" transform="matrix(1 0 0 -1 73.512 50.4)"><tspan x="0 5.261568 10.553088 12.809472 18.100992 22.883327 26.367744 31.170048 33.46637 35.732735 40.654846 42.951168 45.217537 49.061375" y="0">op parallelism</tspan></text></g><path d="m248.4 96.36h11.28v10.8h-11.28z" fill="none" stroke="#000" stroke-dasharray="1.92 1.44" stroke-miterlimit="10" stroke-width=".48"/><path d="m255.93 156.72-7.53-49.25" fill="none" stroke="#000" stroke-dasharray="1.92 1.44" stroke-miterlimit="10" stroke-width=".48"/><path d="m349.46 158.88-89.66-51.66" fill="none" stroke="#000" stroke-dasharray="1.92 1.44" stroke-miterlimit="10" stroke-width=".48"/><path d="m255.96 158.88h93.84v61.56h-93.84z" fill="none" stroke="#000" stroke-dasharray="1.92 1.44" stroke-miterlimit="10" stroke-width=".48"/><g clip-path="url(#r)"><text font-family="Calibri" font-size="9.96" transform="matrix(1 0 0 -1 255.65 232.3)"><tspan x="0 2.50992 7.78872 11.12532 14.60136" y="0">Intra</tspan></text></g><g clip-path="url(#s)"><text font-family="Calibri" font-size="9.96" transform="matrix(1 0 0 -1 275.09 232.3)"><tspan x="0" y="0">-</tspan></text></g><g clip-path="url(#t)"><text font-family="Calibri" font-size="9.96" transform="matrix(1 0 0 -1 278.09 232.3)"><tspan x="0 5.29872 10.59744 12.75876 18.05748 22.86816 26.3442 31.184759 33.475559 35.766361 40.6866 42.977402 45.2682 49.112759" y="0">op parallelism</tspan></text></g><g clip-path="url(#u)"><text font-family="ArialMT" font-size="9" transform="matrix(1 0 0 -1 261.82 207.34)"><tspan x="0" y="0">•</tspan></text></g><g clip-path="url(#v)"><text font-family="Calibri" font-size="9" transform="matrix(1 0 0 -1 275.38 207.34)"><tspan x="0 5.157 9.585 14.022 18.702 22.176001 26.856001 31.167 34.307999 38.618999 40.653 42.695999 47.132999" y="0">ATen/Parallel</tspan></text></g><g clip-path="url(#w)"><text font-family="Calibri" font-size="9.024" transform="matrix(1 0 0 -1 265.78 196.54)"><tspan x="0 2.734272 7.201152 9.4752 13.680384 15.954432 17.993856 22.316353 25.339392 27.721727 30.14016 34.805569 39.128063 42.241344 46.563839 48.603264 50.642689 55.082497 57.121922 61.561729 64.314049 69.114815 72.237122" y="0">(e.g. at::parallel_for)</tspan></text></g><g clip-path="url(#x)"><text font-family="ArialMT" font-size="9" transform="matrix(1 0 0 -1 261.82 185.71)"><tspan x="0" y="0">•</tspan></text></g><g clip-path="url(#y)"><text font-family="Calibri" font-size="9" transform="matrix(1 0 0 -1 275.38 185.71)"><tspan x="0 7.695 12.375" y="0">MKL</tspan></text></g><g clip-path="url(#z)"><text font-family="ArialMT" font-size="9" transform="matrix(1 0 0 -1 261.82 174.91)"><tspan x="0" y="0">•</tspan></text></g><g clip-path="url(#A)"><text font-family="Calibri" font-size="9" transform="matrix(1 0 0 -1 275.38 174.91)"><tspan x="0 7.695 12.375" y="0">MKL</tspan></text></g><g clip-path="url(#B)"><text font-family="Calibri" font-size="9" transform="matrix(1 0 0 -1 291.58 174.91)"><tspan x="0" y="0">-</tspan></text></g><g clip-path="url(#C)"><text font-family="Calibri" font-size="9" transform="matrix(1 0 0 -1 294.34 174.91)"><tspan x="0 5.535 11.277" y="0">DNN</tspan></text></g><g clip-path="url(#D)"><text font-family="ArialMT" font-size="9" transform="matrix(1 0 0 -1 261.82 164.11)"><tspan x="0" y="0">•</tspan></text></g><g clip-path="url(#E)"><text font-family="Calibri" font-size="9" font-weight="bold" transform="matrix(1 0 0 -1 275.38 164.11)"><tspan x="0 2.4 4.8" y="0">...</tspan></text></g><g clip-path="url(#F)"><text font-family="Calibri" font-size="9" transform="matrix(1 0 0 -1 382.58 201.26)"><tspan x="0 5.994 10.674 15.111 19.791 27.486" y="0">OpenMP</tspan></text></g><g clip-path="url(#G)"><text font-family="Calibri" font-size="9" transform="matrix(1 0 0 -1 382.58 187.32)"><tspan x="0 4.428 9.324" y="0">TBB</tspan></text></g><path d="m349.45 190.1 20.73.28-.01 1-20.74-.28zm19.75-1.23 3.97 2.05-4.02 1.95z"/><g clip-path="url(#H)"><text font-family="Calibri" font-size="9" font-weight="bold" transform="matrix(1 0 0 -1 383.81 173.83)"><tspan x="0" y="0">…</tspan></text></g><path d="m375 167.64h44.52v46.56h-44.52z" fill="none" stroke="#000" stroke-dasharray="1.92 1.44" stroke-miterlimit="10" stroke-width=".48"/></g></svg>