<svg width="30" height="31" viewBox="0 0 30 31" fill="none" xmlns="http://www.w3.org/2000/svg"><path d="M27.758.456a2.193 2.193 0 0 1 2.204 1.804c.017.11.026.22.026.332v25.705a2.132 2.132 0 0 1-2.033 2.125H2.243c-1.066 0-1.875-.571-2.154-1.537A2.318 2.318 0 0 1 0 28.253V2.632A2.123 2.123 0 0 1 2.135.465C3.16.453 23.5.473 27.758.455ZM15.992 13.62v-1.624c0-.248-.06-.342-.328-.337-1.226.014-2.451.014-3.675 0-.293 0-.361.09-.359.368V25.69c0 .279.07.377.36.372 1.274-.012 2.546-.012 3.817 0 .284 0 .363-.082.361-.367-.01-2.292-.01-4.583 0-6.874a8.238 8.238 0 0 1 .117-1.42c.171-.968.614-1.755 1.64-2.012.328-.072.663-.103.998-.092 1.033.014 1.713.513 1.945 1.518a8.46 8.46 0 0 1 .192 1.802c.02 2.357.012 4.714 0 7.07 0 .272.07.38.36.375 1.272-.012 2.544-.012 3.817 0 .272 0 .35-.084.347-.354v-7.602a13.265 13.265 0 0 0-.29-3.088c-.326-1.384-.966-2.565-2.33-3.177a6.232 6.232 0 0 0-4.216-.35c-1.16.306-2.053 1.03-2.756 2.129Zm-7.075 5.217v-6.843c0-.253-.07-.338-.333-.335-1.288.012-2.578.012-3.87 0-.253 0-.335.065-.333.328V25.73c0 .274.101.33.343.33H8.54c.372 0 .375 0 .375-.375l.002-6.848Zm-2.26-9.095A2.603 2.603 0 1 0 4.05 7.165a2.577 2.577 0 0 0 2.605 2.577h.002Z" fill="currentColor"/></svg>