<svg height="16" viewBox="0 0 16 16" width="16" xmlns="http://www.w3.org/2000/svg" xmlns:xlink="http://www.w3.org/1999/xlink"><mask id="a" fill="#fff"><path d="m0 0h16v16h-16z" fill="#fff" fill-rule="evenodd"/></mask><path d="m2.95913767 9.58220606c-1.82597332-1.825984-1.82597332-4.79706709 0-6.62305109.91298666-.91299199 2.11224642-1.36953477 3.31150618-1.36953477s2.39861307.45654278 3.31159973 1.36953477c1.82597332 1.825984 1.82597332 4.79706709 0 6.62305109-.88454645.88455164-2.06060499 1.37168654-3.31159973 1.37168654-1.25090118 0-2.42695972-.4871349-3.31150618-1.37168654zm13.04086233 5.25351634-4.7504495-4.7504773c1.8855668-2.45794024 1.7059444-6.00204065-.5427962-8.25070093-2.44604464-2.44605889-6.42617626-2.44605889-8.87222085 0-2.4460446 2.44615246-2.4460446 6.42621379 0 8.87227273 1.1849461 1.184953 2.76038368 1.8374911 4.4361104 1.8374911 1.39806052 0 2.7253012-.4556073 3.81519715-1.2941304l4.7497946 4.7498224z" fill="#ee4c2c" fill-rule="evenodd" mask="url(#a)"/></svg>