<svg xmlns="http://www.w3.org/2000/svg" role="img" viewBox="-5.03 -5.53 287.82 240.82"><title>generic-avatar.svg</title><path fill="#EAEAEA" d="M.5.001h277v230H.5v-230z"/><g clip-path="url(#clip0_4569_17086)"><path fill="#D5D5D5" d="M152.329 187.487c-8.046 0-16.097.037-24.143 0-11.603-.063-23.208-.16-34.815-.291a21.68 21.68 0 0 1-14.944-6.369 21.77 21.77 0 0 1-6.35-14.978c-.064-5.463.159-10.926-.055-16.352-.408-10.639 4.34-18.533 12.608-24.634 7.9-5.827 16.937-9.105 26.401-11.153 18.604-4.057 37.218-3.965 55.741.573 9.245 2.277 17.978 5.764 25.397 11.955 7.046 5.887 10.903 13.316 10.785 22.676-.095 6.242.291 12.524-.245 18.729-1 11.6-10.2 19.717-21.808 19.849h-28.572v-.005zm-14.91-91.623a30.581 30.581 0 0 1-17.03-5.143 30.677 30.677 0 0 1-11.304-13.76 30.75 30.75 0 0 1-1.765-17.734 30.706 30.706 0 0 1 8.369-15.726 30.601 30.601 0 0 1 15.681-8.412 30.564 30.564 0 0 1 17.701 1.74 30.636 30.636 0 0 1 13.75 11.305 30.728 30.728 0 0 1 5.16 17.055 30.704 30.704 0 0 1-8.947 21.674 30.576 30.576 0 0 1-21.615 9.001z"/></g><defs><clipPath id="clip0_4569_17086"><path fill="#fff" d="M0 0h131v153H0z" transform="translate(72 34.501)"/></clipPath></defs></svg>