<svg version="1.1" viewBox="0.0 0.0 813.0 503.0" fill="none" stroke="none" stroke-linecap="square" stroke-miterlimit="10" width="813" height="503" xmlns:xlink="http://www.w3.org/1999/xlink" xmlns="http://www.w3.org/2000/svg"><path fill="#ffffff" d="M0 0L813.0 0L813.0 503.0L0 503.0L0 0Z" fill-rule="nonzero"/><path stroke="#333333" stroke-width="1.0" stroke-linecap="butt" d="M95.5 414.5L787.5 414.5" fill-rule="nonzero"/><path stroke="#cccccc" stroke-width="1.0" stroke-linecap="butt" d="M95.5 311.5L787.5 311.5" fill-rule="nonzero"/><path stroke="#cccccc" stroke-width="1.0" stroke-linecap="butt" d="M95.5 208.5L787.5 208.5" fill-rule="nonzero"/><path stroke="#cccccc" stroke-width="1.0" stroke-linecap="butt" d="M95.5 105.5L787.5 105.5" fill-rule="nonzero"/><path stroke="#eeeeee" stroke-width="1.0" stroke-linecap="butt" d="M294.5 105.683334L294.5 414.85" fill-rule="nonzero"/><path stroke="#eeeeee" stroke-width="1.0" stroke-linecap="butt" d="M589.5 105.683334L589.5 414.85" fill-rule="nonzero"/><clipPath id="id_0"><path d="M95.15 105.683334L787.85 105.683334L787.85 414.85L95.15 414.85L95.15 105.683334Z" clip-rule="nonzero"/></clipPath><path stroke="#000000" stroke-width="2.0" stroke-linecap="butt" stroke-opacity="0.0" clip-path="url(#id_0)" d="M261.0 415.0L199.0 415.0L199.0 321.0C199.0 319.89542 199.89543 319.0 201.0 319.0L259.0 319.0C260.10458 319.0 261.0 319.89542 261.0 321.0Z" fill-rule="nonzero"/><path fill="#4285f4" clip-path="url(#id_0)" d="M261.0 415.0L199.0 415.0L199.0 321.0C199.0 319.89542 199.89543 319.0 201.0 319.0L259.0 319.0C260.10458 319.0 261.0 319.89542 261.0 321.0Z" fill-rule="nonzero"/><path stroke="#000000" stroke-width="2.0" stroke-linecap="butt" stroke-opacity="0.0" clip-path="url(#id_0)" d="M556.0 415.0L494.0 415.0L494.0 155.0C494.0 153.89543 494.89542 153.0 496.0 153.0L554.0 153.0C555.10455 153.0 556.0 153.89543 556.0 155.0Z" fill-rule="nonzero"/><path fill="#4285f4" clip-path="url(#id_0)" d="M556.0 415.0L494.0 415.0L494.0 155.0C494.0 153.89543 494.89542 153.0 496.0 153.0L554.0 153.0C555.10455 153.0 556.0 153.89543 556.0 155.0Z" fill-rule="nonzero"/><path stroke="#000000" stroke-width="2.0" stroke-linecap="butt" stroke-opacity="0.0" clip-path="url(#id_0)" d="M325.0 415.0L263.0 415.0L263.0 315.0C263.0 313.89542 263.89542 313.0 265.0 313.0L323.0 313.0C324.10458 313.0 325.0 313.89542 325.0 315.0Z" fill-rule="nonzero"/><path fill="#ea4335" clip-path="url(#id_0)" d="M325.0 415.0L263.0 415.0L263.0 315.0C263.0 313.89542 263.89542 313.0 265.0 313.0L323.0 313.0C324.10458 313.0 325.0 313.89542 325.0 315.0Z" fill-rule="nonzero"/><path stroke="#000000" stroke-width="2.0" stroke-linecap="butt" stroke-opacity="0.0" clip-path="url(#id_0)" d="M620.0 415.0L558.0 415.0L558.0 142.0C558.0 140.89543 558.89545 140.0 560.0 140.0L618.0 140.0C619.10455 140.0 620.0 140.89543 620.0 142.0Z" fill-rule="nonzero"/><path fill="#ea4335" clip-path="url(#id_0)" d="M620.0 415.0L558.0 415.0L558.0 142.0C558.0 140.89543 558.89545 140.0 560.0 140.0L618.0 140.0C619.10455 140.0 620.0 140.89543 620.0 142.0Z" fill-rule="nonzero"/><path stroke="#000000" stroke-width="2.0" stroke-linecap="butt" stroke-opacity="0.0" clip-path="url(#id_0)" d="M389.0 415.0L327.0 415.0L327.0 307.0C327.0 305.89542 327.89542 305.0 329.0 305.0L387.0 305.0C388.10458 305.0 389.0 305.89542 389.0 307.0Z" fill-rule="nonzero"/><path fill="#fbbc04" clip-path="url(#id_0)" d="M389.0 415.0L327.0 415.0L327.0 307.0C327.0 305.89542 327.89542 305.0 329.0 305.0L387.0 305.0C388.10458 305.0 389.0 305.89542 389.0 307.0Z" fill-rule="nonzero"/><path stroke="#000000" stroke-width="2.0" stroke-linecap="butt" stroke-opacity="0.0" clip-path="url(#id_0)" d="M684.0 415.0L622.0 415.0L622.0 126.0C622.0 124.89543 622.89545 124.0 624.0 124.0L682.0 124.0C683.10455 124.0 684.0 124.89543 684.0 126.0Z" fill-rule="nonzero"/><path fill="#fbbc04" clip-path="url(#id_0)" d="M684.0 415.0L622.0 415.0L622.0 126.0C622.0 124.89543 622.89545 124.0 624.0 124.0L682.0 124.0C683.10455 124.0 684.0 124.89543 684.0 126.0Z" fill-rule="nonzero"/><path stroke="#4285f4" stroke-width="3.0" stroke-linejoin="round" stroke-linecap="round" d="M226.78125 332.68515L227.96875 332.68515L227.96875 333.56015L226.78125 333.56015L226.78125 335.54453L225.70312 335.54453L225.70312 333.56015L221.8125 333.56015L221.8125 332.91953L225.625 327.01328L226.78125 327.01328L226.78125 332.68515ZM223.04688 332.68515L225.70312 332.68515L225.70312 328.49765L225.5625 328.73203L223.04688 332.68515ZM229.34375 334.98203Q229.34375 334.70078 229.5 334.51328Q229.67188 334.32578 230.0 334.32578Q230.34375 334.32578 230.51562 334.51328Q230.6875 334.70078 230.6875 334.98203Q230.6875 335.24765 230.51562 335.43515Q230.34375 335.60703 230.0 335.60703Q229.67188 335.60703 229.5 335.43515Q229.34375 335.24765 229.34375 334.98203ZM237.71875 327.62265L234.1875 335.54453L233.04688 335.54453L236.5625 327.9039L231.95312 327.9039L231.95312 327.01328L237.71875 327.01328L237.71875 327.62265Z" fill-rule="nonzero"/><path fill="#ffffff" d="M226.78125 332.68515L227.96875 332.68515L227.96875 333.56015L226.78125 333.56015L226.78125 335.54453L225.70312 335.54453L225.70312 333.56015L221.8125 333.56015L221.8125 332.91953L225.625 327.01328L226.78125 327.01328L226.78125 332.68515ZM223.04688 332.68515L225.70312 332.68515L225.70312 328.49765L225.5625 328.73203L223.04688 332.68515ZM229.34375 334.98203Q229.34375 334.70078 229.5 334.51328Q229.67188 334.32578 230.0 334.32578Q230.34375 334.32578 230.51562 334.51328Q230.6875 334.70078 230.6875 334.98203Q230.6875 335.24765 230.51562 335.43515Q230.34375 335.60703 230.0 335.60703Q229.67188 335.60703 229.5 335.43515Q229.34375 335.24765 229.34375 334.98203ZM237.71875 327.62265L234.1875 335.54453L233.04688 335.54453L236.5625 327.9039L231.95312 327.9039L231.95312 327.01328L237.71875 327.01328L237.71875 327.62265Z" fill-rule="nonzero"/><path stroke="#4285f4" stroke-width="3.0" stroke-linejoin="round" stroke-linecap="round" d="M517.2656 169.47255L516.1875 169.47255L516.1875 162.2538L514.0 163.05067L514.0 162.0663L517.1094 160.89442L517.2656 160.89442L517.2656 169.47255ZM526.2969 169.47255L520.7031 169.47255L520.7031 168.6913L523.65625 165.41005Q524.3125 164.66005 524.5625 164.20692Q524.8125 163.73817 524.8125 163.23817Q524.8125 162.5663 524.40625 162.14442Q524.0156 161.70692 523.3281 161.70692Q522.53125 161.70692 522.0781 162.17567Q521.625 162.6288 521.625 163.45692L520.5469 163.45692Q520.5469 162.26942 521.2969 161.55067Q522.0625 160.8163 523.3281 160.8163Q524.53125 160.8163 525.21875 161.4413Q525.90625 162.0663 525.90625 163.11317Q525.90625 164.36317 524.2969 166.11317L522.0156 168.58192L526.2969 168.58192L526.2969 169.47255ZM527.84375 168.91005Q527.84375 168.6288 528.0 168.4413Q528.1719 168.2538 528.5 168.2538Q528.84375 168.2538 529.0156 168.4413Q529.1875 168.6288 529.1875 168.91005Q529.1875 169.17567 529.0156 169.36317Q528.84375 169.53505 528.5 169.53505Q528.1719 169.53505 528.0 169.36317Q527.84375 169.17567 527.84375 168.91005ZM536.21875 161.55067L532.6875 169.47255L531.5469 169.47255L535.0625 161.83192L530.4531 161.83192L530.4531 160.9413L536.21875 160.9413L536.21875 161.55067Z" fill-rule="nonzero"/><path fill="#ffffff" d="M517.2656 169.47255L516.1875 169.47255L516.1875 162.2538L514.0 163.05067L514.0 162.0663L517.1094 160.89442L517.2656 160.89442L517.2656 169.47255ZM526.2969 169.47255L520.7031 169.47255L520.7031 168.6913L523.65625 165.41005Q524.3125 164.66005 524.5625 164.20692Q524.8125 163.73817 524.8125 163.23817Q524.8125 162.5663 524.40625 162.14442Q524.0156 161.70692 523.3281 161.70692Q522.53125 161.70692 522.0781 162.17567Q521.625 162.6288 521.625 163.45692L520.5469 163.45692Q520.5469 162.26942 521.2969 161.55067Q522.0625 160.8163 523.3281 160.8163Q524.53125 160.8163 525.21875 161.4413Q525.90625 162.0663 525.90625 163.11317Q525.90625 164.36317 524.2969 166.11317L522.0156 168.58192L526.2969 168.58192L526.2969 169.47255ZM527.84375 168.91005Q527.84375 168.6288 528.0 168.4413Q528.1719 168.2538 528.5 168.2538Q528.84375 168.2538 529.0156 168.4413Q529.1875 168.6288 529.1875 168.91005Q529.1875 169.17567 529.0156 169.36317Q528.84375 169.53505 528.5 169.53505Q528.1719 169.53505 528.0 169.36317Q527.84375 169.17567 527.84375 168.91005ZM536.21875 161.55067L532.6875 169.47255L531.5469 169.47255L535.0625 161.83192L530.4531 161.83192L530.4531 160.9413L536.21875 160.9413L536.21875 161.55067Z" fill-rule="nonzero"/><path stroke="#ffffff" stroke-width="3.0" stroke-linejoin="round" stroke-linecap="round" d="M308.0 269.25104L301.78125 271.6104L301.78125 270.50104L305.5 269.1573Q306.10938 268.95416 306.75 268.76666Q306.26562 268.62604 305.57812 268.37604L301.78125 266.9854L301.78125 265.9073L308.0 268.26666L308.0 269.25104ZM308.0 262.89166L305.9375 262.89166L305.9375 266.6104L304.96875 266.6104L299.40625 262.68854L299.40625 261.82916L304.96875 261.82916L304.96875 260.6729L305.9375 260.6729L305.9375 261.82916L308.0 261.82916L308.0 262.89166ZM304.96875 262.89166L301.10938 262.89166L304.96875 265.57916L304.96875 262.89166ZM305.42188 259.39166L304.35938 259.39166L304.35938 256.14166L305.42188 256.14166L305.42188 259.39166ZM303.34375 253.64166Q303.09375 254.29791 302.65625 254.62604Q302.20312 254.93854 301.59375 254.93854Q300.65625 254.93854 300.01562 254.26666Q299.375 253.57916 299.375 252.46979Q299.375 251.34479 300.03125 250.65729Q300.6875 249.96979 301.625 249.96979Q302.21875 249.96979 302.65625 250.28229Q303.09375 250.59479 303.34375 251.23541Q303.59375 250.43854 304.17188 250.03229Q304.75 249.62604 305.54688 249.62604Q306.64062 249.62604 307.39062 250.40729Q308.14062 251.17291 308.14062 252.45416Q308.14062 253.71979 307.39062 254.50104Q306.64062 255.28229 305.51562 255.28229Q304.67188 255.28229 304.10938 254.86041Q303.54688 254.42291 303.34375 253.64166ZM301.54688 253.86041Q302.15625 253.86041 302.54688 253.46979Q302.9375 253.06354 302.9375 252.43854Q302.9375 251.82916 302.5625 251.43854Q302.17188 251.04791 301.60938 251.04791Q301.03125 251.04791 300.64062 251.45416Q300.23438 251.86041 300.23438 252.45416Q300.23438 253.06354 300.625 253.46979Q301.01562 253.86041 301.54688 253.86041ZM305.51562 254.18854Q305.96875 254.18854 306.39062 253.98541Q306.8125 253.76666 307.04688 253.34479Q307.28125 252.92291 307.28125 252.43854Q307.28125 251.68854 306.79688 251.20416Q306.3125 250.70416 305.5625 250.70416Q304.79688 250.70416 304.29688 251.20416Q303.79688 251.70416 303.79688 252.46979Q303.79688 253.21979 304.29688 253.70416Q304.78125 254.18854 305.51562 254.18854Z" fill-rule="nonzero"/><path fill="#808080" d="M308.0 269.25104L301.78125 271.6104L301.78125 270.50104L305.5 269.1573Q306.10938 268.95416 306.75 268.76666Q306.26562 268.62604 305.57812 268.37604L301.78125 266.9854L301.78125 265.9073L308.0 268.26666L308.0 269.25104ZM308.0 262.89166L305.9375 262.89166L305.9375 266.6104L304.96875 266.6104L299.40625 262.68854L299.40625 261.82916L304.96875 261.82916L304.96875 260.6729L305.9375 260.6729L305.9375 261.82916L308.0 261.82916L308.0 262.89166ZM304.96875 262.89166L301.10938 262.89166L304.96875 265.57916L304.96875 262.89166ZM305.42188 259.39166L304.35938 259.39166L304.35938 256.14166L305.42188 256.14166L305.42188 259.39166ZM303.34375 253.64166Q303.09375 254.29791 302.65625 254.62604Q302.20312 254.93854 301.59375 254.93854Q300.65625 254.93854 300.01562 254.26666Q299.375 253.57916 299.375 252.46979Q299.375 251.34479 300.03125 250.65729Q300.6875 249.96979 301.625 249.96979Q302.21875 249.96979 302.65625 250.28229Q303.09375 250.59479 303.34375 251.23541Q303.59375 250.43854 304.17188 250.03229Q304.75 249.62604 305.54688 249.62604Q306.64062 249.62604 307.39062 250.40729Q308.14062 251.17291 308.14062 252.45416Q308.14062 253.71979 307.39062 254.50104Q306.64062 255.28229 305.51562 255.28229Q304.67188 255.28229 304.10938 254.86041Q303.54688 254.42291 303.34375 253.64166ZM301.54688 253.86041Q302.15625 253.86041 302.54688 253.46979Q302.9375 253.06354 302.9375 252.43854Q302.9375 251.82916 302.5625 251.43854Q302.17188 251.04791 301.60938 251.04791Q301.03125 251.04791 300.64062 251.45416Q300.23438 251.86041 300.23438 252.45416Q300.23438 253.06354 300.625 253.46979Q301.01562 253.86041 301.54688 253.86041ZM305.51562 254.18854Q305.96875 254.18854 306.39062 253.98541Q306.8125 253.76666 307.04688 253.34479Q307.28125 252.92291 307.28125 252.43854Q307.28125 251.68854 306.79688 251.20416Q306.3125 250.70416 305.5625 250.70416Q304.79688 250.70416 304.29688 251.20416Q303.79688 251.70416 303.79688 252.46979Q303.79688 253.21979 304.29688 253.70416Q304.78125 254.18854 305.51562 254.18854Z" fill-rule="nonzero"/><path stroke="#ffffff" stroke-width="3.0" stroke-linejoin="round" stroke-linecap="round" d="M603.0 272.75104L596.78125 275.1104L596.78125 274.00104L600.5 272.6573Q601.1094 272.45416 601.75 272.26666Q601.2656 272.12604 600.5781 271.87604L596.78125 270.4854L596.78125 269.4073L603.0 271.76666L603.0 272.75104ZM603.0 266.39166L600.9375 266.39166L600.9375 270.1104L599.96875 270.1104L594.40625 266.18854L594.40625 265.32916L599.96875 265.32916L599.96875 264.1729L600.9375 264.1729L600.9375 265.32916L603.0 265.32916L603.0 266.39166ZM599.96875 266.39166L596.1094 266.39166L599.96875 269.07916L599.96875 266.39166ZM600.4219 262.89166L599.3594 262.89166L599.3594 259.64166L600.4219 259.64166L600.4219 262.89166ZM596.5156 253.29791L596.59375 254.34479Q595.96875 254.48541 595.6875 254.73541Q595.2344 255.17291 595.2344 255.79791Q595.2344 256.2979 595.5156 256.68854Q595.8906 257.1729 596.59375 257.4698Q597.28125 257.75104 598.5625 257.76666Q597.9844 257.39166 597.7031 256.8448Q597.4219 256.2823 597.4219 255.67291Q597.4219 254.62604 598.2031 253.89166Q598.9844 253.14166 600.2031 253.14166Q601.0156 253.14166 601.71875 253.50104Q602.40625 253.84479 602.78125 254.45416Q603.1406 255.06354 603.1406 255.82916Q603.1406 257.1573 602.1719 257.9854Q601.2031 258.81354 598.9844 258.81354Q596.4844 258.81354 595.3594 257.89166Q594.375 257.0948 594.375 255.73541Q594.375 254.71979 594.9531 254.07916Q595.5156 253.42291 596.5156 253.29791ZM600.21875 257.5948Q600.7656 257.5948 601.2656 257.37604Q601.75 257.14166 602.0156 256.7354Q602.28125 256.31354 602.28125 255.84479Q602.28125 255.18854 601.75 254.70416Q601.2031 254.21979 600.28125 254.21979Q599.3906 254.21979 598.875 254.70416Q598.3594 255.17291 598.3594 255.89166Q598.3594 256.6104 598.875 257.1104Q599.3906 257.5948 600.21875 257.5948ZM603.0 248.39166L600.9375 248.39166L600.9375 252.11041L599.96875 252.11041L594.40625 248.18854L594.40625 247.32916L599.96875 247.32916L599.96875 246.17291L600.9375 246.17291L600.9375 247.32916L603.0 247.32916L603.0 248.39166ZM599.96875 248.39166L596.1094 248.39166L599.96875 251.07916L599.96875 248.39166Z" fill-rule="nonzero"/><path fill="#808080" d="M603.0 272.75104L596.78125 275.1104L596.78125 274.00104L600.5 272.6573Q601.1094 272.45416 601.75 272.26666Q601.2656 272.12604 600.5781 271.87604L596.78125 270.4854L596.78125 269.4073L603.0 271.76666L603.0 272.75104ZM603.0 266.39166L600.9375 266.39166L600.9375 270.1104L599.96875 270.1104L594.40625 266.18854L594.40625 265.32916L599.96875 265.32916L599.96875 264.1729L600.9375 264.1729L600.9375 265.32916L603.0 265.32916L603.0 266.39166ZM599.96875 266.39166L596.1094 266.39166L599.96875 269.07916L599.96875 266.39166ZM600.4219 262.89166L599.3594 262.89166L599.3594 259.64166L600.4219 259.64166L600.4219 262.89166ZM596.5156 253.29791L596.59375 254.34479Q595.96875 254.48541 595.6875 254.73541Q595.2344 255.17291 595.2344 255.79791Q595.2344 256.2979 595.5156 256.68854Q595.8906 257.1729 596.59375 257.4698Q597.28125 257.75104 598.5625 257.76666Q597.9844 257.39166 597.7031 256.8448Q597.4219 256.2823 597.4219 255.67291Q597.4219 254.62604 598.2031 253.89166Q598.9844 253.14166 600.2031 253.14166Q601.0156 253.14166 601.71875 253.50104Q602.40625 253.84479 602.78125 254.45416Q603.1406 255.06354 603.1406 255.82916Q603.1406 257.1573 602.1719 257.9854Q601.2031 258.81354 598.9844 258.81354Q596.4844 258.81354 595.3594 257.89166Q594.375 257.0948 594.375 255.73541Q594.375 254.71979 594.9531 254.07916Q595.5156 253.42291 596.5156 253.29791ZM600.21875 257.5948Q600.7656 257.5948 601.2656 257.37604Q601.75 257.14166 602.0156 256.7354Q602.28125 256.31354 602.28125 255.84479Q602.28125 255.18854 601.75 254.70416Q601.2031 254.21979 600.28125 254.21979Q599.3906 254.21979 598.875 254.70416Q598.3594 255.17291 598.3594 255.89166Q598.3594 256.6104 598.875 257.1104Q599.3906 257.5948 600.21875 257.5948ZM603.0 248.39166L600.9375 248.39166L600.9375 252.11041L599.96875 252.11041L594.40625 248.18854L594.40625 247.32916L599.96875 247.32916L599.96875 246.17291L600.9375 246.17291L600.9375 247.32916L603.0 247.32916L603.0 248.39166ZM599.96875 248.39166L596.1094 248.39166L599.96875 251.07916L599.96875 248.39166Z" fill-rule="nonzero"/><path stroke="#ea4335" stroke-width="3.0" stroke-linejoin="round" stroke-linecap="round" d="M286.70312 325.12115L287.14062 320.87115L291.51562 320.87115L291.51562 321.87115L288.0625 321.87115L287.79688 324.19928Q288.4375 323.82428 289.23438 323.82428Q290.39062 323.82428 291.07812 324.60553Q291.76562 325.37115 291.76562 326.68365Q291.76562 327.99615 291.04688 328.76178Q290.34375 329.5274 289.0625 329.5274Q287.9375 329.5274 287.21875 328.9024Q286.5 328.26178 286.40625 327.1524L287.42188 327.1524Q287.53125 327.88678 287.95312 328.26178Q288.375 328.63678 289.0625 328.63678Q289.8125 328.63678 290.25 328.12115Q290.6875 327.60553 290.6875 326.69928Q290.6875 325.8399 290.21875 325.32428Q289.75 324.80865 288.96875 324.80865Q288.26562 324.80865 287.85938 325.10553L287.57812 325.3399L286.70312 325.12115ZM293.34375 328.8399Q293.34375 328.55865 293.5 328.37115Q293.67188 328.18365 294.0 328.18365Q294.34375 328.18365 294.51562 328.37115Q294.6875 328.55865 294.6875 328.8399Q294.6875 329.10553 294.51562 329.29303Q294.34375 329.4649 294.0 329.4649Q293.67188 329.4649 293.5 329.29303Q293.34375 329.10553 293.34375 328.8399ZM301.5625 325.76178Q301.5625 327.66803 300.90625 328.60553Q300.26562 329.5274 298.875 329.5274Q297.51562 329.5274 296.85938 328.62115Q296.20312 327.7149 296.17188 325.9024L296.17188 324.4649Q296.17188 322.57428 296.8125 321.66803Q297.46875 320.74615 298.85938 320.74615Q300.23438 320.74615 300.89062 321.63678Q301.54688 322.51178 301.5625 324.35553L301.5625 325.76178ZM300.46875 324.2774Q300.46875 322.9024 300.07812 322.2774Q299.70312 321.63678 298.85938 321.63678Q298.03125 321.63678 297.64062 322.2774Q297.26562 322.9024 297.26562 324.19928L297.26562 325.93365Q297.26562 327.30865 297.65625 327.98053Q298.0625 328.63678 298.875 328.63678Q299.67188 328.63678 300.0625 328.01178Q300.45312 327.38678 300.46875 326.05865L300.46875 324.2774Z" fill-rule="nonzero"/><path fill="#ffffff" d="M286.70312 325.12115L287.14062 320.87115L291.51562 320.87115L291.51562 321.87115L288.0625 321.87115L287.79688 324.19928Q288.4375 323.82428 289.23438 323.82428Q290.39062 323.82428 291.07812 324.60553Q291.76562 325.37115 291.76562 326.68365Q291.76562 327.99615 291.04688 328.76178Q290.34375 329.5274 289.0625 329.5274Q287.9375 329.5274 287.21875 328.9024Q286.5 328.26178 286.40625 327.1524L287.42188 327.1524Q287.53125 327.88678 287.95312 328.26178Q288.375 328.63678 289.0625 328.63678Q289.8125 328.63678 290.25 328.12115Q290.6875 327.60553 290.6875 326.69928Q290.6875 325.8399 290.21875 325.32428Q289.75 324.80865 288.96875 324.80865Q288.26562 324.80865 287.85938 325.10553L287.57812 325.3399L286.70312 325.12115ZM293.34375 328.8399Q293.34375 328.55865 293.5 328.37115Q293.67188 328.18365 294.0 328.18365Q294.34375 328.18365 294.51562 328.37115Q294.6875 328.55865 294.6875 328.8399Q294.6875 329.10553 294.51562 329.29303Q294.34375 329.4649 294.0 329.4649Q293.67188 329.4649 293.5 329.29303Q293.34375 329.10553 293.34375 328.8399ZM301.5625 325.76178Q301.5625 327.66803 300.90625 328.60553Q300.26562 329.5274 298.875 329.5274Q297.51562 329.5274 296.85938 328.62115Q296.20312 327.7149 296.17188 325.9024L296.17188 324.4649Q296.17188 322.57428 296.8125 321.66803Q297.46875 320.74615 298.85938 320.74615Q300.23438 320.74615 300.89062 321.63678Q301.54688 322.51178 301.5625 324.35553L301.5625 325.76178ZM300.46875 324.2774Q300.46875 322.9024 300.07812 322.2774Q299.70312 321.63678 298.85938 321.63678Q298.03125 321.63678 297.64062 322.2774Q297.26562 322.9024 297.26562 324.19928L297.26562 325.93365Q297.26562 327.30865 297.65625 327.98053Q298.0625 328.63678 298.875 328.63678Q299.67188 328.63678 300.0625 328.01178Q300.45312 327.38678 300.46875 326.05865L300.46875 324.2774Z" fill-rule="nonzero"/><path stroke="#ea4335" stroke-width="3.0" stroke-linejoin="round" stroke-linecap="round" d="M581.2656 156.39067L580.1875 156.39067L580.1875 149.17192L578.0 149.9688L578.0 148.98442L581.1094 147.81255L581.2656 147.81255L581.2656 156.39067ZM586.28125 151.5938L587.09375 151.5938Q587.875 151.57817 588.3125 151.18755Q588.75 150.79692 588.75 150.12505Q588.75 148.62505 587.25 148.62505Q586.5469 148.62505 586.125 149.0313Q585.71875 149.43755 585.71875 150.0938L584.625 150.0938Q584.625 149.07817 585.3594 148.4063Q586.1094 147.73442 587.25 147.73442Q588.4531 147.73442 589.1406 148.37505Q589.8281 149.01567 589.8281 150.1563Q589.8281 150.7188 589.46875 151.23442Q589.1094 151.75005 588.4844 152.01567Q589.1875 152.23442 589.5625 152.75005Q589.9531 153.26567 589.9531 154.01567Q589.9531 155.1563 589.2031 155.8438Q588.4531 156.51567 587.25 156.51567Q586.0625 156.51567 585.2969 155.85942Q584.5469 155.20317 584.5469 154.14067L585.6406 154.14067Q585.6406 154.81255 586.0781 155.2188Q586.5156 155.62505 587.2656 155.62505Q588.0469 155.62505 588.4531 155.2188Q588.875 154.79692 588.875 154.0313Q588.875 153.29692 588.4219 152.9063Q587.96875 152.50005 587.09375 152.48442L586.28125 152.48442L586.28125 151.5938ZM591.84375 155.82817Q591.84375 155.54692 592.0 155.35942Q592.1719 155.17192 592.5 155.17192Q592.84375 155.17192 593.0156 155.35942Q593.1875 155.54692 593.1875 155.82817Q593.1875 156.0938 593.0156 156.2813Q592.84375 156.45317 592.5 156.45317Q592.1719 156.45317 592.0 156.2813Q591.84375 156.0938 591.84375 155.82817ZM599.28125 153.5313L600.46875 153.5313L600.46875 154.4063L599.28125 154.4063L599.28125 156.39067L598.2031 156.39067L598.2031 154.4063L594.3125 154.4063L594.3125 153.76567L598.125 147.85942L599.28125 147.85942L599.28125 153.5313ZM595.5469 153.5313L598.2031 153.5313L598.2031 149.3438L598.0625 149.57817L595.5469 153.5313Z" fill-rule="nonzero"/><path fill="#ffffff" d="M581.2656 156.39067L580.1875 156.39067L580.1875 149.17192L578.0 149.9688L578.0 148.98442L581.1094 147.81255L581.2656 147.81255L581.2656 156.39067ZM586.28125 151.5938L587.09375 151.5938Q587.875 151.57817 588.3125 151.18755Q588.75 150.79692 588.75 150.12505Q588.75 148.62505 587.25 148.62505Q586.5469 148.62505 586.125 149.0313Q585.71875 149.43755 585.71875 150.0938L584.625 150.0938Q584.625 149.07817 585.3594 148.4063Q586.1094 147.73442 587.25 147.73442Q588.4531 147.73442 589.1406 148.37505Q589.8281 149.01567 589.8281 150.1563Q589.8281 150.7188 589.46875 151.23442Q589.1094 151.75005 588.4844 152.01567Q589.1875 152.23442 589.5625 152.75005Q589.9531 153.26567 589.9531 154.01567Q589.9531 155.1563 589.2031 155.8438Q588.4531 156.51567 587.25 156.51567Q586.0625 156.51567 585.2969 155.85942Q584.5469 155.20317 584.5469 154.14067L585.6406 154.14067Q585.6406 154.81255 586.0781 155.2188Q586.5156 155.62505 587.2656 155.62505Q588.0469 155.62505 588.4531 155.2188Q588.875 154.79692 588.875 154.0313Q588.875 153.29692 588.4219 152.9063Q587.96875 152.50005 587.09375 152.48442L586.28125 152.48442L586.28125 151.5938ZM591.84375 155.82817Q591.84375 155.54692 592.0 155.35942Q592.1719 155.17192 592.5 155.17192Q592.84375 155.17192 593.0156 155.35942Q593.1875 155.54692 593.1875 155.82817Q593.1875 156.0938 593.0156 156.2813Q592.84375 156.45317 592.5 156.45317Q592.1719 156.45317 592.0 156.2813Q591.84375 156.0938 591.84375 155.82817ZM599.28125 153.5313L600.46875 153.5313L600.46875 154.4063L599.28125 154.4063L599.28125 156.39067L598.2031 156.39067L598.2031 154.4063L594.3125 154.4063L594.3125 153.76567L598.125 147.85942L599.28125 147.85942L599.28125 153.5313ZM595.5469 153.5313L598.2031 153.5313L598.2031 149.3438L598.0625 149.57817L595.5469 153.5313Z" fill-rule="nonzero"/><path stroke="#fbbc04" stroke-width="3.0" stroke-linejoin="round" stroke-linecap="round" d="M350.70312 317.92374L351.14062 313.67374L355.51562 313.67374L355.51562 314.67374L352.0625 314.67374L351.79688 317.00186Q352.4375 316.62686 353.23438 316.62686Q354.39062 316.62686 355.07812 317.4081Q355.76562 318.17374 355.76562 319.48624Q355.76562 320.79874 355.04688 321.56436Q354.34375 322.33 353.0625 322.33Q351.9375 322.33 351.21875 321.705Q350.5 321.06436 350.40625 319.955L351.42188 319.955Q351.53125 320.68936 351.95312 321.06436Q352.375 321.43936 353.0625 321.43936Q353.8125 321.43936 354.25 320.92374Q354.6875 320.4081 354.6875 319.50186Q354.6875 318.6425 354.21875 318.12686Q353.75 317.61124 352.96875 317.61124Q352.26562 317.61124 351.85938 317.9081L351.57812 318.1425L350.70312 317.92374ZM357.34375 321.6425Q357.34375 321.36124 357.5 321.17374Q357.67188 320.98624 358.0 320.98624Q358.34375 320.98624 358.51562 321.17374Q358.6875 321.36124 358.6875 321.6425Q358.6875 321.9081 358.51562 322.0956Q358.34375 322.2675 358.0 322.2675Q357.67188 322.2675 357.5 322.0956Q357.34375 321.9081 357.34375 321.6425ZM361.78125 317.4081L362.59375 317.4081Q363.375 317.3925 363.8125 317.00186Q364.25 316.61124 364.25 315.93936Q364.25 314.43936 362.75 314.43936Q362.04688 314.43936 361.625 314.8456Q361.21875 315.25186 361.21875 315.9081L360.125 315.9081Q360.125 314.8925 360.85938 314.2206Q361.60938 313.54874 362.75 313.54874Q363.95312 313.54874 364.64062 314.18936Q365.32812 314.83 365.32812 315.9706Q365.32812 316.5331 364.96875 317.04874Q364.60938 317.56436 363.98438 317.83Q364.6875 318.04874 365.0625 318.56436Q365.45312 319.08 365.45312 319.83Q365.45312 320.9706 364.70312 321.6581Q363.95312 322.33 362.75 322.33Q361.5625 322.33 360.79688 321.67374Q360.04688 321.0175 360.04688 319.955L361.14062 319.955Q361.14062 320.62686 361.57812 321.0331Q362.01562 321.43936 362.76562 321.43936Q363.54688 321.43936 363.95312 321.0331Q364.375 320.61124 364.375 319.8456Q364.375 319.11124 363.92188 318.7206Q363.46875 318.31436 362.59375 318.29874L361.78125 318.29874L361.78125 317.4081Z" fill-rule="nonzero"/><path fill="#000000" d="M350.70312 317.92374L351.14062 313.67374L355.51562 313.67374L355.51562 314.67374L352.0625 314.67374L351.79688 317.00186Q352.4375 316.62686 353.23438 316.62686Q354.39062 316.62686 355.07812 317.4081Q355.76562 318.17374 355.76562 319.48624Q355.76562 320.79874 355.04688 321.56436Q354.34375 322.33 353.0625 322.33Q351.9375 322.33 351.21875 321.705Q350.5 321.06436 350.40625 319.955L351.42188 319.955Q351.53125 320.68936 351.95312 321.06436Q352.375 321.43936 353.0625 321.43936Q353.8125 321.43936 354.25 320.92374Q354.6875 320.4081 354.6875 319.50186Q354.6875 318.6425 354.21875 318.12686Q353.75 317.61124 352.96875 317.61124Q352.26562 317.61124 351.85938 317.9081L351.57812 318.1425L350.70312 317.92374ZM357.34375 321.6425Q357.34375 321.36124 357.5 321.17374Q357.67188 320.98624 358.0 320.98624Q358.34375 320.98624 358.51562 321.17374Q358.6875 321.36124 358.6875 321.6425Q358.6875 321.9081 358.51562 322.0956Q358.34375 322.2675 358.0 322.2675Q357.67188 322.2675 357.5 322.0956Q357.34375 321.9081 357.34375 321.6425ZM361.78125 317.4081L362.59375 317.4081Q363.375 317.3925 363.8125 317.00186Q364.25 316.61124 364.25 315.93936Q364.25 314.43936 362.75 314.43936Q362.04688 314.43936 361.625 314.8456Q361.21875 315.25186 361.21875 315.9081L360.125 315.9081Q360.125 314.8925 360.85938 314.2206Q361.60938 313.54874 362.75 313.54874Q363.95312 313.54874 364.64062 314.18936Q365.32812 314.83 365.32812 315.9706Q365.32812 316.5331 364.96875 317.04874Q364.60938 317.56436 363.98438 317.83Q364.6875 318.04874 365.0625 318.56436Q365.45312 319.08 365.45312 319.83Q365.45312 320.9706 364.70312 321.6581Q363.95312 322.33 362.75 322.33Q361.5625 322.33 360.79688 321.67374Q360.04688 321.0175 360.04688 319.955L361.14062 319.955Q361.14062 320.62686 361.57812 321.0331Q362.01562 321.43936 362.76562 321.43936Q363.54688 321.43936 363.95312 321.0331Q364.375 320.61124 364.375 319.8456Q364.375 319.11124 363.92188 318.7206Q363.46875 318.31436 362.59375 318.29874L361.78125 318.29874L361.78125 317.4081Z" fill-rule="nonzero"/><path stroke="#fbbc04" stroke-width="3.0" stroke-linejoin="round" stroke-linecap="round" d="M645.2656 140.64172L644.1875 140.64172L644.1875 133.42297L642.0 134.21985L642.0 133.23547L645.1094 132.0636L645.2656 132.0636L645.2656 140.64172ZM653.28125 137.78235L654.46875 137.78235L654.46875 138.65735L653.28125 138.65735L653.28125 140.64172L652.2031 140.64172L652.2031 138.65735L648.3125 138.65735L648.3125 138.01672L652.125 132.11047L653.28125 132.11047L653.28125 137.78235ZM649.5469 137.78235L652.2031 137.78235L652.2031 133.59485L652.0625 133.82922L649.5469 137.78235ZM655.84375 140.07922Q655.84375 139.79797 656.0 139.61047Q656.1719 139.42297 656.5 139.42297Q656.84375 139.42297 657.0156 139.61047Q657.1875 139.79797 657.1875 140.07922Q657.1875 140.34485 657.0156 140.53235Q656.84375 140.70422 656.5 140.70422Q656.1719 140.70422 656.0 140.53235Q655.84375 140.34485 655.84375 140.07922ZM662.2656 140.64172L661.1875 140.64172L661.1875 133.42297L659.0 134.21985L659.0 133.23547L662.1094 132.0636L662.2656 132.0636L662.2656 140.64172Z" fill-rule="nonzero"/><path fill="#000000" d="M645.2656 140.64172L644.1875 140.64172L644.1875 133.42297L642.0 134.21985L642.0 133.23547L645.1094 132.0636L645.2656 132.0636L645.2656 140.64172ZM653.28125 137.78235L654.46875 137.78235L654.46875 138.65735L653.28125 138.65735L653.28125 140.64172L652.2031 140.64172L652.2031 138.65735L648.3125 138.65735L648.3125 138.01672L652.125 132.11047L653.28125 132.11047L653.28125 137.78235ZM649.5469 137.78235L652.2031 137.78235L652.2031 133.59485L652.0625 133.82922L649.5469 137.78235ZM655.84375 140.07922Q655.84375 139.79797 656.0 139.61047Q656.1719 139.42297 656.5 139.42297Q656.84375 139.42297 657.0156 139.61047Q657.1875 139.79797 657.1875 140.07922Q657.1875 140.34485 657.0156 140.53235Q656.84375 140.70422 656.5 140.70422Q656.1719 140.70422 656.0 140.53235Q655.84375 140.34485 655.84375 140.07922ZM662.2656 140.64172L661.1875 140.64172L661.1875 133.42297L659.0 134.21985L659.0 133.23547L662.1094 132.0636L662.2656 132.0636L662.2656 140.64172Z" fill-rule="nonzero"/><path fill="#000000" d="M403.6875 473.85L403.6875 462.39688L405.96875 462.39688L408.6875 470.50626Q409.0625 471.63126 409.23438 472.19376Q409.42188 471.56876 409.84375 470.36563L412.57812 462.39688L414.625 462.39688L414.625 473.85L413.15625 473.85L413.15625 464.25626L409.82812 473.85L408.46875 473.85L405.15625 464.1L405.15625 473.85L403.6875 473.85ZM416.03125 469.69376Q416.03125 467.39688 417.3125 466.2875Q418.39062 465.36563 419.92188 465.36563Q421.64062 465.36563 422.71875 466.49063Q423.8125 467.6 423.8125 469.58438Q423.8125 471.17813 423.32812 472.1Q422.84375 473.02188 421.92188 473.5375Q421.01562 474.0375 419.92188 474.0375Q418.1875 474.0375 417.10938 472.92813Q416.03125 471.80313 416.03125 469.69376ZM417.48438 469.69376Q417.48438 471.2875 418.17188 472.08438Q418.875 472.88126 419.92188 472.88126Q420.96875 472.88126 421.65625 472.08438Q422.35938 471.2875 422.35938 469.64688Q422.35938 468.11563 421.65625 467.31876Q420.96875 466.52188 419.92188 466.52188Q418.875 466.52188 418.17188 467.31876Q417.48438 468.1 417.48438 469.69376ZM430.9375 473.85L430.9375 472.80313Q430.15625 474.0375 428.625 474.0375Q427.625 474.0375 426.79688 473.49063Q425.96875 472.94376 425.5 471.95938Q425.04688 470.975 425.04688 469.70938Q425.04688 468.45938 425.45312 467.45938Q425.875 466.44376 426.70312 465.9125Q427.53125 465.36563 428.5625 465.36563Q429.3125 465.36563 429.89062 465.67813Q430.48438 465.99063 430.84375 466.50626L430.84375 462.39688L432.25 462.39688L432.25 473.85L430.9375 473.85ZM426.5 469.70938Q426.5 471.30313 427.17188 472.1Q427.84375 472.88126 428.75 472.88126Q429.67188 472.88126 430.3125 472.13126Q430.96875 471.36563 430.96875 469.81876Q430.96875 468.11563 430.3125 467.31876Q429.65625 466.52188 428.6875 466.52188Q427.75 466.52188 427.125 467.2875Q426.5 468.05313 426.5 469.70938ZM440.23438 471.17813L441.6875 471.35Q441.34375 472.63126 440.40625 473.33438Q439.48438 474.0375 438.04688 474.0375Q436.21875 474.0375 435.15625 472.9125Q434.09375 471.7875 434.09375 469.77188Q434.09375 467.67813 435.17188 466.52188Q436.25 465.36563 437.96875 465.36563Q439.625 465.36563 440.67188 466.50626Q441.73438 467.63126 441.73438 469.67813Q441.73438 469.80313 441.73438 470.05313L435.54688 470.05313Q435.625 471.42813 436.3125 472.1625Q437.01562 472.88126 438.04688 472.88126Q438.82812 472.88126 439.375 472.475Q439.92188 472.06876 440.23438 471.17813ZM435.625 468.89688L440.25 468.89688Q440.15625 467.85 439.71875 467.33438Q439.04688 466.52188 437.98438 466.52188Q437.01562 466.52188 436.34375 467.17813Q435.6875 467.81876 435.625 468.89688ZM443.53125 473.85L443.53125 462.39688L444.9375 462.39688L444.9375 473.85L443.53125 473.85ZM450.21875 470.1625L451.65625 470.0375Q451.75 470.89688 452.125 471.45938Q452.5 472.00626 453.28125 472.35Q454.0625 472.67813 455.03125 472.67813Q455.90625 472.67813 456.5625 472.42813Q457.23438 472.1625 457.54688 471.725Q457.875 471.27188 457.875 470.74063Q457.875 470.19376 457.5625 469.80313Q457.25 469.39688 456.53125 469.11563Q456.07812 468.94376 454.5 468.56876Q452.92188 468.17813 452.28125 467.85Q451.46875 467.4125 451.0625 466.7875Q450.65625 466.14688 450.65625 465.35Q450.65625 464.49063 451.14062 463.74063Q451.64062 462.975 452.57812 462.58438Q453.53125 462.19376 454.6875 462.19376Q455.96875 462.19376 456.9375 462.61563Q457.90625 463.02188 458.42188 463.81876Q458.95312 464.61563 459.0 465.61563L457.54688 465.725Q457.42188 464.64688 456.75 464.1Q456.07812 463.5375 454.75 463.5375Q453.375 463.5375 452.75 464.0375Q452.125 464.5375 452.125 465.25626Q452.125 465.86563 452.5625 466.27188Q453.0 466.6625 454.84375 467.08438Q456.70312 467.50626 457.39062 467.81876Q458.39062 468.27188 458.85938 468.99063Q459.34375 469.69376 459.34375 470.61563Q459.34375 471.52188 458.8125 472.33438Q458.29688 473.14688 457.3125 473.6Q456.32812 474.05313 455.10938 474.05313Q453.54688 474.05313 452.5 473.6Q451.45312 473.13126 450.84375 472.225Q450.25 471.31876 450.21875 470.1625ZM461.5625 464.00626L461.5625 462.39688L462.96875 462.39688L462.96875 464.00626L461.5625 464.00626ZM461.5625 473.85L461.5625 465.55313L462.96875 465.55313L462.96875 473.85L461.5625 473.85ZM464.8125 473.85L464.8125 472.70938L470.09375 466.64688Q469.20312 466.69376 468.51562 466.69376L465.125 466.69376L465.125 465.55313L471.90625 465.55313L471.90625 466.475L467.42188 471.74063L466.54688 472.70938Q467.5 472.63126 468.32812 472.63126L472.15625 472.63126L472.15625 473.85L464.8125 473.85ZM478.23438 471.17813L479.6875 471.35Q479.34375 472.63126 478.40625 473.33438Q477.48438 474.0375 476.04688 474.0375Q474.21875 474.0375 473.15625 472.9125Q472.09375 471.7875 472.09375 469.77188Q472.09375 467.67813 473.17188 466.52188Q474.25 465.36563 475.96875 465.36563Q477.625 465.36563 478.67188 466.50626Q479.73438 467.63126 479.73438 469.67813Q479.73438 469.80313 479.73438 470.05313L473.54688 470.05313Q473.625 471.42813 474.3125 472.1625Q475.01562 472.88126 476.04688 472.88126Q476.82812 472.88126 477.375 472.475Q477.92188 472.06876 478.23438 471.17813ZM473.625 468.89688L478.25 468.89688Q478.15625 467.85 477.71875 467.33438Q477.04688 466.52188 475.98438 466.52188Q475.01562 466.52188 474.34375 467.17813Q473.6875 467.81876 473.625 468.89688Z" fill-rule="nonzero"/><path fill="#000000" d="M40.150005 337.5948L28.69688 337.5948L28.69688 336.07916L38.79063 336.07916L38.79063 330.43854L40.150005 330.43854L40.150005 337.5948ZM39.118755 323.2979Q39.79063 324.07916 40.07188 324.7979Q40.337505 325.51666 40.337505 326.3448Q40.337505 327.7198 39.66563 328.45416Q38.993755 329.18854 37.962505 329.18854Q37.35313 329.18854 36.85313 328.9073Q36.337505 328.62604 36.04063 328.18854Q35.72813 327.7354 35.57188 327.1729Q35.462505 326.75104 35.368755 325.9229Q35.16563 324.2198 34.88438 323.4073Q34.587505 323.4073 34.50938 323.4073Q33.650005 323.4073 33.306255 323.7979Q32.82188 324.3448 32.82188 325.4073Q32.82188 326.39166 33.181255 326.87604Q33.525005 327.3448 34.400005 327.56354L34.212505 328.93854Q33.337505 328.75104 32.79063 328.32916Q32.243755 327.89166 31.962505 327.07916Q31.66563 326.26666 31.66563 325.20416Q31.66563 324.14166 31.91563 323.4854Q32.16563 322.81354 32.54063 322.50104Q32.91563 322.18854 33.493755 322.06354Q33.85313 321.9854 34.79063 321.9854L36.66563 321.9854Q38.63438 321.9854 39.150005 321.9073Q39.66563 321.81354 40.150005 321.5479L40.150005 323.01666Q39.712505 323.2354 39.118755 323.2979ZM35.97813 323.4073Q36.29063 324.1729 36.50938 325.70416Q36.63438 326.57916 36.79063 326.93854Q36.94688 327.2979 37.25938 327.50104Q37.556255 327.68854 37.91563 327.68854Q38.47813 327.68854 38.85313 327.26666Q39.22813 326.82916 39.22813 326.01666Q39.22813 325.20416 38.88438 324.57916Q38.525005 323.93854 37.900005 323.64166Q37.431255 323.4073 36.493755 323.4073L35.97813 323.4073ZM38.88438 316.64166L40.13438 316.43854Q40.25938 317.0323 40.25938 317.50104Q40.25938 318.26666 40.025005 318.68854Q39.775005 319.1104 39.38438 319.2823Q38.97813 319.45416 37.712505 319.45416L32.94688 319.45416L32.94688 320.4854L31.85313 320.4854L31.85313 319.45416L29.79063 319.45416L28.94688 318.0479L31.85313 318.0479L31.85313 316.64166L32.94688 316.64166L32.94688 318.0479L37.79063 318.0479Q38.400005 318.0479 38.57188 317.9854Q38.743755 317.9073 38.85313 317.7354Q38.94688 317.56354 38.94688 317.25104Q38.94688 317.01666 38.88438 316.64166ZM37.47813 310.0323L37.650005 308.57916Q38.931255 308.9229 39.63438 309.8604Q40.337505 310.7823 40.337505 312.2198Q40.337505 314.0479 39.212505 315.1104Q38.087505 316.1729 36.07188 316.1729Q33.97813 316.1729 32.82188 315.0948Q31.66563 314.01666 31.66563 312.2979Q31.66563 310.64166 32.806255 309.5948Q33.931255 308.5323 35.97813 308.5323Q36.10313 308.5323 36.35313 308.5323L36.35313 314.7198Q37.72813 314.64166 38.462505 313.95416Q39.181255 313.25104 39.181255 312.2198Q39.181255 311.43854 38.775005 310.89166Q38.368755 310.3448 37.47813 310.0323ZM35.19688 314.64166L35.19688 310.01666Q34.150005 310.1104 33.63438 310.5479Q32.82188 311.2198 32.82188 312.2823Q32.82188 313.25104 33.47813 313.9229Q34.118755 314.57916 35.19688 314.64166ZM40.150005 306.70416L31.85313 306.70416L31.85313 305.43854L33.025005 305.43854Q31.66563 304.5323 31.66563 302.7979Q31.66563 302.0479 31.931255 301.4229Q32.19688 300.7979 32.63438 300.4854Q33.07188 300.1729 33.681255 300.0479Q34.07188 299.9698 35.04063 299.9698L40.150005 299.9698L40.150005 301.37604L35.10313 301.37604Q34.243755 301.37604 33.82188 301.5479Q33.38438 301.70416 33.13438 302.12604Q32.88438 302.5323 32.88438 303.0948Q32.88438 304.00104 33.462505 304.6573Q34.025005 305.2979 35.618755 305.2979L40.150005 305.2979L40.150005 306.70416ZM37.10313 293.2979L37.29063 291.9073Q38.712505 292.14166 39.525005 293.07916Q40.337505 294.00104 40.337505 295.3604Q40.337505 297.06354 39.22813 298.1104Q38.10313 299.14166 36.025005 299.14166Q34.681255 299.14166 33.681255 298.70416Q32.66563 298.25104 32.16563 297.3448Q31.66563 296.4229 31.66563 295.3604Q31.66563 294.00104 32.35313 293.14166Q33.025005 292.2823 34.29063 292.0479L34.493755 293.4073Q33.66563 293.6104 33.243755 294.1104Q32.82188 294.5948 32.82188 295.2979Q32.82188 296.3604 33.587505 297.0323Q34.337505 297.68854 35.993755 297.68854Q37.66563 297.68854 38.431255 297.0479Q39.181255 296.4073 39.181255 295.37604Q39.181255 294.5479 38.681255 294.00104Q38.16563 293.43854 37.10313 293.2979ZM43.35313 290.76666L42.025005 290.9229Q42.150005 290.4698 42.150005 290.12604Q42.150005 289.6573 41.993755 289.37604Q41.837505 289.0948 41.556255 288.9073Q41.35313 288.7823 40.50938 288.4854Q40.400005 288.43854 40.16563 288.3604L31.85313 291.50104L31.85313 289.9854L36.650005 288.26666Q37.57188 287.9229 38.57188 287.6573Q37.60313 287.4229 36.681255 287.07916L31.85313 285.31354L31.85313 283.9073L40.29063 287.06354Q41.66563 287.56354 42.181255 287.8448Q42.868755 288.2198 43.19688 288.70416Q43.525005 289.18854 43.525005 289.8604Q43.525005 290.26666 43.35313 290.76666ZM40.35313 280.76666L28.493755 277.43854L28.493755 276.31354L40.35313 279.62604L40.35313 280.76666ZM40.150005 268.6104L30.04063 268.6104L30.04063 272.39166L28.69688 272.39166L28.69688 263.31354L30.04063 263.31354L30.04063 267.0948L40.150005 267.0948L40.150005 268.6104ZM35.993755 263.2354Q33.69688 263.2354 32.587505 261.95416Q31.66563 260.87604 31.66563 259.3448Q31.66563 257.62604 32.79063 256.5479Q33.900005 255.45416 35.88438 255.45416Q37.47813 255.45416 38.400005 255.93854Q39.32188 256.4229 39.837505 257.3448Q40.337505 258.25104 40.337505 259.3448Q40.337505 261.07916 39.22813 262.1573Q38.10313 263.2354 35.993755 263.2354ZM35.993755 261.7823Q37.587505 261.7823 38.38438 261.0948Q39.181255 260.39166 39.181255 259.3448Q39.181255 258.2979 38.38438 257.6104Q37.587505 256.9073 35.94688 256.9073Q34.41563 256.9073 33.618755 257.6104Q32.82188 258.2979 32.82188 259.3448Q32.82188 260.39166 33.618755 261.0948Q34.400005 261.7823 35.993755 261.7823ZM40.150005 253.70416L28.69688 253.70416L28.69688 252.29791L35.22813 252.29791L31.85313 248.96979L31.85313 247.14166L34.931255 250.31354L40.150005 246.82916L40.150005 248.56354L35.900005 251.29791L36.85313 252.29791L40.150005 252.29791L40.150005 253.70416ZM37.47813 240.03229L37.650005 238.57916Q38.931255 238.92291 39.63438 239.86041Q40.337505 240.78229 40.337505 242.21979Q40.337505 244.04791 39.212505 245.11041Q38.087505 246.17291 36.07188 246.17291Q33.97813 246.17291 32.82188 245.09479Q31.66563 244.01666 31.66563 242.29791Q31.66563 240.64166 32.806255 239.59479Q33.931255 238.53229 35.97813 238.53229Q36.10313 238.53229 36.35313 238.53229L36.35313 244.71979Q37.72813 244.64166 38.462505 243.95416Q39.181255 243.25104 39.181255 242.21979Q39.181255 241.43854 38.775005 240.89166Q38.368755 240.34479 37.47813 240.03229ZM35.19688 244.64166L35.19688 240.01666Q34.150005 240.11041 33.63438 240.54791Q32.82188 241.21979 32.82188 242.28229Q32.82188 243.25104 33.47813 243.92291Q34.118755 244.57916 35.19688 244.64166ZM40.150005 236.70416L31.85313 236.70416L31.85313 235.43854L33.025005 235.43854Q31.66563 234.53229 31.66563 232.79791Q31.66563 232.04791 31.931255 231.42291Q32.19688 230.79791 32.63438 230.48541Q33.07188 230.17291 33.681255 230.04791Q34.07188 229.96979 35.04063 229.96979L40.150005 229.96979L40.150005 231.37604L35.10313 231.37604Q34.243755 231.37604 33.82188 231.54791Q33.38438 231.70416 33.13438 232.12604Q32.88438 232.53229 32.88438 233.09479Q32.88438 234.00104 33.462505 234.65729Q34.025005 235.29791 35.618755 235.29791L40.150005 235.29791L40.150005 236.70416ZM43.525005 222.01666Q42.056255 223.18854 40.087505 224.00104Q38.10313 224.79791 35.993755 224.79791Q34.13438 224.79791 32.431255 224.18854Q30.462505 223.48541 28.493755 222.01666L28.493755 221.01666Q30.118755 221.95416 30.82188 222.26666Q31.900005 222.73541 33.07188 223.01666Q34.525005 223.34479 36.00938 223.34479Q39.75938 223.34479 43.525005 221.01666L43.525005 222.01666ZM40.150005 219.70416L31.85313 219.70416L31.85313 218.45416L33.00938 218.45416Q32.400005 218.06354 32.04063 217.42291Q31.66563 216.76666 31.66563 215.93854Q31.66563 215.01666 32.056255 214.42291Q32.431255 213.82916 33.118755 213.59479Q31.66563 212.61041 31.66563 211.03229Q31.66563 209.79791 32.35313 209.14166Q33.025005 208.46979 34.44688 208.46979L40.150005 208.46979L40.150005 209.86041L34.91563 209.86041Q34.07188 209.86041 33.712505 210.00104Q33.337505 210.14166 33.118755 210.50104Q32.88438 210.86041 32.88438 211.34479Q32.88438 212.21979 33.462505 212.79791Q34.04063 213.37604 35.32188 213.37604L40.150005 213.37604L40.150005 214.78229L34.75938 214.78229Q33.82188 214.78229 33.35313 215.12604Q32.88438 215.46979 32.88438 216.25104Q32.88438 216.84479 33.19688 217.34479Q33.50938 217.84479 34.118755 218.07916Q34.712505 218.29791 35.837505 218.29791L40.150005 218.29791L40.150005 219.70416ZM37.66563 207.26666L37.44688 205.87604Q38.29063 205.76666 38.743755 205.23541Q39.181255 204.68854 39.181255 203.73541Q39.181255 202.76666 38.79063 202.29791Q38.38438 201.82916 37.85313 201.82916Q37.38438 201.82916 37.10313 202.23541Q36.91563 202.53229 36.63438 203.67291Q36.243755 205.21979 35.962505 205.82916Q35.66563 206.42291 35.16563 206.73541Q34.66563 207.03229 34.056255 207.03229Q33.493755 207.03229 33.025005 206.78229Q32.556255 206.53229 32.243755 206.09479Q31.993755 205.76666 31.837505 205.20416Q31.66563 204.62604 31.66563 203.98541Q31.66563 203.00104 31.94688 202.26666Q32.22813 201.53229 32.712505 201.18854Q33.181255 200.82916 33.993755 200.68854L34.181255 202.06354Q33.54063 202.15729 33.181255 202.61041Q32.82188 203.06354 32.82188 203.87604Q32.82188 204.84479 33.150005 205.26666Q33.462505 205.67291 33.88438 205.67291Q34.16563 205.67291 34.38438 205.50104Q34.60313 205.32916 34.75938 204.96979Q34.837505 204.75104 35.118755 203.71979Q35.50938 202.23541 35.775005 201.64166Q36.025005 201.04791 36.50938 200.71979Q36.993755 200.37604 37.712505 200.37604Q38.41563 200.37604 39.04063 200.79791Q39.650005 201.20416 39.993755 201.98541Q40.337505 202.75104 40.337505 203.71979Q40.337505 205.34479 39.66563 206.18854Q38.993755 207.03229 37.66563 207.26666ZM43.525005 197.78229L43.525005 198.79791Q39.75938 196.45416 36.00938 196.45416Q34.54063 196.45416 33.087505 196.79791Q31.91563 197.06354 30.837505 197.53229Q30.13438 197.84479 28.493755 198.79791L28.493755 197.78229Q30.462505 196.31354 32.431255 195.61041Q34.13438 195.01666 35.993755 195.01666Q38.10313 195.01666 40.087505 195.82916Q42.056255 196.62604 43.525005 197.78229Z" fill-rule="nonzero"/><path fill="#000000" d="M82.65 414.61563Q82.65 413.08438 82.9625 412.1625Q83.275 411.225 83.88438 410.725Q84.50938 410.225 85.44688 410.225Q86.13438 410.225 86.65 410.50626Q87.18125 410.7875 87.525 411.31876Q87.86875 411.83438 88.05625 412.58438Q88.24375 413.33438 88.24375 414.61563Q88.24375 416.13126 87.93125 417.05313Q87.63438 417.975 87.00938 418.49063Q86.4 418.99063 85.44688 418.99063Q84.2125 418.99063 83.49375 418.1Q82.65 417.0375 82.65 414.61563ZM83.72813 414.61563Q83.72813 416.725 84.22813 417.42813Q84.72813 418.13126 85.44688 418.13126Q86.18125 418.13126 86.66563 417.42813Q87.16563 416.725 87.16563 414.61563Q87.16563 412.49063 86.66563 411.80313Q86.18125 411.1 85.43125 411.1Q84.7125 411.1 84.275 411.70938Q83.72813 412.49063 83.72813 414.61563Z" fill-rule="nonzero"/><path fill="#000000" d="M82.65 313.54443L83.75938 313.45068Q83.88438 314.26318 84.32188 314.66943Q84.775 315.07568 85.41563 315.07568Q86.16563 315.07568 86.69688 314.49756Q87.22813 313.91943 87.22813 312.98193Q87.22813 312.07568 86.7125 311.56006Q86.2125 311.0288 85.38438 311.0288Q84.88438 311.0288 84.4625 311.26318Q84.05625 311.49756 83.82188 311.85693L82.8375 311.73193L83.66563 307.32568L87.94688 307.32568L87.94688 308.32568L84.50938 308.32568L84.05625 310.63818Q84.82188 310.0913 85.66563 310.0913Q86.79063 310.0913 87.55625 310.87256Q88.3375 311.6538 88.3375 312.88818Q88.3375 314.04443 87.66563 314.9038Q86.8375 315.93506 85.41563 315.93506Q84.24375 315.93506 83.49375 315.2788Q82.75938 314.62256 82.65 313.54443Z" fill-rule="nonzero"/><path fill="#000000" d="M79.61875 212.73889L78.57188 212.73889L78.57188 206.02014Q78.18125 206.37952 77.55625 206.75452Q76.94688 207.11389 76.4625 207.28577L76.4625 206.27014Q77.3375 205.84827 77.99375 205.27014Q78.66563 204.67639 78.94688 204.11389L79.61875 204.11389L79.61875 212.73889ZM82.65 208.50452Q82.65 206.97327 82.9625 206.05139Q83.275 205.11389 83.88438 204.61389Q84.50938 204.11389 85.44688 204.11389Q86.13438 204.11389 86.65 204.39514Q87.18125 204.67639 87.525 205.20764Q87.86875 205.72327 88.05625 206.47327Q88.24375 207.22327 88.24375 208.50452Q88.24375 210.02014 87.93125 210.94202Q87.63438 211.86389 87.00938 212.37952Q86.4 212.87952 85.44688 212.87952Q84.2125 212.87952 83.49375 211.98889Q82.65 210.92639 82.65 208.50452ZM83.72813 208.50452Q83.72813 210.61389 84.22813 211.31702Q84.72813 212.02014 85.44688 212.02014Q86.18125 212.02014 86.66563 211.31702Q87.16563 210.61389 87.16563 208.50452Q87.16563 206.37952 86.66563 205.69202Q86.18125 204.98889 85.43125 204.98889Q84.7125 204.98889 84.275 205.59827Q83.72813 206.37952 83.72813 208.50452Z" fill-rule="nonzero"/><path fill="#000000" d="M79.61875 109.683334L78.57188 109.683334L78.57188 102.964584Q78.18125 103.32396 77.55625 103.69896Q76.94688 104.058334 76.4625 104.23021L76.4625 103.214584Q77.3375 102.79271 77.99375 102.214584Q78.66563 101.620834 78.94688 101.058334L79.61875 101.058334L79.61875 109.683334ZM82.65 107.433334L83.75938 107.339584Q83.88438 108.152084 84.32188 108.558334Q84.775 108.964584 85.41563 108.964584Q86.16563 108.964584 86.69688 108.38646Q87.22813 107.808334 87.22813 106.870834Q87.22813 105.964584 86.7125 105.44896Q86.2125 104.91771 85.38438 104.91771Q84.88438 104.91771 84.4625 105.152084Q84.05625 105.38646 83.82188 105.745834L82.8375 105.620834L83.66563 101.214584L87.94688 101.214584L87.94688 102.214584L84.50938 102.214584L84.05625 104.527084Q84.82188 103.98021 85.66563 103.98021Q86.79063 103.98021 87.55625 104.76146Q88.3375 105.54271 88.3375 106.777084Q88.3375 107.933334 87.66563 108.79271Q86.8375 109.82396 85.41563 109.82396Q84.24375 109.82396 83.49375 109.16771Q82.75938 108.51146 82.65 107.433334Z" fill-rule="nonzero"/><path fill="#000000" d="M287.17953 424.38126L287.17953 423.36563L292.74203 423.36563L292.74203 424.19376Q291.92953 425.06876 291.11703 426.52188Q290.32016 427.95938 289.88266 429.49063Q289.55453 430.56876 289.4764 431.85L288.38266 431.85Q288.3983 430.83438 288.7733 429.39688Q289.1639 427.95938 289.86703 426.63126Q290.5858 425.30313 291.3983 424.38126L287.17953 424.38126ZM294.49203 431.85L294.49203 423.25626L297.7264 423.25626Q298.7108 423.25626 299.30453 423.52188Q299.8983 423.7875 300.2264 424.33438Q300.57016 424.86563 300.57016 425.45938Q300.57016 426.00626 300.2733 426.49063Q299.9764 426.975 299.36703 427.27188Q300.1483 427.50626 300.55453 428.06876Q300.9764 428.61563 300.9764 429.36563Q300.9764 429.95938 300.7264 430.49063Q300.4764 431.00626 300.1014 431.2875Q299.7264 431.56876 299.1483 431.70938Q298.5858 431.85 297.7733 431.85L294.49203 431.85ZM295.63266 426.86563L297.49203 426.86563Q298.24203 426.86563 298.57016 426.77188Q299.00766 426.64688 299.2264 426.35Q299.44516 426.0375 299.44516 425.58438Q299.44516 425.1625 299.24203 424.83438Q299.0389 424.50626 298.6483 424.39688Q298.2733 424.27188 297.3514 424.27188L295.63266 424.27188L295.63266 426.86563ZM295.63266 430.83438L297.7733 430.83438Q298.32016 430.83438 298.5389 430.7875Q298.94516 430.725 299.19516 430.56876Q299.4608 430.39688 299.63266 430.08438Q299.80453 429.77188 299.80453 429.36563Q299.80453 428.88126 299.55453 428.52188Q299.32016 428.1625 298.88266 428.02188Q298.44516 427.88126 297.61703 427.88126L295.63266 427.88126L295.63266 430.83438Z" fill-rule="nonzero"/><path fill="#000000" d="M583.85175 425.36563L582.8049 425.44376Q582.66425 424.81876 582.41425 424.5375Q581.97675 424.08438 581.35175 424.08438Q580.85175 424.08438 580.4611 424.36563Q579.97675 424.74063 579.6799 425.44376Q579.3986 426.13126 579.383 427.4125Q579.758 426.83438 580.3049 426.55313Q580.8674 426.27188 581.47675 426.27188Q582.5236 426.27188 583.258 427.05313Q584.008 427.83438 584.008 429.05313Q584.008 429.86563 583.6486 430.56876Q583.3049 431.25626 582.6955 431.63126Q582.0861 431.99063 581.3205 431.99063Q579.9924 431.99063 579.16425 431.02188Q578.3361 430.05313 578.3361 427.83438Q578.3361 425.33438 579.258 424.20938Q580.0549 423.225 581.41425 423.225Q582.4299 423.225 583.0705 423.80313Q583.72675 424.36563 583.85175 425.36563ZM579.5549 429.06876Q579.5549 429.61563 579.7736 430.11563Q580.008 430.6 580.41425 430.86563Q580.8361 431.13126 581.3049 431.13126Q581.9611 431.13126 582.4455 430.6Q582.9299 430.05313 582.9299 429.13126Q582.9299 428.24063 582.4455 427.725Q581.97675 427.20938 581.258 427.20938Q580.53925 427.20938 580.03925 427.725Q579.5549 428.24063 579.5549 429.06876ZM585.383 429.6L586.4924 429.50626Q586.6174 430.31876 587.0549 430.725Q587.508 431.13126 588.1486 431.13126Q588.8986 431.13126 589.4299 430.55313Q589.9611 429.975 589.9611 429.0375Q589.9611 428.13126 589.4455 427.61563Q588.9455 427.08438 588.1174 427.08438Q587.6174 427.08438 587.1955 427.31876Q586.78925 427.55313 586.5549 427.9125L585.5705 427.7875L586.3986 423.38126L590.6799 423.38126L590.6799 424.38126L587.2424 424.38126L586.78925 426.69376Q587.5549 426.14688 588.3986 426.14688Q589.5236 426.14688 590.28925 426.92813Q591.0705 427.70938 591.0705 428.94376Q591.0705 430.1 590.3986 430.95938Q589.5705 431.99063 588.1486 431.99063Q586.97675 431.99063 586.22675 431.33438Q585.4924 430.67813 585.383 429.6ZM592.758 431.85L592.758 423.25626L595.9924 423.25626Q596.97675 423.25626 597.5705 423.52188Q598.16425 423.7875 598.4924 424.33438Q598.8361 424.86563 598.8361 425.45938Q598.8361 426.00626 598.53925 426.49063Q598.2424 426.975 597.633 427.27188Q598.41425 427.50626 598.8205 428.06876Q599.2424 428.61563 599.2424 429.36563Q599.2424 429.95938 598.9924 430.49063Q598.7424 431.00626 598.3674 431.2875Q597.9924 431.56876 597.41425 431.70938Q596.85175 431.85 596.03925 431.85L592.758 431.85ZM593.8986 426.86563L595.758 426.86563Q596.508 426.86563 596.8361 426.77188Q597.2736 426.64688 597.4924 426.35Q597.7111 426.0375 597.7111 425.58438Q597.7111 425.1625 597.508 424.83438Q597.3049 424.50626 596.91425 424.39688Q596.53925 424.27188 595.6174 424.27188L593.8986 424.27188L593.8986 426.86563ZM593.8986 430.83438L596.03925 430.83438Q596.5861 430.83438 596.8049 430.7875Q597.2111 430.725 597.4611 430.56876Q597.72675 430.39688 597.8986 430.08438Q598.0705 429.77188 598.0705 429.36563Q598.0705 428.88126 597.8205 428.52188Q597.5861 428.1625 597.1486 428.02188Q596.7111 427.88126 595.883 427.88126L593.8986 427.88126L593.8986 430.83438Z" fill-rule="nonzero"/><path fill="#4285f4" d="M266.5 68.916664C266.5 68.36438 266.94772 67.916664 267.5 67.916664L277.5 67.916664C278.05228 67.916664 278.5 68.36438 278.5 68.916664L278.5 78.916664C278.5 79.46895 278.05228 79.916664 277.5 79.916664L267.5 79.916664C266.94772 79.916664 266.5 79.46895 266.5 78.916664Z" fill-rule="nonzero"/><path fill="#1a1a1a" d="M287.54688 78.916664L287.54688 68.90104L289.53125 68.90104L291.90625 75.99479Q292.23438 76.979164 292.39062 77.479164Q292.5625 76.93229 292.92188 75.86979L295.3125 68.90104L297.10938 68.90104L297.10938 78.916664L295.82812 78.916664L295.82812 70.52604L292.90625 78.916664L291.71875 78.916664L288.8125 70.385414L288.8125 78.916664L287.54688 78.916664ZM298.125 75.697914L299.375 75.58854Q299.46875 76.33854 299.79688 76.822914Q300.125 77.30729 300.79688 77.604164Q301.48438 77.90104 302.34375 77.90104Q303.09375 77.90104 303.67188 77.68229Q304.26562 77.447914 304.54688 77.05729Q304.82812 76.666664 304.82812 76.197914Q304.82812 75.729164 304.54688 75.385414Q304.28125 75.02604 303.65625 74.77604Q303.25 74.61979 301.85938 74.291664Q300.48438 73.96354 299.9375 73.666664Q299.21875 73.291664 298.85938 72.74479Q298.51562 72.18229 298.51562 71.479164Q298.51562 70.729164 298.9375 70.072914Q299.375 69.40104 300.20312 69.072914Q301.03125 68.729164 302.04688 68.729164Q303.15625 68.729164 304.0 69.08854Q304.85938 69.447914 305.3125 70.15104Q305.76562 70.83854 305.8125 71.71354L304.53125 71.80729Q304.4375 70.86979 303.84375 70.385414Q303.25 69.885414 302.09375 69.885414Q300.89062 69.885414 300.34375 70.33854Q299.79688 70.77604 299.79688 71.40104Q299.79688 71.93229 300.1875 72.291664Q300.5625 72.635414 302.17188 73.010414Q303.79688 73.36979 304.39062 73.635414Q305.26562 74.041664 305.6875 74.666664Q306.10938 75.27604 306.10938 76.08854Q306.10938 76.885414 305.64062 77.604164Q305.1875 78.30729 304.32812 78.697914Q303.46875 79.08854 302.40625 79.08854Q301.04688 79.08854 300.125 78.697914Q299.20312 78.291664 298.67188 77.49479Q298.15625 76.697914 298.125 75.697914ZM307.53125 78.916664L307.53125 68.90104L308.85938 68.90104L308.85938 77.729164L313.78125 77.729164L313.78125 78.916664L307.53125 78.916664ZM321.89062 73.02604L315.28125 73.02604L315.28125 71.86979L321.89062 71.86979L321.89062 73.02604ZM321.89062 76.072914L315.28125 76.072914L315.28125 74.916664L321.89062 74.916664L321.89062 76.072914ZM329.54688 77.729164L329.54688 78.916664L322.92188 78.916664Q322.90625 78.479164 323.0625 78.05729Q323.32812 77.385414 323.875 76.729164Q324.4375 76.072914 325.48438 75.21354Q327.125 73.86979 327.6875 73.08854Q328.26562 72.30729 328.26562 71.604164Q328.26562 70.86979 327.73438 70.36979Q327.21875 69.86979 326.39062 69.86979Q325.5 69.86979 324.95312 70.40104Q324.42188 70.93229 324.42188 71.885414L323.15625 71.74479Q323.28125 70.33854 324.125 69.604164Q324.98438 68.854164 326.40625 68.854164Q327.85938 68.854164 328.6875 69.65104Q329.53125 70.447914 329.53125 71.635414Q329.53125 72.24479 329.28125 72.822914Q329.04688 73.40104 328.46875 74.041664Q327.90625 74.68229 326.57812 75.80729Q325.46875 76.729164 325.15625 77.072914Q324.84375 77.40104 324.64062 77.729164L329.54688 77.729164ZM331.07812 76.291664L332.375 76.18229Q332.51562 77.11979 333.03125 77.604164Q333.5625 78.072914 334.29688 78.072914Q335.1875 78.072914 335.79688 77.40104Q336.42188 76.729164 336.42188 75.635414Q336.42188 74.572914 335.82812 73.96354Q335.23438 73.354164 334.28125 73.354164Q333.6875 73.354164 333.20312 73.635414Q332.73438 73.90104 332.45312 74.322914L331.29688 74.18229L332.26562 69.02604L337.25 69.02604L337.25 70.21354L333.25 70.21354L332.71875 72.90104Q333.625 72.27604 334.60938 72.27604Q335.92188 72.27604 336.8125 73.18229Q337.71875 74.08854 337.71875 75.52604Q337.71875 76.885414 336.9375 77.86979Q335.96875 79.08854 334.29688 79.08854Q332.9375 79.08854 332.0625 78.322914Q331.20312 77.55729 331.07812 76.291664ZM345.46875 71.354164L344.25 71.447914Q344.07812 70.71354 343.78125 70.385414Q343.28125 69.86979 342.54688 69.86979Q341.95312 69.86979 341.51562 70.197914Q340.9375 70.61979 340.59375 71.43229Q340.26562 72.24479 340.25 73.74479Q340.6875 73.072914 341.32812 72.74479Q341.98438 72.416664 342.6875 72.416664Q343.92188 72.416664 344.78125 73.322914Q345.64062 74.229164 345.64062 75.666664Q345.64062 76.604164 345.23438 77.416664Q344.82812 78.229164 344.10938 78.666664Q343.40625 79.08854 342.5 79.08854Q340.96875 79.08854 340.0 77.96354Q339.03125 76.822914 339.03125 74.229164Q339.03125 71.322914 340.09375 69.99479Q341.03125 68.854164 342.625 68.854164Q343.8125 68.854164 344.5625 69.52604Q345.3125 70.18229 345.46875 71.354164ZM340.4375 75.666664Q340.4375 76.30729 340.70312 76.885414Q340.98438 77.46354 341.46875 77.77604Q341.95312 78.072914 342.48438 78.072914Q343.26562 78.072914 343.82812 77.447914Q344.39062 76.822914 344.39062 75.74479Q344.39062 74.697914 343.82812 74.104164Q343.28125 73.49479 342.4375 73.49479Q341.60938 73.49479 341.01562 74.104164Q340.4375 74.697914 340.4375 75.666664Z" fill-rule="nonzero"/><path fill="#ea4335" d="M362.5 68.916664C362.5 68.36438 362.94772 67.916664 363.5 67.916664L373.5 67.916664C374.05228 67.916664 374.5 68.36438 374.5 68.916664L374.5 78.916664C374.5 79.46895 374.05228 79.916664 373.5 79.916664L363.5 79.916664C362.94772 79.916664 362.5 79.46895 362.5 78.916664Z" fill-rule="nonzero"/><path fill="#1a1a1a" d="M383.54688 78.916664L383.54688 68.90104L385.53125 68.90104L387.90625 75.99479Q388.23438 76.979164 388.39062 77.479164Q388.5625 76.93229 388.92188 75.86979L391.3125 68.90104L393.10938 68.90104L393.10938 78.916664L391.82812 78.916664L391.82812 70.52604L388.90625 78.916664L387.71875 78.916664L384.8125 70.385414L384.8125 78.916664L383.54688 78.916664ZM394.125 75.697914L395.375 75.58854Q395.46875 76.33854 395.79688 76.822914Q396.125 77.30729 396.79688 77.604164Q397.48438 77.90104 398.34375 77.90104Q399.09375 77.90104 399.67188 77.68229Q400.26562 77.447914 400.54688 77.05729Q400.82812 76.666664 400.82812 76.197914Q400.82812 75.729164 400.54688 75.385414Q400.28125 75.02604 399.65625 74.77604Q399.25 74.61979 397.85938 74.291664Q396.48438 73.96354 395.9375 73.666664Q395.21875 73.291664 394.85938 72.74479Q394.51562 72.18229 394.51562 71.479164Q394.51562 70.729164 394.9375 70.072914Q395.375 69.40104 396.20312 69.072914Q397.03125 68.729164 398.04688 68.729164Q399.15625 68.729164 400.0 69.08854Q400.85938 69.447914 401.3125 70.15104Q401.76562 70.83854 401.8125 71.71354L400.53125 71.80729Q400.4375 70.86979 399.84375 70.385414Q399.25 69.885414 398.09375 69.885414Q396.89062 69.885414 396.34375 70.33854Q395.79688 70.77604 395.79688 71.40104Q395.79688 71.93229 396.1875 72.291664Q396.5625 72.635414 398.17188 73.010414Q399.79688 73.36979 400.39062 73.635414Q401.26562 74.041664 401.6875 74.666664Q402.10938 75.27604 402.10938 76.08854Q402.10938 76.885414 401.64062 77.604164Q401.1875 78.30729 400.32812 78.697914Q399.46875 79.08854 398.40625 79.08854Q397.04688 79.08854 396.125 78.697914Q395.20312 78.291664 394.67188 77.49479Q394.15625 76.697914 394.125 75.697914ZM403.53125 78.916664L403.53125 68.90104L404.85938 68.90104L404.85938 77.729164L409.78125 77.729164L409.78125 78.916664L403.53125 78.916664ZM417.89062 73.02604L411.28125 73.02604L411.28125 71.86979L417.89062 71.86979L417.89062 73.02604ZM417.89062 76.072914L411.28125 76.072914L411.28125 74.916664L417.89062 74.916664L417.89062 76.072914ZM419.07812 76.291664L420.375 76.18229Q420.51562 77.11979 421.03125 77.604164Q421.5625 78.072914 422.29688 78.072914Q423.1875 78.072914 423.79688 77.40104Q424.42188 76.729164 424.42188 75.635414Q424.42188 74.572914 423.82812 73.96354Q423.23438 73.354164 422.28125 73.354164Q421.6875 73.354164 421.20312 73.635414Q420.73438 73.90104 420.45312 74.322914L419.29688 74.18229L420.26562 69.02604L425.25 69.02604L425.25 70.21354L421.25 70.21354L420.71875 72.90104Q421.625 72.27604 422.60938 72.27604Q423.92188 72.27604 424.8125 73.18229Q425.71875 74.08854 425.71875 75.52604Q425.71875 76.885414 424.9375 77.86979Q423.96875 79.08854 422.29688 79.08854Q420.9375 79.08854 420.0625 78.322914Q419.20312 77.55729 419.07812 76.291664ZM431.71875 78.916664L430.48438 78.916664L430.48438 71.072914Q430.04688 71.49479 429.3125 71.93229Q428.59375 72.354164 428.03125 72.55729L428.03125 71.36979Q429.0625 70.885414 429.82812 70.197914Q430.60938 69.510414 430.92188 68.854164L431.71875 68.854164L431.71875 78.916664ZM441.54688 77.729164L441.54688 78.916664L434.92188 78.916664Q434.90625 78.479164 435.0625 78.05729Q435.32812 77.385414 435.875 76.729164Q436.4375 76.072914 437.48438 75.21354Q439.125 73.86979 439.6875 73.08854Q440.26562 72.30729 440.26562 71.604164Q440.26562 70.86979 439.73438 70.36979Q439.21875 69.86979 438.39062 69.86979Q437.5 69.86979 436.95312 70.40104Q436.42188 70.93229 436.42188 71.885414L435.15625 71.74479Q435.28125 70.33854 436.125 69.604164Q436.98438 68.854164 438.40625 68.854164Q439.85938 68.854164 440.6875 69.65104Q441.53125 70.447914 441.53125 71.635414Q441.53125 72.24479 441.28125 72.822914Q441.04688 73.40104 440.46875 74.041664Q439.90625 74.68229 438.57812 75.80729Q437.46875 76.729164 437.15625 77.072914Q436.84375 77.40104 436.64062 77.729164L441.54688 77.729164Z" fill-rule="nonzero"/><path fill="#fbbc04" d="M458.5 68.916664C458.5 68.36438 458.94772 67.916664 459.5 67.916664L469.5 67.916664C470.05228 67.916664 470.5 68.36438 470.5 68.916664L470.5 78.916664C470.5 79.46895 470.05228 79.916664 469.5 79.916664L459.5 79.916664C458.94772 79.916664 458.5 79.46895 458.5 78.916664Z" fill-rule="nonzero"/><path fill="#1a1a1a" d="M479.54688 78.916664L479.54688 68.90104L481.53125 68.90104L483.90625 75.99479Q484.23438 76.979164 484.39062 77.479164Q484.5625 76.93229 484.92188 75.86979L487.3125 68.90104L489.10938 68.90104L489.10938 78.916664L487.82812 78.916664L487.82812 70.52604L484.90625 78.916664L483.71875 78.916664L480.8125 70.385414L480.8125 78.916664L479.54688 78.916664ZM490.125 75.697914L491.375 75.58854Q491.46875 76.33854 491.79688 76.822914Q492.125 77.30729 492.79688 77.604164Q493.48438 77.90104 494.34375 77.90104Q495.09375 77.90104 495.67188 77.68229Q496.26562 77.447914 496.54688 77.05729Q496.82812 76.666664 496.82812 76.197914Q496.82812 75.729164 496.54688 75.385414Q496.28125 75.02604 495.65625 74.77604Q495.25 74.61979 493.85938 74.291664Q492.48438 73.96354 491.9375 73.666664Q491.21875 73.291664 490.85938 72.74479Q490.51562 72.18229 490.51562 71.479164Q490.51562 70.729164 490.9375 70.072914Q491.375 69.40104 492.20312 69.072914Q493.03125 68.729164 494.04688 68.729164Q495.15625 68.729164 496.0 69.08854Q496.85938 69.447914 497.3125 70.15104Q497.76562 70.83854 497.8125 71.71354L496.53125 71.80729Q496.4375 70.86979 495.84375 70.385414Q495.25 69.885414 494.09375 69.885414Q492.89062 69.885414 492.34375 70.33854Q491.79688 70.77604 491.79688 71.40104Q491.79688 71.93229 492.1875 72.291664Q492.5625 72.635414 494.17188 73.010414Q495.79688 73.36979 496.39062 73.635414Q497.26562 74.041664 497.6875 74.666664Q498.10938 75.27604 498.10938 76.08854Q498.10938 76.885414 497.64062 77.604164Q497.1875 78.30729 496.32812 78.697914Q495.46875 79.08854 494.40625 79.08854Q493.04688 79.08854 492.125 78.697914Q491.20312 78.291664 490.67188 77.49479Q490.15625 76.697914 490.125 75.697914ZM499.53125 78.916664L499.53125 68.90104L500.85938 68.90104L500.85938 77.729164L505.78125 77.729164L505.78125 78.916664L499.53125 78.916664ZM513.8906 73.02604L507.28125 73.02604L507.28125 71.86979L513.8906 71.86979L513.8906 73.02604ZM513.8906 76.072914L507.28125 76.072914L507.28125 74.916664L513.8906 74.916664L513.8906 76.072914ZM519.71875 78.916664L518.4844 78.916664L518.4844 71.072914Q518.0469 71.49479 517.3125 71.93229Q516.59375 72.354164 516.03125 72.55729L516.03125 71.36979Q517.0625 70.885414 517.8281 70.197914Q518.6094 69.510414 518.9219 68.854164L519.71875 68.854164L519.71875 78.916664ZM523.0781 73.979164Q523.0781 72.197914 523.4375 71.11979Q523.8125 70.02604 524.53125 69.447914Q525.25 68.854164 526.34375 68.854164Q527.15625 68.854164 527.7656 69.18229Q528.375 69.510414 528.7656 70.11979Q529.1719 70.729164 529.3906 71.604164Q529.6094 72.479164 529.6094 73.979164Q529.6094 75.74479 529.25 76.822914Q528.8906 77.90104 528.1719 78.49479Q527.4531 79.08854 526.34375 79.08854Q524.90625 79.08854 524.0781 78.041664Q523.0781 76.791664 523.0781 73.979164ZM524.34375 73.979164Q524.34375 76.447914 524.9219 77.260414Q525.5 78.072914 526.34375 78.072914Q527.2031 78.072914 527.78125 77.260414Q528.3594 76.43229 528.3594 73.979164Q528.3594 71.49479 527.78125 70.68229Q527.2031 69.86979 526.3281 69.86979Q525.4844 69.86979 524.9844 70.58854Q524.34375 71.510414 524.34375 73.979164ZM537.5469 77.729164L537.5469 78.916664L530.9219 78.916664Q530.90625 78.479164 531.0625 78.05729Q531.3281 77.385414 531.875 76.729164Q532.4375 76.072914 533.4844 75.21354Q535.125 73.86979 535.6875 73.08854Q536.2656 72.30729 536.2656 71.604164Q536.2656 70.86979 535.7344 70.36979Q535.21875 69.86979 534.3906 69.86979Q533.5 69.86979 532.9531 70.40104Q532.4219 70.93229 532.4219 71.885414L531.15625 71.74479Q531.28125 70.33854 532.125 69.604164Q532.9844 68.854164 534.40625 68.854164Q535.8594 68.854164 536.6875 69.65104Q537.53125 70.447914 537.53125 71.635414Q537.53125 72.24479 537.28125 72.822914Q537.0469 73.40104 536.46875 74.041664Q535.90625 74.68229 534.5781 75.80729Q533.46875 76.729164 533.15625 77.072914Q532.84375 77.40104 532.6406 77.729164L537.5469 77.729164ZM543.03125 78.916664L543.03125 76.510414L538.6719 76.510414L538.6719 75.385414L543.25 68.90104L544.25 68.90104L544.25 75.385414L545.6094 75.385414L545.6094 76.510414L544.25 76.510414L544.25 78.916664L543.03125 78.916664ZM543.03125 75.385414L543.03125 70.86979L539.8906 75.385414L543.03125 75.385414Z" fill-rule="nonzero"/><path fill="#757575" d="M26.61875 44.15L26.61875 29.837502L28.509375 29.837502L28.509375 42.4625L35.55625 42.4625L35.55625 44.15L26.61875 44.15ZM37.61875 44.15L37.61875 29.837502L39.509377 29.837502L39.509377 42.4625L46.55625 42.4625L46.55625 44.15L37.61875 44.15ZM55.24375 42.86875Q54.259377 43.696877 53.353127 44.040627Q52.446877 44.384377 51.415627 44.384377Q49.7125 44.384377 48.790627 43.55625Q47.86875 42.7125 47.86875 41.415627Q47.86875 40.65 48.2125 40.025Q48.571877 39.4 49.134377 39.025Q49.696877 38.634377 50.4 38.43125Q50.915627 38.30625 51.9625 38.165627Q54.0875 37.915627 55.0875 37.571877Q55.103127 37.2125 55.103127 37.103127Q55.103127 36.040627 54.603127 35.5875Q53.93125 34.99375 52.603127 34.99375Q51.353127 34.99375 50.759377 35.43125Q50.18125 35.86875 49.9 36.978127L48.18125 36.74375Q48.415627 35.634377 48.946877 34.9625Q49.478127 34.275 50.49375 33.915627Q51.509377 33.540627 52.853127 33.540627Q54.18125 33.540627 55.009377 33.853127Q55.8375 34.165627 56.228127 34.65Q56.61875 35.11875 56.775 35.8375Q56.86875 36.290627 56.86875 37.4625L56.86875 39.80625Q56.86875 42.259377 56.978127 42.915627Q57.0875 43.55625 57.43125 44.15L55.5875 44.15Q55.321877 43.603127 55.24375 42.86875ZM55.0875 38.946877Q54.134377 39.3375 52.2125 39.603127Q51.134377 39.759377 50.68125 39.9625Q50.24375 40.15 49.99375 40.525Q49.74375 40.9 49.74375 41.36875Q49.74375 42.071877 50.275 42.540627Q50.80625 43.009377 51.8375 43.009377Q52.853127 43.009377 53.634377 42.571877Q54.43125 42.11875 54.80625 41.353127Q55.0875 40.74375 55.0875 39.5875L55.0875 38.946877ZM59.634377 44.15L59.634377 29.837502L62.49375 29.837502L65.86875 39.9625Q66.3375 41.384377 66.55625 42.0875Q66.80625 41.30625 67.32188 39.790627L70.74375 29.837502L73.29063 29.837502L73.29063 44.15L71.47813 44.15L71.47813 32.165627L67.30625 44.15L65.60313 44.15L61.4625 31.962502L61.4625 44.15L59.634377 44.15ZM75.11875 44.15L80.61875 29.837502L82.66563 29.837502L88.525 44.15L86.36875 44.15L84.69688 39.80625L78.7125 39.80625L77.13438 44.15L75.11875 44.15ZM79.25938 38.275L84.10313 38.275L82.61875 34.30625Q81.93125 32.49375 81.60313 31.337502Q81.32188 32.7125 80.82188 34.071877L79.25938 38.275ZM96.00938 44.15L96.00938 29.837502L97.91563 29.837502L97.91563 44.15L96.00938 44.15ZM101.4625 44.15L101.4625 33.775L103.05625 33.775L103.05625 35.259377Q104.19688 33.540627 106.35313 33.540627Q107.29063 33.540627 108.07188 33.884377Q108.86875 34.2125 109.25938 34.759377Q109.65 35.30625 109.80625 36.05625Q109.9 36.55625 109.9 37.775L109.9 44.15L108.13438 44.15L108.13438 37.8375Q108.13438 36.759377 107.93125 36.228127Q107.72813 35.696877 107.19688 35.384377Q106.68125 35.071877 105.97813 35.071877Q104.85313 35.071877 104.04063 35.790627Q103.22813 36.49375 103.22813 38.478127L103.22813 44.15L101.4625 44.15ZM111.88438 44.15L111.88438 35.15L110.3375 35.15L110.3375 33.775L111.88438 33.775L111.88438 32.68125Q111.88438 31.634377 112.07188 31.118752Q112.32188 30.431252 112.9625 30.009377Q113.60313 29.587502 114.75938 29.587502Q115.50938 29.587502 116.4 29.759377L116.13438 31.290627Q115.5875 31.196877 115.10313 31.196877Q114.30625 31.196877 113.9625 31.540627Q113.63438 31.884377 113.63438 32.821877L113.63438 33.775L115.66563 33.775L115.66563 35.15L113.63438 35.15L113.63438 44.15L111.88438 44.15ZM124.57188 40.80625L126.38438 41.040627Q125.9625 42.61875 124.79063 43.509377Q123.63438 44.384377 121.82188 44.384377Q119.55625 44.384377 118.2125 42.99375Q116.88438 41.5875 116.88438 39.05625Q116.88438 36.43125 118.22813 34.99375Q119.57188 33.540627 121.72813 33.540627Q123.80625 33.540627 125.11875 34.9625Q126.44688 36.36875 126.44688 38.946877Q126.44688 39.103127 126.43125 39.415627L118.69688 39.415627Q118.79063 41.11875 119.66563 42.025Q120.54063 42.93125 121.8375 42.93125Q122.80625 42.93125 123.47813 42.43125Q124.16563 41.915627 124.57188 40.80625ZM118.79063 37.9625L124.5875 37.9625Q124.47813 36.665627 123.93125 36.009377Q123.0875 34.99375 121.74375 34.99375Q120.54063 34.99375 119.7125 35.80625Q118.88438 36.603127 118.79063 37.9625ZM128.44687 44.15L128.44687 33.775L130.025 33.775L130.025 35.353127Q130.63437 34.24375 131.15 33.9Q131.66562 33.540627 132.275 33.540627Q133.16562 33.540627 134.0875 34.103127L133.47812 35.74375Q132.8375 35.353127 132.19687 35.353127Q131.61874 35.353127 131.15 35.7125Q130.69687 36.05625 130.49374 36.665627Q130.2125 37.603127 130.2125 38.7125L130.2125 44.15L128.44687 44.15ZM142.57187 40.80625L144.38437 41.040627Q143.9625 42.61875 142.79062 43.509377Q141.63437 44.384377 139.82187 44.384377Q137.55624 44.384377 136.2125 42.99375Q134.88437 41.5875 134.88437 39.05625Q134.88437 36.43125 136.22812 34.99375Q137.57187 33.540627 139.72812 33.540627Q141.80624 33.540627 143.11874 34.9625Q144.44687 36.36875 144.44687 38.946877Q144.44687 39.103127 144.43124 39.415627L136.69687 39.415627Q136.79062 41.11875 137.66562 42.025Q138.54062 42.93125 139.8375 42.93125Q140.80624 42.93125 141.47812 42.43125Q142.16562 41.915627 142.57187 40.80625ZM136.79062 37.9625L142.5875 37.9625Q142.47812 36.665627 141.93124 36.009377Q141.0875 34.99375 139.74374 34.99375Q138.54062 34.99375 137.7125 35.80625Q136.88437 36.603127 136.79062 37.9625ZM146.4625 44.15L146.4625 33.775L148.05624 33.775L148.05624 35.259377Q149.19687 33.540627 151.35312 33.540627Q152.29062 33.540627 153.07187 33.884377Q153.86874 34.2125 154.25937 34.759377Q154.65 35.30625 154.80624 36.05625Q154.9 36.55625 154.9 37.775L154.9 44.15L153.13437 44.15L153.13437 37.8375Q153.13437 36.759377 152.93124 36.228127Q152.72812 35.696877 152.19687 35.384377Q151.68124 35.071877 150.97812 35.071877Q149.85312 35.071877 149.04062 35.790627Q148.22812 36.49375 148.22812 38.478127L148.22812 44.15L146.4625 44.15ZM163.24374 40.353127L164.9625 40.571877Q164.68124 42.36875 163.50937 43.384377Q162.35312 44.384377 160.65 44.384377Q158.525 44.384377 157.22812 42.99375Q155.93124 41.603127 155.93124 39.009377Q155.93124 37.321877 156.47812 36.071877Q157.04062 34.80625 158.18124 34.18125Q159.32187 33.540627 160.66562 33.540627Q162.35312 33.540627 163.41562 34.4Q164.49374 35.259377 164.80624 36.821877L163.0875 37.0875Q162.85312 36.040627 162.22812 35.525Q161.60312 34.99375 160.72812 34.99375Q159.4 34.99375 158.57187 35.946877Q157.74374 36.9 157.74374 38.946877Q157.74374 41.040627 158.54062 41.99375Q159.3375 42.93125 160.63437 42.93125Q161.66562 42.93125 162.35312 42.30625Q163.05624 41.665627 163.24374 40.353127ZM173.57187 40.80625L175.38437 41.040627Q174.9625 42.61875 173.79062 43.509377Q172.63437 44.384377 170.82187 44.384377Q168.55624 44.384377 167.2125 42.99375Q165.88437 41.5875 165.88437 39.05625Q165.88437 36.43125 167.22812 34.99375Q168.57187 33.540627 170.72812 33.540627Q172.80624 33.540627 174.11874 34.9625Q175.44687 36.36875 175.44687 38.946877Q175.44687 39.103127 175.43124 39.415627L167.69687 39.415627Q167.79062 41.11875 168.66562 42.025Q169.54062 42.93125 170.8375 42.93125Q171.80624 42.93125 172.47812 42.43125Q173.16562 41.915627 173.57187 40.80625ZM167.79062 37.9625L173.5875 37.9625Q173.47812 36.665627 172.93124 36.009377Q172.0875 34.99375 170.74374 34.99375Q169.54062 34.99375 168.7125 35.80625Q167.88437 36.603127 167.79062 37.9625ZM183.69687 44.15L183.69687 29.837502L189.0875 29.837502Q190.525 29.837502 191.275 29.962502Q192.32187 30.150002 193.04062 30.650002Q193.75937 31.134377 194.18124 32.025Q194.61874 32.915627 194.61874 33.978127Q194.61874 35.80625 193.44687 37.071877Q192.29062 38.321877 189.25937 38.321877L185.5875 38.321877L185.5875 44.15L183.69687 44.15ZM185.5875 36.634377L189.29062 36.634377Q191.11874 36.634377 191.88437 35.9625Q192.66562 35.275 192.66562 34.025Q192.66562 33.134377 192.2125 32.49375Q191.75937 31.853127 191.025 31.650002Q190.54062 31.525002 189.24374 31.525002L185.5875 31.525002L185.5875 36.634377ZM203.57187 40.80625L205.38437 41.040627Q204.9625 42.61875 203.79062 43.509377Q202.63437 44.384377 200.82187 44.384377Q198.55624 44.384377 197.2125 42.99375Q195.88437 41.5875 195.88437 39.05625Q195.88437 36.43125 197.22812 34.99375Q198.57187 33.540627 200.72812 33.540627Q202.80624 33.540627 204.11874 34.9625Q205.44687 36.36875 205.44687 38.946877Q205.44687 39.103127 205.43124 39.415627L197.69687 39.415627Q197.79062 41.11875 198.66562 42.025Q199.54062 42.93125 200.8375 42.93125Q201.80624 42.93125 202.47812 42.43125Q203.16562 41.915627 203.57187 40.80625ZM197.79062 37.9625L203.5875 37.9625Q203.47812 36.665627 202.93124 36.009377Q202.0875 34.99375 200.74374 34.99375Q199.54062 34.99375 198.7125 35.80625Q197.88437 36.603127 197.79062 37.9625ZM207.44687 44.15L207.44687 33.775L209.025 33.775L209.025 35.353127Q209.63437 34.24375 210.15 33.9Q210.66562 33.540627 211.275 33.540627Q212.16562 33.540627 213.0875 34.103127L212.47812 35.74375Q211.8375 35.353127 211.19687 35.353127Q210.61874 35.353127 210.15 35.7125Q209.69687 36.05625 209.49374 36.665627Q209.2125 37.603127 209.2125 38.7125L209.2125 44.15L207.44687 44.15ZM214.88437 44.15L214.88437 35.15L213.3375 35.15L213.3375 33.775L214.88437 33.775L214.88437 32.68125Q214.88437 31.634377 215.07187 31.118752Q215.32187 30.431252 215.9625 30.009377Q216.60312 29.587502 217.75937 29.587502Q218.50937 29.587502 219.4 29.759377L219.13437 31.290627Q218.5875 31.196877 218.10312 31.196877Q217.30624 31.196877 216.9625 31.540627Q216.63437 31.884377 216.63437 32.821877L216.63437 33.775L218.66562 33.775L218.66562 35.15L216.63437 35.15L216.63437 44.15L214.88437 44.15ZM229.35312 44.15L225.4 33.775L227.25937 33.775L229.49374 39.99375Q229.85312 40.99375 230.15 42.071877Q230.38437 41.259377 230.80624 40.103127L233.10312 33.775L234.91562 33.775L230.99374 44.15L229.35312 44.15ZM234.75937 41.05625L236.50937 40.775Q236.65 41.821877 237.32187 42.384377Q237.99374 42.93125 239.19687 42.93125Q240.4 42.93125 240.97812 42.446877Q241.57187 41.946877 241.57187 41.290627Q241.57187 40.696877 241.05624 40.353127Q240.69687 40.11875 239.25937 39.759377Q237.32187 39.259377 236.57187 38.915627Q235.8375 38.55625 235.44687 37.93125Q235.05624 37.290627 235.05624 36.525Q235.05624 35.8375 235.36874 35.24375Q235.69687 34.65 236.24374 34.259377Q236.65 33.9625 237.35312 33.759377Q238.07187 33.540627 238.88437 33.540627Q240.10312 33.540627 241.025 33.9Q241.94687 34.24375 242.38437 34.853127Q242.82187 35.446877 242.99374 36.446877L241.275 36.68125Q241.15 35.884377 240.5875 35.446877Q240.025 34.99375 239.00937 34.99375Q237.79062 34.99375 237.275 35.4Q236.75937 35.790627 236.75937 36.321877Q236.75937 36.665627 236.97812 36.946877Q237.18124 37.228127 237.65 37.415627Q237.91562 37.509377 239.19687 37.853127Q241.07187 38.353127 241.80624 38.68125Q242.54062 38.99375 242.9625 39.603127Q243.38437 40.196877 243.38437 41.103127Q243.38437 41.978127 242.86874 42.759377Q242.35312 43.540627 241.38437 43.9625Q240.41562 44.384377 239.19687 44.384377Q237.18124 44.384377 236.11874 43.540627Q235.05624 42.696877 234.75937 41.05625ZM245.9625 44.15L245.9625 42.15L247.9625 42.15L247.9625 44.15L245.9625 44.15ZM257.63437 44.15L257.63437 29.837502L260.49374 29.837502L263.86874 39.9625Q264.3375 41.384377 264.55624 42.0875Q264.80624 41.30625 265.32187 39.790627L268.74374 29.837502L271.29062 29.837502L271.29062 44.15L269.47812 44.15L269.47812 32.165627L265.30624 44.15L263.60312 44.15L259.4625 31.962502L259.4625 44.15L257.63437 44.15ZM281.24374 42.86875Q280.25937 43.696877 279.35312 44.040627Q278.44687 44.384377 277.41562 44.384377Q275.7125 44.384377 274.79062 43.55625Q273.86874 42.7125 273.86874 41.415627Q273.86874 40.65 274.2125 40.025Q274.57187 39.4 275.13437 39.025Q275.69687 38.634377 276.4 38.43125Q276.91562 38.30625 277.9625 38.165627Q280.0875 37.915627 281.0875 37.571877Q281.10312 37.2125 281.10312 37.103127Q281.10312 36.040627 280.60312 35.5875Q279.93124 34.99375 278.60312 34.99375Q277.35312 34.99375 276.75937 35.43125Q276.18124 35.86875 275.9 36.978127L274.18124 36.74375Q274.41562 35.634377 274.94687 34.9625Q275.47812 34.275 276.49374 33.915627Q277.50937 33.540627 278.85312 33.540627Q280.18124 33.540627 281.00937 33.853127Q281.8375 34.165627 282.22812 34.65Q282.61874 35.11875 282.775 35.8375Q282.86874 36.290627 282.86874 37.4625L282.86874 39.80625Q282.86874 42.259377 282.97812 42.915627Q283.0875 43.55625 283.43124 44.15L281.5875 44.15Q281.32187 43.603127 281.24374 42.86875ZM281.0875 38.946877Q280.13437 39.3375 278.2125 39.603127Q277.13437 39.759377 276.68124 39.9625Q276.24374 40.15 275.99374 40.525Q275.74374 40.9 275.74374 41.36875Q275.74374 42.071877 276.275 42.540627Q276.80624 43.009377 277.8375 43.009377Q278.85312 43.009377 279.63437 42.571877Q280.43124 42.11875 280.80624 41.353127Q281.0875 40.74375 281.0875 39.5875L281.0875 38.946877ZM284.29062 44.15L288.0875 38.759377L284.5875 33.775L286.775 33.775L288.36874 36.2125Q288.82187 36.9 289.0875 37.36875Q289.525 36.728127 289.88437 36.228127L291.63437 33.775L293.72812 33.775L290.15 38.665627L294.00937 44.15L291.85312 44.15L289.7125 40.93125L289.15 40.05625L286.43124 44.15L284.29062 44.15ZM300.05624 39.55625L301.8375 39.4Q301.9625 40.4625 302.41562 41.15Q302.88437 41.8375 303.85312 42.275Q304.8375 42.696877 306.07187 42.696877Q307.15 42.696877 307.97812 42.384377Q308.80624 42.05625 309.2125 41.49375Q309.61874 40.93125 309.61874 40.259377Q309.61874 39.5875 309.22812 39.0875Q308.8375 38.5875 307.94687 38.24375Q307.36874 38.009377 305.38437 37.540627Q303.41562 37.071877 302.63437 36.65Q301.60312 36.11875 301.10312 35.321877Q300.60312 34.525 300.60312 33.540627Q300.60312 32.446877 301.2125 31.509377Q301.82187 30.571877 303.00937 30.087502Q304.19687 29.587502 305.63437 29.587502Q307.22812 29.587502 308.44687 30.103127Q309.66562 30.618752 310.30624 31.618752Q310.9625 32.603127 311.00937 33.86875L309.19687 34.009377Q309.05624 32.65 308.2125 31.962502Q307.36874 31.259377 305.7125 31.259377Q303.99374 31.259377 303.19687 31.900002Q302.41562 32.525 302.41562 33.4Q302.41562 34.18125 302.97812 34.68125Q303.525 35.18125 305.8375 35.696877Q308.15 36.2125 309.00937 36.603127Q310.25937 37.18125 310.85312 38.071877Q311.44687 38.946877 311.44687 40.103127Q311.44687 41.24375 310.79062 42.259377Q310.13437 43.275 308.9 43.8375Q307.68124 44.4 306.15 44.4Q304.2125 44.4 302.9 43.8375Q301.5875 43.259377 300.8375 42.11875Q300.0875 40.978127 300.05624 39.55625ZM320.57187 40.80625L322.38437 41.040627Q321.9625 42.61875 320.79062 43.509377Q319.63437 44.384377 317.82187 44.384377Q315.55624 44.384377 314.2125 42.99375Q312.88437 41.5875 312.88437 39.05625Q312.88437 36.43125 314.22812 34.99375Q315.57187 33.540627 317.72812 33.540627Q319.80624 33.540627 321.11874 34.9625Q322.44687 36.36875 322.44687 38.946877Q322.44687 39.103127 322.43124 39.415627L314.69687 39.415627Q314.79062 41.11875 315.66562 42.025Q316.54062 42.93125 317.8375 42.93125Q318.80624 42.93125 319.47812 42.43125Q320.16562 41.915627 320.57187 40.80625ZM314.79062 37.9625L320.5875 37.9625Q320.47812 36.665627 319.93124 36.009377Q319.0875 34.99375 317.74374 34.99375Q316.54062 34.99375 315.7125 35.80625Q314.88437 36.603127 314.79062 37.9625ZM331.0875 48.11875L331.0875 43.040627Q330.66562 43.61875 329.93124 44.009377Q329.19687 44.384377 328.36874 44.384377Q326.525 44.384377 325.18124 42.915627Q323.85312 41.43125 323.85312 38.86875Q323.85312 37.30625 324.38437 36.071877Q324.93124 34.821877 325.9625 34.18125Q326.99374 33.540627 328.22812 33.540627Q330.15 33.540627 331.25937 35.165627L331.25937 33.775L332.8375 33.775L332.8375 48.11875L331.0875 48.11875ZM325.66562 38.93125Q325.66562 40.93125 326.49374 41.93125Q327.3375 42.93125 328.50937 42.93125Q329.63437 42.93125 330.44687 41.99375Q331.25937 41.040627 331.25937 39.0875Q331.25937 37.025 330.4 35.978127Q329.54062 34.93125 328.4 34.93125Q327.25937 34.93125 326.4625 35.9Q325.66562 36.86875 325.66562 38.93125ZM342.25937 44.15L342.25937 42.61875Q341.05624 44.384377 338.97812 44.384377Q338.05624 44.384377 337.25937 44.040627Q336.4625 43.68125 336.07187 43.15Q335.69687 42.61875 335.54062 41.8375Q335.43124 41.321877 335.43124 40.196877L335.43124 33.775L337.18124 33.775L337.18124 39.525Q337.18124 40.9 337.29062 41.384377Q337.4625 42.071877 337.99374 42.478127Q338.54062 42.86875 339.32187 42.86875Q340.11874 42.86875 340.80624 42.4625Q341.50937 42.05625 341.79062 41.36875Q342.0875 40.665627 342.0875 39.3375L342.0875 33.775L343.8375 33.775L343.8375 44.15L342.25937 44.15ZM352.57187 40.80625L354.38437 41.040627Q353.9625 42.61875 352.79062 43.509377Q351.63437 44.384377 349.82187 44.384377Q347.55624 44.384377 346.2125 42.99375Q344.88437 41.5875 344.88437 39.05625Q344.88437 36.43125 346.22812 34.99375Q347.57187 33.540627 349.72812 33.540627Q351.80624 33.540627 353.11874 34.9625Q354.44687 36.36875 354.44687 38.946877Q354.44687 39.103127 354.43124 39.415627L346.69687 39.415627Q346.79062 41.11875 347.66562 42.025Q348.54062 42.93125 349.8375 42.93125Q350.80624 42.93125 351.47812 42.43125Q352.16562 41.915627 352.57187 40.80625ZM346.79062 37.9625L352.5875 37.9625Q352.47812 36.665627 351.93124 36.009377Q351.0875 34.99375 349.74374 34.99375Q348.54062 34.99375 347.7125 35.80625Q346.88437 36.603127 346.79062 37.9625ZM356.4625 44.15L356.4625 33.775L358.05624 33.775L358.05624 35.259377Q359.19687 33.540627 361.35312 33.540627Q362.29062 33.540627 363.07187 33.884377Q363.86874 34.2125 364.25937 34.759377Q364.65 35.30625 364.80624 36.05625Q364.9 36.55625 364.9 37.775L364.9 44.15L363.13437 44.15L363.13437 37.8375Q363.13437 36.759377 362.93124 36.228127Q362.72812 35.696877 362.19687 35.384377Q361.68124 35.071877 360.97812 35.071877Q359.85312 35.071877 359.04062 35.790627Q358.22812 36.49375 358.22812 38.478127L358.22812 44.15L356.4625 44.15ZM373.24374 40.353127L374.9625 40.571877Q374.68124 42.36875 373.50937 43.384377Q372.35312 44.384377 370.65 44.384377Q368.525 44.384377 367.22812 42.99375Q365.93124 41.603127 365.93124 39.009377Q365.93124 37.321877 366.47812 36.071877Q367.04062 34.80625 368.18124 34.18125Q369.32187 33.540627 370.66562 33.540627Q372.35312 33.540627 373.41562 34.4Q374.49374 35.259377 374.80624 36.821877L373.0875 37.0875Q372.85312 36.040627 372.22812 35.525Q371.60312 34.99375 370.72812 34.99375Q369.4 34.99375 368.57187 35.946877Q367.74374 36.9 367.74374 38.946877Q367.74374 41.040627 368.54062 41.99375Q369.3375 42.93125 370.63437 42.93125Q371.66562 42.93125 372.35312 42.30625Q373.05624 41.665627 373.24374 40.353127ZM383.57187 40.80625L385.38437 41.040627Q384.9625 42.61875 383.79062 43.509377Q382.63437 44.384377 380.82187 44.384377Q378.55624 44.384377 377.2125 42.99375Q375.88437 41.5875 375.88437 39.05625Q375.88437 36.43125 377.22812 34.99375Q378.57187 33.540627 380.72812 33.540627Q382.80624 33.540627 384.11874 34.9625Q385.44687 36.36875 385.44687 38.946877Q385.44687 39.103127 385.43124 39.415627L377.69687 39.415627Q377.79062 41.11875 378.66562 42.025Q379.54062 42.93125 380.8375 42.93125Q381.80624 42.93125 382.47812 42.43125Q383.16562 41.915627 383.57187 40.80625ZM377.79062 37.9625L383.5875 37.9625Q383.47812 36.665627 382.93124 36.009377Q382.0875 34.99375 380.74374 34.99375Q379.54062 34.99375 378.7125 35.80625Q377.88437 36.603127 377.79062 37.9625ZM393.61874 44.15L393.61874 29.837502L395.50937 29.837502L395.50937 42.4625L402.55624 42.4625L402.55624 44.15L393.61874 44.15ZM411.57187 40.80625L413.38437 41.040627Q412.9625 42.61875 411.79062 43.509377Q410.63437 44.384377 408.82187 44.384377Q406.55624 44.384377 405.2125 42.99375Q403.88437 41.5875 403.88437 39.05625Q403.88437 36.43125 405.22812 34.99375Q406.57187 33.540627 408.72812 33.540627Q410.80624 33.540627 412.11874 34.9625Q413.44687 36.36875 413.44687 38.946877Q413.44687 39.103127 413.43124 39.415627L405.69687 39.415627Q405.79062 41.11875 406.66562 42.025Q407.54062 42.93125 408.8375 42.93125Q409.80624 42.93125 410.47812 42.43125Q411.16562 41.915627 411.57187 40.80625ZM405.79062 37.9625L411.5875 37.9625Q411.47812 36.665627 410.93124 36.009377Q410.0875 34.99375 408.74374 34.99375Q407.54062 34.99375 406.7125 35.80625Q405.88437 36.603127 405.79062 37.9625ZM415.4625 44.15L415.4625 33.775L417.05624 33.775L417.05624 35.259377Q418.19687 33.540627 420.35312 33.540627Q421.29062 33.540627 422.07187 33.884377Q422.86874 34.2125 423.25937 34.759377Q423.65 35.30625 423.80624 36.05625Q423.9 36.55625 423.9 37.775L423.9 44.15L422.13437 44.15L422.13437 37.8375Q422.13437 36.759377 421.93124 36.228127Q421.72812 35.696877 421.19687 35.384377Q420.68124 35.071877 419.97812 35.071877Q418.85312 35.071877 418.04062 35.790627Q417.22812 36.49375 417.22812 38.478127L417.22812 44.15L415.4625 44.15ZM425.15 45.009377L426.85312 45.259377Q426.9625 46.05625 427.44687 46.415627Q428.10312 46.9 429.24374 46.9Q430.4625 46.9 431.11874 46.415627Q431.79062 45.93125 432.025 45.05625Q432.16562 44.509377 432.15 42.790627Q430.99374 44.15 429.275 44.15Q427.13437 44.15 425.9625 42.603127Q424.79062 41.05625 424.79062 38.9Q424.79062 37.415627 425.32187 36.165627Q425.86874 34.915627 426.88437 34.228127Q427.91562 33.540627 429.29062 33.540627Q431.11874 33.540627 432.32187 35.025L432.32187 33.775L433.93124 33.775L433.93124 42.74375Q433.93124 45.165627 433.43124 46.165627Q432.94687 47.18125 431.86874 47.759377Q430.80624 48.353127 429.24374 48.353127Q427.4 48.353127 426.24374 47.525Q425.10312 46.696877 425.15 45.009377ZM426.60312 38.775Q426.60312 40.821877 427.41562 41.759377Q428.22812 42.696877 429.44687 42.696877Q430.65 42.696877 431.4625 41.759377Q432.29062 40.821877 432.29062 38.8375Q432.29062 36.93125 431.44687 35.9625Q430.60312 34.99375 429.41562 34.99375Q428.24374 34.99375 427.41562 35.946877Q426.60312 36.9 426.60312 38.775ZM440.30624 42.571877L440.55624 44.134377Q439.82187 44.290627 439.22812 44.290627Q438.275 44.290627 437.74374 43.99375Q437.22812 43.68125 437.00937 43.196877Q436.79062 42.696877 436.79062 41.11875L436.79062 35.15L435.50937 35.15L435.50937 33.775L436.79062 33.775L436.79062 31.212502L438.54062 30.150002L438.54062 33.775L440.30624 33.775L440.30624 35.15L438.54062 35.15L438.54062 41.2125Q438.54062 41.9625 438.63437 42.18125Q438.72812 42.384377 438.93124 42.525Q439.15 42.65 439.54062 42.65Q439.82187 42.65 440.30624 42.571877ZM442.4625 44.15L442.4625 29.837502L444.22812 29.837502L444.22812 34.9625Q445.4625 33.540627 447.3375 33.540627Q448.47812 33.540627 449.32187 33.99375Q450.18124 34.446877 450.54062 35.259377Q450.91562 36.05625 450.91562 37.571877L450.91562 44.15L449.16562 44.15L449.16562 37.571877Q449.16562 36.259377 448.5875 35.665627Q448.00937 35.05625 446.97812 35.05625Q446.19687 35.05625 445.49374 35.4625Q444.80624 35.86875 444.50937 36.571877Q444.22812 37.259377 444.22812 38.478127L444.22812 44.15L442.4625 44.15Z" fill-rule="nonzero"/></svg>