<svg version="1.1" viewBox="0.0 0.0 813.0 503.0" fill="none" stroke="none" stroke-linecap="square" stroke-miterlimit="10" width="813" height="503" xmlns:xlink="http://www.w3.org/1999/xlink" xmlns="http://www.w3.org/2000/svg"><path fill="#ffffff" d="M0 0L813.0 0L813.0 503.0L0 503.0L0 0Z" fill-rule="nonzero"/><path stroke="#333333" stroke-width="1.0" stroke-linecap="butt" d="M98.5 414.5L787.5 414.5" fill-rule="nonzero"/><path stroke="#cccccc" stroke-width="1.0" stroke-linecap="butt" d="M98.5 329.5L787.5 329.5" fill-rule="nonzero"/><path stroke="#cccccc" stroke-width="1.0" stroke-linecap="butt" d="M98.5 243.5L787.5 243.5" fill-rule="nonzero"/><path stroke="#cccccc" stroke-width="1.0" stroke-linecap="butt" d="M98.5 158.5L787.5 158.5" fill-rule="nonzero"/><path stroke="#cccccc" stroke-width="1.0" stroke-linecap="butt" d="M98.5 72.5L787.5 72.5" fill-rule="nonzero"/><path stroke="#eeeeee" stroke-width="1.0" stroke-linecap="butt" d="M205.5 72.916664L205.5 414.85" fill-rule="nonzero"/><path stroke="#eeeeee" stroke-width="1.0" stroke-linecap="butt" d="M364.5 72.916664L364.5 414.85" fill-rule="nonzero"/><path stroke="#eeeeee" stroke-width="1.0" stroke-linecap="butt" d="M522.5 72.916664L522.5 414.85" fill-rule="nonzero"/><path stroke="#eeeeee" stroke-width="1.0" stroke-linecap="butt" d="M681.5 72.916664L681.5 414.85" fill-rule="nonzero"/><clipPath id="id_0"><path d="M98.15 72.916664L787.85 72.916664L787.85 414.85L98.15 414.85L98.15 72.916664Z" clip-rule="nonzero"/></clipPath><path stroke="#000000" stroke-width="2.0" stroke-linecap="butt" stroke-opacity="0.0" clip-path="url(#id_0)" d="M257.0 415.0L154.0 415.0L154.0 152.0C154.0 150.89543 154.89543 150.0 156.0 150.0L255.0 150.0C256.10458 150.0 257.0 150.89543 257.0 152.0Z" fill-rule="nonzero"/><path fill="#4285f4" clip-path="url(#id_0)" d="M257.0 415.0L154.0 415.0L154.0 152.0C154.0 150.89543 154.89543 150.0 156.0 150.0L255.0 150.0C256.10458 150.0 257.0 150.89543 257.0 152.0Z" fill-rule="nonzero"/><path stroke="#000000" stroke-width="2.0" stroke-linecap="butt" stroke-opacity="0.0" clip-path="url(#id_0)" d="M416.0 415.0L313.0 415.0L313.0 152.0C313.0 150.89543 313.89542 150.0 315.0 150.0L414.0 150.0C415.10458 150.0 416.0 150.89543 416.0 152.0Z" fill-rule="nonzero"/><path fill="#4285f4" clip-path="url(#id_0)" d="M416.0 415.0L313.0 415.0L313.0 152.0C313.0 150.89543 313.89542 150.0 315.0 150.0L414.0 150.0C415.10458 150.0 416.0 150.89543 416.0 152.0Z" fill-rule="nonzero"/><path stroke="#000000" stroke-width="2.0" stroke-linecap="butt" stroke-opacity="0.0" clip-path="url(#id_0)" d="M574.0 415.0L471.0 415.0L471.0 144.0C471.0 142.89543 471.89542 142.0 473.0 142.0L572.0 142.0C573.10455 142.0 574.0 142.89543 574.0 144.0Z" fill-rule="nonzero"/><path fill="#4285f4" clip-path="url(#id_0)" d="M574.0 415.0L471.0 415.0L471.0 144.0C471.0 142.89543 471.89542 142.0 473.0 142.0L572.0 142.0C573.10455 142.0 574.0 142.89543 574.0 144.0Z" fill-rule="nonzero"/><path stroke="#000000" stroke-width="2.0" stroke-linecap="butt" stroke-opacity="0.0" clip-path="url(#id_0)" d="M733.0 415.0L630.0 415.0L630.0 138.0C630.0 136.89543 630.89545 136.0 632.0 136.0L731.0 136.0C732.10455 136.0 733.0 136.89543 733.0 138.0Z" fill-rule="nonzero"/><path fill="#4285f4" clip-path="url(#id_0)" d="M733.0 415.0L630.0 415.0L630.0 138.0C630.0 136.89543 630.89545 136.0 632.0 136.0L731.0 136.0C732.10455 136.0 733.0 136.89543 733.0 138.0Z" fill-rule="nonzero"/><path stroke="#4285f4" stroke-width="3.0" stroke-linejoin="round" stroke-linecap="round" d="M197.26562 167.28595L196.1875 167.28595L196.1875 160.0672L194.0 160.86407L194.0 159.8797L197.10938 158.70782L197.26562 158.70782L197.26562 167.28595ZM201.20312 163.0047L201.64062 158.7547L206.01562 158.7547L206.01562 159.7547L202.5625 159.7547L202.29688 162.08282Q202.9375 161.70782 203.73438 161.70782Q204.89062 161.70782 205.57812 162.48907Q206.26562 163.2547 206.26562 164.5672Q206.26562 165.8797 205.54688 166.64532Q204.84375 167.41095 203.5625 167.41095Q202.4375 167.41095 201.71875 166.78595Q201.0 166.14532 200.90625 165.03595L201.92188 165.03595Q202.03125 165.77032 202.45312 166.14532Q202.875 166.52032 203.5625 166.52032Q204.3125 166.52032 204.75 166.0047Q205.1875 165.48907 205.1875 164.58282Q205.1875 163.72345 204.71875 163.20782Q204.25 162.6922 203.46875 162.6922Q202.76562 162.6922 202.35938 162.98907L202.07812 163.22345L201.20312 163.0047ZM207.84375 166.72345Q207.84375 166.4422 208.0 166.2547Q208.17188 166.0672 208.5 166.0672Q208.84375 166.0672 209.01562 166.2547Q209.1875 166.4422 209.1875 166.72345Q209.1875 166.98907 209.01562 167.17657Q208.84375 167.34845 208.5 167.34845Q208.17188 167.34845 208.0 167.17657Q207.84375 166.98907 207.84375 166.72345ZM211.20312 163.0047L211.64062 158.7547L216.01562 158.7547L216.01562 159.7547L212.5625 159.7547L212.29688 162.08282Q212.9375 161.70782 213.73438 161.70782Q214.89062 161.70782 215.57812 162.48907Q216.26562 163.2547 216.26562 164.5672Q216.26562 165.8797 215.54688 166.64532Q214.84375 167.41095 213.5625 167.41095Q212.4375 167.41095 211.71875 166.78595Q211.0 166.14532 210.90625 165.03595L211.92188 165.03595Q212.03125 165.77032 212.45312 166.14532Q212.875 166.52032 213.5625 166.52032Q214.3125 166.52032 214.75 166.0047Q215.1875 165.48907 215.1875 164.58282Q215.1875 163.72345 214.71875 163.20782Q214.25 162.6922 213.46875 162.6922Q212.76562 162.6922 212.35938 162.98907L212.07812 163.22345L211.20312 163.0047Z" fill-rule="nonzero"/><path fill="#ffffff" d="M197.26562 167.28595L196.1875 167.28595L196.1875 160.0672L194.0 160.86407L194.0 159.8797L197.10938 158.70782L197.26562 158.70782L197.26562 167.28595ZM201.20312 163.0047L201.64062 158.7547L206.01562 158.7547L206.01562 159.7547L202.5625 159.7547L202.29688 162.08282Q202.9375 161.70782 203.73438 161.70782Q204.89062 161.70782 205.57812 162.48907Q206.26562 163.2547 206.26562 164.5672Q206.26562 165.8797 205.54688 166.64532Q204.84375 167.41095 203.5625 167.41095Q202.4375 167.41095 201.71875 166.78595Q201.0 166.14532 200.90625 165.03595L201.92188 165.03595Q202.03125 165.77032 202.45312 166.14532Q202.875 166.52032 203.5625 166.52032Q204.3125 166.52032 204.75 166.0047Q205.1875 165.48907 205.1875 164.58282Q205.1875 163.72345 204.71875 163.20782Q204.25 162.6922 203.46875 162.6922Q202.76562 162.6922 202.35938 162.98907L202.07812 163.22345L201.20312 163.0047ZM207.84375 166.72345Q207.84375 166.4422 208.0 166.2547Q208.17188 166.0672 208.5 166.0672Q208.84375 166.0672 209.01562 166.2547Q209.1875 166.4422 209.1875 166.72345Q209.1875 166.98907 209.01562 167.17657Q208.84375 167.34845 208.5 167.34845Q208.17188 167.34845 208.0 167.17657Q207.84375 166.98907 207.84375 166.72345ZM211.20312 163.0047L211.64062 158.7547L216.01562 158.7547L216.01562 159.7547L212.5625 159.7547L212.29688 162.08282Q212.9375 161.70782 213.73438 161.70782Q214.89062 161.70782 215.57812 162.48907Q216.26562 163.2547 216.26562 164.5672Q216.26562 165.8797 215.54688 166.64532Q214.84375 167.41095 213.5625 167.41095Q212.4375 167.41095 211.71875 166.78595Q211.0 166.14532 210.90625 165.03595L211.92188 165.03595Q212.03125 165.77032 212.45312 166.14532Q212.875 166.52032 213.5625 166.52032Q214.3125 166.52032 214.75 166.0047Q215.1875 165.48907 215.1875 164.58282Q215.1875 163.72345 214.71875 163.20782Q214.25 162.6922 213.46875 162.6922Q212.76562 162.6922 212.35938 162.98907L212.07812 163.22345L211.20312 163.0047Z" fill-rule="nonzero"/><path stroke="#4285f4" stroke-width="3.0" stroke-linejoin="round" stroke-linecap="round" d="M356.26562 167.14062L355.1875 167.14062L355.1875 159.92188L353.0 160.71875L353.0 159.73438L356.10938 158.5625L356.26562 158.5625L356.26562 167.14062ZM360.20312 162.85938L360.64062 158.60938L365.01562 158.60938L365.01562 159.60938L361.5625 159.60938L361.29688 161.9375Q361.9375 161.5625 362.73438 161.5625Q363.89062 161.5625 364.57812 162.34375Q365.26562 163.10938 365.26562 164.42188Q365.26562 165.73438 364.54688 166.5Q363.84375 167.26562 362.5625 167.26562Q361.4375 167.26562 360.71875 166.64062Q360.0 166.0 359.90625 164.89062L360.92188 164.89062Q361.03125 165.625 361.45312 166.0Q361.875 166.375 362.5625 166.375Q363.3125 166.375 363.75 165.85938Q364.1875 165.34375 364.1875 164.4375Q364.1875 163.57812 363.71875 163.0625Q363.25 162.54688 362.46875 162.54688Q361.76562 162.54688 361.35938 162.84375L361.07812 163.07812L360.20312 162.85938ZM366.84375 166.57812Q366.84375 166.29688 367.0 166.10938Q367.17188 165.92188 367.5 165.92188Q367.84375 165.92188 368.01562 166.10938Q368.1875 166.29688 368.1875 166.57812Q368.1875 166.84375 368.01562 167.03125Q367.84375 167.20312 367.5 167.20312Q367.17188 167.20312 367.0 167.03125Q366.84375 166.84375 366.84375 166.57812ZM370.20312 162.85938L370.64062 158.60938L375.01562 158.60938L375.01562 159.60938L371.5625 159.60938L371.29688 161.9375Q371.9375 161.5625 372.73438 161.5625Q373.89062 161.5625 374.57812 162.34375Q375.26562 163.10938 375.26562 164.42188Q375.26562 165.73438 374.54688 166.5Q373.84375 167.26562 372.5625 167.26562Q371.4375 167.26562 370.71875 166.64062Q370.0 166.0 369.90625 164.89062L370.92188 164.89062Q371.03125 165.625 371.45312 166.0Q371.875 166.375 372.5625 166.375Q373.3125 166.375 373.75 165.85938Q374.1875 165.34375 374.1875 164.4375Q374.1875 163.57812 373.71875 163.0625Q373.25 162.54688 372.46875 162.54688Q371.76562 162.54688 371.35938 162.84375L371.07812 163.07812L370.20312 162.85938Z" fill-rule="nonzero"/><path fill="#ffffff" d="M356.26562 167.14062L355.1875 167.14062L355.1875 159.92188L353.0 160.71875L353.0 159.73438L356.10938 158.5625L356.26562 158.5625L356.26562 167.14062ZM360.20312 162.85938L360.64062 158.60938L365.01562 158.60938L365.01562 159.60938L361.5625 159.60938L361.29688 161.9375Q361.9375 161.5625 362.73438 161.5625Q363.89062 161.5625 364.57812 162.34375Q365.26562 163.10938 365.26562 164.42188Q365.26562 165.73438 364.54688 166.5Q363.84375 167.26562 362.5625 167.26562Q361.4375 167.26562 360.71875 166.64062Q360.0 166.0 359.90625 164.89062L360.92188 164.89062Q361.03125 165.625 361.45312 166.0Q361.875 166.375 362.5625 166.375Q363.3125 166.375 363.75 165.85938Q364.1875 165.34375 364.1875 164.4375Q364.1875 163.57812 363.71875 163.0625Q363.25 162.54688 362.46875 162.54688Q361.76562 162.54688 361.35938 162.84375L361.07812 163.07812L360.20312 162.85938ZM366.84375 166.57812Q366.84375 166.29688 367.0 166.10938Q367.17188 165.92188 367.5 165.92188Q367.84375 165.92188 368.01562 166.10938Q368.1875 166.29688 368.1875 166.57812Q368.1875 166.84375 368.01562 167.03125Q367.84375 167.20312 367.5 167.20312Q367.17188 167.20312 367.0 167.03125Q366.84375 166.84375 366.84375 166.57812ZM370.20312 162.85938L370.64062 158.60938L375.01562 158.60938L375.01562 159.60938L371.5625 159.60938L371.29688 161.9375Q371.9375 161.5625 372.73438 161.5625Q373.89062 161.5625 374.57812 162.34375Q375.26562 163.10938 375.26562 164.42188Q375.26562 165.73438 374.54688 166.5Q373.84375 167.26562 372.5625 167.26562Q371.4375 167.26562 370.71875 166.64062Q370.0 166.0 369.90625 164.89062L370.92188 164.89062Q371.03125 165.625 371.45312 166.0Q371.875 166.375 372.5625 166.375Q373.3125 166.375 373.75 165.85938Q374.1875 165.34375 374.1875 164.4375Q374.1875 163.57812 373.71875 163.0625Q373.25 162.54688 372.46875 162.54688Q371.76562 162.54688 371.35938 162.84375L371.07812 163.07812L370.20312 162.85938Z" fill-rule="nonzero"/><path stroke="#4285f4" stroke-width="3.0" stroke-linejoin="round" stroke-linecap="round" d="M514.2656 158.37346L513.1875 158.37346L513.1875 151.15471L511.0 151.95158L511.0 150.96721L514.1094 149.79533L514.2656 149.79533L514.2656 158.37346ZM521.96875 149.84221L521.96875 150.74846L521.7656 150.74846Q520.5 150.77971 519.75 151.51408Q519.0 152.23283 518.875 153.54533Q519.5625 152.77971 520.71875 152.77971Q521.8281 152.77971 522.5 153.56096Q523.1719 154.34221 523.1719 155.59221Q523.1719 156.90471 522.4531 157.70158Q521.7344 158.49846 520.5156 158.49846Q519.2969 158.49846 518.53125 157.56096Q517.78125 156.60783 517.78125 155.12346L517.78125 154.71721Q517.78125 152.35783 518.78125 151.10783Q519.78125 149.85783 521.7656 149.84221L521.96875 149.84221ZM520.5469 153.68596Q519.9844 153.68596 519.5156 154.01408Q519.0469 154.34221 518.8594 154.85783L518.8594 155.24846Q518.8594 156.31096 519.3281 156.95158Q519.8125 157.59221 520.5156 157.59221Q521.25 157.59221 521.6719 157.06096Q522.09375 156.51408 522.09375 155.63908Q522.09375 154.76408 521.6719 154.23283Q521.25 153.68596 520.5469 153.68596ZM524.84375 157.81096Q524.84375 157.52971 525.0 157.34221Q525.1719 157.15471 525.5 157.15471Q525.84375 157.15471 526.0156 157.34221Q526.1875 157.52971 526.1875 157.81096Q526.1875 158.07658 526.0156 158.26408Q525.84375 158.43596 525.5 158.43596Q525.1719 158.43596 525.0 158.26408Q524.84375 158.07658 524.84375 157.81096ZM533.0625 154.73283Q533.0625 156.63908 532.40625 157.57658Q531.7656 158.49846 530.375 158.49846Q529.0156 158.49846 528.3594 157.59221Q527.7031 156.68596 527.6719 154.87346L527.6719 153.43596Q527.6719 151.54533 528.3125 150.63908Q528.96875 149.71721 530.3594 149.71721Q531.7344 149.71721 532.3906 150.60783Q533.0469 151.48283 533.0625 153.32658L533.0625 154.73283ZM531.96875 153.24846Q531.96875 151.87346 531.5781 151.24846Q531.2031 150.60783 530.3594 150.60783Q529.53125 150.60783 529.1406 151.24846Q528.7656 151.87346 528.7656 153.17033L528.7656 154.90471Q528.7656 156.27971 529.15625 156.95158Q529.5625 157.60783 530.375 157.60783Q531.1719 157.60783 531.5625 156.98283Q531.9531 156.35783 531.96875 155.02971L531.96875 153.24846Z" fill-rule="nonzero"/><path fill="#ffffff" d="M514.2656 158.37346L513.1875 158.37346L513.1875 151.15471L511.0 151.95158L511.0 150.96721L514.1094 149.79533L514.2656 149.79533L514.2656 158.37346ZM521.96875 149.84221L521.96875 150.74846L521.7656 150.74846Q520.5 150.77971 519.75 151.51408Q519.0 152.23283 518.875 153.54533Q519.5625 152.77971 520.71875 152.77971Q521.8281 152.77971 522.5 153.56096Q523.1719 154.34221 523.1719 155.59221Q523.1719 156.90471 522.4531 157.70158Q521.7344 158.49846 520.5156 158.49846Q519.2969 158.49846 518.53125 157.56096Q517.78125 156.60783 517.78125 155.12346L517.78125 154.71721Q517.78125 152.35783 518.78125 151.10783Q519.78125 149.85783 521.7656 149.84221L521.96875 149.84221ZM520.5469 153.68596Q519.9844 153.68596 519.5156 154.01408Q519.0469 154.34221 518.8594 154.85783L518.8594 155.24846Q518.8594 156.31096 519.3281 156.95158Q519.8125 157.59221 520.5156 157.59221Q521.25 157.59221 521.6719 157.06096Q522.09375 156.51408 522.09375 155.63908Q522.09375 154.76408 521.6719 154.23283Q521.25 153.68596 520.5469 153.68596ZM524.84375 157.81096Q524.84375 157.52971 525.0 157.34221Q525.1719 157.15471 525.5 157.15471Q525.84375 157.15471 526.0156 157.34221Q526.1875 157.52971 526.1875 157.81096Q526.1875 158.07658 526.0156 158.26408Q525.84375 158.43596 525.5 158.43596Q525.1719 158.43596 525.0 158.26408Q524.84375 158.07658 524.84375 157.81096ZM533.0625 154.73283Q533.0625 156.63908 532.40625 157.57658Q531.7656 158.49846 530.375 158.49846Q529.0156 158.49846 528.3594 157.59221Q527.7031 156.68596 527.6719 154.87346L527.6719 153.43596Q527.6719 151.54533 528.3125 150.63908Q528.96875 149.71721 530.3594 149.71721Q531.7344 149.71721 532.3906 150.60783Q533.0469 151.48283 533.0625 153.32658L533.0625 154.73283ZM531.96875 153.24846Q531.96875 151.87346 531.5781 151.24846Q531.2031 150.60783 530.3594 150.60783Q529.53125 150.60783 529.1406 151.24846Q528.7656 151.87346 528.7656 153.17033L528.7656 154.90471Q528.7656 156.27971 529.15625 156.95158Q529.5625 157.60783 530.375 157.60783Q531.1719 157.60783 531.5625 156.98283Q531.9531 156.35783 531.96875 155.02971L531.96875 153.24846Z" fill-rule="nonzero"/><path stroke="#4285f4" stroke-width="3.0" stroke-linejoin="round" stroke-linecap="round" d="M673.2656 153.27695L672.1875 153.27695L672.1875 146.0582L670.0 146.85507L670.0 145.8707L673.1094 144.69882L673.2656 144.69882L673.2656 153.27695ZM680.96875 144.7457L680.96875 145.65195L680.7656 145.65195Q679.5 145.6832 678.75 146.41757Q678.0 147.13632 677.875 148.44882Q678.5625 147.6832 679.71875 147.6832Q680.8281 147.6832 681.5 148.46445Q682.1719 149.2457 682.1719 150.4957Q682.1719 151.8082 681.4531 152.60507Q680.7344 153.40195 679.5156 153.40195Q678.2969 153.40195 677.53125 152.46445Q676.78125 151.51132 676.78125 150.02695L676.78125 149.6207Q676.78125 147.26132 677.78125 146.01132Q678.78125 144.76132 680.7656 144.7457L680.96875 144.7457ZM679.5469 148.58945Q678.9844 148.58945 678.5156 148.91757Q678.0469 149.2457 677.8594 149.76132L677.8594 150.15195Q677.8594 151.21445 678.3281 151.85507Q678.8125 152.4957 679.5156 152.4957Q680.25 152.4957 680.6719 151.96445Q681.09375 151.41757 681.09375 150.54257Q681.09375 149.66757 680.6719 149.13632Q680.25 148.58945 679.5469 148.58945ZM683.84375 152.71445Q683.84375 152.4332 684.0 152.2457Q684.1719 152.0582 684.5 152.0582Q684.84375 152.0582 685.0156 152.2457Q685.1875 152.4332 685.1875 152.71445Q685.1875 152.98007 685.0156 153.16757Q684.84375 153.33945 684.5 153.33945Q684.1719 153.33945 684.0 153.16757Q683.84375 152.98007 683.84375 152.71445ZM688.28125 148.48007L689.09375 148.48007Q689.875 148.46445 690.3125 148.07382Q690.75 147.6832 690.75 147.01132Q690.75 145.51132 689.25 145.51132Q688.5469 145.51132 688.125 145.91757Q687.71875 146.32382 687.71875 146.98007L686.625 146.98007Q686.625 145.96445 687.3594 145.29257Q688.1094 144.6207 689.25 144.6207Q690.4531 144.6207 691.1406 145.26132Q691.8281 145.90195 691.8281 147.04257Q691.8281 147.60507 691.46875 148.1207Q691.1094 148.63632 690.4844 148.90195Q691.1875 149.1207 691.5625 149.63632Q691.9531 150.15195 691.9531 150.90195Q691.9531 152.04257 691.2031 152.73007Q690.4531 153.40195 689.25 153.40195Q688.0625 153.40195 687.2969 152.7457Q686.5469 152.08945 686.5469 151.02695L687.6406 151.02695Q687.6406 151.69882 688.0781 152.10507Q688.5156 152.51132 689.2656 152.51132Q690.0469 152.51132 690.4531 152.10507Q690.875 151.6832 690.875 150.91757Q690.875 150.1832 690.4219 149.79257Q689.96875 149.38632 689.09375 149.3707L688.28125 149.3707L688.28125 148.48007Z" fill-rule="nonzero"/><path fill="#ffffff" d="M673.2656 153.27695L672.1875 153.27695L672.1875 146.0582L670.0 146.85507L670.0 145.8707L673.1094 144.69882L673.2656 144.69882L673.2656 153.27695ZM680.96875 144.7457L680.96875 145.65195L680.7656 145.65195Q679.5 145.6832 678.75 146.41757Q678.0 147.13632 677.875 148.44882Q678.5625 147.6832 679.71875 147.6832Q680.8281 147.6832 681.5 148.46445Q682.1719 149.2457 682.1719 150.4957Q682.1719 151.8082 681.4531 152.60507Q680.7344 153.40195 679.5156 153.40195Q678.2969 153.40195 677.53125 152.46445Q676.78125 151.51132 676.78125 150.02695L676.78125 149.6207Q676.78125 147.26132 677.78125 146.01132Q678.78125 144.76132 680.7656 144.7457L680.96875 144.7457ZM679.5469 148.58945Q678.9844 148.58945 678.5156 148.91757Q678.0469 149.2457 677.8594 149.76132L677.8594 150.15195Q677.8594 151.21445 678.3281 151.85507Q678.8125 152.4957 679.5156 152.4957Q680.25 152.4957 680.6719 151.96445Q681.09375 151.41757 681.09375 150.54257Q681.09375 149.66757 680.6719 149.13632Q680.25 148.58945 679.5469 148.58945ZM683.84375 152.71445Q683.84375 152.4332 684.0 152.2457Q684.1719 152.0582 684.5 152.0582Q684.84375 152.0582 685.0156 152.2457Q685.1875 152.4332 685.1875 152.71445Q685.1875 152.98007 685.0156 153.16757Q684.84375 153.33945 684.5 153.33945Q684.1719 153.33945 684.0 153.16757Q683.84375 152.98007 683.84375 152.71445ZM688.28125 148.48007L689.09375 148.48007Q689.875 148.46445 690.3125 148.07382Q690.75 147.6832 690.75 147.01132Q690.75 145.51132 689.25 145.51132Q688.5469 145.51132 688.125 145.91757Q687.71875 146.32382 687.71875 146.98007L686.625 146.98007Q686.625 145.96445 687.3594 145.29257Q688.1094 144.6207 689.25 144.6207Q690.4531 144.6207 691.1406 145.26132Q691.8281 145.90195 691.8281 147.04257Q691.8281 147.60507 691.46875 148.1207Q691.1094 148.63632 690.4844 148.90195Q691.1875 149.1207 691.5625 149.63632Q691.9531 150.15195 691.9531 150.90195Q691.9531 152.04257 691.2031 152.73007Q690.4531 153.40195 689.25 153.40195Q688.0625 153.40195 687.2969 152.7457Q686.5469 152.08945 686.5469 151.02695L687.6406 151.02695Q687.6406 151.69882 688.0781 152.10507Q688.5156 152.51132 689.2656 152.51132Q690.0469 152.51132 690.4531 152.10507Q690.875 151.6832 690.875 150.91757Q690.875 150.1832 690.4219 149.79257Q689.96875 149.38632 689.09375 149.3707L688.28125 149.3707L688.28125 148.48007Z" fill-rule="nonzero"/><path stroke="#ffffff" stroke-width="3.0" stroke-linejoin="round" stroke-linecap="round" d="M219.0 256.3677L212.78125 258.72708L212.78125 257.6177L216.5 256.27396Q217.10938 256.07083 217.75 255.88333Q217.26562 255.7427 216.57812 255.4927L212.78125 254.10208L212.78125 253.02396L219.0 255.38333L219.0 256.3677ZM219.0 250.00833L216.9375 250.00833L216.9375 253.72708L215.96875 253.72708L210.40625 249.8052L210.40625 248.94583L215.96875 248.94583L215.96875 247.78958L216.9375 247.78958L216.9375 248.94583L219.0 248.94583L219.0 250.00833ZM215.96875 250.00833L212.10938 250.00833L215.96875 252.69583L215.96875 250.00833ZM216.42188 246.50833L215.35938 246.50833L215.35938 243.25833L216.42188 243.25833L216.42188 246.50833ZM216.73438 242.38333L216.59375 241.32083Q217.48438 241.14896 217.89062 240.71146Q218.28125 240.27396 218.28125 239.64896Q218.28125 238.89896 217.76562 238.38333Q217.25 237.8677 216.48438 237.8677Q215.76562 237.8677 215.29688 238.35208Q214.8125 238.82083 214.8125 239.5552Q214.8125 239.85208 214.9375 240.3052L214.0 240.1802Q214.01562 240.07083 214.01562 240.00833Q214.01562 239.33646 213.67188 238.8052Q213.3125 238.25833 212.57812 238.25833Q212.0 238.25833 211.625 238.64896Q211.23438 239.03958 211.23438 239.66458Q211.23438 240.27396 211.625 240.69583Q212.01562 241.10208 212.78125 241.21146L212.59375 242.27396Q211.54688 242.08646 210.96875 241.39896Q210.375 240.71146 210.375 239.69583Q210.375 238.9927 210.6875 238.39896Q210.98438 237.8052 211.5 237.4927Q212.01562 237.1802 212.60938 237.1802Q213.15625 237.1802 213.625 237.47708Q214.07812 237.77396 214.34375 238.35208Q214.51562 237.60208 215.07812 237.1802Q215.625 236.75833 216.46875 236.75833Q217.59375 236.75833 218.375 237.58646Q219.15625 238.39896 219.15625 239.64896Q219.15625 240.77396 218.48438 241.52396Q217.79688 242.27396 216.73438 242.38333ZM217.98438 229.83646L219.0 229.83646L219.0 235.52396Q218.625 235.52396 218.26562 235.39896Q217.6875 235.1802 217.125 234.71146Q216.5625 234.22708 215.82812 233.32083Q214.67188 231.91458 214.0 231.4302Q213.32812 230.9302 212.73438 230.9302Q212.10938 230.9302 211.6875 231.38333Q211.25 231.83646 211.25 232.5552Q211.25 233.32083 211.70312 233.77396Q212.15625 234.22708 212.96875 234.2427L212.85938 235.32083Q211.64062 235.21146 211.01562 234.4927Q210.375 233.75833 210.375 232.52396Q210.375 231.28958 211.0625 230.57083Q211.75 229.85208 212.76562 229.85208Q213.28125 229.85208 213.78125 230.07083Q214.26562 230.27396 214.82812 230.77396Q215.375 231.25833 216.32812 232.38333Q217.125 233.33646 217.42188 233.6177Q217.70312 233.88333 217.98438 234.0552L217.98438 229.83646Z" fill-rule="nonzero"/><path fill="#808080" d="M219.0 256.3677L212.78125 258.72708L212.78125 257.6177L216.5 256.27396Q217.10938 256.07083 217.75 255.88333Q217.26562 255.7427 216.57812 255.4927L212.78125 254.10208L212.78125 253.02396L219.0 255.38333L219.0 256.3677ZM219.0 250.00833L216.9375 250.00833L216.9375 253.72708L215.96875 253.72708L210.40625 249.8052L210.40625 248.94583L215.96875 248.94583L215.96875 247.78958L216.9375 247.78958L216.9375 248.94583L219.0 248.94583L219.0 250.00833ZM215.96875 250.00833L212.10938 250.00833L215.96875 252.69583L215.96875 250.00833ZM216.42188 246.50833L215.35938 246.50833L215.35938 243.25833L216.42188 243.25833L216.42188 246.50833ZM216.73438 242.38333L216.59375 241.32083Q217.48438 241.14896 217.89062 240.71146Q218.28125 240.27396 218.28125 239.64896Q218.28125 238.89896 217.76562 238.38333Q217.25 237.8677 216.48438 237.8677Q215.76562 237.8677 215.29688 238.35208Q214.8125 238.82083 214.8125 239.5552Q214.8125 239.85208 214.9375 240.3052L214.0 240.1802Q214.01562 240.07083 214.01562 240.00833Q214.01562 239.33646 213.67188 238.8052Q213.3125 238.25833 212.57812 238.25833Q212.0 238.25833 211.625 238.64896Q211.23438 239.03958 211.23438 239.66458Q211.23438 240.27396 211.625 240.69583Q212.01562 241.10208 212.78125 241.21146L212.59375 242.27396Q211.54688 242.08646 210.96875 241.39896Q210.375 240.71146 210.375 239.69583Q210.375 238.9927 210.6875 238.39896Q210.98438 237.8052 211.5 237.4927Q212.01562 237.1802 212.60938 237.1802Q213.15625 237.1802 213.625 237.47708Q214.07812 237.77396 214.34375 238.35208Q214.51562 237.60208 215.07812 237.1802Q215.625 236.75833 216.46875 236.75833Q217.59375 236.75833 218.375 237.58646Q219.15625 238.39896 219.15625 239.64896Q219.15625 240.77396 218.48438 241.52396Q217.79688 242.27396 216.73438 242.38333ZM217.98438 229.83646L219.0 229.83646L219.0 235.52396Q218.625 235.52396 218.26562 235.39896Q217.6875 235.1802 217.125 234.71146Q216.5625 234.22708 215.82812 233.32083Q214.67188 231.91458 214.0 231.4302Q213.32812 230.9302 212.73438 230.9302Q212.10938 230.9302 211.6875 231.38333Q211.25 231.83646 211.25 232.5552Q211.25 233.32083 211.70312 233.77396Q212.15625 234.22708 212.96875 234.2427L212.85938 235.32083Q211.64062 235.21146 211.01562 234.4927Q210.375 233.75833 210.375 232.52396Q210.375 231.28958 211.0625 230.57083Q211.75 229.85208 212.76562 229.85208Q213.28125 229.85208 213.78125 230.07083Q214.26562 230.27396 214.82812 230.77396Q215.375 231.25833 216.32812 232.38333Q217.125 233.33646 217.42188 233.6177Q217.70312 233.88333 217.98438 234.0552L217.98438 229.83646Z" fill-rule="nonzero"/><path stroke="#ffffff" stroke-width="3.0" stroke-linejoin="round" stroke-linecap="round" d="M378.0 256.3677L371.78125 258.72708L371.78125 257.6177L375.5 256.27396Q376.10938 256.07083 376.75 255.88333Q376.26562 255.7427 375.57812 255.4927L371.78125 254.10208L371.78125 253.02396L378.0 255.38333L378.0 256.3677ZM378.0 250.00833L375.9375 250.00833L375.9375 253.72708L374.96875 253.72708L369.40625 249.8052L369.40625 248.94583L374.96875 248.94583L374.96875 247.78958L375.9375 247.78958L375.9375 248.94583L378.0 248.94583L378.0 250.00833ZM374.96875 250.00833L371.10938 250.00833L374.96875 252.69583L374.96875 250.00833ZM375.42188 246.50833L374.35938 246.50833L374.35938 243.25833L375.42188 243.25833L375.42188 246.50833ZM375.73438 242.38333L375.59375 241.32083Q376.48438 241.14896 376.89062 240.71146Q377.28125 240.27396 377.28125 239.64896Q377.28125 238.89896 376.76562 238.38333Q376.25 237.8677 375.48438 237.8677Q374.76562 237.8677 374.29688 238.35208Q373.8125 238.82083 373.8125 239.5552Q373.8125 239.85208 373.9375 240.3052L373.0 240.1802Q373.01562 240.07083 373.01562 240.00833Q373.01562 239.33646 372.67188 238.8052Q372.3125 238.25833 371.57812 238.25833Q371.0 238.25833 370.625 238.64896Q370.23438 239.03958 370.23438 239.66458Q370.23438 240.27396 370.625 240.69583Q371.01562 241.10208 371.78125 241.21146L371.59375 242.27396Q370.54688 242.08646 369.96875 241.39896Q369.375 240.71146 369.375 239.69583Q369.375 238.9927 369.6875 238.39896Q369.98438 237.8052 370.5 237.4927Q371.01562 237.1802 371.60938 237.1802Q372.15625 237.1802 372.625 237.47708Q373.07812 237.77396 373.34375 238.35208Q373.51562 237.60208 374.07812 237.1802Q374.625 236.75833 375.46875 236.75833Q376.59375 236.75833 377.375 237.58646Q378.15625 238.39896 378.15625 239.64896Q378.15625 240.77396 377.48438 241.52396Q376.79688 242.27396 375.73438 242.38333ZM376.98438 229.83646L378.0 229.83646L378.0 235.52396Q377.625 235.52396 377.26562 235.39896Q376.6875 235.1802 376.125 234.71146Q375.5625 234.22708 374.82812 233.32083Q373.67188 231.91458 373.0 231.4302Q372.32812 230.9302 371.73438 230.9302Q371.10938 230.9302 370.6875 231.38333Q370.25 231.83646 370.25 232.5552Q370.25 233.32083 370.70312 233.77396Q371.15625 234.22708 371.96875 234.2427L371.85938 235.32083Q370.64062 235.21146 370.01562 234.4927Q369.375 233.75833 369.375 232.52396Q369.375 231.28958 370.0625 230.57083Q370.75 229.85208 371.76562 229.85208Q372.28125 229.85208 372.78125 230.07083Q373.26562 230.27396 373.82812 230.77396Q374.375 231.25833 375.32812 232.38333Q376.125 233.33646 376.42188 233.6177Q376.70312 233.88333 376.98438 234.0552L376.98438 229.83646Z" fill-rule="nonzero"/><path fill="#808080" d="M378.0 256.3677L371.78125 258.72708L371.78125 257.6177L375.5 256.27396Q376.10938 256.07083 376.75 255.88333Q376.26562 255.7427 375.57812 255.4927L371.78125 254.10208L371.78125 253.02396L378.0 255.38333L378.0 256.3677ZM378.0 250.00833L375.9375 250.00833L375.9375 253.72708L374.96875 253.72708L369.40625 249.8052L369.40625 248.94583L374.96875 248.94583L374.96875 247.78958L375.9375 247.78958L375.9375 248.94583L378.0 248.94583L378.0 250.00833ZM374.96875 250.00833L371.10938 250.00833L374.96875 252.69583L374.96875 250.00833ZM375.42188 246.50833L374.35938 246.50833L374.35938 243.25833L375.42188 243.25833L375.42188 246.50833ZM375.73438 242.38333L375.59375 241.32083Q376.48438 241.14896 376.89062 240.71146Q377.28125 240.27396 377.28125 239.64896Q377.28125 238.89896 376.76562 238.38333Q376.25 237.8677 375.48438 237.8677Q374.76562 237.8677 374.29688 238.35208Q373.8125 238.82083 373.8125 239.5552Q373.8125 239.85208 373.9375 240.3052L373.0 240.1802Q373.01562 240.07083 373.01562 240.00833Q373.01562 239.33646 372.67188 238.8052Q372.3125 238.25833 371.57812 238.25833Q371.0 238.25833 370.625 238.64896Q370.23438 239.03958 370.23438 239.66458Q370.23438 240.27396 370.625 240.69583Q371.01562 241.10208 371.78125 241.21146L371.59375 242.27396Q370.54688 242.08646 369.96875 241.39896Q369.375 240.71146 369.375 239.69583Q369.375 238.9927 369.6875 238.39896Q369.98438 237.8052 370.5 237.4927Q371.01562 237.1802 371.60938 237.1802Q372.15625 237.1802 372.625 237.47708Q373.07812 237.77396 373.34375 238.35208Q373.51562 237.60208 374.07812 237.1802Q374.625 236.75833 375.46875 236.75833Q376.59375 236.75833 377.375 237.58646Q378.15625 238.39896 378.15625 239.64896Q378.15625 240.77396 377.48438 241.52396Q376.79688 242.27396 375.73438 242.38333ZM376.98438 229.83646L378.0 229.83646L378.0 235.52396Q377.625 235.52396 377.26562 235.39896Q376.6875 235.1802 376.125 234.71146Q375.5625 234.22708 374.82812 233.32083Q373.67188 231.91458 373.0 231.4302Q372.32812 230.9302 371.73438 230.9302Q371.10938 230.9302 370.6875 231.38333Q370.25 231.83646 370.25 232.5552Q370.25 233.32083 370.70312 233.77396Q371.15625 234.22708 371.96875 234.2427L371.85938 235.32083Q370.64062 235.21146 370.01562 234.4927Q369.375 233.75833 369.375 232.52396Q369.375 231.28958 370.0625 230.57083Q370.75 229.85208 371.76562 229.85208Q372.28125 229.85208 372.78125 230.07083Q373.26562 230.27396 373.82812 230.77396Q374.375 231.25833 375.32812 232.38333Q376.125 233.33646 376.42188 233.6177Q376.70312 233.88333 376.98438 234.0552L376.98438 229.83646Z" fill-rule="nonzero"/><path stroke="#ffffff" stroke-width="3.0" stroke-linejoin="round" stroke-linecap="round" d="M536.0 256.3677L529.78125 258.72708L529.78125 257.6177L533.5 256.27396Q534.1094 256.07083 534.75 255.88333Q534.2656 255.7427 533.5781 255.4927L529.78125 254.10208L529.78125 253.02396L536.0 255.38333L536.0 256.3677ZM536.0 250.00833L533.9375 250.00833L533.9375 253.72708L532.96875 253.72708L527.40625 249.8052L527.40625 248.94583L532.96875 248.94583L532.96875 247.78958L533.9375 247.78958L533.9375 248.94583L536.0 248.94583L536.0 250.00833ZM532.96875 250.00833L529.1094 250.00833L532.96875 252.69583L532.96875 250.00833ZM533.4219 246.50833L532.3594 246.50833L532.3594 243.25833L533.4219 243.25833L533.4219 246.50833ZM533.7344 242.38333L533.59375 241.32083Q534.4844 241.14896 534.8906 240.71146Q535.28125 240.27396 535.28125 239.64896Q535.28125 238.89896 534.7656 238.38333Q534.25 237.8677 533.4844 237.8677Q532.7656 237.8677 532.2969 238.35208Q531.8125 238.82083 531.8125 239.5552Q531.8125 239.85208 531.9375 240.3052L531.0 240.1802Q531.0156 240.07083 531.0156 240.00833Q531.0156 239.33646 530.6719 238.8052Q530.3125 238.25833 529.5781 238.25833Q529.0 238.25833 528.625 238.64896Q528.2344 239.03958 528.2344 239.66458Q528.2344 240.27396 528.625 240.69583Q529.0156 241.10208 529.78125 241.21146L529.59375 242.27396Q528.5469 242.08646 527.96875 241.39896Q527.375 240.71146 527.375 239.69583Q527.375 238.9927 527.6875 238.39896Q527.9844 237.8052 528.5 237.4927Q529.0156 237.1802 529.6094 237.1802Q530.15625 237.1802 530.625 237.47708Q531.0781 237.77396 531.34375 238.35208Q531.5156 237.60208 532.0781 237.1802Q532.625 236.75833 533.46875 236.75833Q534.59375 236.75833 535.375 237.58646Q536.15625 238.39896 536.15625 239.64896Q536.15625 240.77396 535.4844 241.52396Q534.7969 242.27396 533.7344 242.38333ZM534.9844 229.83646L536.0 229.83646L536.0 235.52396Q535.625 235.52396 535.2656 235.39896Q534.6875 235.1802 534.125 234.71146Q533.5625 234.22708 532.8281 233.32083Q531.6719 231.91458 531.0 231.4302Q530.3281 230.9302 529.7344 230.9302Q529.1094 230.9302 528.6875 231.38333Q528.25 231.83646 528.25 232.5552Q528.25 233.32083 528.7031 233.77396Q529.15625 234.22708 529.96875 234.2427L529.8594 235.32083Q528.6406 235.21146 528.0156 234.4927Q527.375 233.75833 527.375 232.52396Q527.375 231.28958 528.0625 230.57083Q528.75 229.85208 529.7656 229.85208Q530.28125 229.85208 530.78125 230.07083Q531.2656 230.27396 531.8281 230.77396Q532.375 231.25833 533.3281 232.38333Q534.125 233.33646 534.4219 233.6177Q534.7031 233.88333 534.9844 234.0552L534.9844 229.83646Z" fill-rule="nonzero"/><path fill="#808080" d="M536.0 256.3677L529.78125 258.72708L529.78125 257.6177L533.5 256.27396Q534.1094 256.07083 534.75 255.88333Q534.2656 255.7427 533.5781 255.4927L529.78125 254.10208L529.78125 253.02396L536.0 255.38333L536.0 256.3677ZM536.0 250.00833L533.9375 250.00833L533.9375 253.72708L532.96875 253.72708L527.40625 249.8052L527.40625 248.94583L532.96875 248.94583L532.96875 247.78958L533.9375 247.78958L533.9375 248.94583L536.0 248.94583L536.0 250.00833ZM532.96875 250.00833L529.1094 250.00833L532.96875 252.69583L532.96875 250.00833ZM533.4219 246.50833L532.3594 246.50833L532.3594 243.25833L533.4219 243.25833L533.4219 246.50833ZM533.7344 242.38333L533.59375 241.32083Q534.4844 241.14896 534.8906 240.71146Q535.28125 240.27396 535.28125 239.64896Q535.28125 238.89896 534.7656 238.38333Q534.25 237.8677 533.4844 237.8677Q532.7656 237.8677 532.2969 238.35208Q531.8125 238.82083 531.8125 239.5552Q531.8125 239.85208 531.9375 240.3052L531.0 240.1802Q531.0156 240.07083 531.0156 240.00833Q531.0156 239.33646 530.6719 238.8052Q530.3125 238.25833 529.5781 238.25833Q529.0 238.25833 528.625 238.64896Q528.2344 239.03958 528.2344 239.66458Q528.2344 240.27396 528.625 240.69583Q529.0156 241.10208 529.78125 241.21146L529.59375 242.27396Q528.5469 242.08646 527.96875 241.39896Q527.375 240.71146 527.375 239.69583Q527.375 238.9927 527.6875 238.39896Q527.9844 237.8052 528.5 237.4927Q529.0156 237.1802 529.6094 237.1802Q530.15625 237.1802 530.625 237.47708Q531.0781 237.77396 531.34375 238.35208Q531.5156 237.60208 532.0781 237.1802Q532.625 236.75833 533.46875 236.75833Q534.59375 236.75833 535.375 237.58646Q536.15625 238.39896 536.15625 239.64896Q536.15625 240.77396 535.4844 241.52396Q534.7969 242.27396 533.7344 242.38333ZM534.9844 229.83646L536.0 229.83646L536.0 235.52396Q535.625 235.52396 535.2656 235.39896Q534.6875 235.1802 534.125 234.71146Q533.5625 234.22708 532.8281 233.32083Q531.6719 231.91458 531.0 231.4302Q530.3281 230.9302 529.7344 230.9302Q529.1094 230.9302 528.6875 231.38333Q528.25 231.83646 528.25 232.5552Q528.25 233.32083 528.7031 233.77396Q529.15625 234.22708 529.96875 234.2427L529.8594 235.32083Q528.6406 235.21146 528.0156 234.4927Q527.375 233.75833 527.375 232.52396Q527.375 231.28958 528.0625 230.57083Q528.75 229.85208 529.7656 229.85208Q530.28125 229.85208 530.78125 230.07083Q531.2656 230.27396 531.8281 230.77396Q532.375 231.25833 533.3281 232.38333Q534.125 233.33646 534.4219 233.6177Q534.7031 233.88333 534.9844 234.0552L534.9844 229.83646Z" fill-rule="nonzero"/><path stroke="#ffffff" stroke-width="3.0" stroke-linejoin="round" stroke-linecap="round" d="M695.0 256.3677L688.78125 258.72708L688.78125 257.6177L692.5 256.27396Q693.1094 256.07083 693.75 255.88333Q693.2656 255.7427 692.5781 255.4927L688.78125 254.10208L688.78125 253.02396L695.0 255.38333L695.0 256.3677ZM695.0 250.00833L692.9375 250.00833L692.9375 253.72708L691.96875 253.72708L686.40625 249.8052L686.40625 248.94583L691.96875 248.94583L691.96875 247.78958L692.9375 247.78958L692.9375 248.94583L695.0 248.94583L695.0 250.00833ZM691.96875 250.00833L688.1094 250.00833L691.96875 252.69583L691.96875 250.00833ZM692.4219 246.50833L691.3594 246.50833L691.3594 243.25833L692.4219 243.25833L692.4219 246.50833ZM692.7344 242.38333L692.59375 241.32083Q693.4844 241.14896 693.8906 240.71146Q694.28125 240.27396 694.28125 239.64896Q694.28125 238.89896 693.7656 238.38333Q693.25 237.8677 692.4844 237.8677Q691.7656 237.8677 691.2969 238.35208Q690.8125 238.82083 690.8125 239.5552Q690.8125 239.85208 690.9375 240.3052L690.0 240.1802Q690.0156 240.07083 690.0156 240.00833Q690.0156 239.33646 689.6719 238.8052Q689.3125 238.25833 688.5781 238.25833Q688.0 238.25833 687.625 238.64896Q687.2344 239.03958 687.2344 239.66458Q687.2344 240.27396 687.625 240.69583Q688.0156 241.10208 688.78125 241.21146L688.59375 242.27396Q687.5469 242.08646 686.96875 241.39896Q686.375 240.71146 686.375 239.69583Q686.375 238.9927 686.6875 238.39896Q686.9844 237.8052 687.5 237.4927Q688.0156 237.1802 688.6094 237.1802Q689.15625 237.1802 689.625 237.47708Q690.0781 237.77396 690.34375 238.35208Q690.5156 237.60208 691.0781 237.1802Q691.625 236.75833 692.46875 236.75833Q693.59375 236.75833 694.375 237.58646Q695.15625 238.39896 695.15625 239.64896Q695.15625 240.77396 694.4844 241.52396Q693.7969 242.27396 692.7344 242.38333ZM693.9844 229.83646L695.0 229.83646L695.0 235.52396Q694.625 235.52396 694.2656 235.39896Q693.6875 235.1802 693.125 234.71146Q692.5625 234.22708 691.8281 233.32083Q690.6719 231.91458 690.0 231.4302Q689.3281 230.9302 688.7344 230.9302Q688.1094 230.9302 687.6875 231.38333Q687.25 231.83646 687.25 232.5552Q687.25 233.32083 687.7031 233.77396Q688.15625 234.22708 688.96875 234.2427L688.8594 235.32083Q687.6406 235.21146 687.0156 234.4927Q686.375 233.75833 686.375 232.52396Q686.375 231.28958 687.0625 230.57083Q687.75 229.85208 688.7656 229.85208Q689.28125 229.85208 689.78125 230.07083Q690.2656 230.27396 690.8281 230.77396Q691.375 231.25833 692.3281 232.38333Q693.125 233.33646 693.4219 233.6177Q693.7031 233.88333 693.9844 234.0552L693.9844 229.83646Z" fill-rule="nonzero"/><path fill="#808080" d="M695.0 256.3677L688.78125 258.72708L688.78125 257.6177L692.5 256.27396Q693.1094 256.07083 693.75 255.88333Q693.2656 255.7427 692.5781 255.4927L688.78125 254.10208L688.78125 253.02396L695.0 255.38333L695.0 256.3677ZM695.0 250.00833L692.9375 250.00833L692.9375 253.72708L691.96875 253.72708L686.40625 249.8052L686.40625 248.94583L691.96875 248.94583L691.96875 247.78958L692.9375 247.78958L692.9375 248.94583L695.0 248.94583L695.0 250.00833ZM691.96875 250.00833L688.1094 250.00833L691.96875 252.69583L691.96875 250.00833ZM692.4219 246.50833L691.3594 246.50833L691.3594 243.25833L692.4219 243.25833L692.4219 246.50833ZM692.7344 242.38333L692.59375 241.32083Q693.4844 241.14896 693.8906 240.71146Q694.28125 240.27396 694.28125 239.64896Q694.28125 238.89896 693.7656 238.38333Q693.25 237.8677 692.4844 237.8677Q691.7656 237.8677 691.2969 238.35208Q690.8125 238.82083 690.8125 239.5552Q690.8125 239.85208 690.9375 240.3052L690.0 240.1802Q690.0156 240.07083 690.0156 240.00833Q690.0156 239.33646 689.6719 238.8052Q689.3125 238.25833 688.5781 238.25833Q688.0 238.25833 687.625 238.64896Q687.2344 239.03958 687.2344 239.66458Q687.2344 240.27396 687.625 240.69583Q688.0156 241.10208 688.78125 241.21146L688.59375 242.27396Q687.5469 242.08646 686.96875 241.39896Q686.375 240.71146 686.375 239.69583Q686.375 238.9927 686.6875 238.39896Q686.9844 237.8052 687.5 237.4927Q688.0156 237.1802 688.6094 237.1802Q689.15625 237.1802 689.625 237.47708Q690.0781 237.77396 690.34375 238.35208Q690.5156 237.60208 691.0781 237.1802Q691.625 236.75833 692.46875 236.75833Q693.59375 236.75833 694.375 237.58646Q695.15625 238.39896 695.15625 239.64896Q695.15625 240.77396 694.4844 241.52396Q693.7969 242.27396 692.7344 242.38333ZM693.9844 229.83646L695.0 229.83646L695.0 235.52396Q694.625 235.52396 694.2656 235.39896Q693.6875 235.1802 693.125 234.71146Q692.5625 234.22708 691.8281 233.32083Q690.6719 231.91458 690.0 231.4302Q689.3281 230.9302 688.7344 230.9302Q688.1094 230.9302 687.6875 231.38333Q687.25 231.83646 687.25 232.5552Q687.25 233.32083 687.7031 233.77396Q688.15625 234.22708 688.96875 234.2427L688.8594 235.32083Q687.6406 235.21146 687.0156 234.4927Q686.375 233.75833 686.375 232.52396Q686.375 231.28958 687.0625 230.57083Q687.75 229.85208 688.7656 229.85208Q689.28125 229.85208 689.78125 230.07083Q690.2656 230.27396 690.8281 230.77396Q691.375 231.25833 692.3281 232.38333Q693.125 233.33646 693.4219 233.6177Q693.7031 233.88333 693.9844 234.0552L693.9844 229.83646Z" fill-rule="nonzero"/><path fill="#000000" d="M375.5 473.85L375.5 462.39688L377.01562 462.39688L377.01562 473.85L375.5 473.85ZM378.0625 473.85L378.0625 465.55313L379.32812 465.55313L379.32812 466.725Q380.23438 465.36563 381.96875 465.36563Q382.71875 465.36563 383.34375 465.63126Q383.96875 465.89688 384.28125 466.33438Q384.59375 466.77188 384.71875 467.38126Q384.79688 467.77188 384.79688 468.74063L384.79688 473.85L383.39062 473.85L383.39062 468.80313Q383.39062 467.94376 383.21875 467.52188Q383.0625 467.08438 382.64062 466.83438Q382.23438 466.58438 381.67188 466.58438Q380.76562 466.58438 380.10938 467.1625Q379.46875 467.725 379.46875 469.31876L379.46875 473.85L378.0625 473.85ZM386.0625 477.0375L386.0625 465.55313L387.34375 465.55313L387.34375 466.63126Q387.79688 465.99063 388.35938 465.67813Q388.9375 465.36563 389.75 465.36563Q390.8125 465.36563 391.625 465.9125Q392.4375 466.45938 392.84375 467.45938Q393.26562 468.44376 393.26562 469.63126Q393.26562 470.9125 392.79688 471.92813Q392.34375 472.94376 391.46875 473.49063Q390.60938 474.0375 389.64062 474.0375Q388.9375 474.0375 388.375 473.74063Q387.82812 473.44376 387.46875 472.99063L387.46875 477.0375L386.0625 477.0375ZM387.32812 469.74063Q387.32812 471.35 387.96875 472.11563Q388.625 472.88126 389.54688 472.88126Q390.48438 472.88126 391.15625 472.08438Q391.82812 471.2875 391.82812 469.63126Q391.82812 468.0375 391.17188 467.25626Q390.51562 466.45938 389.60938 466.45938Q388.71875 466.45938 388.01562 467.30313Q387.32812 468.14688 387.32812 469.74063ZM400.5 473.85L400.5 472.63126Q399.53125 474.0375 397.85938 474.0375Q397.125 474.0375 396.48438 473.75626Q395.85938 473.475 395.54688 473.05313Q395.23438 472.61563 395.10938 472.00626Q395.03125 471.58438 395.03125 470.69376L395.03125 465.55313L396.4375 465.55313L396.4375 470.14688Q396.4375 471.25626 396.51562 471.63126Q396.65625 472.19376 397.07812 472.50626Q397.51562 472.81876 398.14062 472.81876Q398.78125 472.81876 399.32812 472.50626Q399.89062 472.17813 400.10938 471.61563Q400.34375 471.05313 400.34375 469.99063L400.34375 465.55313L401.75 465.55313L401.75 473.85L400.5 473.85ZM406.125 472.58438L406.32812 473.83438Q405.73438 473.95938 405.26562 473.95938Q404.5 473.95938 404.07812 473.725Q403.65625 473.475 403.48438 473.08438Q403.3125 472.67813 403.3125 471.4125L403.3125 466.64688L402.28125 466.64688L402.28125 465.55313L403.3125 465.55313L403.3125 463.49063L404.71875 462.64688L404.71875 465.55313L406.125 465.55313L406.125 466.64688L404.71875 466.64688L404.71875 471.49063Q404.71875 472.1 404.78125 472.27188Q404.85938 472.44376 405.03125 472.55313Q405.20312 472.64688 405.51562 472.64688Q405.75 472.64688 406.125 472.58438ZM411.23438 473.85L411.23438 462.39688L415.5625 462.39688Q416.70312 462.39688 417.29688 462.50626Q418.14062 462.64688 418.70312 463.0375Q419.28125 463.42813 419.625 464.14688Q419.98438 464.85 419.98438 465.70938Q419.98438 467.1625 419.04688 468.17813Q418.125 469.19376 415.6875 469.19376L412.75 469.19376L412.75 473.85L411.23438 473.85ZM412.75 467.83438L415.71875 467.83438Q417.1875 467.83438 417.79688 467.2875Q418.42188 466.74063 418.42188 465.75626Q418.42188 465.0375 418.04688 464.52188Q417.6875 464.00626 417.09375 463.85Q416.71875 463.74063 415.6875 463.74063L412.75 463.74063L412.75 467.83438ZM422.04688 473.85L422.04688 465.55313L423.3125 465.55313L423.3125 466.80313Q423.79688 465.92813 424.20312 465.64688Q424.60938 465.36563 425.10938 465.36563Q425.8125 465.36563 426.54688 465.81876L426.0625 467.11563Q425.54688 466.81876 425.03125 466.81876Q424.57812 466.81876 424.20312 467.1Q423.84375 467.36563 423.6875 467.86563Q423.45312 468.61563 423.45312 469.50626L423.45312 473.85L422.04688 473.85ZM426.53125 469.69376Q426.53125 467.39688 427.8125 466.2875Q428.89062 465.36563 430.42188 465.36563Q432.14062 465.36563 433.21875 466.49063Q434.3125 467.6 434.3125 469.58438Q434.3125 471.17813 433.82812 472.1Q433.34375 473.02188 432.42188 473.5375Q431.51562 474.0375 430.42188 474.0375Q428.6875 474.0375 427.60938 472.92813Q426.53125 471.80313 426.53125 469.69376ZM427.98438 469.69376Q427.98438 471.2875 428.67188 472.08438Q429.375 472.88126 430.42188 472.88126Q431.46875 472.88126 432.15625 472.08438Q432.85938 471.2875 432.85938 469.64688Q432.85938 468.11563 432.15625 467.31876Q431.46875 466.52188 430.42188 466.52188Q429.375 466.52188 428.67188 467.31876Q427.98438 468.1 427.98438 469.69376ZM436.0625 473.85L436.0625 465.55313L437.3125 465.55313L437.3125 466.70938Q437.70312 466.1 438.34375 465.74063Q439.0 465.36563 439.82812 465.36563Q440.75 465.36563 441.34375 465.75626Q441.9375 466.13126 442.17188 466.81876Q443.15625 465.36563 444.73438 465.36563Q445.96875 465.36563 446.625 466.05313Q447.29688 466.725 447.29688 468.14688L447.29688 473.85L445.90625 473.85L445.90625 468.61563Q445.90625 467.77188 445.76562 467.4125Q445.625 467.0375 445.26562 466.81876Q444.90625 466.58438 444.42188 466.58438Q443.54688 466.58438 442.96875 467.1625Q442.39062 467.74063 442.39062 469.02188L442.39062 473.85L440.98438 473.85L440.98438 468.45938Q440.98438 467.52188 440.64062 467.05313Q440.29688 466.58438 439.51562 466.58438Q438.92188 466.58438 438.42188 466.89688Q437.92188 467.20938 437.6875 467.81876Q437.46875 468.4125 437.46875 469.5375L437.46875 473.85L436.0625 473.85ZM449.0625 477.0375L449.0625 465.55313L450.34375 465.55313L450.34375 466.63126Q450.79688 465.99063 451.35938 465.67813Q451.9375 465.36563 452.75 465.36563Q453.8125 465.36563 454.625 465.9125Q455.4375 466.45938 455.84375 467.45938Q456.26562 468.44376 456.26562 469.63126Q456.26562 470.9125 455.79688 471.92813Q455.34375 472.94376 454.46875 473.49063Q453.60938 474.0375 452.64062 474.0375Q451.9375 474.0375 451.375 473.74063Q450.82812 473.44376 450.46875 472.99063L450.46875 477.0375L449.0625 477.0375ZM450.32812 469.74063Q450.32812 471.35 450.96875 472.11563Q451.625 472.88126 452.54688 472.88126Q453.48438 472.88126 454.15625 472.08438Q454.82812 471.2875 454.82812 469.63126Q454.82812 468.0375 454.17188 467.25626Q453.51562 466.45938 452.60938 466.45938Q451.71875 466.45938 451.01562 467.30313Q450.32812 468.14688 450.32812 469.74063ZM461.125 472.58438L461.32812 473.83438Q460.73438 473.95938 460.26562 473.95938Q459.5 473.95938 459.07812 473.725Q458.65625 473.475 458.48438 473.08438Q458.3125 472.67813 458.3125 471.4125L458.3125 466.64688L457.28125 466.64688L457.28125 465.55313L458.3125 465.55313L458.3125 463.49063L459.71875 462.64688L459.71875 465.55313L461.125 465.55313L461.125 466.64688L459.71875 466.64688L459.71875 471.49063Q459.71875 472.1 459.78125 472.27188Q459.85938 472.44376 460.03125 472.55313Q460.20312 472.64688 460.51562 472.64688Q460.75 472.64688 461.125 472.58438ZM466.17188 473.85L466.17188 462.39688L467.6875 462.39688L467.6875 472.49063L473.32812 472.49063L473.32812 473.85L466.17188 473.85ZM480.73438 471.17813L482.1875 471.35Q481.84375 472.63126 480.90625 473.33438Q479.98438 474.0375 478.54688 474.0375Q476.71875 474.0375 475.65625 472.9125Q474.59375 471.7875 474.59375 469.77188Q474.59375 467.67813 475.67188 466.52188Q476.75 465.36563 478.46875 465.36563Q480.125 465.36563 481.17188 466.50626Q482.23438 467.63126 482.23438 469.67813Q482.23438 469.80313 482.23438 470.05313L476.04688 470.05313Q476.125 471.42813 476.8125 472.1625Q477.51562 472.88126 478.54688 472.88126Q479.32812 472.88126 479.875 472.475Q480.42188 472.06876 480.73438 471.17813ZM476.125 468.89688L480.75 468.89688Q480.65625 467.85 480.21875 467.33438Q479.54688 466.52188 478.48438 466.52188Q477.51562 466.52188 476.84375 467.17813Q476.1875 467.81876 476.125 468.89688ZM484.0625 473.85L484.0625 465.55313L485.32812 465.55313L485.32812 466.725Q486.23438 465.36563 487.96875 465.36563Q488.71875 465.36563 489.34375 465.63126Q489.96875 465.89688 490.28125 466.33438Q490.59375 466.77188 490.71875 467.38126Q490.79688 467.77188 490.79688 468.74063L490.79688 473.85L489.39062 473.85L489.39062 468.80313Q489.39062 467.94376 489.21875 467.52188Q489.0625 467.08438 488.64062 466.83438Q488.23438 466.58438 487.67188 466.58438Q486.76562 466.58438 486.10938 467.1625Q485.46875 467.725 485.46875 469.31876L485.46875 473.85L484.0625 473.85ZM491.79688 474.5375L493.17188 474.74063Q493.25 475.38126 493.64062 475.6625Q494.17188 476.05313 495.07812 476.05313Q496.04688 476.05313 496.57812 475.6625Q497.10938 475.27188 497.29688 474.56876Q497.40625 474.14688 497.40625 472.75626Q496.48438 473.85 495.10938 473.85Q493.39062 473.85 492.45312 472.61563Q491.51562 471.38126 491.51562 469.64688Q491.51562 468.45938 491.9375 467.45938Q492.375 466.45938 493.1875 465.9125Q494.01562 465.36563 495.10938 465.36563Q496.57812 465.36563 497.53125 466.55313L497.53125 465.55313L498.82812 465.55313L498.82812 472.725Q498.82812 474.6625 498.4375 475.475Q498.04688 476.2875 497.1875 476.75626Q496.32812 477.225 495.07812 477.225Q493.59375 477.225 492.67188 476.55313Q491.76562 475.88126 491.79688 474.5375ZM492.96875 469.55313Q492.96875 471.17813 493.60938 471.92813Q494.26562 472.67813 495.23438 472.67813Q496.20312 472.67813 496.85938 471.94376Q497.51562 471.19376 497.51562 469.6Q497.51562 468.06876 496.84375 467.30313Q496.17188 466.52188 495.21875 466.52188Q494.28125 466.52188 493.625 467.2875Q492.96875 468.05313 492.96875 469.55313ZM504.125 472.58438L504.32812 473.83438Q503.73438 473.95938 503.26562 473.95938Q502.5 473.95938 502.07812 473.725Q501.65625 473.475 501.48438 473.08438Q501.3125 472.67813 501.3125 471.4125L501.3125 466.64688L500.28125 466.64688L500.28125 465.55313L501.3125 465.55313L501.3125 463.49063L502.71875 462.64688L502.71875 465.55313L504.125 465.55313L504.125 466.64688L502.71875 466.64688L502.71875 471.49063Q502.71875 472.1 502.78125 472.27188Q502.85938 472.44376 503.03125 472.55313Q503.20312 472.64688 503.51562 472.64688Q503.75 472.64688 504.125 472.58438ZM505.0625 473.85L505.0625 462.39688L506.46875 462.39688L506.46875 466.50626Q507.45312 465.36563 508.95312 465.36563Q509.875 465.36563 510.54688 465.725Q511.23438 466.08438 511.51562 466.725Q511.8125 467.36563 511.8125 468.58438L511.8125 473.85L510.40625 473.85L510.40625 468.58438Q510.40625 467.5375 509.95312 467.05313Q509.5 466.56876 508.65625 466.56876Q508.03125 466.56876 507.48438 466.89688Q506.9375 467.225 506.70312 467.7875Q506.46875 468.33438 506.46875 469.30313L506.46875 473.85L505.0625 473.85Z" fill-rule="nonzero"/><path fill="#000000" d="M40.150005 321.21146L28.69688 321.21146L28.69688 319.69583L38.79063 319.69583L38.79063 314.0552L40.150005 314.0552L40.150005 321.21146ZM39.118755 306.91458Q39.79063 307.69583 40.07188 308.41458Q40.337505 309.13333 40.337505 309.96146Q40.337505 311.33646 39.66563 312.07083Q38.993755 312.8052 37.962505 312.8052Q37.35313 312.8052 36.85313 312.52396Q36.337505 312.2427 36.04063 311.8052Q35.72813 311.35208 35.57188 310.78958Q35.462505 310.3677 35.368755 309.53958Q35.16563 307.83646 34.88438 307.02396Q34.587505 307.02396 34.50938 307.02396Q33.650005 307.02396 33.306255 307.41458Q32.82188 307.96146 32.82188 309.02396Q32.82188 310.00833 33.181255 310.4927Q33.525005 310.96146 34.400005 311.1802L34.212505 312.5552Q33.337505 312.3677 32.79063 311.94583Q32.243755 311.50833 31.962505 310.69583Q31.66563 309.88333 31.66563 308.82083Q31.66563 307.75833 31.91563 307.10208Q32.16563 306.4302 32.54063 306.1177Q32.91563 305.8052 33.493755 305.6802Q33.85313 305.60208 34.79063 305.60208L36.66563 305.60208Q38.63438 305.60208 39.150005 305.52396Q39.66563 305.4302 40.150005 305.16458L40.150005 306.63333Q39.712505 306.85208 39.118755 306.91458ZM35.97813 307.02396Q36.29063 307.78958 36.50938 309.32083Q36.63438 310.19583 36.79063 310.5552Q36.94688 310.91458 37.25938 311.1177Q37.556255 311.3052 37.91563 311.3052Q38.47813 311.3052 38.85313 310.88333Q39.22813 310.44583 39.22813 309.63333Q39.22813 308.82083 38.88438 308.19583Q38.525005 307.5552 37.900005 307.25833Q37.431255 307.02396 36.493755 307.02396L35.97813 307.02396ZM38.88438 300.25833L40.13438 300.0552Q40.25938 300.64896 40.25938 301.1177Q40.25938 301.88333 40.025005 302.3052Q39.775005 302.72708 39.38438 302.89896Q38.97813 303.07083 37.712505 303.07083L32.94688 303.07083L32.94688 304.10208L31.85313 304.10208L31.85313 303.07083L29.79063 303.07083L28.94688 301.66458L31.85313 301.66458L31.85313 300.25833L32.94688 300.25833L32.94688 301.66458L37.79063 301.66458Q38.400005 301.66458 38.57188 301.60208Q38.743755 301.52396 38.85313 301.35208Q38.94688 301.1802 38.94688 300.8677Q38.94688 300.63333 38.88438 300.25833ZM37.47813 293.64896L37.650005 292.19583Q38.931255 292.53958 39.63438 293.47708Q40.337505 294.39896 40.337505 295.83646Q40.337505 297.66458 39.212505 298.72708Q38.087505 299.78958 36.07188 299.78958Q33.97813 299.78958 32.82188 298.71146Q31.66563 297.63333 31.66563 295.91458Q31.66563 294.25833 32.806255 293.21146Q33.931255 292.14896 35.97813 292.14896Q36.10313 292.14896 36.35313 292.14896L36.35313 298.33646Q37.72813 298.25833 38.462505 297.57083Q39.181255 296.8677 39.181255 295.83646Q39.181255 295.0552 38.775005 294.50833Q38.368755 293.96146 37.47813 293.64896ZM35.19688 298.25833L35.19688 293.63333Q34.150005 293.72708 33.63438 294.16458Q32.82188 294.83646 32.82188 295.89896Q32.82188 296.8677 33.47813 297.53958Q34.118755 298.19583 35.19688 298.25833ZM40.150005 290.32083L31.85313 290.32083L31.85313 289.0552L33.025005 289.0552Q31.66563 288.14896 31.66563 286.41458Q31.66563 285.66458 31.931255 285.03958Q32.19688 284.41458 32.63438 284.10208Q33.07188 283.78958 33.681255 283.66458Q34.07188 283.58646 35.04063 283.58646L40.150005 283.58646L40.150005 284.9927L35.10313 284.9927Q34.243755 284.9927 33.82188 285.16458Q33.38438 285.32083 33.13438 285.7427Q32.88438 286.14896 32.88438 286.71146Q32.88438 287.6177 33.462505 288.27396Q34.025005 288.91458 35.618755 288.91458L40.150005 288.91458L40.150005 290.32083ZM37.10313 276.91458L37.29063 275.52396Q38.712505 275.75833 39.525005 276.69583Q40.337505 277.6177 40.337505 278.97708Q40.337505 280.6802 39.22813 281.72708Q38.10313 282.75833 36.025005 282.75833Q34.681255 282.75833 33.681255 282.32083Q32.66563 281.8677 32.16563 280.96146Q31.66563 280.03958 31.66563 278.97708Q31.66563 277.6177 32.35313 276.75833Q33.025005 275.89896 34.29063 275.66458L34.493755 277.02396Q33.66563 277.22708 33.243755 277.72708Q32.82188 278.21146 32.82188 278.91458Q32.82188 279.97708 33.587505 280.64896Q34.337505 281.3052 35.993755 281.3052Q37.66563 281.3052 38.431255 280.66458Q39.181255 280.02396 39.181255 278.9927Q39.181255 278.16458 38.681255 277.6177Q38.16563 277.0552 37.10313 276.91458ZM43.35313 274.38333L42.025005 274.53958Q42.150005 274.08646 42.150005 273.7427Q42.150005 273.27396 41.993755 272.9927Q41.837505 272.71146 41.556255 272.52396Q41.35313 272.39896 40.50938 272.10208Q40.400005 272.0552 40.16563 271.97708L31.85313 275.1177L31.85313 273.60208L36.650005 271.88333Q37.57188 271.53958 38.57188 271.27396Q37.60313 271.03958 36.681255 270.69583L31.85313 268.9302L31.85313 267.52396L40.29063 270.6802Q41.66563 271.1802 42.181255 271.46146Q42.868755 271.83646 43.19688 272.32083Q43.525005 272.8052 43.525005 273.47708Q43.525005 273.88333 43.35313 274.38333ZM40.35313 264.38333L28.493755 261.0552L28.493755 259.9302L40.35313 263.2427L40.35313 264.38333ZM40.150005 252.22708L30.04063 252.22708L30.04063 256.00833L28.69688 256.00833L28.69688 246.9302L30.04063 246.9302L30.04063 250.71146L40.150005 250.71146L40.150005 252.22708ZM35.993755 246.85208Q33.69688 246.85208 32.587505 245.57083Q31.66563 244.4927 31.66563 242.96146Q31.66563 241.2427 32.79063 240.16458Q33.900005 239.07083 35.88438 239.07083Q37.47813 239.07083 38.400005 239.5552Q39.32188 240.03958 39.837505 240.96146Q40.337505 241.8677 40.337505 242.96146Q40.337505 244.69583 39.22813 245.77396Q38.10313 246.85208 35.993755 246.85208ZM35.993755 245.39896Q37.587505 245.39896 38.38438 244.71146Q39.181255 244.00833 39.181255 242.96146Q39.181255 241.91458 38.38438 241.22708Q37.587505 240.52396 35.94688 240.52396Q34.41563 240.52396 33.618755 241.22708Q32.82188 241.91458 32.82188 242.96146Q32.82188 244.00833 33.618755 244.71146Q34.400005 245.39896 35.993755 245.39896ZM40.150005 237.32083L28.69688 237.32083L28.69688 235.91458L35.22813 235.91458L31.85313 232.58646L31.85313 230.75833L34.931255 233.9302L40.150005 230.44583L40.150005 232.1802L35.900005 234.91458L36.85313 235.91458L40.150005 235.91458L40.150005 237.32083ZM37.47813 223.64896L37.650005 222.19583Q38.931255 222.53958 39.63438 223.47708Q40.337505 224.39896 40.337505 225.83646Q40.337505 227.66458 39.212505 228.72708Q38.087505 229.78958 36.07188 229.78958Q33.97813 229.78958 32.82188 228.71146Q31.66563 227.63333 31.66563 225.91458Q31.66563 224.25833 32.806255 223.21146Q33.931255 222.14896 35.97813 222.14896Q36.10313 222.14896 36.35313 222.14896L36.35313 228.33646Q37.72813 228.25833 38.462505 227.57083Q39.181255 226.8677 39.181255 225.83646Q39.181255 225.0552 38.775005 224.50833Q38.368755 223.96146 37.47813 223.64896ZM35.19688 228.25833L35.19688 223.63333Q34.150005 223.72708 33.63438 224.16458Q32.82188 224.83646 32.82188 225.89896Q32.82188 226.8677 33.47813 227.53958Q34.118755 228.19583 35.19688 228.25833ZM40.150005 220.32083L31.85313 220.32083L31.85313 219.0552L33.025005 219.0552Q31.66563 218.14896 31.66563 216.41458Q31.66563 215.66458 31.931255 215.03958Q32.19688 214.41458 32.63438 214.10208Q33.07188 213.78958 33.681255 213.66458Q34.07188 213.58646 35.04063 213.58646L40.150005 213.58646L40.150005 214.9927L35.10313 214.9927Q34.243755 214.9927 33.82188 215.16458Q33.38438 215.32083 33.13438 215.7427Q32.88438 216.14896 32.88438 216.71146Q32.88438 217.6177 33.462505 218.27396Q34.025005 218.91458 35.618755 218.91458L40.150005 218.91458L40.150005 220.32083ZM43.525005 205.63333Q42.056255 206.8052 40.087505 207.6177Q38.10313 208.41458 35.993755 208.41458Q34.13438 208.41458 32.431255 207.8052Q30.462505 207.10208 28.493755 205.63333L28.493755 204.63333Q30.118755 205.57083 30.82188 205.88333Q31.900005 206.35208 33.07188 206.63333Q34.525005 206.96146 36.00938 206.96146Q39.75938 206.96146 43.525005 204.63333L43.525005 205.63333ZM40.150005 203.32083L31.85313 203.32083L31.85313 202.07083L33.00938 202.07083Q32.400005 201.6802 32.04063 201.03958Q31.66563 200.38333 31.66563 199.5552Q31.66563 198.63333 32.056255 198.03958Q32.431255 197.44583 33.118755 197.21146Q31.66563 196.22708 31.66563 194.64896Q31.66563 193.41458 32.35313 192.75833Q33.025005 192.08646 34.44688 192.08646L40.150005 192.08646L40.150005 193.47708L34.91563 193.47708Q34.07188 193.47708 33.712505 193.6177Q33.337505 193.75833 33.118755 194.1177Q32.88438 194.47708 32.88438 194.96146Q32.88438 195.83646 33.462505 196.41458Q34.04063 196.9927 35.32188 196.9927L40.150005 196.9927L40.150005 198.39896L34.75938 198.39896Q33.82188 198.39896 33.35313 198.7427Q32.88438 199.08646 32.88438 199.8677Q32.88438 200.46146 33.19688 200.96146Q33.50938 201.46146 34.118755 201.69583Q34.712505 201.91458 35.837505 201.91458L40.150005 201.91458L40.150005 203.32083ZM37.66563 190.88333L37.44688 189.4927Q38.29063 189.38333 38.743755 188.85208Q39.181255 188.3052 39.181255 187.35208Q39.181255 186.38333 38.79063 185.91458Q38.38438 185.44583 37.85313 185.44583Q37.38438 185.44583 37.10313 185.85208Q36.91563 186.14896 36.63438 187.28958Q36.243755 188.83646 35.962505 189.44583Q35.66563 190.03958 35.16563 190.35208Q34.66563 190.64896 34.056255 190.64896Q33.493755 190.64896 33.025005 190.39896Q32.556255 190.14896 32.243755 189.71146Q31.993755 189.38333 31.837505 188.82083Q31.66563 188.2427 31.66563 187.60208Q31.66563 186.6177 31.94688 185.88333Q32.22813 185.14896 32.712505 184.8052Q33.181255 184.44583 33.993755 184.3052L34.181255 185.6802Q33.54063 185.77396 33.181255 186.22708Q32.82188 186.6802 32.82188 187.4927Q32.82188 188.46146 33.150005 188.88333Q33.462505 189.28958 33.88438 189.28958Q34.16563 189.28958 34.38438 189.1177Q34.60313 188.94583 34.75938 188.58646Q34.837505 188.3677 35.118755 187.33646Q35.50938 185.85208 35.775005 185.25833Q36.025005 184.66458 36.50938 184.33646Q36.993755 183.9927 37.712505 183.9927Q38.41563 183.9927 39.04063 184.41458Q39.650005 184.82083 39.993755 185.60208Q40.337505 186.3677 40.337505 187.33646Q40.337505 188.96146 39.66563 189.8052Q38.993755 190.64896 37.66563 190.88333ZM43.525005 181.39896L43.525005 182.41458Q39.75938 180.07083 36.00938 180.07083Q34.54063 180.07083 33.087505 180.41458Q31.91563 180.6802 30.837505 181.14896Q30.13438 181.46146 28.493755 182.41458L28.493755 181.39896Q30.462505 179.9302 32.431255 179.22708Q34.13438 178.63333 35.993755 178.63333Q38.10313 178.63333 40.087505 179.44583Q42.056255 180.2427 43.525005 181.39896Z" fill-rule="nonzero"/><path fill="#000000" d="M75.65 414.61563Q75.65 413.08438 75.9625 412.1625Q76.275 411.225 76.88438 410.725Q77.50938 410.225 78.44688 410.225Q79.13438 410.225 79.65 410.50626Q80.18125 410.7875 80.525 411.31876Q80.86875 411.83438 81.05625 412.58438Q81.24375 413.33438 81.24375 414.61563Q81.24375 416.13126 80.93125 417.05313Q80.63438 417.975 80.00938 418.49063Q79.4 418.99063 78.44688 418.99063Q77.2125 418.99063 76.49375 418.1Q75.65 417.0375 75.65 414.61563ZM76.72813 414.61563Q76.72813 416.725 77.22813 417.42813Q77.72813 418.13126 78.44688 418.13126Q79.18125 418.13126 79.66563 417.42813Q80.16563 416.725 80.16563 414.61563Q80.16563 412.49063 79.66563 411.80313Q79.18125 411.1 78.43125 411.1Q77.7125 411.1 77.275 411.70938Q76.72813 412.49063 76.72813 414.61563ZM83.24375 418.85L83.24375 417.64688L84.44688 417.64688L84.44688 418.85L83.24375 418.85ZM85.65 414.61563Q85.65 413.08438 85.9625 412.1625Q86.275 411.225 86.88438 410.725Q87.50938 410.225 88.44688 410.225Q89.13438 410.225 89.65 410.50626Q90.18125 410.7875 90.525 411.31876Q90.86875 411.83438 91.05625 412.58438Q91.24375 413.33438 91.24375 414.61563Q91.24375 416.13126 90.93125 417.05313Q90.63438 417.975 90.00938 418.49063Q89.4 418.99063 88.44688 418.99063Q87.2125 418.99063 86.49375 418.1Q85.65 417.0375 85.65 414.61563ZM86.72813 414.61563Q86.72813 416.725 87.22813 417.42813Q87.72813 418.13126 88.44688 418.13126Q89.18125 418.13126 89.66563 417.42813Q90.16563 416.725 90.16563 414.61563Q90.16563 412.49063 89.66563 411.80313Q89.18125 411.1 88.43125 411.1Q87.7125 411.1 87.275 411.70938Q86.72813 412.49063 86.72813 414.61563Z" fill-rule="nonzero"/><path fill="#000000" d="M75.65 331.11667L76.75938 331.02292Q76.88438 331.83542 77.32188 332.24167Q77.775 332.64792 78.41563 332.64792Q79.16563 332.64792 79.69688 332.0698Q80.22813 331.49167 80.22813 330.55417Q80.22813 329.64792 79.7125 329.1323Q79.2125 328.60104 78.38438 328.60104Q77.88438 328.60104 77.4625 328.83542Q77.05625 329.0698 76.82188 329.42917L75.8375 329.30417L76.66563 324.89792L80.94688 324.89792L80.94688 325.89792L77.50938 325.89792L77.05625 328.21042Q77.82188 327.66354 78.66563 327.66354Q79.79063 327.66354 80.55625 328.4448Q81.3375 329.22604 81.3375 330.46042Q81.3375 331.61667 80.66563 332.47604Q79.8375 333.5073 78.41563 333.5073Q77.24375 333.5073 76.49375 332.85104Q75.75938 332.1948 75.65 331.11667ZM83.24375 333.36667L83.24375 332.16354L84.44688 332.16354L84.44688 333.36667L83.24375 333.36667ZM85.65 329.1323Q85.65 327.60104 85.9625 326.67917Q86.275 325.74167 86.88438 325.24167Q87.50938 324.74167 88.44688 324.74167Q89.13438 324.74167 89.65 325.02292Q90.18125 325.30417 90.525 325.83542Q90.86875 326.35104 91.05625 327.10104Q91.24375 327.85104 91.24375 329.1323Q91.24375 330.64792 90.93125 331.5698Q90.63438 332.49167 90.00938 333.0073Q89.4 333.5073 88.44688 333.5073Q87.2125 333.5073 86.49375 332.61667Q85.65 331.55417 85.65 329.1323ZM86.72813 329.1323Q86.72813 331.24167 87.22813 331.9448Q87.72813 332.64792 88.44688 332.64792Q89.18125 332.64792 89.66563 331.9448Q90.16563 331.24167 90.16563 329.1323Q90.16563 327.0073 89.66563 326.3198Q89.18125 325.61667 88.43125 325.61667Q87.7125 325.61667 87.275 326.22604Q86.72813 327.0073 86.72813 329.1323Z" fill-rule="nonzero"/><path fill="#000000" d="M72.61875 247.88333L71.57188 247.88333L71.57188 241.16458Q71.18125 241.52396 70.55625 241.89896Q69.94688 242.25833 69.4625 242.4302L69.4625 241.41458Q70.3375 240.9927 70.99375 240.41458Q71.66563 239.82083 71.94688 239.25833L72.61875 239.25833L72.61875 247.88333ZM75.65 243.64896Q75.65 242.1177 75.9625 241.19583Q76.275 240.25833 76.88438 239.75833Q77.50938 239.25833 78.44688 239.25833Q79.13438 239.25833 79.65 239.53958Q80.18125 239.82083 80.525 240.35208Q80.86875 240.8677 81.05625 241.6177Q81.24375 242.3677 81.24375 243.64896Q81.24375 245.16458 80.93125 246.08646Q80.63438 247.00833 80.00938 247.52396Q79.4 248.02396 78.44688 248.02396Q77.2125 248.02396 76.49375 247.13333Q75.65 246.07083 75.65 243.64896ZM76.72813 243.64896Q76.72813 245.75833 77.22813 246.46146Q77.72813 247.16458 78.44688 247.16458Q79.18125 247.16458 79.66563 246.46146Q80.16563 245.75833 80.16563 243.64896Q80.16563 241.52396 79.66563 240.83646Q79.18125 240.13333 78.43125 240.13333Q77.7125 240.13333 77.275 240.7427Q76.72813 241.52396 76.72813 243.64896ZM83.24375 247.88333L83.24375 246.6802L84.44688 246.6802L84.44688 247.88333L83.24375 247.88333ZM85.65 243.64896Q85.65 242.1177 85.9625 241.19583Q86.275 240.25833 86.88438 239.75833Q87.50938 239.25833 88.44688 239.25833Q89.13438 239.25833 89.65 239.53958Q90.18125 239.82083 90.525 240.35208Q90.86875 240.8677 91.05625 241.6177Q91.24375 242.3677 91.24375 243.64896Q91.24375 245.16458 90.93125 246.08646Q90.63438 247.00833 90.00938 247.52396Q89.4 248.02396 88.44688 248.02396Q87.2125 248.02396 86.49375 247.13333Q85.65 246.07083 85.65 243.64896ZM86.72813 243.64896Q86.72813 245.75833 87.22813 246.46146Q87.72813 247.16458 88.44688 247.16458Q89.18125 247.16458 89.66563 246.46146Q90.16563 245.75833 90.16563 243.64896Q90.16563 241.52396 89.66563 240.83646Q89.18125 240.13333 88.43125 240.13333Q87.7125 240.13333 87.275 240.7427Q86.72813 241.52396 86.72813 243.64896Z" fill-rule="nonzero"/><path fill="#000000" d="M72.61875 162.4L71.57188 162.4L71.57188 155.68124Q71.18125 156.04062 70.55625 156.41562Q69.94688 156.775 69.4625 156.94687L69.4625 155.93124Q70.3375 155.50937 70.99375 154.93124Q71.66563 154.3375 71.94688 153.775L72.61875 153.775L72.61875 162.4ZM75.65 160.15L76.75938 160.05624Q76.88438 160.86874 77.32188 161.275Q77.775 161.68124 78.41563 161.68124Q79.16563 161.68124 79.69688 161.10312Q80.22813 160.525 80.22813 159.5875Q80.22813 158.68124 79.7125 158.16562Q79.2125 157.63437 78.38438 157.63437Q77.88438 157.63437 77.4625 157.86874Q77.05625 158.10312 76.82188 158.4625L75.8375 158.3375L76.66563 153.93124L80.94688 153.93124L80.94688 154.93124L77.50938 154.93124L77.05625 157.24374Q77.82188 156.69687 78.66563 156.69687Q79.79063 156.69687 80.55625 157.47812Q81.3375 158.25937 81.3375 159.49374Q81.3375 160.65 80.66563 161.50937Q79.8375 162.54062 78.41563 162.54062Q77.24375 162.54062 76.49375 161.88437Q75.75938 161.22812 75.65 160.15ZM83.24375 162.4L83.24375 161.19687L84.44688 161.19687L84.44688 162.4L83.24375 162.4ZM85.65 158.16562Q85.65 156.63437 85.9625 155.7125Q86.275 154.775 86.88438 154.275Q87.50938 153.775 88.44688 153.775Q89.13438 153.775 89.65 154.05624Q90.18125 154.3375 90.525 154.86874Q90.86875 155.38437 91.05625 156.13437Q91.24375 156.88437 91.24375 158.16562Q91.24375 159.68124 90.93125 160.60312Q90.63438 161.525 90.00938 162.04062Q89.4 162.54062 88.44688 162.54062Q87.2125 162.54062 86.49375 161.65Q85.65 160.5875 85.65 158.16562ZM86.72813 158.16562Q86.72813 160.275 87.22813 160.97812Q87.72813 161.68124 88.44688 161.68124Q89.18125 161.68124 89.66563 160.97812Q90.16563 160.275 90.16563 158.16562Q90.16563 156.04062 89.66563 155.35312Q89.18125 154.65 88.43125 154.65Q87.7125 154.65 87.275 155.25937Q86.72813 156.04062 86.72813 158.16562Z" fill-rule="nonzero"/><path fill="#000000" d="M74.19688 75.90104L74.19688 76.916664L68.50938 76.916664Q68.50938 76.541664 68.63438 76.18229Q68.85313 75.604164 69.32188 75.041664Q69.80625 74.479164 70.7125 73.74479Q72.11875 72.58854 72.60313 71.916664Q73.10313 71.24479 73.10313 70.65104Q73.10313 70.02604 72.65 69.604164Q72.19688 69.166664 71.47813 69.166664Q70.7125 69.166664 70.25938 69.61979Q69.80625 70.072914 69.79063 70.885414L68.7125 70.77604Q68.82188 69.55729 69.54063 68.93229Q70.275 68.291664 71.50938 68.291664Q72.74375 68.291664 73.4625 68.979164Q74.18125 69.666664 74.18125 70.68229Q74.18125 71.197914 73.9625 71.697914Q73.75938 72.18229 73.25938 72.74479Q72.775 73.291664 71.65 74.24479Q70.69688 75.041664 70.41563 75.33854Q70.15 75.61979 69.97813 75.90104L74.19688 75.90104ZM75.65 72.68229Q75.65 71.15104 75.9625 70.229164Q76.275 69.291664 76.88438 68.791664Q77.50938 68.291664 78.44688 68.291664Q79.13438 68.291664 79.65 68.572914Q80.18125 68.854164 80.525 69.385414Q80.86875 69.90104 81.05625 70.65104Q81.24375 71.40104 81.24375 72.68229Q81.24375 74.197914 80.93125 75.11979Q80.63438 76.041664 80.00938 76.55729Q79.4 77.05729 78.44688 77.05729Q77.2125 77.05729 76.49375 76.166664Q75.65 75.104164 75.65 72.68229ZM76.72813 72.68229Q76.72813 74.791664 77.22813 75.49479Q77.72813 76.197914 78.44688 76.197914Q79.18125 76.197914 79.66563 75.49479Q80.16563 74.791664 80.16563 72.68229Q80.16563 70.55729 79.66563 69.86979Q79.18125 69.166664 78.43125 69.166664Q77.7125 69.166664 77.275 69.77604Q76.72813 70.55729 76.72813 72.68229ZM83.24375 76.916664L83.24375 75.71354L84.44688 75.71354L84.44688 76.916664L83.24375 76.916664ZM85.65 72.68229Q85.65 71.15104 85.9625 70.229164Q86.275 69.291664 86.88438 68.791664Q87.50938 68.291664 88.44688 68.291664Q89.13438 68.291664 89.65 68.572914Q90.18125 68.854164 90.525 69.385414Q90.86875 69.90104 91.05625 70.65104Q91.24375 71.40104 91.24375 72.68229Q91.24375 74.197914 90.93125 75.11979Q90.63438 76.041664 90.00938 76.55729Q89.4 77.05729 88.44688 77.05729Q87.2125 77.05729 86.49375 76.166664Q85.65 75.104164 85.65 72.68229ZM86.72813 72.68229Q86.72813 74.791664 87.22813 75.49479Q87.72813 76.197914 88.44688 76.197914Q89.18125 76.197914 89.66563 75.49479Q90.16563 74.791664 90.16563 72.68229Q90.16563 70.55729 89.66563 69.86979Q89.18125 69.166664 88.43125 69.166664Q87.7125 69.166664 87.275 69.77604Q86.72813 70.55729 86.72813 72.68229Z" fill-rule="nonzero"/><path fill="#000000" d="M202.64116 431.85L201.59428 431.85L201.59428 425.13126Q201.20366 425.49063 200.57866 425.86563Q199.96928 426.225 199.48491 426.39688L199.48491 425.38126Q200.35991 424.95938 201.01616 424.38126Q201.68803 423.7875 201.96928 423.225L202.64116 423.225L202.64116 431.85ZM205.67241 427.61563Q205.67241 426.08438 205.98491 425.1625Q206.29741 424.225 206.90678 423.725Q207.53178 423.225 208.46928 423.225Q209.15678 423.225 209.67241 423.50626Q210.20366 423.7875 210.54741 424.31876Q210.89116 424.83438 211.07866 425.58438Q211.26616 426.33438 211.26616 427.61563Q211.26616 429.13126 210.95366 430.05313Q210.65678 430.975 210.03178 431.49063Q209.42241 431.99063 208.46928 431.99063Q207.23491 431.99063 206.51616 431.1Q205.67241 430.0375 205.67241 427.61563ZM206.75053 427.61563Q206.75053 429.725 207.25053 430.42813Q207.75053 431.13126 208.46928 431.13126Q209.20366 431.13126 209.68803 430.42813Q210.18803 429.725 210.18803 427.61563Q210.18803 425.49063 209.68803 424.80313Q209.20366 424.1 208.45366 424.1Q207.73491 424.1 207.29741 424.70938Q206.75053 425.49063 206.75053 427.61563Z" fill-rule="nonzero"/><path fill="#000000" d="M357.6929 431.85L356.64603 431.85L356.64603 425.13126Q356.2554 425.49063 355.6304 425.86563Q355.02103 426.225 354.53665 426.39688L354.53665 425.38126Q355.41165 424.95938 356.0679 424.38126Q356.73978 423.7875 357.02103 423.225L357.6929 423.225L357.6929 431.85ZM360.72415 427.61563Q360.72415 426.08438 361.03665 425.1625Q361.34915 424.225 361.95853 423.725Q362.58353 423.225 363.52103 423.225Q364.20853 423.225 364.72415 423.50626Q365.2554 423.7875 365.59915 424.31876Q365.9429 424.83438 366.1304 425.58438Q366.3179 426.33438 366.3179 427.61563Q366.3179 429.13126 366.0054 430.05313Q365.70853 430.975 365.08353 431.49063Q364.47415 431.99063 363.52103 431.99063Q362.28665 431.99063 361.5679 431.1Q360.72415 430.0375 360.72415 427.61563ZM361.80228 427.61563Q361.80228 429.725 362.30228 430.42813Q362.80228 431.13126 363.52103 431.13126Q364.2554 431.13126 364.73978 430.42813Q365.23978 429.725 365.23978 427.61563Q365.23978 425.49063 364.73978 424.80313Q364.2554 424.1 363.5054 424.1Q362.78665 424.1 362.34915 424.70938Q361.80228 425.49063 361.80228 427.61563ZM367.72415 427.61563Q367.72415 426.08438 368.03665 425.1625Q368.34915 424.225 368.95853 423.725Q369.58353 423.225 370.52103 423.225Q371.20853 423.225 371.72415 423.50626Q372.2554 423.7875 372.59915 424.31876Q372.9429 424.83438 373.1304 425.58438Q373.3179 426.33438 373.3179 427.61563Q373.3179 429.13126 373.0054 430.05313Q372.70853 430.975 372.08353 431.49063Q371.47415 431.99063 370.52103 431.99063Q369.28665 431.99063 368.5679 431.1Q367.72415 430.0375 367.72415 427.61563ZM368.80228 427.61563Q368.80228 429.725 369.30228 430.42813Q369.80228 431.13126 370.52103 431.13126Q371.2554 431.13126 371.73978 430.42813Q372.23978 429.725 372.23978 427.61563Q372.23978 425.49063 371.73978 424.80313Q371.2554 424.1 370.5054 424.1Q369.78665 424.1 369.34915 424.70938Q368.80228 425.49063 368.80228 427.61563Z" fill-rule="nonzero"/><path fill="#000000" d="M512.7446 431.85L511.69772 431.85L511.69772 425.13126Q511.3071 425.49063 510.6821 425.86563Q510.07272 426.225 509.58835 426.39688L509.58835 425.38126Q510.46335 424.95938 511.1196 424.38126Q511.79147 423.7875 512.07275 423.225L512.7446 423.225L512.7446 431.85ZM515.7759 427.61563Q515.7759 426.08438 516.0884 425.1625Q516.4009 424.225 517.01025 423.725Q517.63525 423.225 518.57275 423.225Q519.26025 423.225 519.7759 423.50626Q520.3071 423.7875 520.6509 424.31876Q520.9946 424.83438 521.1821 425.58438Q521.3696 426.33438 521.3696 427.61563Q521.3696 429.13126 521.0571 430.05313Q520.76025 430.975 520.13525 431.49063Q519.5259 431.99063 518.57275 431.99063Q517.3384 431.99063 516.6196 431.1Q515.7759 430.0375 515.7759 427.61563ZM516.854 427.61563Q516.854 429.725 517.354 430.42813Q517.854 431.13126 518.57275 431.13126Q519.3071 431.13126 519.7915 430.42813Q520.2915 429.725 520.2915 427.61563Q520.2915 425.49063 519.7915 424.80313Q519.3071 424.1 518.5571 424.1Q517.8384 424.1 517.4009 424.70938Q516.854 425.49063 516.854 427.61563ZM522.7759 427.61563Q522.7759 426.08438 523.0884 425.1625Q523.4009 424.225 524.01025 423.725Q524.63525 423.225 525.57275 423.225Q526.26025 423.225 526.7759 423.50626Q527.3071 423.7875 527.6509 424.31876Q527.9946 424.83438 528.1821 425.58438Q528.3696 426.33438 528.3696 427.61563Q528.3696 429.13126 528.0571 430.05313Q527.76025 430.975 527.13525 431.49063Q526.5259 431.99063 525.57275 431.99063Q524.3384 431.99063 523.6196 431.1Q522.7759 430.0375 522.7759 427.61563ZM523.854 427.61563Q523.854 429.725 524.354 430.42813Q524.854 431.13126 525.57275 431.13126Q526.3071 431.13126 526.7915 430.42813Q527.2915 429.725 527.2915 427.61563Q527.2915 425.49063 526.7915 424.80313Q526.3071 424.1 525.5571 424.1Q524.8384 424.1 524.4009 424.70938Q523.854 425.49063 523.854 427.61563ZM529.7759 427.61563Q529.7759 426.08438 530.0884 425.1625Q530.4009 424.225 531.01025 423.725Q531.63525 423.225 532.57275 423.225Q533.26025 423.225 533.7759 423.50626Q534.3071 423.7875 534.6509 424.31876Q534.9946 424.83438 535.1821 425.58438Q535.3696 426.33438 535.3696 427.61563Q535.3696 429.13126 535.0571 430.05313Q534.76025 430.975 534.13525 431.49063Q533.5259 431.99063 532.57275 431.99063Q531.3384 431.99063 530.6196 431.1Q529.7759 430.0375 529.7759 427.61563ZM530.854 427.61563Q530.854 429.725 531.354 430.42813Q531.854 431.13126 532.57275 431.13126Q533.3071 431.13126 533.7915 430.42813Q534.2915 429.725 534.2915 427.61563Q534.2915 425.49063 533.7915 424.80313Q533.3071 424.1 532.5571 424.1Q531.8384 424.1 531.4009 424.70938Q530.854 425.49063 530.854 427.61563Z" fill-rule="nonzero"/><path fill="#000000" d="M671.2963 431.85L670.24945 431.85L670.24945 425.13126Q669.8588 425.49063 669.2338 425.86563Q668.62445 426.225 668.1401 426.39688L668.1401 425.38126Q669.0151 424.95938 669.6713 424.38126Q670.3432 423.7875 670.62445 423.225L671.2963 423.225L671.2963 431.85ZM674.3276 429.6L675.43695 429.50626Q675.56195 430.31876 675.99945 430.725Q676.4526 431.13126 677.0932 431.13126Q677.8432 431.13126 678.37445 430.55313Q678.9057 429.975 678.9057 429.0375Q678.9057 428.13126 678.3901 427.61563Q677.8901 427.08438 677.06195 427.08438Q676.56195 427.08438 676.1401 427.31876Q675.7338 427.55313 675.49945 427.9125L674.5151 427.7875L675.3432 423.38126L679.62445 423.38126L679.62445 424.38126L676.18695 424.38126L675.7338 426.69376Q676.49945 426.14688 677.3432 426.14688Q678.4682 426.14688 679.2338 426.92813Q680.0151 427.70938 680.0151 428.94376Q680.0151 430.1 679.3432 430.95938Q678.5151 431.99063 677.0932 431.99063Q675.9213 431.99063 675.1713 431.33438Q674.43695 430.67813 674.3276 429.6ZM681.3276 427.61563Q681.3276 426.08438 681.6401 425.1625Q681.9526 424.225 682.56195 423.725Q683.18695 423.225 684.12445 423.225Q684.81195 423.225 685.3276 423.50626Q685.8588 423.7875 686.2026 424.31876Q686.5463 424.83438 686.7338 425.58438Q686.9213 426.33438 686.9213 427.61563Q686.9213 429.13126 686.6088 430.05313Q686.31195 430.975 685.68695 431.49063Q685.0776 431.99063 684.12445 431.99063Q682.8901 431.99063 682.1713 431.1Q681.3276 430.0375 681.3276 427.61563ZM682.4057 427.61563Q682.4057 429.725 682.9057 430.42813Q683.4057 431.13126 684.12445 431.13126Q684.8588 431.13126 685.3432 430.42813Q685.8432 429.725 685.8432 427.61563Q685.8432 425.49063 685.3432 424.80313Q684.8588 424.1 684.1088 424.1Q683.3901 424.1 682.9526 424.70938Q682.4057 425.49063 682.4057 427.61563ZM688.3276 427.61563Q688.3276 426.08438 688.6401 425.1625Q688.9526 424.225 689.56195 423.725Q690.18695 423.225 691.12445 423.225Q691.81195 423.225 692.3276 423.50626Q692.8588 423.7875 693.2026 424.31876Q693.5463 424.83438 693.7338 425.58438Q693.9213 426.33438 693.9213 427.61563Q693.9213 429.13126 693.6088 430.05313Q693.31195 430.975 692.68695 431.49063Q692.0776 431.99063 691.12445 431.99063Q689.8901 431.99063 689.1713 431.1Q688.3276 430.0375 688.3276 427.61563ZM689.4057 427.61563Q689.4057 429.725 689.9057 430.42813Q690.4057 431.13126 691.12445 431.13126Q691.8588 431.13126 692.3432 430.42813Q692.8432 429.725 692.8432 427.61563Q692.8432 425.49063 692.3432 424.80313Q691.8588 424.1 691.1088 424.1Q690.3901 424.1 689.9526 424.70938Q689.4057 425.49063 689.4057 427.61563Z" fill-rule="nonzero"/><path fill="#757575" d="M26.61875 44.15L26.61875 29.837502L28.509375 29.837502L28.509375 42.4625L35.55625 42.4625L35.55625 44.15L26.61875 44.15ZM37.61875 44.15L37.61875 29.837502L39.509377 29.837502L39.509377 42.4625L46.55625 42.4625L46.55625 44.15L37.61875 44.15ZM55.24375 42.86875Q54.259377 43.696877 53.353127 44.040627Q52.446877 44.384377 51.415627 44.384377Q49.7125 44.384377 48.790627 43.55625Q47.86875 42.7125 47.86875 41.415627Q47.86875 40.65 48.2125 40.025Q48.571877 39.4 49.134377 39.025Q49.696877 38.634377 50.4 38.43125Q50.915627 38.30625 51.9625 38.165627Q54.0875 37.915627 55.0875 37.571877Q55.103127 37.2125 55.103127 37.103127Q55.103127 36.040627 54.603127 35.5875Q53.93125 34.99375 52.603127 34.99375Q51.353127 34.99375 50.759377 35.43125Q50.18125 35.86875 49.9 36.978127L48.18125 36.74375Q48.415627 35.634377 48.946877 34.9625Q49.478127 34.275 50.49375 33.915627Q51.509377 33.540627 52.853127 33.540627Q54.18125 33.540627 55.009377 33.853127Q55.8375 34.165627 56.228127 34.65Q56.61875 35.11875 56.775 35.8375Q56.86875 36.290627 56.86875 37.4625L56.86875 39.80625Q56.86875 42.259377 56.978127 42.915627Q57.0875 43.55625 57.43125 44.15L55.5875 44.15Q55.321877 43.603127 55.24375 42.86875ZM55.0875 38.946877Q54.134377 39.3375 52.2125 39.603127Q51.134377 39.759377 50.68125 39.9625Q50.24375 40.15 49.99375 40.525Q49.74375 40.9 49.74375 41.36875Q49.74375 42.071877 50.275 42.540627Q50.80625 43.009377 51.8375 43.009377Q52.853127 43.009377 53.634377 42.571877Q54.43125 42.11875 54.80625 41.353127Q55.0875 40.74375 55.0875 39.5875L55.0875 38.946877ZM59.634377 44.15L59.634377 29.837502L62.49375 29.837502L65.86875 39.9625Q66.3375 41.384377 66.55625 42.0875Q66.80625 41.30625 67.32188 39.790627L70.74375 29.837502L73.29063 29.837502L73.29063 44.15L71.47813 44.15L71.47813 32.165627L67.30625 44.15L65.60313 44.15L61.4625 31.962502L61.4625 44.15L59.634377 44.15ZM75.11875 44.15L80.61875 29.837502L82.66563 29.837502L88.525 44.15L86.36875 44.15L84.69688 39.80625L78.7125 39.80625L77.13438 44.15L75.11875 44.15ZM79.25938 38.275L84.10313 38.275L82.61875 34.30625Q81.93125 32.49375 81.60313 31.337502Q81.32188 32.7125 80.82188 34.071877L79.25938 38.275ZM96.00938 44.15L96.00938 29.837502L97.91563 29.837502L97.91563 44.15L96.00938 44.15ZM101.4625 44.15L101.4625 33.775L103.05625 33.775L103.05625 35.259377Q104.19688 33.540627 106.35313 33.540627Q107.29063 33.540627 108.07188 33.884377Q108.86875 34.2125 109.25938 34.759377Q109.65 35.30625 109.80625 36.05625Q109.9 36.55625 109.9 37.775L109.9 44.15L108.13438 44.15L108.13438 37.8375Q108.13438 36.759377 107.93125 36.228127Q107.72813 35.696877 107.19688 35.384377Q106.68125 35.071877 105.97813 35.071877Q104.85313 35.071877 104.04063 35.790627Q103.22813 36.49375 103.22813 38.478127L103.22813 44.15L101.4625 44.15ZM111.88438 44.15L111.88438 35.15L110.3375 35.15L110.3375 33.775L111.88438 33.775L111.88438 32.68125Q111.88438 31.634377 112.07188 31.118752Q112.32188 30.431252 112.9625 30.009377Q113.60313 29.587502 114.75938 29.587502Q115.50938 29.587502 116.4 29.759377L116.13438 31.290627Q115.5875 31.196877 115.10313 31.196877Q114.30625 31.196877 113.9625 31.540627Q113.63438 31.884377 113.63438 32.821877L113.63438 33.775L115.66563 33.775L115.66563 35.15L113.63438 35.15L113.63438 44.15L111.88438 44.15ZM124.57188 40.80625L126.38438 41.040627Q125.9625 42.61875 124.79063 43.509377Q123.63438 44.384377 121.82188 44.384377Q119.55625 44.384377 118.2125 42.99375Q116.88438 41.5875 116.88438 39.05625Q116.88438 36.43125 118.22813 34.99375Q119.57188 33.540627 121.72813 33.540627Q123.80625 33.540627 125.11875 34.9625Q126.44688 36.36875 126.44688 38.946877Q126.44688 39.103127 126.43125 39.415627L118.69688 39.415627Q118.79063 41.11875 119.66563 42.025Q120.54063 42.93125 121.8375 42.93125Q122.80625 42.93125 123.47813 42.43125Q124.16563 41.915627 124.57188 40.80625ZM118.79063 37.9625L124.5875 37.9625Q124.47813 36.665627 123.93125 36.009377Q123.0875 34.99375 121.74375 34.99375Q120.54063 34.99375 119.7125 35.80625Q118.88438 36.603127 118.79063 37.9625ZM128.44687 44.15L128.44687 33.775L130.025 33.775L130.025 35.353127Q130.63437 34.24375 131.15 33.9Q131.66562 33.540627 132.275 33.540627Q133.16562 33.540627 134.0875 34.103127L133.47812 35.74375Q132.8375 35.353127 132.19687 35.353127Q131.61874 35.353127 131.15 35.7125Q130.69687 36.05625 130.49374 36.665627Q130.2125 37.603127 130.2125 38.7125L130.2125 44.15L128.44687 44.15ZM142.57187 40.80625L144.38437 41.040627Q143.9625 42.61875 142.79062 43.509377Q141.63437 44.384377 139.82187 44.384377Q137.55624 44.384377 136.2125 42.99375Q134.88437 41.5875 134.88437 39.05625Q134.88437 36.43125 136.22812 34.99375Q137.57187 33.540627 139.72812 33.540627Q141.80624 33.540627 143.11874 34.9625Q144.44687 36.36875 144.44687 38.946877Q144.44687 39.103127 144.43124 39.415627L136.69687 39.415627Q136.79062 41.11875 137.66562 42.025Q138.54062 42.93125 139.8375 42.93125Q140.80624 42.93125 141.47812 42.43125Q142.16562 41.915627 142.57187 40.80625ZM136.79062 37.9625L142.5875 37.9625Q142.47812 36.665627 141.93124 36.009377Q141.0875 34.99375 139.74374 34.99375Q138.54062 34.99375 137.7125 35.80625Q136.88437 36.603127 136.79062 37.9625ZM146.4625 44.15L146.4625 33.775L148.05624 33.775L148.05624 35.259377Q149.19687 33.540627 151.35312 33.540627Q152.29062 33.540627 153.07187 33.884377Q153.86874 34.2125 154.25937 34.759377Q154.65 35.30625 154.80624 36.05625Q154.9 36.55625 154.9 37.775L154.9 44.15L153.13437 44.15L153.13437 37.8375Q153.13437 36.759377 152.93124 36.228127Q152.72812 35.696877 152.19687 35.384377Q151.68124 35.071877 150.97812 35.071877Q149.85312 35.071877 149.04062 35.790627Q148.22812 36.49375 148.22812 38.478127L148.22812 44.15L146.4625 44.15ZM163.24374 40.353127L164.9625 40.571877Q164.68124 42.36875 163.50937 43.384377Q162.35312 44.384377 160.65 44.384377Q158.525 44.384377 157.22812 42.99375Q155.93124 41.603127 155.93124 39.009377Q155.93124 37.321877 156.47812 36.071877Q157.04062 34.80625 158.18124 34.18125Q159.32187 33.540627 160.66562 33.540627Q162.35312 33.540627 163.41562 34.4Q164.49374 35.259377 164.80624 36.821877L163.0875 37.0875Q162.85312 36.040627 162.22812 35.525Q161.60312 34.99375 160.72812 34.99375Q159.4 34.99375 158.57187 35.946877Q157.74374 36.9 157.74374 38.946877Q157.74374 41.040627 158.54062 41.99375Q159.3375 42.93125 160.63437 42.93125Q161.66562 42.93125 162.35312 42.30625Q163.05624 41.665627 163.24374 40.353127ZM173.57187 40.80625L175.38437 41.040627Q174.9625 42.61875 173.79062 43.509377Q172.63437 44.384377 170.82187 44.384377Q168.55624 44.384377 167.2125 42.99375Q165.88437 41.5875 165.88437 39.05625Q165.88437 36.43125 167.22812 34.99375Q168.57187 33.540627 170.72812 33.540627Q172.80624 33.540627 174.11874 34.9625Q175.44687 36.36875 175.44687 38.946877Q175.44687 39.103127 175.43124 39.415627L167.69687 39.415627Q167.79062 41.11875 168.66562 42.025Q169.54062 42.93125 170.8375 42.93125Q171.80624 42.93125 172.47812 42.43125Q173.16562 41.915627 173.57187 40.80625ZM167.79062 37.9625L173.5875 37.9625Q173.47812 36.665627 172.93124 36.009377Q172.0875 34.99375 170.74374 34.99375Q169.54062 34.99375 168.7125 35.80625Q167.88437 36.603127 167.79062 37.9625ZM183.69687 44.15L183.69687 29.837502L189.0875 29.837502Q190.525 29.837502 191.275 29.962502Q192.32187 30.150002 193.04062 30.650002Q193.75937 31.134377 194.18124 32.025Q194.61874 32.915627 194.61874 33.978127Q194.61874 35.80625 193.44687 37.071877Q192.29062 38.321877 189.25937 38.321877L185.5875 38.321877L185.5875 44.15L183.69687 44.15ZM185.5875 36.634377L189.29062 36.634377Q191.11874 36.634377 191.88437 35.9625Q192.66562 35.275 192.66562 34.025Q192.66562 33.134377 192.2125 32.49375Q191.75937 31.853127 191.025 31.650002Q190.54062 31.525002 189.24374 31.525002L185.5875 31.525002L185.5875 36.634377ZM203.57187 40.80625L205.38437 41.040627Q204.9625 42.61875 203.79062 43.509377Q202.63437 44.384377 200.82187 44.384377Q198.55624 44.384377 197.2125 42.99375Q195.88437 41.5875 195.88437 39.05625Q195.88437 36.43125 197.22812 34.99375Q198.57187 33.540627 200.72812 33.540627Q202.80624 33.540627 204.11874 34.9625Q205.44687 36.36875 205.44687 38.946877Q205.44687 39.103127 205.43124 39.415627L197.69687 39.415627Q197.79062 41.11875 198.66562 42.025Q199.54062 42.93125 200.8375 42.93125Q201.80624 42.93125 202.47812 42.43125Q203.16562 41.915627 203.57187 40.80625ZM197.79062 37.9625L203.5875 37.9625Q203.47812 36.665627 202.93124 36.009377Q202.0875 34.99375 200.74374 34.99375Q199.54062 34.99375 198.7125 35.80625Q197.88437 36.603127 197.79062 37.9625ZM207.44687 44.15L207.44687 33.775L209.025 33.775L209.025 35.353127Q209.63437 34.24375 210.15 33.9Q210.66562 33.540627 211.275 33.540627Q212.16562 33.540627 213.0875 34.103127L212.47812 35.74375Q211.8375 35.353127 211.19687 35.353127Q210.61874 35.353127 210.15 35.7125Q209.69687 36.05625 209.49374 36.665627Q209.2125 37.603127 209.2125 38.7125L209.2125 44.15L207.44687 44.15ZM214.88437 44.15L214.88437 35.15L213.3375 35.15L213.3375 33.775L214.88437 33.775L214.88437 32.68125Q214.88437 31.634377 215.07187 31.118752Q215.32187 30.431252 215.9625 30.009377Q216.60312 29.587502 217.75937 29.587502Q218.50937 29.587502 219.4 29.759377L219.13437 31.290627Q218.5875 31.196877 218.10312 31.196877Q217.30624 31.196877 216.9625 31.540627Q216.63437 31.884377 216.63437 32.821877L216.63437 33.775L218.66562 33.775L218.66562 35.15L216.63437 35.15L216.63437 44.15L214.88437 44.15ZM229.35312 44.15L225.4 33.775L227.25937 33.775L229.49374 39.99375Q229.85312 40.99375 230.15 42.071877Q230.38437 41.259377 230.80624 40.103127L233.10312 33.775L234.91562 33.775L230.99374 44.15L229.35312 44.15ZM234.75937 41.05625L236.50937 40.775Q236.65 41.821877 237.32187 42.384377Q237.99374 42.93125 239.19687 42.93125Q240.4 42.93125 240.97812 42.446877Q241.57187 41.946877 241.57187 41.290627Q241.57187 40.696877 241.05624 40.353127Q240.69687 40.11875 239.25937 39.759377Q237.32187 39.259377 236.57187 38.915627Q235.8375 38.55625 235.44687 37.93125Q235.05624 37.290627 235.05624 36.525Q235.05624 35.8375 235.36874 35.24375Q235.69687 34.65 236.24374 34.259377Q236.65 33.9625 237.35312 33.759377Q238.07187 33.540627 238.88437 33.540627Q240.10312 33.540627 241.025 33.9Q241.94687 34.24375 242.38437 34.853127Q242.82187 35.446877 242.99374 36.446877L241.275 36.68125Q241.15 35.884377 240.5875 35.446877Q240.025 34.99375 239.00937 34.99375Q237.79062 34.99375 237.275 35.4Q236.75937 35.790627 236.75937 36.321877Q236.75937 36.665627 236.97812 36.946877Q237.18124 37.228127 237.65 37.415627Q237.91562 37.509377 239.19687 37.853127Q241.07187 38.353127 241.80624 38.68125Q242.54062 38.99375 242.9625 39.603127Q243.38437 40.196877 243.38437 41.103127Q243.38437 41.978127 242.86874 42.759377Q242.35312 43.540627 241.38437 43.9625Q240.41562 44.384377 239.19687 44.384377Q237.18124 44.384377 236.11874 43.540627Q235.05624 42.696877 234.75937 41.05625ZM245.9625 44.15L245.9625 42.15L247.9625 42.15L247.9625 44.15L245.9625 44.15ZM258.00937 44.15L258.00937 29.837502L259.91562 29.837502L259.91562 44.15L258.00937 44.15ZM263.4625 44.15L263.4625 33.775L265.05624 33.775L265.05624 35.259377Q266.19687 33.540627 268.35312 33.540627Q269.29062 33.540627 270.07187 33.884377Q270.86874 34.2125 271.25937 34.759377Q271.65 35.30625 271.80624 36.05625Q271.9 36.55625 271.9 37.775L271.9 44.15L270.13437 44.15L270.13437 37.8375Q270.13437 36.759377 269.93124 36.228127Q269.72812 35.696877 269.19687 35.384377Q268.68124 35.071877 267.97812 35.071877Q266.85312 35.071877 266.04062 35.790627Q265.22812 36.49375 265.22812 38.478127L265.22812 44.15L263.4625 44.15ZM273.4625 48.11875L273.4625 33.775L275.07187 33.775L275.07187 35.11875Q275.63437 34.3375 276.3375 33.946877Q277.05624 33.540627 278.07187 33.540627Q279.4 33.540627 280.41562 34.228127Q281.43124 34.915627 281.94687 36.165627Q282.47812 37.4 282.47812 38.884377Q282.47812 40.478127 281.9 41.759377Q281.3375 43.025 280.24374 43.7125Q279.15 44.384377 277.94687 44.384377Q277.07187 44.384377 276.36874 44.009377Q275.68124 43.634377 275.22812 43.071877L275.22812 48.11875L273.4625 48.11875ZM275.05624 39.025Q275.05624 41.025 275.86874 41.978127Q276.68124 42.93125 277.8375 42.93125Q279.00937 42.93125 279.8375 41.946877Q280.68124 40.9625 280.68124 38.86875Q280.68124 36.9 279.85312 35.915627Q279.04062 34.915627 277.91562 34.915627Q276.79062 34.915627 275.91562 35.978127Q275.05624 37.025 275.05624 39.025ZM291.25937 44.15L291.25937 42.61875Q290.05624 44.384377 287.97812 44.384377Q287.05624 44.384377 286.25937 44.040627Q285.4625 43.68125 285.07187 43.15Q284.69687 42.61875 284.54062 41.8375Q284.43124 41.321877 284.43124 40.196877L284.43124 33.775L286.18124 33.775L286.18124 39.525Q286.18124 40.9 286.29062 41.384377Q286.4625 42.071877 286.99374 42.478127Q287.54062 42.86875 288.32187 42.86875Q289.11874 42.86875 289.80624 42.4625Q290.50937 42.05625 290.79062 41.36875Q291.0875 40.665627 291.0875 39.3375L291.0875 33.775L292.8375 33.775L292.8375 44.15L291.25937 44.15ZM298.30624 42.571877L298.55624 44.134377Q297.82187 44.290627 297.22812 44.290627Q296.275 44.290627 295.74374 43.99375Q295.22812 43.68125 295.00937 43.196877Q294.79062 42.696877 294.79062 41.11875L294.79062 35.15L293.50937 35.15L293.50937 33.775L294.79062 33.775L294.79062 31.212502L296.54062 30.150002L296.54062 33.775L298.30624 33.775L298.30624 35.15L296.54062 35.15L296.54062 41.2125Q296.54062 41.9625 296.63437 42.18125Q296.72812 42.384377 296.93124 42.525Q297.15 42.65 297.54062 42.65Q297.82187 42.65 298.30624 42.571877ZM306.69687 44.15L306.69687 29.837502L312.0875 29.837502Q313.525 29.837502 314.275 29.962502Q315.32187 30.150002 316.04062 30.650002Q316.75937 31.134377 317.18124 32.025Q317.61874 32.915627 317.61874 33.978127Q317.61874 35.80625 316.44687 37.071877Q315.29062 38.321877 312.25937 38.321877L308.5875 38.321877L308.5875 44.15L306.69687 44.15ZM308.5875 36.634377L312.29062 36.634377Q314.11874 36.634377 314.88437 35.9625Q315.66562 35.275 315.66562 34.025Q315.66562 33.134377 315.2125 32.49375Q314.75937 31.853127 314.025 31.650002Q313.54062 31.525002 312.24374 31.525002L308.5875 31.525002L308.5875 36.634377ZM319.44687 44.15L319.44687 33.775L321.025 33.775L321.025 35.353127Q321.63437 34.24375 322.15 33.9Q322.66562 33.540627 323.275 33.540627Q324.16562 33.540627 325.0875 34.103127L324.47812 35.74375Q323.8375 35.353127 323.19687 35.353127Q322.61874 35.353127 322.15 35.7125Q321.69687 36.05625 321.49374 36.665627Q321.2125 37.603127 321.2125 38.7125L321.2125 44.15L319.44687 44.15ZM325.82187 38.9625Q325.82187 36.0875 327.41562 34.696877Q328.75937 33.540627 330.68124 33.540627Q332.82187 33.540627 334.16562 34.946877Q335.525 36.353127 335.525 38.821877Q335.525 40.821877 334.93124 41.978127Q334.3375 43.11875 333.18124 43.759377Q332.04062 44.384377 330.68124 44.384377Q328.49374 44.384377 327.15 42.99375Q325.82187 41.5875 325.82187 38.9625ZM327.61874 38.9625Q327.61874 40.9625 328.47812 41.946877Q329.35312 42.93125 330.68124 42.93125Q331.99374 42.93125 332.85312 41.946877Q333.72812 40.946877 333.72812 38.9Q333.72812 36.978127 332.85312 35.99375Q331.97812 34.99375 330.68124 34.99375Q329.35312 34.99375 328.47812 35.99375Q327.61874 36.978127 327.61874 38.9625ZM337.4625 44.15L337.4625 33.775L339.04062 33.775L339.04062 35.228127Q339.525 34.478127 340.3375 34.009377Q341.15 33.540627 342.18124 33.540627Q343.3375 33.540627 344.07187 34.025Q344.80624 34.49375 345.11874 35.353127Q346.35312 33.540627 348.32187 33.540627Q349.86874 33.540627 350.69687 34.4Q351.525 35.259377 351.525 37.025L351.525 44.15L349.775 44.15L349.775 37.61875Q349.775 36.55625 349.60312 36.103127Q349.43124 35.634377 348.97812 35.353127Q348.54062 35.071877 347.93124 35.071877Q346.8375 35.071877 346.10312 35.80625Q345.38437 36.525 345.38437 38.11875L345.38437 44.15L343.63437 44.15L343.63437 37.415627Q343.63437 36.24375 343.19687 35.665627Q342.775 35.071877 341.79062 35.071877Q341.05624 35.071877 340.41562 35.4625Q339.79062 35.853127 339.50937 36.603127Q339.22812 37.353127 339.22812 38.775L339.22812 44.15L337.4625 44.15ZM353.4625 48.11875L353.4625 33.775L355.07187 33.775L355.07187 35.11875Q355.63437 34.3375 356.3375 33.946877Q357.05624 33.540627 358.07187 33.540627Q359.4 33.540627 360.41562 34.228127Q361.43124 34.915627 361.94687 36.165627Q362.47812 37.4 362.47812 38.884377Q362.47812 40.478127 361.9 41.759377Q361.3375 43.025 360.24374 43.7125Q359.15 44.384377 357.94687 44.384377Q357.07187 44.384377 356.36874 44.009377Q355.68124 43.634377 355.22812 43.071877L355.22812 48.11875L353.4625 48.11875ZM355.05624 39.025Q355.05624 41.025 355.86874 41.978127Q356.68124 42.93125 357.8375 42.93125Q359.00937 42.93125 359.8375 41.946877Q360.68124 40.9625 360.68124 38.86875Q360.68124 36.9 359.85312 35.915627Q359.04062 34.915627 357.91562 34.915627Q356.79062 34.915627 355.91562 35.978127Q355.05624 37.025 355.05624 39.025ZM368.30624 42.571877L368.55624 44.134377Q367.82187 44.290627 367.22812 44.290627Q366.275 44.290627 365.74374 43.99375Q365.22812 43.68125 365.00937 43.196877Q364.79062 42.696877 364.79062 41.11875L364.79062 35.15L363.50937 35.15L363.50937 33.775L364.79062 33.775L364.79062 31.212502L366.54062 30.150002L366.54062 33.775L368.30624 33.775L368.30624 35.15L366.54062 35.15L366.54062 41.2125Q366.54062 41.9625 366.63437 42.18125Q366.72812 42.384377 366.93124 42.525Q367.15 42.65 367.54062 42.65Q367.82187 42.65 368.30624 42.571877ZM376.61874 44.15L376.61874 29.837502L378.50937 29.837502L378.50937 42.4625L385.55624 42.4625L385.55624 44.15L376.61874 44.15ZM394.57187 40.80625L396.38437 41.040627Q395.9625 42.61875 394.79062 43.509377Q393.63437 44.384377 391.82187 44.384377Q389.55624 44.384377 388.2125 42.99375Q386.88437 41.5875 386.88437 39.05625Q386.88437 36.43125 388.22812 34.99375Q389.57187 33.540627 391.72812 33.540627Q393.80624 33.540627 395.11874 34.9625Q396.44687 36.36875 396.44687 38.946877Q396.44687 39.103127 396.43124 39.415627L388.69687 39.415627Q388.79062 41.11875 389.66562 42.025Q390.54062 42.93125 391.8375 42.93125Q392.80624 42.93125 393.47812 42.43125Q394.16562 41.915627 394.57187 40.80625ZM388.79062 37.9625L394.5875 37.9625Q394.47812 36.665627 393.93124 36.009377Q393.0875 34.99375 391.74374 34.99375Q390.54062 34.99375 389.7125 35.80625Q388.88437 36.603127 388.79062 37.9625ZM398.4625 44.15L398.4625 33.775L400.05624 33.775L400.05624 35.259377Q401.19687 33.540627 403.35312 33.540627Q404.29062 33.540627 405.07187 33.884377Q405.86874 34.2125 406.25937 34.759377Q406.65 35.30625 406.80624 36.05625Q406.9 36.55625 406.9 37.775L406.9 44.15L405.13437 44.15L405.13437 37.8375Q405.13437 36.759377 404.93124 36.228127Q404.72812 35.696877 404.19687 35.384377Q403.68124 35.071877 402.97812 35.071877Q401.85312 35.071877 401.04062 35.790627Q400.22812 36.49375 400.22812 38.478127L400.22812 44.15L398.4625 44.15ZM408.15 45.009377L409.85312 45.259377Q409.9625 46.05625 410.44687 46.415627Q411.10312 46.9 412.24374 46.9Q413.4625 46.9 414.11874 46.415627Q414.79062 45.93125 415.025 45.05625Q415.16562 44.509377 415.15 42.790627Q413.99374 44.15 412.275 44.15Q410.13437 44.15 408.9625 42.603127Q407.79062 41.05625 407.79062 38.9Q407.79062 37.415627 408.32187 36.165627Q408.86874 34.915627 409.88437 34.228127Q410.91562 33.540627 412.29062 33.540627Q414.11874 33.540627 415.32187 35.025L415.32187 33.775L416.93124 33.775L416.93124 42.74375Q416.93124 45.165627 416.43124 46.165627Q415.94687 47.18125 414.86874 47.759377Q413.80624 48.353127 412.24374 48.353127Q410.4 48.353127 409.24374 47.525Q408.10312 46.696877 408.15 45.009377ZM409.60312 38.775Q409.60312 40.821877 410.41562 41.759377Q411.22812 42.696877 412.44687 42.696877Q413.65 42.696877 414.4625 41.759377Q415.29062 40.821877 415.29062 38.8375Q415.29062 36.93125 414.44687 35.9625Q413.60312 34.99375 412.41562 34.99375Q411.24374 34.99375 410.41562 35.946877Q409.60312 36.9 409.60312 38.775ZM423.30624 42.571877L423.55624 44.134377Q422.82187 44.290627 422.22812 44.290627Q421.275 44.290627 420.74374 43.99375Q420.22812 43.68125 420.00937 43.196877Q419.79062 42.696877 419.79062 41.11875L419.79062 35.15L418.50937 35.15L418.50937 33.775L419.79062 33.775L419.79062 31.212502L421.54062 30.150002L421.54062 33.775L423.30624 33.775L423.30624 35.15L421.54062 35.15L421.54062 41.2125Q421.54062 41.9625 421.63437 42.18125Q421.72812 42.384377 421.93124 42.525Q422.15 42.65 422.54062 42.65Q422.82187 42.65 423.30624 42.571877ZM425.4625 44.15L425.4625 29.837502L427.22812 29.837502L427.22812 34.9625Q428.4625 33.540627 430.3375 33.540627Q431.47812 33.540627 432.32187 33.99375Q433.18124 34.446877 433.54062 35.259377Q433.91562 36.05625 433.91562 37.571877L433.91562 44.15L432.16562 44.15L432.16562 37.571877Q432.16562 36.259377 431.5875 35.665627Q431.00937 35.05625 429.97812 35.05625Q429.19687 35.05625 428.49374 35.4625Q427.80624 35.86875 427.50937 36.571877Q427.22812 37.259377 427.22812 38.478127L427.22812 44.15L425.4625 44.15Z" fill-rule="nonzero"/></svg>