<svg xmlns="http://www.w3.org/2000/svg" role="img" viewBox="273.02 265.02 245.96 81.46"><style>svg {enable-background:new 0 0 792 612}</style><path fill="#0091bd" d="M331.4 271.8h15.9v68.1h-15.9v-7.1c-7 8.1-15.5 9.2-20.4 9.2-21 0-33-17.5-33-36.2 0-22.2 15.2-35.8 33.2-35.8 5 0 13.8 1.3 20.2 9.7v-7.9zm-37.2 34.3c0 11.8 7.4 21.7 18.9 21.7 10 0 19.3-7.3 19.3-21.5 0-14.9-9.2-22-19.3-22-11.5 0-18.9 9.7-18.9 21.8zm71.9-34.3H382v6.1c1.8-2.1 4.4-4.4 6.6-5.7 3.1-1.8 6.1-2.3 9.7-2.3 3.9 0 8.1.6 12.5 3.2l-6.5 14.4c-3.6-2.3-6.5-2.4-8.1-2.4-3.4 0-6.8.5-9.9 3.7-4.4 4.7-4.4 11.2-4.4 15.7v35.3H366v-68zm54.9 0h15.9v6.3c5.3-6.5 11.6-8.1 16.8-8.1 7.1 0 13.8 3.4 17.6 10 5.7-8.1 14.2-10 20.2-10 8.3 0 15.5 3.9 19.4 10.7 1.3 2.3 3.6 7.3 3.6 17.2V340h-15.9v-37.5c0-7.6-.8-10.7-1.5-12.1-1-2.6-3.4-6-9.1-6-3.9 0-7.3 2.1-9.4 5-2.8 3.9-3.1 9.7-3.1 15.5V340h-15.9v-37.5c0-7.6-.8-10.7-1.5-12.1-1-2.6-3.4-6-9.1-6-3.9 0-7.3 2.1-9.4 5-2.8 3.9-3.1 9.7-3.1 15.5V340H421v-68.2z"/></svg>