<svg xmlns="http://www.w3.org/2000/svg" role="img" viewBox="339.45 31.95 1331.10 1458.60"><path fill="#FCFDFD" d="M0 0h2048v1611H0z"/><path fill="#FCFCFC" d="M696 61h8l28 6 32 11 25 10 35 12 58 17 35 8 15 3 14 2 16 1 22 3 30 2h24l33-3 33-4 36-7 24-6 27-9 18-5 23-12 25-10 25-12 15-5 11-1 8-1 11 4 6 5 9 13 13 19 14 20 15 20 10 14 14 19 12 16 8 13 10 19 3 11-1 12-11 28-7 23-16 53-14 56-6 25-4 23-2 20-1 28-5 14-1 6v86l2 37 6 50 6 34 8 31 14 45 12 35 8 24 7 20 4 15v10l-4 9-10 16-13 18-14 18-8 11-11 16-12 18-14 18-12 16-9 11-8 10-7 7-6 4-7-1-13-4-26-10-38-12-51-14-31-7-30-5-31-3-64-1-48 1-39 3-35 5-29 6-25 5-38 9-45 12-31 10-8 2-6-1-3-3 2 5-9 2-7-3-7-8-10-13-22-22-7-8-16-16-7-8-7-7-11-9-16-15-15-15-7-8-11-12-13-14-2-3 1-10 5-15 17-33 9-19 13-38 12-36 8-22 7-25 8-38 4-25v-8l4-6 2-10 2-23v-43l-2-28-3-10-5-5v-4l2-1-2-21-8-41-5-23-7-24-7-26-12-37-10-31-7-20-13-27-9-16-1-7-2-12v-7l4-8 8-10 14-15 14-14 7-8 14-14 9-11 10-11 7-8 9-10 7-8 9-10 11-12 9-11 9-12z"/><path fill="#090D72" d="M696 61h8l28 6 32 11 25 10 35 12 58 17 35 8 15 3 14 2 16 1 22 3 30 2h24l33-3 33-4 36-7 24-6 27-9 18-5 23-12 25-10 25-12 15-5 11-1 8-1 11 4 6 5 9 13 13 19 14 20 15 20 10 14 14 19 12 16 8 13 10 19 3 11-1 12-11 28-7 23-16 53-14 56-6 25-4 23-2 20-1 28-5 14-1 6v86l2 37 6 50 6 34 8 31 14 45 12 35 8 24 7 20 4 15v10l-4 9-10 16-13 18-14 18-8 11-11 16-12 18-14 18-12 16-9 11-8 10-7 7-6 4-7-1-13-4-26-10-38-12-51-14-31-7-30-5-31-3-64-1-48 1-39 3-35 5-29 6-25 5-38 9-45 12-31 10-8 2-6-1-3-3 2 5-9 2-7-3-7-8-10-13-22-22-7-8-16-16-7-8-7-7-11-9-16-15-15-15-7-8-11-12-13-14-2-3 1-10 5-15 17-33 9-19 13-38 12-36 8-22 7-25 8-38 4-25v-8l4-6 2-10 2-23v-43l-2-28-3-10-5-5v-4l2-1-2-21-8-41-5-23-7-24-7-26-12-37-10-31-7-20-13-27-9-16-1-7-2-12v-7l4-8 8-10 14-15 14-14 7-8 14-14 9-11 10-11 7-8 9-10 7-8 9-10 11-12 9-11 9-12zm613 20l-16 8-23 12-30 12-29 11-43 12-42 10-41 7-29 4-28 2h-13l-39-3-37-5-38-7-53-13-24-6-30-10-46-17-27-11-10-3h-5l-8 10-6 8-11 13-14 15-9 10-9 11-13 15-9 10-11 12-15 16-9 11-14 15-2 3 15 45 15 38 14 39 17 56 9 40 5 33 8 58 2 24v37l-4 39-9 62-8 37-10 35-12 35-22 54-15 36-2 7v9l6 9 10 11 7 8 15 15 8 7 12 12 8 7 14 14 7 8 7 7 7 8 11 11 7 8 10 10 6 4 10-3 35-10 35-11 58-15 32-8 24-4 37-4 26-2 22-1h64l33 2 37 4 26 5 44 12 35 9 33 11 33 12 10 3 7-8 11-19 10-12 13-18 9-12 11-14 11-15 8-13 8-11 10-12 9-11 1-2v-16l-6-16-5-11-10-30-8-22-13-49-10-35-7-40-6-45-3-46v-38l2-34 3-32 6-45 6-31 13-55 6-28 7-24 10-28 7-21 8-18 1-11-3-8-7-11-9-14-13-18-15-22-14-19-10-13-8-10-9-10-7-9-6-16-4-3z"/><path fill="#090D72" d="M1254 303l4 2 15 25 10 14 3 10-6 7-5 5-3 5v13l7 1 5 4v-8l3-7 4-1 6 3 4 6v28l-3 9-9 9-6 5v6l4 2 7 11 4 18 4 31 1 11v27l-2 36-2 21-4 18-12 41-7 19-10 24-8 16-8 14-8 13-11 18-10 13-9 10-7 8-15 15-14 11-17 8-24 9-7 1-6-1-4 3-2-1 2-4 1-14 5-5 8-4 5-4 5-5 7-4 9-7-1-16-1-3v-8l3-9 2-4 4 2 8 5 1 3 9 1 4-4h2l2-4 6-10 4-5 7-11 7-10 5-10 3-9 1-11-5-4-8-3-7-2-2-5-7-8-2-1h-7l-5 4-3 10-3 13-10 14-3 4-4-1v6l-3 5-5-5-4-6 1-4 2-4 4-15 2-4v-6l-11 2-8 5-11 6-8 7-7 8-7 11-9 10-7 4-7 8-2 4v6l-2-1v-2l-5 3-4 3-9 5-10 9-11 9-4 5-12 6-18 8-13 5-13 8-5 5-2 3v6l3 3 7 1 17-3 9 1 13 5 5 5 1 3v11l2 5 5 1 5-8 4-10 9-10 4-8-4-4-11-2-9-6-2-2-1-8 5-8 3-2h24l2 6h5l1 3 1 16 2 3-2 9-6 16-8 15-3 11 5-1 9-5 5-5 4-5 5-14 7-18 3-12h-2l2-9 1-10-2-7-3-3h-12l-1-1 1-12 5-10 7 1h4l1 5 2-1v-6l5-8 7-11 4-4v-5l7-2 16-4 6-2 5 1 2 11-1 2-1 11-2 13-7-3 2 7 4 4 4 8-1 19-3 8-4 5-14-1-2 3-3 11-1 1-7-1-7-2v24l4 8 1 3 3-3 4-1-2 5-7 9-11 8-10 8-14 8-12 5-5 1h-15l-7 3-13 10-10 6-12 6-19 6-20 3h-25l-22-2-21-4-10-4-5-6-6-4 1-2 17 2 22 4h25l26-3 12-4 16-8 11-7 7-7 10-13 2-6-3-6-8-12v-2l-16 10-9 2-19-2 3 11 8 13 3 8-1 5-9 4-20 4h-21l-17-4h-39l-9 4-6 4-6 8-17 6-9 1h-12l-11-2-10-6-7-6-6-8-5-5-6-8-3-5 4-4 10 4 1 4 3 6 5 2 6-1 6 5h33l14-7h3l-3-7-8-10-2-5 1-7 10-5 18-4 17-5 7 2v6l10 19 2 1-2-5 6 2 7 4h10l6-4h2l-2-8-8-14-3-5v-8l3-5 2-1 9 1 3 5v9l-1 14 3 16 4 10 4 4h7l10-4 2-1-1-13-2-13-3-7-1-24 1-14 5-10 7-6 12-6 14-2 15-8 11-8 15-9 12-10 17-12 10-9 13-14 7-8 7-9h2l-1 5-2 4 5-4 1-3 13-2 3-3 2-3h3l2-4 4-6 1-6-1-6 3-5 6-3 22-1 9-3 3-6-1-7-1-18 4-14 3-18 3-5 2-2h9l4 3 4-1 2 7-2 11-4 8-6 8-1 2v8l4 10 6 7 4 2 4 5 2 1h12l2-10v-7l7-14 5-18 3-19 3-5 5 2 4 9-3 28-3 13-1 19-1 6 1 6-1 5 5-4 5-11 5-18 8-23 5-12 5-21 4-27 1-11v-15l-2-46-2-24-1-5-5-13-5-5-10-8-7-4-9-3-2-3-1-6v-9l3-21 3-14 4-9 3-15v-14l2-12v-6z"/><path fill="#090D72" d="M1324 65l4 1 5 4 9 13 13 19 14 20 15 20 10 14 14 19 12 16 8 13 10 19 3 11-1 12-11 28-7 23-16 53-14 56-6 25-4 23-2 20-1 28-5 14-2 21-2 7v19l-1 11v19l1 21 2 27 1 15 1 5 2 28 1 3v21l-1 7-3 6 2 10-2 5-5-1-3-7-3-16-2-3-7-45-4-35-2-35v-38l2-34 3-32 6-45 6-31 13-55 6-28 7-24 10-28 7-21 8-18 1-11-3-8-7-11-9-14-13-18-15-22-14-19-10-13-8-10-8-9v-9l-6-9-6-10-5-2 1-6 6-3 7 1v-3l-3-3z"/><path fill="#0A0E72" d="M982 469h14l2 1-2 6h10l3-1 1-2 11 1 8 4 1 4-2 10-7-2-2 2-3-5-5-6-6-2-13 5-7 7-9 4-6 5 1 6 1 3 7-1 5-3 7-2 4-6 2-4 2-1h7l2 3v5l-4 5-5 1 4 5h-2l2 4 4 1 2-4h7v1h-6l-2 10v8l-2 8h-4l-1-6 1-1-2-5 1-2h4l-3-2-1-7-5-2h-4l-3 4 4 4 3 5 1 7v12l-2 3h-8l-5-3-3-8-3-10 1-11-3-1-1-4-9-11-3-6v-2h-4l1 2v6l-2 4h3l-1 8 1 9h6l-1 3-5 5-6 10-1 12-3 7-2 1-1-6-4-2-1-9-5-7-4 2-1 7 5 9 3 9 2 5 4 2 14 9 2 2 15 3 10 1 9 4 3 9 4 4 2 1h8l7-1-1-14-4-8-7-1-3-1 3-4 2-5 1-4v-4l4 1 5 1 3-6 9-5 5-9h8l6 2 2-3 1 3 5 1v4l-2 1-1 3 2 1-9 4-10-1-2 3-2 17 1 7v9l-1 1v15l-4 5-7 3-13-1h-15l-4 3-7-1-1-2 2-9-18-5-7-1 6 8 4 3 10 4 2 4-2 3v6l-8 9-4 1h-9l-6-4-3-6-3-13-4-7h-3l-1 3-5 3-9-2-2-4 2-3h-2l1-3 7-5 4 1 2-3 7-1-4-5-3-1-1 4h-5l-2-4v-3h-2l-3-5-5-6 1-5 2-1-1-2-2-1v-3l-5 1-7 10-1 7 2 4h3l1-4 5 4 2 4 3 1 1 5-3 2-9-1-3-4h-2l-1 5h2l1 6-2 3 7-1 4-1 1 3v2l4 2v3l-6 3-9-1-3 2-2-2-1-7h-4l-3-1-3-6 1-9 4-7 2-7-3-1-6-12-5-5v-2l-4-2-4-6-10-2-9-6v-7l6-5 15-6 9-3 3-3h2l2-9 1-1h6l10 4 7 1 6 3 11-1 2-1 1-7-4-1h-16l-8-11-3-1-8 1-7-3-1-5 4-11 6-5 3-1h24l12 3 10 5 5 1 6 9 2 4 4 1 4-5 3-6-1-8-1-5h3v2l6-1 2 1z"/><path fill="#0A0E73" d="M1137 710l5 1 2 11-1 2-1 11-2 13-7-3 2 7 4 4 4 8-1 19-3 8-4 5-14-1-2 3-3 11-1 1-7-1-7-2v24l4 8 1 3 3-3 4-1-2 5-7 9-11 8-10 8-14 8-12 5-5 1h-15l-7 3-13 10-10 6-12 6-19 6-20 3h-25l-22-2-21-4-10-4-5-6-6-4 1-2 17 2 22 4h25l26-3 12-4 16-8 11-7 7-7 10-13 2-6-3-6-2-3 1-3v2l3-2 5-1 3-3h1l2 10 2 2h4l5-8 4-10 9-10 4-8-4-4-11-2-9-6-2-2-1-8 5-8 3-2h24l2 6h5l1 3 1 16 2 3-2 9-6 16-8 15-3 11 5-1 9-5 5-5 4-5 5-14 7-18 3-12h-2l2-9 1-10-2-7-3-3h-12l-1-1 1-12 5-10 7 1h4l1 5 2-1v-6l5-8 7-11 4-4v-5l7-2 16-4z"/><path fill="#CDF8FE" d="M1486 1146h6l5 5 1 2v11l-3 10 1 13 1 4 1 15 1 35 1 19-1 6-3 1h-9l-1-1-1-12-2-1-4 1-1 3h-5l-6-8-5 1-2 6-5 6-9 3-5 1h-8l-10-2-7-5-3-5v-3h-2l-1-2-5 2-5 6-5-1-3-3-6-9-1-6v-23l-2-2-1 27v26l-1 1h-10l-3-1-1-11-1-23-1-40-1-10 1-1h31l5 3 1 2 6-4 4-5h7l5 4v3l16-2 13 1 5 3 3 9 1 6 5-3 4-4 5-2h7l1-2h1l1-12v-16l-3-7 1-7z"/><path fill="#0A0E73" d="M1371 537h1l1 71 2 37 6 50 6 34 8 31 14 45 12 35 8 24 7 20 4 15v10l-4 9-10 16-13 18-14 18-8 11-11 16-12 18-14 18-12 16-9 11-8 10-7 7-6 4-7-1-8-2 2-4-1-1 1-2h3v-2l10-3 2-4 9-2 5-4 6-8 7-9 6-8 8-11 8-9 12-17 10-18 8-10 5-6 2-5h-3v2h-2l-2 5-4 3-1 5-5 5-4 1 2-7 2-3h2l1-3h2v-3l2-1 3-8 3-9 5-8h2l1-5 2-5-1-2 9-11 1-2v-16l-6-16-5-11-10-30-8-22-13-49-10-35-2-10v-5l2 2 4 20 3 3 3-1 1-4-2-9 3-6 1-7v-21l-2-13-1-18-1-5-2-33-1-9-1-21v-19l1-12v-18z"/><path fill="#FCFDFD" d="M1152 672l4 1v6l-4 10-3 14h-2l1 4 2 5-3 6-1 4-1 2h-2l-1-7-1-6-8 1-9 3-15 3v5l-7 8-8 14-1 3-1 5h-2l-1-5-9 1h-2l-4 8-1 12h12l5 5 1 12-4 13h2l-2 12-8 21-4 11-6 8-9 6-6 3-4-1 4-13 9-17 6-18-1-4-1-2-1-16-1-2-5-1-1-5h-24l-5 5-2 6 2 7 9 6 11 2 2 4 3 1-4 8-7 7-9 18-3 4-5-1-2-2-1-8v-7l-3-5-6-4-9-3-9-1-17 3-7-1-4-4v-6l6-8 12-7 10-5 13-5 20-9 5-4 5-6 14-11 7-6 9-5 3-3h4l1-6 11-11 8-6 7-9 6-9 12-13 10-6 11-6z"/><path fill="#0A6F6F" d="M377 1150l20 1 16 3 12 6 7 7 2 4v15l-2 8-1 3v7l3 11 4 10 1 11-2 11-6 8-8 6-11 4h-28l-12-3-2-4-1-8v-26l1-46 1-11v-12l2-4z"/><path fill="#076767" d="M492 1180h14l9 2 13-1 10-1 2 2 3 28 1 17v11l-3 17-3 6-3 2h-13l-11 3-3 1h-12l-14-2-10-6-8-8-6-12-1-4v-21l3-10 7-11 9-8 10-4z"/><path fill="#076566" d="M947 1374h19l25 1 3 7v73l-2 4-4 1-2-1-1-5-11 3-15 4h-9l-9-2-10-5-10-10-8-14-3-9v-8l3-13 6-11 6-7 12-6z"/><path fill="#0A0E72" d="M919 816l9 1 3 5v9l-1 14 3 16 4 10 4 4h7l10-4 2-1-1-13-1-5v-8h2v-3h26v2l-6 1-19-2 3 11 8 13 3 8-1 5-9 4-20 4h-21l-17-4h-39l-9 4-6 4-6 8-17 6-9 1h-12l-11-2-10-6-7-6-6-8-5-5-6-8-3-5 4-4 10 4 1 4 3 6 5 2 6-1 6 5h33l14-7h3l-3-7-8-10-2-5 1-7 10-5 18-4 17-5 7 2v6l10 19 2 1-2-5 6 2 7 4h10l6-4h2l-2-8-8-14-3-5v-8l3-5z"/><path fill="#0A0D56" d="M1383 423h3v8l-4 23-2 20-1 28-5 14-2 21-2 7v19l-1 11v19l1 21 2 27 1 15 1 5 2 28 1 3v21l-1 7-3 6 2 10-2 5-5-1-3-7-3-16-2-3-7-45-4-35-2-35v-38l2-34 3-32 6-45 2-4 1-6h1l2 15v5l3 3 3-6 4-18 3-6h2l1-5z"/><path fill="#076667" d="M838 1179h14l13 4 9 7 9 12 4 10v18l-4 13-8 10-9 8-13 5h-16l-13-4-9-7-8-9-6-13-1-5v-18l5-10 11-12 14-7z"/><path fill="#E9FEFE" d="M1088 1179h11l6 4 5 6 4 8 3 11 2 16 1 14v13l-1 10-2 4-7 2v1l-10 3-11 6h-7l-10-6-4-4-3-1v2h-9l-3-2-4-4-1-3v-37l1-13v-28h9l2 1 2 4 21-6z"/><path fill="#090D72" d="M957 493h4l6 11 8 9v3l2 1v11l5 17 5 3h8l1-2v-12l-2-9-3-4v-2l-4-2 4-1 1-3 8 1 2 2 1 7h2v2h-4l1 4 1 5-1 3v2h4l1-16 3-10 7-2 4-1 2 6 6 6v2l5-3 6 1 6 4 7 4 7 7 11 1v2l4 2 1 7-9 2-6 3-3-1 1-2-2-1v-4l-4-1-1-2-2 3-6-2-8-1-2 6-4 5-6 3h-2l-2 6-5 1-5-3 1 7-3 5-2 4 1 1 7 1 4 6 2 11-1 6-7 2h-8l-6-4-3-10-9-4-17-2-9-3-10-7-9-6-4-6-3-10-4-7 1-7 3-3 4 2 5 9v6l4 2 1 5 3-7 1-12 8-13 5-5h-6l-2-9v-5l2-3h-3l1-10z"/><path fill="#076567" d="M693 1178l10 1 10 4 8 6 6 9 4 8 2 8v14l-4 18-5 8-9 8-8 4-4 1h-16l-12-3-8-5-5-4-6-10-4-11-1-4v-17l3-10 8-11 7-6 13-6z"/><path fill="#094848" d="M1140 1374h22l11 4 9 7 7 11 4 12 1 8-3 16-5 10-7 8-14 9-4 1h-18l-9-3-6-4-9-8-6-10-4-9-1-4v-13l3-10 10-14 7-6 8-4z"/><path fill="#0D8282" d="M1531 1146l5 1 5 6 1 4v9l-1 10v9l1 4 11-8 8-3h15l4 4 5 12 13 39 4-1 5-8 7-19 5-11 5-12 5-4h15l1 4-12 30-5 12-10 21-8 16-6 13-3 8-5 7-8 5-3 1h-7l-3-1 3-9 8-17 3-11v-8l-5-12-8-20-8-17-8-9-7-3h-7l-2 10-1 11v53l-2 4-2 1h-13l-1-11-1-53-6-7-1-3v-10l9-16 1-5-1-2v-9z"/><path fill="#076667" d="M1300 1179h14l10 4 8 6 7 9 4 10 1 6v17l-3 14-6 9-9 8-10 4h-19l-9-1-10-7-8-9-5-11-2-9v-14l2-9 7-12 9-8 11-5z"/><path fill="#EEFEFE" d="M1186 661h7l11 11v4l11 2 8 5 2 2-1 11-6 16-9 13-7 11-8 11-5 8-6 5h-6l-5-5-11-7-1 4-3 9v8l2 11v8l-10 8-7 4-5 2-2-4 4-9 2-6 1-19-5-9v-2l-3-1-1-7 5 1 1 1 2-12 1-11h3v-7h2l2-5 4 2 2 2 2-4 1-6h4l12-17 3-13 3-10z"/><path fill="#0A0E73" d="M1115 691h2l-2 5-7 8-6 9-8 9-7 4-7 8-2 4v6l-2-1v-2l-5 3-4 3-9 5-10 9-11 9-4 5-12 6-18 8-13 5-13 8-5 5-2 3v6l3 3 7 1 17-3 9 1 13 5 5 5 1 3v7l-4-1-1 3-8 2-5-5-2-5-16 10h-15l-14-1v3h-3l-3-7-1-24 1-14 5-10 7-6 12-6 14-2 15-8 11-8 15-9 12-10 17-12 10-9 13-14 5-1 1-3-1 7 3-2 2-1 5 1 2-4h3l1-5 1-3 5-1z"/><path fill="#090D72" d="M1254 303l4 2 15 25 10 14 3 10-6 7-5 5-3 5v13l7 1 5 4v-8l3-7 4-1 6 3 4 6v28l-3 9-9 9-6 4-7-6-6-4h-9l-7-2-5-3-9-3-2-3-1-6v-9l3-21 3-14 4-9 3-15v-14l2-12v-6z"/><path fill="#EAFEFE" d="M1412 1177h7l5 4v3l3 2-5 10-3 10v7l7 8 5 3 13 5 9 7 1 1-1 7-5 3-6 1h-10l-20-6v9l-2-2-5 2-5 6-5-1-3-3-6-9-1-6v-23l-2-2-1 27v26l-1 1h-10l-3-1-1-11-1-23-1-40-1-10 1-1h31l5 3 1 2 6-4z"/><path fill="#076868" d="M823 1344h11l5 3 1 1-1 8-1 3v20l2 13 4-2 7-9 10-14 7-10 4-6 7-5 3-1h12l1 4-5 9-26 32-9 10v2h3l4 8 12 16 13 19 7 10 4 8h-7l-13-5-11-12-7-11-8-11-7-11-7-8 1-6-2-5-1 9 1 1 1 36v17l-2 6h-16l-1-18v-56l1-33 1-11z"/><path fill="#076768" d="M1013 1149l7 1 2 6-1 12v13l1 30-2 26-4 12-6 9-6 5-9 3h-18l-8-3-10-9-4-5-5-13-2-13-1-13 1-55 1-2 11-3 6 3 1 2v72l3 13 4 6 6 3h10l9-5 4-6 1-3 1-11v-72l3-2z"/><path fill="#090D72" d="M1253 489l4 1 1 3 6-1 2 10 4 10 3 5v18l-2 18-5 6-2 1-9 1-15 10-6 3-24-1-9-5-4-6-2-18 5-16 5-12 4-4 8-1 11 4 6 5v3l16 2 3-1 2-5 1-4-4-7v-13l-2-3z"/><path fill="#094B48" d="M1061 1372l10 1 6 4 6 9 5 13 2 10 1 10v36l-3 5-9 2-6-2-1-36-2-21-4-9-3-4-3-1h-14l-5 1-2 4-4 10-2 16v42l-1 1h-8l-5-2-1-2-1-15v-68l7-2 7 1 6 4 2 3 8-6 8-3z"/><path fill="#0D8282" d="M395 1164h11l7 4 4 12v12l-1 7 8 4 1 3h2l4 6v2h-5l-4 1-3 3 5 5 1 3v11l-3 5-13 6-7 2h-7l-6-5v-2h-2l-2-11v-9l-2-7-1-7-3 1-1-8-3-4v-9l4-16 4-4 8-2z"/><path fill="#076667" d="M562 1178h7l8 10 5 15 8 29 1 4 6-2 5-8 7-18 8-22 4-6 8-2h6l2 2-1 7-6 13-14 34-10 23-8 20-7 11-5 4-5 2h-7l-5-2-1-4 8-12 6-10 4-12-2-6-8-16-9-25-8-24 1-4z"/><path fill="#086868" d="M1088 1179h11l6 4 5 6 4 8 3 11 2 16 1 14v13l-1 10-2 4-4 1h-8l-1-1v-36l-2-15-6-18-11-2-11 2-5 5-4 11-1 6v30l1 8v9l-4 2-10-2-3-6v-37l1-13v-28h9l2 1 2 4 21-6z"/><path fill="#090D72" d="M1137 710l5 1 2 11-1 2-1 11-2 13-7-3 2 7 4 4 4 8v7l-2 1-1-8h-2l1 4-3-1v-6h-3l-2-3-12 1-1 3v13l4 12-1 6-3 3-6-1-7-7-1-6h-2v-10l-5-2h-6l-2 4-4-4h-12l-1-1 1-12 5-10 7 1h4l1 5 2-1v-6l5-8 7-11 4-4v-5l7-2 16-4z"/><path fill="#EAFEFE" d="M1021 1161h2l1 12 1 2h-2l1 12 2-2 1-11 4-5h2l-1 4-1 1v5l5-3 11 2 2 3 1 8v20l-1 13v37l2 5 3 3h-10l-4 6-3 2-8-1-13-7-2-7-7 1 6-8 5-12 2-12 1-26-1-22v-13z"/><path fill="#076667" d="M1172 1176l7 1 10 11 6 11 7 19 4 13 5 6 4-1 15-45 3-10 4-2h9l3 3-2 10-7 17-12 34-9 20-7 3-5-1-5-6-16-34-11-29-5-13-1-5z"/><path fill="#E9FEFE" d="M949 1389h9l14 3 5 3 3 6 1 6v10l-2 13-5 8-9 6-6 2h-11l-10-6-7-8-4-7-1-5v-8l4-9 8-9 7-4z"/><path fill="#EAFEFE" d="M493 1195h10l11 4 9 6 4 9v16l-3 10-8 7-10 4-10 1-10-3-9-6-4-7v-17l3-9 6-9 8-5z"/><path fill="#E5FEFE" d="M838 1195h10l10 4 9 8 3 7 1 11-3 13-5 6-12 7-3 1h-12l-8-4-9-9-3-6-1-5v-9l3-9 8-9z"/><path fill="#ECFEFE" d="M1000 1151l2 2 1 13v58l-1 11-4 8-5 4-6 3h-10l-7-4-4-6-3-13v-27h1l2 16 1 5 3-1 2-10 2-25-2-5-1-12 2-9 5-3h9l4 3-1 14 2 7 1 24 2 11 1 4 3-1 1-14z"/><path fill="#D8FEFE" d="M1145 1388h7l10 3 8 5 4 6 2 9v8l-2 10-5 8-11 7-4 2h-9l-9-4-8-9-3-7-1-5v-11l5-10 7-8 5-3z"/><path fill="#1F2587" d="M982 469h14l2 1-2 6h10l3-1 1-2 11 1 8 4 1 4-2 10-7-2-2 2-3-5-5-6-6-2-13 5-7 7-9 4-6 5 1 6 1 3 7-1 5-3 7-2 4-6 2-4 2-1h7l2 3v5l-4 5-5 1 4 5h-2l2 4 4 1 2-4h7v1h-6l-2 10v8l-2 8h-4l-1-6 1-1-2-5 1-2h4l-3-2-1-7-5-2h-4l-3 4 4 4 3 5 1 7v12l-2 3h-8l-5-3-3-8-3-10 1-11-3-1-1-4-9-11-3-6v-2h-4l1 2v6l-2 4h3l-1 8 1 9h6l-1 3-6 5-7-2v-2h-2l2-10h4v-7l-3-3 2-10-5 2-1 5-2 2-2-1v-5h4v-3l-3-3 4-5 2-4 3-1-3-2h4l6 9 2 4 4 1 4-5 3-6-1-8-1-5h3v2l6-1 2 1z"/><path fill="#A1FFFE" d="M689 1192h8l9 2 8 7 5 8 1 7h-39l-3 2v5l5 4 12 3 12-6 4-3 12 2 3 6-1 7-5 5-9 6-12 5h-13l-8-4-6-7-3-10v-12l3-17 8-7z"/><path fill="#A1FFFE" d="M1301 1193h10l9 2 6 5 5 8 1 7h-31l-8 2-2 2 1 5 8 4 10 1 14-7 5-2 6 1 2 1v11l-4 6-8 7-8 4-5 1h-15l-8-4-6-9-2-5v-20l3-10 4-5 8-4z"/><path fill="#094D4D" d="M1435 1182l18 1 5 3 3 9v10l-7-6-6-4-8-2-6 4-1 6 3 10 5 4 13 4 8 1 2 11v13l-4 10-5 6-9 3-5 1h-8l-10-2-7-5-4-8v-9l10 2 10 3h10l9-2 2-3v-5l-9-7-17-7-8-8-1-2v-7l5-15 4-6z"/><path fill="#FAFDFD" d="M957 493h4l6 11 8 9-4 7 1 6v16l-3 8-9 1-5 4-2 10 7 1 3 3v4l2-1 1-3 8 1 8 5 4 5v3l7 1 1-3 5 1v3l5-3h2v-2l6-2 5 5 2 5 1 12-1 2-7 2h-8l-6-4-3-10-9-4-17-2-9-3-10-7-9-6-4-6-3-10-4-7 1-7 3-3 4 2 5 9v6l4 2 1 5 3-7 1-12 8-13 5-5h-6l-2-9v-5l2-3h-3l1-10z"/><path fill="#181E83" d="M1419 916l4 3 2-2h4l3 8-16 23-14 18-8 11-13 18-10 16-10 13-13 17-8 10-10 13-9 10-9 7-7-1-8-2 2-4-1-1 1-2h3v-2l10-3 2-4 9-2 5-4 6-8 7-9 6-8 8-11 8-9 12-17 10-18 8-10 5-6 2-5h-3v2h-2l-2 5-4 3-1 5-5 5-4 1 2-7 2-3h2l1-3h2v-3l2-1 3-8 3-9 5-8h2l1-5 2-5-1-2 5-5 1 3-2 2 4-2z"/><path fill="#EAFEFE" d="M543 1178h16l2 7 12 37 8 19 6 11-3 12-4 8-2-1v-6l-2-4h-6l-3-3-3-7-8-6-5-12-2-4-3-1v9l-1 4h-2v-14l-3-39-1-9z"/><path fill="#FCFDFD" d="M1186 661h7l11 11v4l11 2 8 5 2 2-1 11-6 16-9 13-5 7-3-2-4 1-3-3v-6l1-5 1-15 2-8v-10l-10 6-7 8-4 7-8 7-5 2-1 2-3-1v-4l-2 1v-6h4l12-17 3-13 3-10z"/><path fill="#FBFCFC" d="M1152 672l4 1v6l-4 10-3 14h-2l1 4 2 5-3 6-1 4-1 2h-2l-1-7-1-6-8 1-9 3-15 3v5l-7 8-8 14-1 3-1 5h-2l-1-5-9 1-3-4v-7l3-5 7-8 9-6 8-10 6-9 12-13 10-6 11-6z"/><path fill="#C8F8FE" d="M1015 1375h2l1 8v61l1 17h-16l-8-1-3 1 1-6v-73l-1-4 2-1 2 5 8-2h10z"/><path fill="#076665" d="M947 1374h19l25 1 3 7v73l-2 4-4 1-2-1-1-5-11 3-15 4h-9v-1l13-2-1-4-7-3-1-1-10-1-13-13 1-4 7 8 9 5h11l9-4 7-5 4-10 1-9v-10l-2-9-4-4-10-3v-1h8l-3-5v-2h-2l-3-6v-2h-17z"/><path fill="#0E8282" d="M1629 1178h15l1 4-12 30-5 12-10 21-8 16-2 3v-2h-2v-3l-5-1-4-4v-16l-8-24v-2l-7 2-4-3-1-6 5-10v-7l2 3 14 42 4-1 5-8 7-19 5-11 5-12z"/><path fill="#0A0D56" d="M581 952l7 6 5 6 2 1v2l8 2 9 6 2 1 2-4 2-1v3l4 1v2l4 1v2h3l7 8 3 2v2l4 2 3 3v2l3 1v2l4 2v2l4 2 4 5 2 1v2l4 2 4 5 13 13 7 8 12 10v2l2 1 3 5-1 5-7-3v-2l-4-2-3-2 1 5-1 3-3-1-8-10-21-21-7-8-16-16-7-8-7-7-11-9-16-15-15-15z"/><path fill="#CAF8FE" d="M1495 1172h1l2 7 10 2h8l2 2v10l3 5 4 5 1 65-10-1-5-5-3-8-4-27-2-10-1-3h-2v16h-1l-2-39-2-11v-6z"/><path fill="#076667" d="M483 1183h16l3 3 1 4 8 1 7 5 1 4-7-1-9-3h-10l-8 4-5 5-5 9-1 5v17l4 7v3l5 2 8 4 1 8 5 2 1 3h-16l-10-6-8-8-6-12-1-4v-21l3-10 7-11 9-8z"/><path fill="#181E83" d="M1407 263l1 3 4 1 1 6-3 12-2 12-2 7h-2l1 4-3 3-2 7h-2v9l2 4-5 9-2 6h-2l-1 11-4 22-2 18-3 6-1 8-2 5-2 10-4 2v-3l-2-1 1-1-1-10h2l-1-3 1-2-3-1-1-5 10-43 6-27 8-26 8-22z"/><path fill="#090D72" d="M974 794l4 2-1 6-5 5-2 3v6l3 3 7 1 17-3 9 1 13 5 5 5 1 3v7l-4-1-1 3-8 2-5-5-2-5-16 10h-15l-14-1v3h-3l-3-7-1-24 1-14 2-3-1 7h3l1 4-1 2h7l2-6h-2l2-5z"/><path fill="#0A0E72" d="M764 862l11 4 1 4 3 6 5 2 6-1 6 5h33l2-1h6v3l4-1 7-2 2 6 6-2 5-2-2 4-6 4-6 8-17 6-9 1h-12l-11-2-10-6-7-6-6-8-5-5-6-8-3-5z"/><path fill="#076868" d="M779 1179l6 1 6 5-1 5-3 6-13 4-4 5-1 6v33l1 8v13l-2 3h-9l-3-1-1-2-1-13-1-29v-39l4-2 17-2z"/><path fill="#0A7170" d="M1061 1372l10 1 6 4 6 9 5 13 2 10 1 10v36l-3 5-9 2-6-2-1-36-2-21-4-9-3-4-3-1h-17l2-4 4-1v-2l6-1 9 1 4-2 1-6-11 1-2 1h-6l2-2z"/><path fill="#EBFEFE" d="M875 1404l8 1 9 3 7 2 4 6 6 16 5 8 4 3v2h2l3 7v7l-7 3-15 2h-2v-2h-2l-8-13-13-18-5-8 5 1-1-6-1-5v-7z"/><path fill="#076565" d="M1365 1181h31l5 3 2 3-1 4-3 6-13 4-3 4-2 13v21l1 16v11l-1 1h-10l-3-1-1-11-1-23-1-40-1-10z"/><path fill="#076666" d="M1144 1148h8l3 2v2l3 1-2 6-4 8v14l3 7 1 50 1 26-4 3h-10l-1-1-1-8v-80l1-10-1-11-1-1v-5z"/><path fill="#0A0E72" d="M1051 542l2 1v2l5 1v4l-2 1-1 3 2 1-9 4-10-1-2 3-2 17 1 7v9l-1 1v15l-4 5-7 3h-4l-3-9-6-1v-4l9-2-1-14-4-8-7-1-3-1 3-4 2-5 1-4v-4l4 1 5 1 3-6 9-5 5-9h8l6 2z"/><path fill="#0A706F" d="M959 1150l7 3 1 2-1 72-2-3-1-4-1 9v7l3 5-1 4-5-2-3-3-4-14-2-1v5h-1l-2-20 1-55 1-2z"/><path fill="#086066" d="M1576 1183l5 1 2 8-1 5-4 8 1 6 4 2 6-1 9 26v16l1 3 7 2v3h2l-1 6-3 6-3 8-5 7-8 5-3 1h-7l-3-1 3-9 8-17 3-11v-8l-5-12-8-20-6-13v-2h3v-14z"/><path fill="#076666" d="M1049 1181h9l2 1 2 4 10-3 3 1h-2l2 5-1 7-5 5-4 11-1 6v30l1 8v9l-4 2-10-2-3-6v-37l1-13z"/><path fill="#0A0D56" d="M620 777h1v7l-1 9 1 8-1 7-12 30-11 27-15 36-4 14-1-3h-2v-11l2-15v-8l2-7h2v-6h2l2-4 4-5v-5l2-2 3-9 2-8h2v-2h2l1-4 3-9 2-1 1-7 1-5 1-8 3-7h2l1-7h2l2-4z"/><path fill="#E5FEFE" d="M434 1171h1l1 5v12l9 3 5 6 5 13v3h2l1 22 4 10 5 9-9 1-4 1h-7l-6-9-5 2 2-15-2-12-5-13-1-5v-7l2-5z"/><path fill="#0B0E59" d="M626 452l3 3 2 6 3 11 1 7 1 5 1 15 7 28 1 8 2 12v9l1 16 1 8-1 6v12l-1 3v9l-3 21-1 4-1 19-6 16-1 11-2 3-2 9h-3l1-10 4-25v-8l4-6 2-10 2-23v-43l-2-28-3-10-5-5v-4l2-1-2-21-6-32-1-12z"/><path fill="#094849" d="M1486 1146h6l5 5 1 2v11l-3 10 1 13 1 4 1 15 1 35 1 19-1 6-3 1h-9l-1-1v-66l-1-10 1-12v-16l-3-7 1-7z"/><path fill="#0A0D57" d="M585 316l4 2 1 5 5 2 4 10 5 8 1 5 2 5 2 9h2l3 8 1 9 3 8 4 14 6 16 1 7-2 3-1 5-7-2-2-4-2-1-11-40-12-37-8-24v-7z"/><path fill="#08696A" d="M410 1154l5 1 10 5 7 7 2 4v15l-2 8-1 3v7l3 11 4 10 1 11-2 11-6 8-2-4v-2l-7-1-2-4 5-5v-15l-7-5 1-2h2l1-3h3l2-2 4 2-4-6v-2h-2l-2-3-7-3-1-2 1-6v-12l-3-8-2-10-2-4-2-2z"/><path fill="#C8F8FE" d="M1329 1186l5 1 10 6 2 1 9 1 4 4 4 6v2h2l2 25 1 23v12l-2-1-1-16-1-2-8 3-3-2v-2h-3l-2-3h-5l-3 5-2-1 3-7 2-10v-17l-3-12-7-11z"/><path fill="#076666" d="M822 1388l7 1v2h2l3 7 2 5 1 1 1 36v17l-2 6h-16v-73z"/><path fill="#0A0E73" d="M1198 683h1v11l-2 8-2 16-9 13-10 8-2 1h-7l-7-6-1-2v-14l4-2 2-4 7-3 7-8 3-5 7-8z"/><path fill="#EBFEFE" d="M784 1196l3 2 1 3 5 5 2 11v13l4 9-4 10-4 1-9-2-5-5-3-8-3-1-1 14-2-4v-33l2-8 4-4z"/><path fill="#E8FEFE" d="M1151 1167h2v8l5-1 1-2 6 2 1 3 3 1 6 15 6 17-1 3v31l-5 1-5-2-5-16-4-18-2-4v-4h-2v2h-2l-1-15-3-7z"/><path fill="#D8FEFE" d="M392 1211l8 1 18 6 6 5 1 3v11l-3 5-13 6-7 2h-7l-6-5-2-7v-15l4-11z"/><path fill="#094C4C" d="M693 1178l10 1 10 4 8 6 6 9 4 8v13l-1 3h-7l-7-2v-3l3-1-1-7-6-9-6-5-9-2h-8l-9 3-7 2-6-2v2h-2l-1 2-2 2h-4l-1 2-2-2 6-9 8-7 13-6z"/><path fill="#090D72" d="M1244 447h16l7 3 3 8v5l-1 1-1 9-3 5h-2l1 6-4 1v3l-4-1-6-1-3-9-6-3-7-2-3-3-2-6 1-7 10-7z"/><path fill="#181E83" d="M1311 61l7 1 7 2-1 3 3 3-1 2h-7l-6 2v6l5 2 4 6 7 12 1 5-2 4-7-9-6-16-3-2-5 1-16 8-21 11-27 11-9 1-3-1v-2l15-10 10-2h2l2-4 9-6h3l3-3h2v3l6-2 5-5 5-4 6-2 1-1-1-11 4-1z"/><path fill="#FAFDFD" d="M1013 519l5 1 6 4 8 8 3 6v8l-4 7-7 4h-2l-2 6-5 1-5-3 1 7-7 7-7 3h-3l-1-3-1-10 4-12-2-1 5-1 1 2-1 3h8l4-24 2-4-1-7z"/><path fill="#094A48" d="M851 1397h4v5h3l4 8 12 16 13 19 7 10 4 8h-7l-13-5-11-12-7-11-8-11-7-11-4-5-1-5 6 2z"/><path fill="#181E83" d="M999 492h7l2 3v5l-4 5-5 1 4 5h-2l2 4 4 1 2-4h7v1h-6l-2 10v8l-2 8h-4l-1-6 1-1-2-5 1-2h4l-3-2-1-7-5-2h-4l-3 4 4 4 3 5 1 7v12l-2 3h-8l-5-3-3-8-3-10 1-11-3-1-1-4-5-7 2-2 2 6 7-1 5-3 7-2 4-6 2-4z"/><path fill="#ECFEFE" d="M1145 1391h11l9 3 8 6 1 14h-6l-3-5-5-3-5-1 2 9-3 5-2 2h-10l-2-2-4-1-1 6-4 3-5-2v-17l5-7h2l2-4 8-5z"/><path fill="#181E83" d="M575 228l4 1-2 4 15 45 15 38 14 39 7 23-1 3-7-18-5-15-4-6-3-3-3-10-2-1-3-11 1-7-4-11-5-2-4-8-7-20-3-11-2-3 1-5-4-1-1 6-1 1h-6l-2-5 1-2v-6h-3v-6l6-5 4-2h4z"/><path fill="#181E83" d="M1242 576l5 2 4 9-3 28-3 13-1 19-1 6 1 6-1 5 4-2-2 4-3 1-1-5v-13l1-13-3-1-2 4-3 5h-2l-1 2-3-2v-4l-2 1-2 9-1 1h-13v-1l12-1 2-10v-7l7-14 5-18 3-19z"/><path fill="#FBFDFD" d="M1186 661h7l11 11v4l7 1v2l-4 1 6 5 2 5-8-6-3-3-1 2h-2l1 6-2 1-1-8-3 3-9 6-6 7-4 7-8 7-5 2-1 2-3-1v-4l-2 1v-6h4l12-17 3-13 3-10z"/><path fill="#094845" d="M1008 1158l9 1 2 1 2 49-1 28-3 8-2 3h-3v-5l-2-1 1-6-2-13-2-46v-18z"/><path fill="#C9F8FE" d="M1141 1157h1l1 14-1 7v80l1 9-5-1-3-1h-6l-5-8-3-2-2 9-2 1 2-14v-16h3l3-9 4-7 1-1h8l1-10 1-34z"/><path fill="#086868" d="M823 1344h11l5 3 1 1-1 8-1 3v20l2 13 4-1-2 4-1 12-3-2 1-6-2-5-2 8-2-4-2-7h-2v-2h-7l-1 1-1 55h-1v-56l1-33 1-11z"/><path fill="#D6FEFE" d="M396 1166h9l7 3 4 7 1 4v12l-2 5-1 1h-23l-3-3v-13l3-12z"/><path fill="#0A0E73" d="M1184 578h9l4 3 4-1 2 7-2 11-4 8-6 8-3 5-3 1-1 2h-2l-1-6h2v-4l-4 1-2 5-4 2v-7l3-10 3-18 3-5z"/><path fill="#D7FEFE" d="M688 1195h15l8 3 6 7 3 7v4h-39l-3 2-6-1 1-8 6-9 6-4z"/><path fill="#1A1F83" d="M1018 510h3l2 6 6 6v2l5-3 6 1 6 4 7 4 7 7 11 1v2l4 2 1 7-9 2-6 3-3-1 1-2-2-1v-4l-4-1-1-2-2 3-6-2-8-1-1 2-2-10-9-10-8-5-3-1v5l1 4-3-3 1-7 5-1 1-3h-2z"/><path fill="#086869" d="M562 1178h7l8 10 5 15 5 18v12l-5 5-4-1-9-24-10-30 1-4z"/><path fill="#09484A" d="M589 1250h6l1 3v4l7 1v7l-7 16-7 9-8 4h-7l-5-2-1-4 8-12 6-10 4-9z"/><path fill="#094845" d="M984 1379h7l2 4 1 23v25l-1 17-5-1-8-4v-15l1-6 1-38z"/><path fill="#ECFEFF" d="M592 1191l9 1 4 4 1 5 5 1 1-2-1 5-6 17-6 11-3 3h-5l-3-8-7-25 1-3 1 6 8-2-1-12z"/><path fill="#094C4A" d="M1300 1179h14l10 4 8 6 3 3-1 2-5-4 2 7h2l3 10h-2l-3-5v3h-3l-6-8-4-2-7-1h-10l-9 3-6 1-2-2-6-1-3 2-2-2 8-9 11-5z"/><path fill="#FBFDFD" d="M845 1197l8 1 10 7 3 3 1 9-5 1-7-6-6-3h-10l-6 4-4 5-1 4v11l7 8v3l-3 1-8-5v-2l-4-2-1-6h-2v-18l5-5 11-4 8-5z"/><path fill="#D8FEFE" d="M716 1185l4 1 3 3v2l3 1 1 5 5 2v2h10l4 4 5 8 1-10h1l1 22-1 8-4 1-3 9-2 2-4-1-3-10h-3l-1 2h-2l1-8v-14l-4-13-7-11z"/><path fill="#EAFEFE" d="M753 1225h1l1 27 1 15-2-1v-2l-7 2h-8l-10-4-2-4h-7l6-8 4-11 1-3h2l1-3 4 1 3 10 4-1 4-9 4-1z"/><path fill="#086768" d="M1412 1242l10 2 10 3h10l8-1v2l-6 2h18l-2 6-5 6-9 3-5 1h-8l-10-2-7-5-4-8z"/><path fill="#086367" d="M669 1195l4 2 4 1-4 4-3 17v12l2 9-3-1v-2h-3l-2 7-5-3h-5l-3-11v-17l3-10 8-1 1-3 4-1v-2z"/><path fill="#262C8B" d="M915 563l4 1 2 3 2 1-1 3-2 1 1 6 6 6v3h2l2 6 5 1 1-4 4 1 5 6-9 1-2 3-5-1-6 5-1 2h2l-1 5 2 3-4 1v-4l-4-1-2-2 1-4-4 2h-7l1-9h-2v-5h4l2 4h9l2-1v-5l-4-1-3-5-3-1-1 3-4-1-2-4 1-7 8-11z"/><path fill="#0A6F6E" d="M492 1180h14l9 2 17-1v2l3 1 1 7-2 13v8l-2 7-2 2-2 8h-1l-1-15-5-10-5-4 2-1v-3l-4-2-7-3-4-1-2-6h-21l2-2z"/><path fill="#E9FEFE" d="M1482 1150h1l4 12v16l-1 12-2 3-1-1-9 2-5 1-2 4-4 2-1 5h-1l-2-15-3-6-2-2h3l-1-5-4-4 2-4 5-2 12-2 5 3 3 10 3 7 3 1-1-25-2-5z"/><path fill="#094745" d="M1328 1188l8 6 5 8 2 9-2 3h-2v6l-4 2-6-1-7 3-12 6-10-1-8-4-2-3 1-4 4-3 8-1 29 1-3-13h3l2 5h2l-3-7v-3h-2z"/><path fill="#A1FFFE" d="M1440 1192l10 3 10 9 2 2 3 20v21l-2 3v-17l-1-11h-8l-13-4-6-5-3-10 1-6 5-4z"/><path fill="#09484A" d="M755 1184h3v4l3 1 1 8-2 8-1 5-1 11 2 11v6l3 4 3-2 3 4 1 8v13l-2 3h-9l-3-1-1-2-1-13v-67z"/><path fill="#191F84" d="M967 133h9l26 2 12 1h36l-1 4-8 3-11 2-6-1-4 1h-10l-3 1-10-1h-25l-4-6z"/><path fill="#086969" d="M868 1235l2 4 2 1-2 5-1 2h-2l-2 10 4 2-10 5-6 2h-16l-11-3 3-1-3-12-10-10 1-2 4 2 7 7 8 4h12l12-6 5-4z"/><path fill="#D9FEFE" d="M1410 1223l7 2 15 8 1 1 14 1h4l3 2-1 7-5 3-6 1h-10l-17-5-5 1-2-11h-2v-7z"/><path fill="#0D8282" d="M522 1241l5 4 3 7 1 9h6l-2 2h-13l-11 3-3 1h-12l-7-1v-1l8-1v-2l-5-2-2-8-12-6 1-2 12 6 11 1 12-4z"/><path fill="#181E83" d="M997 817l9 1 13 5 5 5 1 3v7l-4-1-1 3-8 2-5-5-2-5-14 9-2-1 4-4 1-3-4-1-4-4-3-5-3-3z"/><path fill="#181E83" d="M878 118l8 2 3 1 7-1 24 6 26 4 16 1v3l-5 1h-13l-3-1v-2l-20 1-4 1-17-1-2-1v2l-6 1-4-1-15-3-1-2 7-2-2-7z"/><path fill="#EBFEFE" d="M1124 1176l4 1 2 5v10l4 3 4-1 1-8h1v22l-2 10-8 1-4 7-3 7-1 2h-3l-2-22 4 1 3-9 1-5v-7l-5-8v-6z"/><path fill="#086769" d="M424 1223l2 1v15l-5 5 1 3 7 1 1 3v5l-9 6-10 3h-27l-5-1-1-2-5-1-2-7 4 1 2 2v3l6-1 7 1 4-2 2-5 5-2 1-2 12-4 9-5 1-3z"/><path fill="#EBFEFE" d="M1364 1242h1l2 26-7 2h-7l-13-5-5-5h-5l2-4 6-7 3-3 2-3h5l2 4h3v2l4 1 6-2z"/><path fill="#085F68" d="M1576 1183l5 1 2 8-1 5-4 8 1 6 4 2 6-1 9 26v8l-6 1-4-2-7-15-5-13-6-13v-2h3v-14z"/><path fill="#CBF8FE" d="M1298 1195h16l6 3 3 5v7l-4 3-24 3-3 2-5-1-1-7 3-10 6-4z"/><path fill="#0A0D57" d="M1344 114l4 1 8 7 1 5 8 4 1 3h2l3 11 3 5 2 11 3 4 2 5 3 3-1 3 1 4-3-1-12-18-14-19-9-12-1-12z"/><path fill="#0A0E58" d="M1364 980l1 3-2 1-1 8-3 4h-2l-2 6-2 4-5 5h-2l-1 5-2 1-1 4h-2l-1 6-2 1-3 5-7 11-4 3-4 7-4 3-7 1 1-4 5-6 11-19 10-12 13-18 9-12 4-5z"/><path fill="#0A6F6E" d="M1049 1181h9l2 1 2 4 10-3 3 1h-2l2 5-1 7-5 5-4 11-1 6-1 29h-1l-2-26h-2l-1-4 3-2h-3l-2-6 1-4-2-9h-2l-1 11h-1z"/><path fill="#FBFDFD" d="M1126 747l4 1-1 7-4 3-6 1-1 3v13l4 12-1 6-3 3-6-1-7-7-2-6v-11l2-12 5-1 7-1v-2h3l2-4z"/><path fill="#094847" d="M880 1205l5 1 2 6v18l-4 13-8 10-5 5-5-1 1-8 1-2h2l2-5 1-2-3-1 1-7 3-13 4-1v-4l3-2v-4z"/><path fill="#D6FEFE" d="M1329 1186l5 1 10 6 2 1 9 1 4 4 4 6v2h2l2 25 1 23v12l-2-1-1-16-1-2-8 3-3-3 5-2 2-10-1-1h-1v-20l-4-7v-2l-7 1-3-3-6-10-6-4z"/><path fill="#EBFEFF" d="M1046 1388h14l5 3v3l-2-2-10-1-1 6 6 2 3 5-1 12-2 5-2 2-6-1-4-2-1-3 1-16 1-3-10 3-2 9-1 42h-1l-1-8v-24l2-16 4-10 5-5z"/><path fill="#EDFEFE" d="M1083 810l2 3-1 6-5 13-4 11-6 8-9 6-6 3-4-1 4-13 9-17 5-15 3 1-1 14-1 9-2 4-1 6 2-1 3-9 2-5 1-11 3-10 1 2 4-1z"/><path fill="#090D72" d="M982 780h10l2 3-1 2h-3v9l-11 7h-3l1-5h-4l-6 3-2 4h2l-1 6-2 2-6-2v-6h-3l1-9 4-6 8-6h6l-1 4h3l2-5z"/><path fill="#0A0D57" d="M832 886l5 1 3 14-10 4-9 1h-12l-11-2 4-8-2-2 3-3h9l16-3h4z"/><path fill="#0B0F5E" d="M959 435h7l3 3 2 5-4 1 3 5-1 9-2 9 2 3-9 2-5 4-5 2 1-14 3-7-1-10 5-11z"/><path fill="#181E83" d="M971 542l1 2 4-1 3 5v7l-1 4 9 1 2 4-5 3-10 1v2l-8-1-1 4h-2l-2-5-8-3v-8l4-5 3-2h9z"/><path fill="#FBFDFD" d="M1010 578l5 2 4 8 1 12-1 2-7 2h-8l-6-4-3-10-9-4-10-1v-1h8v-4h2v3l7 1 1-3 5 1v3l5-3h2v-2z"/><path fill="#0A494F" d="M1341 1211h2l1 3v17l-3 14-6 9-4 4-10-1-5-2h-2v2h-4v2l-8-1v-2l-5-2v-1l20-2v-2l11-6 7-8 1-2 1-12 2-7 2-2z"/><path fill="#090D72" d="M1042 781l9 1v2l4 2v2h3l-2 6v2l3 1-2 3 1 4-3 6-5-2-11-2-9-6-2-2 1-5 2-3 4 1 3 2 2-6 1-5z"/><path fill="#086366" d="M853 1424l5 3v2l8 4 1-3 2 1v3l4 1 4 5 3 1v2h2l-5-8 1-3 12 17 8 13v1h-7l-13-5-11-12-7-11-7-9z"/><path fill="#090D56" d="M992 513l8 1 2 2 1 7h2v2h-4l1 4 1 5-1 3v2h4l1-16 3-10h6l2 1-1 4h-4l-1 7 1 1v5l-1 1-4 24-4 1-5-7-2-1-2-22-4-6v-2l-4-2 4-1z"/><path fill="#182282" d="M415 1196l2 4 7 3 1 3h2l4 6v2h-5l-4 1-3 3-9-2-12-5-6-1 1-10 2-1 19-2z"/><path fill="#EAFEFE" d="M1412 1177h7l5 4v3l3 2-5 10-2 1-1 4-5 2-4-4v2l5 5 1 2-1 5-2-1v-3h-2l-6-8-4-1 1-2-6 1 3-3 2-5 3-7 4-2z"/><path fill="#FDFDFD" d="M985 518l7 3 4 6 1 7v12l-2 3h-8l-5-3-3-8-3-10 1-8 1-1z"/><path fill="#EDFEFE" d="M957 493h4l6 11 8 9-4 7 1 6v16l-5 5-2-4 1-9-1-4-5 4h-2l-2 4-2 2 1-5 6-9 4-4h-6l-2-9v-5l2-3h-3l1-10z"/><path fill="#0D8282" d="M1144 1148h8l3 2v2l3 1-2 6-4 8v14l1 6-4-1-3-1-1-6h-2l1 6-1 3-1 70h-1v-80l1-10-1-11-1-1v-5z"/><path fill="#094C4C" d="M426 1212l8 3 4 10 1 11-2 11-6 8-2-4v-2l-7-1-2-4 5-5v-15l-7-5 1-2h2l1-3h3z"/><path fill="#FBFDFD" d="M1013 519l5 1 6 4 8 8 3 6v8l-2 3-1-2 1-2-10 2-2-1-1-4-2-1-2 4-4 3h-2l-1 4v-8l2-12 2-4-1-7z"/><path fill="#181E83" d="M1035 780h24l2 6h5l1 3 1 16 1 3-7 3 1 4-5 1-4-1v-3l-2-1 1-2 2 1 2-6-1-5 2-2-3-3 3-6h-3l-4-4v-2h-9l-1 5-2 6h-3l-2-2h-3l-3 4-1-5 5-8z"/><path fill="#094C4F" d="M1439 1216l15 5 8 1 2 11v13l-1 4-2 1h-19l2-2 6-1 2-4 1-7-10-8-2-3 1-7-3-1z"/><path fill="#181E83" d="M1407 263l1 3 4 1 1 6-3 12-2 12-2 7h-2l1 4-3 3-2 7h-2v6h-2l-1 2-1-1 1-7 2-6-2-1 1-8-1-5z"/><path fill="#0E8383" d="M1389 1181h7l5 3 2 3-1 4-3 6-13 4-3 4-2 4-1-5h-2l-2-6-1-16z"/><path fill="#0B0F73" d="M898 581l2 4 4 2 1 3h-4l1 5 2 1v2h3l1 6-2 3 7-1 4-1 1 3v2l4 2v3l-6 3-9-1-3 2-2-2-1-7h-4l-3-1-3-6 1-9 4-7z"/><path fill="#E4FEFE" d="M1499 1214h2l3 6 4 29 2 9 4 7 9 2v1l-14 1-10-2-1-37z"/><path fill="#EFFEFE" d="M1195 717l1 3-1 2v6l3 2 4-1 1 5-4 6-4 5-5-1-8 5h-7l-5-5-1-2 4-1 4-4 9-7z"/><path fill="#FCFDFD" d="M901 535h7l5 4 3 6 1 14-2 3-8-1-5-5-6-7-1-5 1-5v-3z"/><path fill="#0A6F6E" d="M882 1345h12l1 4-3 6-1-3h-5l-4 6-4 7-7 10-2 4-2 1-1 3-2 1-1 4-3 4-5-2-1-7h2l1-6 5-4h3l4-1 1-5 3-9h2v-2h2l1-5 1-2-4 1 4-4z"/><path fill="#0E8383" d="M959 1150l7 3 1 2v15h-1l-1-7-6 9-8 3-1 10-1 38h-1l-1-13 1-55 1-2z"/><path fill="#181E83" d="M1173 113l4 1-1 4-9 1-4 4-1 5-5 2-6 2h-8l-10 1-5-2-3-3-4-2 36-8z"/><path fill="#EBFEFE" d="M1465 1248l4 2 4 6h5l3-3 3-1 2-4 1 20-8 2h-8l-6-4-4-6-7 4-2-1 6-5 4-8z"/><path fill="#0A0F70" d="M1047 530l5 1 4 4 4 2 11 1v2l4 2 1 7-9 2-6 3-3-1 1-2-2-1v-4l-4-1-1-2-2 3-11-3v-1h5l-1-5z"/><path fill="#0D8081" d="M1486 1146h6l5 5 1 2v11l-3 10v13l-3-4h-4l-1 7h-1v-28l-3-7 1-7z"/><path fill="#076767" d="M585 1258l1 4-1 2 4-1 3 5 1 9-2 3h-2v3l-4 4-4 1-3 5-4 1-5-2-1-4 8-12 6-10z"/><path fill="#0A444D" d="M681 1215h16l10 1 2 1v6l-5 4-9 4-12-3-6-5v-5z"/><path fill="#0A6E6F" d="M779 1179l6 1 6 5-1 5-3 6-13 4-4 5-1 6h-1l-1-12-1-2v-6l2-2h3v-3h2v-3l-5-1v-1z"/><path fill="#0E8383" d="M1561 1178h15l4 4-1 2-3 1-1 2-1 1v14l-2 1-3-1-6-8-5-4-5-2h-7l5-6z"/><path fill="#222989" d="M952 480l4 2 4 7 3 3v2l2 1h-2l-1 2-1-4h-4l1 2v6l-2 4h3l-1 8 1 9h6l-1 3-6 5-7-2v-2h-2l2-10h4v-7l-3-3 2-10-5 2-1 5-2 2-2-1v-5h4v-3l-3-3 4-5 2-4 3-1-3-2z"/><path fill="#076969" d="M1061 1372l10 1 6 4 2 2v6h2l-1 6-4 1-1 3-10-5-5-1h-17l2-4 4-1v-2l6-1 9 1 4-2 1-6-11 1-2 1h-6l2-2z"/><path fill="#0A7272" d="M432 1169l2 2v15l-2 8-1 3v7l2 11-3-3-3-4v-2h-2l-2-3-7-3-1-2 1-6v-16h2l2 3 3 2 2 3v3l6-1z"/><path fill="#FCFDFD" d="M915 563l4 1 2 3 2 1-1 3-2 1 1 6 6 6 1 8-9-1-4-6-3-1-1 3-4-1-2-4 1-7 8-11z"/><path fill="#FCFDFD" d="M1161 735l6 4 7 1-1 2-3 1 3 3v2h9l8-5 4 2-2 6-9 9h-6l-5-5-11-7-1-10z"/><path fill="#D5FDFE" d="M837 1393h1l2 9v4l9 11 6 10v3l-4 1-2 2-5-1-5-2-1 10h-1l-1-36-1-1 1-9z"/><path fill="#E9FEFE" d="M454 1236h4l9 18-9 1-4 1h-7l-6-9-5 2 1-4h2l1-5 2-3 6 3h3z"/><path fill="#ECFEFF" d="M721 1187l18 2 7 3 5 5 1-9h1v15l-1 13-3-4-5-9-4-1-8-1-6-6-1-3-4-4z"/><path fill="#181E83" d="M1009 765h2l2 4-1 2 2 1v2l-6 1-2-1-1 2-4 1v2l2 1-3 3 2 4-2 2-3 2-7 2-1-6 1-2h3l-1-4h-10l-4 1-2 4h-3l1-4-4-1 8-4 14-2 15-8z"/><path fill="#0A7271" d="M931 1432l5 5 8 6 4 2h11l9-3-2 4h2v2h3v3l10-1 7 2-1 6h5l-4 2-2-1-1-5-11 3-15 4h-9v-1l13-2-1-4-7-3-1-1-10-1-13-13z"/><path fill="#192084" d="M1133 656l1 2v11l-1 10 1 2-9 5-8 6-5 2-3 1-2-1-1 5-1 3h-3l-2 5-6-1v2h-4v-4l-4 1 2-4 7-7 4-6h2l-1 5-2 4 5-4 1-3 13-2 3-3 2-3h3l2-4 4-6 1-6-1-6z"/><path fill="#086969" d="M1123 1387h6v4l7 1-6 8-5 10v11l1 8-3-2-2-12-4-1-2-6 1-10 4-6z"/><path fill="#A1FEFE" d="M581 1200l2 2 5 14 14-1 3-1 2-4 4-10 1 3-7 19-6 11-3 3h-5l-3-8-7-25z"/><path fill="#181E83" d="M1212 511l8 1 9 4 5 4v3l16 2 3-1 2-5 1 2-2 5-4 2h-11l-11-4-12 1-1-6-4 1-1 2-5 2-2-4 4-6z"/><path fill="#D5FDFE" d="M1223 1209l1 3-8 24-2 2-4-1-5-6-4-13 1-3v2l7-1 3-2 11-3z"/><path fill="#191F83" d="M764 862l11 4 1 4 3 6 5 2 6-1 6 5-4 3h-7l-2 4-3 1-5-6-5-5-6-8-3-5z"/><path fill="#171D82" d="M696 61h8l6 1 1 4-9 1-5 4-3 3-2 1-2 3-1-1-3 7-3 5h-2v3l-5 4-4 5h-2l-1 3-4-1 1-2h2l2-4 3-4h2l2-4v-1l-3-1 10-11 7-10z"/><path fill="#A1FFFE" d="M1145 1388h7l10 3 8 5v3l-5-4-9-3h-11l-9 5-8 9-1 2v17l5 8 7 6 6 3h7l9-3 8-6 4-8 2-14h1v8l-2 10-5 8-11 7-4 2h-9l-9-4-8-9-3-7-1-5v-11l5-10 7-8 5-3z"/><path fill="#0A7474" d="M1013 1149l7 1 2 6-1 12v13l1 30-1 18h-1v-24l-1-19v-26l-11-1-1 67-1 9h-1v-83l3-2z"/><path fill="#202687" d="M988 595l4 1-1 1 4 3-2 2-4 1 1 4 6-1v-2l3 1v3l5-1 4 2 1 3-5 1-7-1-8 1-4-5-18-5-7-1 6 8 4 3 6 2-3 2-6 1-2-3-1-4-5-4-3-4v-4l7-1 13 5 5 1 2-1 2 1-1-5 2 1 1-4z"/><path fill="#EAFEFE" d="M837 1364l3 4 13 1 5 2-4 7-6 8-5 6h-3l-2-6-1-7z"/><path fill="#084845" d="M1367 1221l3 3 1 7 2 5-1 4 4-2h3v7l-3 1-1 5-3 3 2 1-3 8 5 1 3-13 1 4h2v11l-1 1h-10l-3-1z"/><path fill="#0A0D59" d="M611 159h4l1 7-2 1-1 3-3 3h-2v2h-2l-2 4-4 4h-2v2l-6 2-7 6-4 2 1-4h3l1-4 2-2 2-4 7-8z"/><path fill="#D0FEFE" d="M436 1220l2 1v2l7 1h8l2 1v-5l2 1 1 15-5 2-2 3-5-1-4-2-3 7-2-1 1-10z"/><path fill="#076767" d="M1126 1429l4 5 6 7 9 4h9l11-6 4-2 2-4 3-4v5l2 1-2 11h-2l-2 4-6 2h-7l-2-4h-11l-6-3-8-5-4-7z"/><path fill="#232989" d="M1179 612h4v4h-2l1 6h2l1-3h3l1-2 1 11-4 9-2-1v-2h-6v4h-2l-1 4-2-7-1-18 2 2 3-1z"/><path fill="#181E83" d="M996 546l1 3 4 2 2 5h-4v-4h-4l1 3-3 12 1 9v2l10-4 4-3-1 5-2 2h5l-4 2v2l-4 3h-3l-1-3h-4l-1 2-7-1-2-6 6-1 1-7 1-12-3 1-4-2-2-6 1-2h11z"/><path fill="#EBFEFE" d="M1324 1183l16 1 16 5 7 5 2-4 1 2v29h-1v-14h-2l-5-8v-2l-12-2-9-5-4-3-7-2z"/><path fill="#0A474A" d="M571 1209l4 2 1 2h6l3 7 2 1v12l-5 5-4-1-9-24 1-3z"/><path fill="#181E83" d="M1000 821l4 2 1 1v7l-1 2 2-1 2-4h4v-2h2v-3h-3v-2l6 2 5 5 1 3v7l-4-1-1 3-8 2-5-5-2-5-4 1-1-10z"/><path fill="#D9FEFF" d="M1298 1195h16l3 1v5l-1 1-10 1-3 3 5 4-1 3h-13l-3-1 1-4 1-1v-7l2-4z"/><path fill="#181E83" d="M1277 452l2 1v4l3-1 5 7 3 9-1 10 2 1-2 3-3-1v-6l-3-1-1 3 1 38v16h-1l-2-35-2-38z"/><path fill="#0A706F" d="M947 1374h19l18 1-4 1 1 7v24h-1l-2-9-4-4-10-3v-1h8l-3-5v-2h-2l-3-6v-2h-17z"/><path fill="#EAFEFE" d="M997 1368h9l11 4 2 3-4 1-1 4-10 1-2 1h-6l-5-6-8-1v-1l6-2z"/><path fill="#10557B" d="M1024 1374l7 1 6 4 2 3 2-1-2 6-3 6h-2v-10l-3 1-6-1 1-7-6 2v82h13l-1 3h-8l-5-2-1-2-1-15v-68z"/><path fill="#094749" d="M666 1236l3 1v2l4 2 1 1v5l4 2 2 2-3 1h-6l1 7-4 1-6-5-6-10-1-5 6 1 2 1 2-1z"/><path fill="#CCF8FF" d="M1408 1226l7 1 4 6-1 3 4 1-1 5 6 1 4 1h9l12-2 1-4 1 4-3 4-9 2h-10l-17-5-5 1-3-11z"/><path fill="#D8FEFE" d="M1496 1178l4 2 16 1 2 2-1 7-3 2h-6l-2 6-3-1-3 3-2-1-2-16z"/><path fill="#D9FEFF" d="M999 1432l2 2 1 7 2 10 5 2 2-8 3-1 2 1v3h-2l-1 9-2 3h6v1h-14l-8-1-3 1v-2h2l2-18h2z"/><path fill="#191F84" d="M1010 473l11 1 8 4 1 4-2 10-7-2-2 2-3-5-5-6-5-2 1-3z"/><path fill="#0A7372" d="M823 1344h11l5 3 1 1-1 8-1 3v20l2 13 4-1-2 4-1 12-3-2 1-6-2-5-2 8h-1v-7l1-4 1-34-4 1-4-5-1-6-5-1-1 4v-5z"/><path fill="#090D70" d="M1025 596l3 1v12l5-3v6l-6 5-8 1-3-9-6-1v-4l9-2 2-4h4z"/><path fill="#FDFDFD" d="M995 551l5 1-1 4h5l1 2-9 1 2 2 1 2h2l1 1 1-3 5 1 3 3-1 4-8 7-5 2h-3l-1-3-1-10 4-12-2-1z"/><path fill="#FBFDFD" d="M502 1199h8l11 4 2 2 1 7 1 1v7l-2 1-4-2-6-7-12-7v-4z"/><path fill="#A1FFFE" d="M392 1211l8 1 18 6-3 1-12-3h-8l-5 5-1 4 1 15 2 4 4 1 1 1h7l11-4 6-5 1-2 1-12 2 3v11l-3 5-13 6-7 2h-7l-6-5-2-7v-15l4-11z"/><path fill="#181E83" d="M1121 745l9 1 2 1 1-2 2 7 4 4 4 8v7l-2 1-1-8h-2l1 4-3-1v-6h-3l-2-3h-6l3-3 1-7-5 1-4 6h-3v2l-3 2h-8l-2 12h-1v-9l2-5 4-1v-2l9-4 1-4z"/><path fill="#094D4B" d="M1058 1374h11v7l-5 2-15-1v2l-4 2-2 4h-2l-2 4-3 7h-1v-6l3-8 4-8 5-3 9-1z"/><path fill="#0A0E59" d="M721 66l11 1 32 11 12 5v2l-8-1-7-3h-12l-11-3-8-6-2-3-7-2z"/><path fill="#191F84" d="M1273 1051l8 1 9 1 5 2v3h2l1 4-1 4h-2l-1 2h-4v-2l-4-1-15-8 1-5z"/><path fill="#191F84" d="M1288 373l6 1 5 4 2 4v28h-1l-1-7-6 2v3l-1 2-4 1-1-6h3l1-5 3-5 1-10-4-5-1-3h-4z"/><path fill="#0D6F78" d="M731 1209h1l1 5v14l-4 18-2-1 1-4-4 3-1-3-4 1 5-6 1-7-2-5-12-2h-3l1-5-2-1h12l-3 1v3l14 2z"/><path fill="#FBFDFD" d="M1071 1199h2v2h2v6l-4 15-3 10v21l-3-1-1-8v-16l1-14 3-9z"/><path fill="#181E83" d="M629 171l2 2-29 31-9 11-5 6h-1l1-7 4-5 3-5 9-10 7-7 7-5 3-4h2l2-4z"/><path fill="#191F84" d="M974 794l4 2-3 5-5 5-3 5-1 2-2 1-5-2h-2l1 11 2 1v3l1 3h-6v7h-1l-1-24 1-14 2-3-1 7h3l1 4-1 2h7l2-6h-2l2-5z"/><path fill="#C6FAFE" d="M1420 1196l1 3-2 7v10h-8l-9-8-1-4-14-1-4 2 2-4 7-3h8l4-1-2 3 4 1 2 5 3 1v2h2l1 3 1-5-3-3v-2l-3-1 1-3 4 4 5-1z"/><path fill="#181E83" d="M1101 833l2 3 3 4v2l3-3 4-1-2 5-7 9-9 6-1-2-3-1 1-3-1-2h4l1-4h-3l1-4 2-5z"/><path fill="#FCFDFD" d="M952 1391h9l10 3v2l4 1v8l-3 1-8-4-16-3-1-4z"/><path fill="#191F84" d="M1166 650l3 1-5 1v2h3l-1 5-4 2h-6l-3-3h-10l-1 6h-4l-4-9 6-3 22-1z"/><path fill="#076565" d="M1085 1402h2l2 5 1 15v16l-4 3h-2l-2-4-1-6 1-5-1-10h2l1-9z"/><path fill="#202587" d="M797 857l7 2 4 5 1 6-10 2-12-1-1-2 4-9z"/><path fill="#0B0F74" d="M1394 300h2l1 4-1 2 2 1h-2l1 10-2 3-2 9-3 6-2 6-5 1 1-10 8-26z"/><path fill="#181E83" d="M877 547l4 1v2l5-1 4-1 2 2-1 9 2 1 1 7h-2v2l4 1v6l2 4-3-1-6-12-5-5v-2l-4-2-4-6-5-1 2-2z"/><path fill="#E9FEFE" d="M852 1429l5 1 5 6-1 2-5 5-2 3-5-1-8-9-1 1-1 14h-1v-16l1-5 6 2 5-1z"/><path fill="#181E83" d="M1126 811h3v2l2 1h-2v5l-3 1 2 6 3 2 1-2 5 3h5l-2 2-10 3-8-1-4 3-2-1 2-4 1-14 5-5z"/><path fill="#FDFDFD" d="M960 602h7l18 5 1 3-2 9h-3l-14-7-7-8z"/><path fill="#171D82" d="M885 524v3h-2v6l-6 4h-3l-1 4h-2v-2l-6 3-5-1v-2h-3l2-4 6-4 13-5z"/><path fill="#FCFDFD" d="M965 529h1l1 10-1 4 2 3 3-3-2 7h-9l-5-1-3 2v-11l2-2 7-6z"/><path fill="#0A0D58" d="M1257 420l6 1h7l11 8 2 4-3 4-1 5h-2l1 4-4-4-4-10-10-8-3-2z"/><path fill="#FCFDFD" d="M984 580h2v3l7 1 1-3 5 1v3l5-3h2l1 8 2 6-1 2h-7l-5-3-2-6-8-3-10-1v-1h8z"/><path fill="#0A0D59" d="M1094 769l4 1 4 2 1 13-2 2-8 1-1 5-3 2 1-15v-8l1-2z"/><path fill="#090D72" d="M1370 540h1v49l2 49 2 17v8l-2-2-1-5-2-33-1-9-1-21v-19l1-12v-18z"/><path fill="#EAFEFE" d="M1121 1255l4 2 4 6v2l7-1 6 3 10 1v1l-15 2-3 1h-8l-6-3-3-2h-5l1-2 5-1z"/><path fill="#10157A" d="M1349 527h1v78l1 10 1 38h-1l-2-19-2-35v-38z"/><path fill="#0B0E59" d="M1051 542l2 1v2l5 1v4l-2 1-1 3 2 1-6 3h-7l-2-7-4-1-1-5 2-2 8 1 3 1z"/><path fill="#0E8383" d="M492 1180h14l9 2 17-1-2 1 1 7-2 5-1 1h-6l-5-4-3-5-7-3-15-2z"/><path fill="#09484A" d="M817 1241l7 6 3 3 2 8v4h-5l-9-7-8-9 1-4 5 4 5 2z"/><path fill="#0B7473" d="M1049 1209h1l1 26 3 6 2 10v6l-2 3h-2l1 5-3-1-2-5v-37z"/><path fill="#091770" d="M1328 1188l8 6 5 8 2 9-2 3h-2v6l-2 1-2-3v-3h-2l-3-9-1-4h3l2 5h2l-3-7v-3h-2z"/><path fill="#084845" d="M414 1158l5 1 5 5-1 2h2v2l5 2 1 11-6 1-2-2-1-5-2-1-1 2-4-6z"/><path fill="#0D8282" d="M1590 1249l2 4-1 10 2 5-3 8-2 6h-2l-1 4-3 3-2 4 5 1v1h-7l-3-1 3-9 8-17 3-11z"/><path fill="#191F84" d="M1379 688h1l6 36 9 36 10 33-1 3-2-3-5-19-2-3-5-19-2-5-2-9-1-2-2-12-3-17-1-5z"/><path fill="#191F84" d="M1029 492l4 1 1 5v9l-4 8-6-1-1-4-2-1 2-1 1-13 3 1z"/><path fill="#EBFEFE" d="M998 488h9l3 1v6h-3l-1-2h-7l-2 1-4 8-3 3-8 2-6 3-4-1-1-5 2-1 5 1 6-2 5-2 3-9 2-2z"/><path fill="#EAFEFE" d="M1213 1203l5 1 7 2v3h-2v2l-6 3-7 2-3 2-5-1v-2h-2l-1-6 5 1z"/><path fill="#E8FEFE" d="M395 1169h17l2 3 1 11-1 2h-4l-4-9-4-1-6 1v2l-4 1v-7z"/><path fill="#0E8383" d="M1582 1188l2 3 10 30 3 12-3-3-5-16v-2l-7 2-4-3-1-6 5-10z"/><path fill="#0C1070" d="M973 516l4 1v11l5 18h-2l1 6-2 1-3-9h-4l-1-7v-11l-1-6z"/><path fill="#094A48" d="M563 1179l4 1 5 5 3 4v5l-3 1-3 9-3-4v-3h-2l-3-9v-7z"/><path fill="#182083" d="M846 872l3 4 12 1 2 1-2 5-7 4h-4l-2-6-9 4-2-1v-3l-4-1 10-5h3z"/><path fill="#090D72" d="M962 551l3 1-1 2 7-2 3 4v3l-3 3-2 3-4-2-1-3h-2v2l-2 1h-6l-1-6 4-5z"/><path fill="#FCFDFD" d="M569 1218l3 1 5 13 2 12-4 4h-2l-4-9-1-11v-9z"/><path fill="#0A6E6E" d="M1576 1183l5 1 2 8-1 5-4 8 1 7h-2l-3-5-2 2-2-7h3v-14z"/><path fill="#163983" d="M1292 1217l1 2 5 2h3l1 2 18 1v-2l7-3h8l2 3-8-1-7 3-12 6-10-1-8-4-2-3 1-4z"/><path fill="#0A0D57" d="M636 741h2v11l-2 7-7 4-2 4-3 1-1-5 6-15h2v-2h3z"/><path fill="#181E83" d="M1244 447h10l-2 2v3l-14 7h-4l1 3-2 9-2-2-2-6 1-7 10-7z"/><path fill="#0A6F6E" d="M1390 1182h8l5 5-1 4-4 2-3 4h-5l-1-5-5-5v-3z"/><path fill="#EDFFFF" d="M1210 585l7 6-2 1-1 3-1 2h-2v7l-2 3-1 5 2 1-5 2-1 11 2 6-1 4-3-5-4-2v-6l2-5 4-9 1-2 4-9 1-2z"/><path fill="#A1FFFE" d="M966 1200h1l1 23 2 12 5 8 4 3 10 1 8-4 4-4 2-5 2-25h1v15l-1 11-4 8-5 4-6 3h-10l-7-4-4-6-3-13z"/><path fill="#ECFEFE" d="M962 470l4 2-1 5h3l2 6-4 1-2 5 1 5h-2l-7-9-1-3v-7z"/><path fill="#181E83" d="M1253 304l2 4 5 5 3 4-1 5 4 5 4 2-1 3-5-1-4-7h-8l-2 2 2-15v-6z"/><path fill="#0A0D58" d="M1023 566l4 1 2 4-4 4h-2l1 4-3 1v7l3 2-1 4-3 1-5-13-3-2v-2h2l2-4 2-3h2v-2h3z"/><path fill="#086969" d="M1070 1195h2l-2 4-4 9-2 10-1 29h-1l-2-26h-2l-1-4 3-2-1-9 6-8z"/><path fill="#163283" d="M679 1216h2l1 2 5 2v3l14 1h6l-3 3-9 4-12-3-6-5v-5z"/><path fill="#094845" d="M1367 1182l7 1 1 2 1 12-2 7h-2l-1 5-3 1-1-2z"/><path fill="#A4FEFD" d="M1314 1194l6 1 6 5 5 8 1 7h-29v-1l16-2 3-2v-7l-3-5-5-2z"/><path fill="#0B1A71" d="M1485 1190h7l1 2-1 2-2 23h-2l1 7h1v19l-2 2-1-10-1-35z"/><path fill="#1B2185" d="M934 534l4 1 4 5 1 1 2-4 4 1 3 3v11l-3 7-2 1-1-6-4-2-1-9-5-7z"/><path fill="#0A1272" d="M1112 1425l1 4h2v3l3 1 5 8 7 8 6 4v2l4 1v2l-6-1-6-4-9-8-6-10-3-6v-2h2z"/><path fill="#091471" d="M1430 1210l5 1 5 7 2 1v10l-12-5v-2l-4-2 2-3z"/><path fill="#0A0D55" d="M1261 449h3l3 6-1 8-2 2-6 1v-2l-4-2 1-4-4-2 3-3h3l1-2h3z"/><path fill="#0A0E59" d="M662 1008l5 2 4 2 12 13 9 9 3 4-1 2-5-4-4-1-7-8-5-5v-2l-3-1-7-8z"/><path fill="#181E83" d="M553 899l2 4-1 5 3 1 3 8-1 9-3 1-7-8 1-10z"/><path fill="#BFFAFE" d="M729 1201l3 4 2 5 1 9 1 2h4l4 4 2 1v9l-2 4h-2l-3-9v-3l-4 1-2 8h-2l1-8v-14l-3-10z"/><path fill="#C3FEFE" d="M838 1195h10l10 4 9 8 2 4-1 3-5-8-10-7-8-1-7 3-9 5-9 3 2-4 7-6z"/><path fill="#EDFEFE" d="M967 523l1 2h2l1 3 1 14-5 5-2-4 1-9-1-4-5 4h-2l-2 4-2 2 1-5 6-9z"/><path fill="#076565" d="M418 1189h5l1 3 5 2v11l1 5-3-2v-2h-2l-2-3-7-3-1-2 1-6h2z"/><path fill="#181E83" d="M969 862l3 4 3 8-1 5-9 4h-5l3-10 3-3 3-5z"/><path fill="#181E83" d="M898 581l2 4 4 2 1 3h-4l1 5 3 3-1 3-6-1-1 2-5 1h-1l1-9 4-7z"/><path fill="#0A6F6E" d="M823 1191l1 2 3-1v2l8 2-12 9-5 5-3-5 3-10z"/><path fill="#086B6B" d="M984 1375h7l3 7v24h-1l-1-23-1-3h-7l-1 6-1 36-2 11-3 1 2-8 1-9v-41z"/><path fill="#0A0D57" d="M922 824l2 1 3 7 2 1v20l-4-4-5-9 1-13z"/><path fill="#191F84" d="M1093 745l1 3 4-1-2 4-2 5 4 3-2 6-6-1-3-2-1-4v-8l-2 2-6-2v2l-2-1 3-4 1 1h9l1 5 2-1v-6z"/><path fill="#1C2185" d="M1059 537l12 1v2l4 2 1 7h-7l1-2-10-2-5-2 1-4z"/><path fill="#A1FFFE" d="M837 1393h1l2 9v4l5 6-3 2-4 26h-1l-1-36-1-1 1-9z"/><path fill="#181F83" d="M1103 782l4 8-2 2-1 10 1 3 6 1 1 3 3 1-7-1-7-2-1 6h-1l-2-10 1-7 3-7z"/><path fill="#191F84" d="M956 510l2 3 1 9h6l-1 3-6 5-7-2v-2h-2l2-10h4z"/><path fill="#AAFDFE" d="M1046 1388h14l5 3v3l-3-3-8-1-11 2-4 6-3 7-1 5-1 42h-1l-1-8v-24l2-16 4-10 5-5z"/><path fill="#0A0E59" d="M889 899h11l9 2 20 1v5h-13l-5-2-10-1-4-2-7-1z"/><path fill="#090D72" d="M992 513l8 1 2 2 1 7h2v2h-4l1 4 1 5-1 3v2l-3-1v-15l-5-1-1 2-2-5-4-2 4-1z"/><path fill="#FCFDFD" d="M481 1210h5l-1 5-4 8-2 10-4 1v-18h2l1-4z"/><path fill="#EBFEFE" d="M1106 761l2 1 2 9 2 2-1 8-2 6h-3l-1-5h-2v-11h2v-7z"/><path fill="#0A0F74" d="M1010 513h6l2 1-1 4h-4l-1 7 1 1v5l-1 1-2 12h-1l-1-5-1 1h-5l4-1 1-16z"/><path fill="#094D4A" d="M721 1241h2l2 7-4 4-9 1-4 1-3-3v-2z"/><path fill="#CCF8FF" d="M1432 1237h9l5 5 6-2v2l-4 2-8 1h-9l-10-3v-2z"/><path fill="#191F84" d="M1035 780h12l4 2h-9l-1 5-2 6h-3l-2-2h-3l-3 4-1-5 5-8z"/><path fill="#191F84" d="M996 546l1 3 4 2 2 5h-4v-4h-4l1 3-3 12-1 3-1-1 1-12-3 1-4-2-2-6 1-2h11z"/><path fill="#0A0E58" d="M913 492l6 1 8 11 1 2h-10l-5-5-4-5v-2z"/><path fill="#0A7272" d="M1365 1181h10l1 2v13h-1l-1-13h-6v72h-1l-1-23-1-40-1-10z"/><path fill="#0E8383" d="M947 1374h19l18 1-4 1 1 7-1 6-8-5-3-7-5-1-17-1z"/><path fill="#0A0F73" d="M619 805l1 3-10 25h-3l-2-6 2-7 8-8v-3h2z"/><path fill="#096C6E" d="M1497 1206h1l1 35 1 19-1 6-5-1-4-1 1-8h7l-1-9z"/><path fill="#181E83" d="M1192 686l2 1 2 5-7 11h-4l-2-4-3 2 1-4 8-9z"/><path fill="#EDFFFF" d="M1198 669l6 3v4l7 1v2l-4 1 6 5 2 5-8-6-3-3-1 2h-2l1 6-2 1-1-8-2 1 1-4 1-1-2-1-1-3-2-2z"/><path fill="#0B0E5B" d="M895 1030l5 1-1 2-29 6h-8l2-3h3v-2l12-2 2-1z"/><path fill="#181E83" d="M921 472l13 1 10 4-4 2-10 1-9-4 1 4 2 6-6-2 1-9z"/><path fill="#076867" d="M1024 1374l7 1 6 4 2 3 2-1-2 6-3 6h-2v-10l-3 1-6-1 1-7-3-1z"/><path fill="#A1FFFE" d="M837 1364h1l3 17 7-1 6-4-2 5-9 11h-3l-2-6-1-7z"/><path fill="#A1FFFE" d="M1453 1238l1 4-3 4-9 2h-10l-17-5h-4v-4l20 5h9l12-2z"/><path fill="#0A434D" d="M1582 1230l5 3 6-1 3 5v9l-4 1-4-2-6-12z"/><path fill="#BDFAFE" d="M540 1180l5 5 4 8-3 6h-2v18h-1l-4-36z"/><path fill="#191F84" d="M1314 81l4 1 4 6 7 12 1 5-2 4-7-9-6-16z"/><path fill="#CCF8FF" d="M607 1207l1 3-6 6-14 1-3-7h8l8-2z"/><path fill="#0A7372" d="M1523 1172h3l-1 6-1 2v17l-2 1-4-2-1-3v-10z"/><path fill="#C9FBFE" d="M1000 1151l2 2 1 13v43l-1 11h-1z"/><path fill="#191F84" d="M1151 689h1v10l-1 4h2l-1 7 4-2 2-5 6-2 2-1-2 4-2 3-4-1v6l-3 5-5-5-4-6 1-4 2-4z"/><path fill="#F7FDFD" d="M954 548h5v4l-5 5-2 10-4 1 1 4-5-2-2-3 1-4 2-2-1 5h3l1-3v-1l1-4 3-7z"/><path fill="#191F84" d="M1253 489l4 1 1 3 6-1 2 13-1-2-8-1-1-3h-3l-1 2v-6l-2-3z"/><path fill="#A1FFFE" d="M396 1166h9l5 2v1l-15 1-3 5-2 11v6l2 3 6 1h17l-1 2h-23l-3-3v-13l3-12z"/><path fill="#191F84" d="M958 598l9 1 9 4 5 2-3 1-11-3-7-1 6 8 4 3 6 2-3 2-6 1-2-3-1-4-5-4-3-4v-4z"/><path fill="#EDFEFE" d="M1222 590h1l2 7v8l-3 3-4-4-5-2 1-4 4-6z"/><path fill="#0C1075" d="M1378 475h1v27l-2 7-3-3-1-7 2-15z"/><path fill="#086768" d="M768 1244h1l1 8v13l-2 2-3-2-7-2 1-9 1-2h3l2 6h3z"/><path fill="#EDFEFE" d="M860 891l4 2 4 3 3 2-1 2-8 1-10 1-2-3 5-5z"/><path fill="#191F84" d="M696 61h8l6 1 1 4-9 1-5 4-3 3-2-1v-8z"/><path fill="#FCFDFD" d="M1140 738l3 6v11l-1 4v3l3 1-1 7h-1l-2-7-4-8v-2l-3-1-1-7 5 1 1 1z"/><path fill="#0B7675" d="M1143 1179h2l1 6 4 1 5 2v40h-1l-1-35-6-1-5-2z"/><path fill="#0A706F" d="M485 1250l6 2 1 8 5 2 1 3h-16l3-2 1-4-1-3h-2v-4h2z"/><path fill="#EBFEFE" d="M1495 1170h2l3 5 4 2 2-4 6-1 1 4-2 3 8 1v2h-11l-10-2-2-2z"/><path fill="#0E8283" d="M770 1192h7l8 1 2 1v2l-13 4-4 5-1 6h-1v-13l-1-3z"/><path fill="#EDFFFF" d="M1250 1218h2l1 2v19l-2 3-4-3-1-8z"/><path fill="#181D82" d="M980 618l2 1-2 5v6l-8 9-4 1h-9v-1l7-2 4-7 7-3 1-5z"/><path fill="#A6FEFE" d="M983 1453l3 1v5h5v2h-7l-1-2-4-1-10 2-7 2-9 1-11-2-4-2 1-2 4 2 7 1h9l21-6z"/><path fill="#0A0D5E" d="M1022 520l3 1v2l5 2 3 3 9 1 1 3h-2l1 4-5 3-2-4-3-1-7-8-3-3z"/><path fill="#FBFDFD" d="M944 553l3 1 1 6v2l2 1-3 3h-3v-3l-1 5h-2l-4-6-1-8h2v2z"/><path fill="#0B3B55" d="M1268 1240l3 3 4 2 10 14 1 4-7-4-7-7-4-7z"/><path fill="#076868" d="M423 1161l4 1 5 5v19l-5 2-2-1-3-6h9l-2-8v-3l-4-2v-2h-2z"/><path fill="#182083" d="M1157 769l3 3 1 10 8-3 3-3h2l-1 5-7 5-3 3-9 3 4-4z"/><path fill="#0B1E72" d="M1454 1184l4 2 3 9v10l-7-6-2-5 2-4-2-5z"/><path fill="#0D8181" d="M836 1359h1l1 20 2 13 4-1-2 4-1 12-3-2 1-6-2-5-2 8h-1v-7l1-4z"/><path fill="#094F4C" d="M1280 1236l4 2 5 7v2l3 1 3 3-1 2-9-2-4-4-2-4v-6z"/><path fill="#0A0D58" d="M1182 580l7 1 1 5-2 6-3 1-3-1-1 2-2-4 1-8z"/><path fill="#181E83" d="M904 472h10l-1 4-3 4-6-2v7l-4 2-2-1v-4l2-1v-5l1-3z"/><path fill="#094845" d="M1143 1190l8 2 3 1v13l-5-4v-2h-5l-1-1z"/><path fill="#191F84" d="M1257 329l4 1v4l-3 1v7l-6 10-1 5-3 1-2-1 1-5h2l1-3h2l1-14h2v-2h2z"/><path fill="#0E8383" d="M671 1202l1 3-2 18v8l1 7-3-4-3-10v-11z"/><path fill="#191F84" d="M1137 710l5 1v6l-2-1v-4l-6 2-9 4-6 4-5 1v-4l-5-1v-1l20-4z"/><path fill="#0E8383" d="M1049 1181h9l2 1 2 4 4 1-5 1-8 1-1 1-1 17h-1z"/><path fill="#A1FFFE" d="M927 1409h1l1 14 5 9 8 8 10 4 14-2-1 2-6 2h-11l-10-6-7-8-4-7-1-5v-8z"/><path fill="#A1FFFE" d="M1201 1215l3 4 5 12 7-2 4-12 1 4-5 15-2 2-4-1-5-6-4-13z"/><path fill="#FAFCFD" d="M1119 681h2l-1 6-7 3h-9l-1 4-3 3h-2l1-4 2-6 8-1v-1l9-3z"/><path fill="#D9E2ED" d="M1273 392l6 1 3 5-1 7h-4l-5-4-1-5z"/><path fill="#0A0E72" d="M905 598h2l1 6-10 5h-4l-2-4v-3h3l2-2 7 1z"/><path fill="#0A7170" d="M1622 1186h3l2 5 1 3-2 4h-4l-2 4-4 5v-6z"/><path fill="#EEFDFE" d="M921 896h10l5 2-4 3h-25l-2-2 10-1z"/><path fill="#0A0E59" d="M1025 596l3 1v7l-4 1-5 1-2 2h-7v-4l9-2 2-4h4z"/><path fill="#191F84" d="M916 559l2 2 6 2v15l3 4-1 2-7-8 1-5 2-1-1-2-2-1v-3l-5 1-2 2-1-2 1-2-5-1 3-1 5 1z"/><path fill="#AFFCFE" d="M949 1389h9l14 3 5 3-1 2-3-2-12-3h-15l-6 4-9 9-3 4 1-5 9-10 7-4z"/><path fill="#A4FEFE" d="M493 1195h10l11 4 4 2-1 2-12-5h-11l-9 4-7 9-3 8h-1l1-7 6-10 9-6z"/><path fill="#0C1170" d="M1018 479l5 3v2l3 1v2h2v5l-7-2-2 2-3-5-2-5z"/><path fill="#0A706F" d="M525 1235l2 4 3 3 2 5 3 12 3 2h-7l-3-13-1-3-4-2 1-5z"/><path fill="#181E83" d="M1018 510h3l2 6 7 8h-3l-2-1v-2l-5 1-7-3v5l1 4-3-3 1-7 5-1 1-3h-2z"/><path fill="#A7FEFE" d="M1590 1210h2l4 13 4 4h4l4-11 2 2-4 10-5 6-4-1-6-18z"/><path fill="#0E1A78" d="M1301 1214l14 1 9 2-3 4h-6v-2l-7-1-11 1-3-2 1-2z"/><path fill="#191F84" d="M645 446h1l5 30 1 15-2-2-2-9-1-12-2-10z"/><path fill="#0C445B" d="M1379 1251l1 4h2v11l-1 1h-10l-3-1v-8h1l1 5 6 1z"/><path fill="#084845" d="M602 1229l4 2v6l-5 6-4 1-2-3 2-5z"/><path fill="#EDFFFF" d="M828 865l13 2-2 2-12 1-3 2-1 4-5 1-3-2 6-7z"/><path fill="#094845" d="M822 1388l7 1v2h2l3 7v5l-4-2-2-5-6-1z"/><path fill="#096C6C" d="M857 1402l2 2 4 7 11 15-1 2-7-7-5-7-5-1-1-3 1-1-1-6z"/><path fill="#181E83" d="M1439 229h1l1 11-2 8-2 3-2-6v-12l2-2 2 1z"/><path fill="#0A7373" d="M1141 1387h13l11 1v2h4l4 8-1 2-4-5-8-4-8-2h-7l-9 3z"/><path fill="#0A6C6F" d="M1412 1242l10 2 3 2-5 1v7h-3l-2-2-2 2-1-3z"/><path fill="#0A454D" d="M1189 1228h2v3l2 1 5 5 2-2 5 1-1 3h-2l-1 3h-4v2h-2l-6-13z"/><path fill="#12177C" d="M1348 601l2 4 1 10 1 38h-1l-2-19-1-16z"/><path fill="#172A83" d="M1341 1211h2l1 3v17l-2 10-4-1-2 1 3-9 2-2z"/><path fill="#0E8383" d="M1071 1404h1l2 15 1 38 2 2 9 1v1l-7 1-6-2-1-36z"/><path fill="#0A6D6E" d="M1597 1254l2 1v2l7 2v3h2l-1 4h-2l-4 2-4-2z"/><path fill="#EAFEFF" d="M393 1221l4 1-2 9-3 3h-3l-1-2v-7l2-3z"/><path fill="#FDFDFD" d="M1151 781l5 2-1 3v-2h-6l-4 2 1 4 3-1-1 3-4 1v2l-5 1v-4l1-3 4-5z"/><path fill="#E3FBFE" d="M966 1153h3v14l-1 6v17l-1 10h-1z"/><path fill="#090E73" d="M1000 819l7 1 1 3h3v3h-2v2l-4 1-2 4h-2v-9z"/><path fill="#191F84" d="M1200 565l10 5 3 1h20l8-4 5-1-4 4-8 4-24-1-9-5z"/><path fill="#E9FDFE" d="M907 495l4 2 5 7-1 3-2-1-2 2-5-2 4-1v-2h-6l2-4-4-1v-2z"/><path fill="#B6FCFE" d="M522 1262l12 1v2h-13l-6 2-7 2-15-1v-2h15l9-3z"/><path fill="#0C1075" d="M1008 544h1v8l-2 5-4-1-4-6-2-2 2-1 7-1z"/><path fill="#0A6F71" d="M1225 1229l4 2 2 4-6 14-1-3-2-7 1-5h2z"/><path fill="#181E83" d="M954 615h4l1 8h2l-2 4v2l2 2-1 3-5-5v-5l-2-1-1-6z"/><path fill="#323891" d="M916 528l4 2 10 8 1 2-4 2-5-1v-6l-5-1-2-5z"/><path fill="#FDFDFD" d="M958 514l8 4 5 1 1 7v11h-1l-1-12h-4l-2-1 1-2h-6z"/><path fill="#0A1A6F" d="M714 1201l5 1 4 4 1 13h-4l-2-10z"/><path fill="#0C1070" d="M973 490l1 2 3 1-7 7-1 5-4-2-2-5v-3h6z"/><path fill="#0B7877" d="M1061 1213h3l-1 34h-1l-2-26h-2l-1-4 3-2z"/><path fill="#0A7575" d="M1126 1429l4 5 6 7 9 4h9l4-1-3 4h-11l-6-3-8-5-4-7z"/><path fill="#DAFFFF" d="M1121 1255l4 2 4 6v2l7-1 3 3h-12l-4-4-3-1z"/><path fill="#076363" d="M1376 1250l3 1-1 9-2 4h-5l-1-2 3-7v-3z"/><path fill="#181E83" d="M1161 748l4 2 7 4-2 1-6-3 2 5-5 3-2 2-2-1 2-9z"/><path fill="#090D72" d="M959 457h3l-2 5-6 8-3 2v-8l3-6 1 2z"/><path fill="#191F84" d="M1437 890l2 4 1 5v10l-2 6-3 1v-15h2z"/><path fill="#0B7676" d="M939 1392l2 1-8 7-6 9-1-9 2-5 9-2z"/><path fill="#0B7574" d="M1590 1249l2 4-1 10 2 5-3 8-2 6h-1l1-8-2-1 1-2z"/><path fill="#FDFDFD" d="M858 1236h2l1 3-5 5-3 2h-6l1-4z"/><path fill="#191F84" d="M868 894l17 2v1h-5l2 3-1 3-4-2-1 2-9-7z"/><path fill="#FDFDFD" d="M957 493h4l4 8v2l-6 4v-2h-3l1-10z"/><path fill="#D8FDFF" d="M1145 1391h11v1l-8 2-12 6-8 8v-3l3-4h2l2-4 8-5z"/><path fill="#0E8383" d="M984 1451l4 1-1 6h5l-4 2-2-1-1-5-11 3-15 4h-9v-1l16-3z"/><path fill="#0A7171" d="M1300 1179h14l10 4-3 1-5-2-15 1-4-1-8 1 3-2z"/><path fill="#090D58" d="M954 1020h7l8 3v1l-10 1h-13l3-3z"/><path fill="#0B0F63" d="M1027 504l6 2-1 5-2 4-6-1 1-6z"/><path fill="#D5FCFF" d="M971 1238h2l1 2 15 5 9-3-4 4-7 2-8-1-7-6z"/><path fill="#EEFEFE" d="M980 577h2v2h2v5h-15l-3-1-1-3 5-2 3 2 6 2h3z"/><path fill="#094A47" d="M418 1190h3l3 7-2 4h-5l-2-3 1-6h2z"/><path fill="#090D55" d="M1030 580h4v4h-2l-1 7h-2v-3l-5-1-1-5z"/><path fill="#0A6F6E" d="M820 1445h1l3 12 1 2 6 1 1 3h-12z"/><path fill="#FBFDFD" d="M516 1237l3 1-2 7-3 1h-7l1-4z"/><path fill="#D6FDFE" d="M1344 1236l5 1 3 10h-2l-2-3h-5l-3 5-2-1 3-7z"/><path fill="#0B7776" d="M838 1179h14v1l-11 1-4 2-8 3-3 1-1-1-2 1-2-2 12-5z"/><path fill="#0E8383" d="M377 1150l20 1v1h-11l-1 4-2 2h-7l-1-2 1-2 5-1z"/><path fill="#EEFEFE" d="M1260 611h3l-1 4-3 3 1 3v8l-1 2h-2v-5l-2-1v-6l3-6h2z"/><path fill="#0D8181" d="M1294 1263h28l-3 2-3 1h-19l-9-1v-1z"/><path fill="#A1FFFE" d="M476 1240l10 6 9 3h14l-3 2-10 1-10-3-9-6z"/><path fill="#0B0F5F" d="M896 855l6 2 9 5 5 1v1h-14l-4-4z"/><path fill="#191F84" d="M960 841h26v2l-6 1-19-2 1 9-2 6h-1l-1-5v-8h2z"/><path fill="#EDFFFF" d="M1034 808h1v10l6 1 2 2-5 1h-7v-9z"/><path fill="#097070" d="M885 1209l2 3v18l-2 8h-1v-28z"/><path fill="#EDFFFF" d="M1211 626l1 2h2l1 7-1 4-5-2-1-1v-6z"/><path fill="#0C1075" d="M959 435h7l2 2h-8v7h-2v3h3v3l-4-1-3-3 3-9z"/><path fill="#094946" d="M1116 1227h2l1 19-1 17h-2v-20l-1-4v-9z"/><path fill="#191F84" d="M712 1071l2 1 2 6-9 2-7-3-2-3h9l5 3z"/><path fill="#191F84" d="M1024 842l2 4 2 3-4 4-2 3h-6l1-4h3v-3h2l1-5z"/><path fill="#0C1171" d="M1254 303l4 2 8 13-1 5-4-1 1-5-4-6-4-3z"/><path fill="#0B7877" d="M675 1263h10l3 1h15l4 2-4 1h-16l-12-3z"/><path fill="#FCFDFD" d="M1059 846h3l1 6-1 4-4 1-3-1 2-9z"/><path fill="#0A0E70" d="M975 800l2 2-5 5-2 3v6l3 3 3 2-2 1-5-2-2-5h-2l1-5 7-9z"/><path fill="#7276B3" d="M1000 821l4 2 1 1v7l-2 2-4-1-1-9z"/><path fill="#E8FDFE" d="M1130 658l2 4 1 6-2 6-8 6-3-1v-2l7-4 2-5z"/><path fill="#272C8B" d="M895 510h6l5 2-4 2-2 3-7 1 1-7z"/><path fill="#0A7271" d="M388 1199h7l-2 1v8l-1 2 9 1 5 2-3 1-12-3-3-9z"/><path fill="#F8FDFD" d="M974 543l4 2 1 8-4 2-3-3 1-8z"/><path fill="#0A6968" d="M1332 1212l1 3h2l2 6-2-1h-8v-2l-10-1-2-2h17z"/><path fill="#086768" d="M1392 1182h6l5 5v3l-5-1-4-1v-2l-3-1z"/><path fill="#343992" d="M1170 659h11v2l-9 2h-5l-1 5-4 2 2-7z"/><path fill="#BCC3DE" d="M908 575l4 3v8l-4 1-3-5v-5z"/><path fill="#0D7E7E" d="M1029 1375l6 2 4 5 2-1-2 6-3 6h-2v-13z"/><path fill="#EFFEFE" d="M836 873l4 2v3l-11 5h-2v-2l-2-1h4l4-4-4 1 1-2z"/><path fill="#EFFDFE" d="M972 503l6 1 4-1 5 1-3 2-8 4-4-1-1-5z"/><path fill="#0C1176" d="M1017 474l7 1 6 4v3l-3 1-5-5-8 1v-2h2z"/><path fill="#ECFEFE" d="M995 1459l25 2v2h-21l-5-2z"/><path fill="#181E83" d="M720 1070l7 2 4 3-8 2-6-1-1-3z"/><path fill="#F9FDFD" d="M1203 672l1 4 7 1v2l-4 1 6 5 2 5-8-6-2-3-3-1z"/><path fill="#CBFBFE" d="M483 1244l5 1 5 2 10 1h6v-2l8-1-3 3-10 2h-9l-10-4z"/><path fill="#0C7C7C" d="M848 1195l13 1 4 6v2h2l2 4-1 3-4-6-8-6-8-3z"/><path fill="#F7FDFD" d="M915 563l4 1 2 3 2 1-1 3-5 4-3-7z"/><path fill="#0E1263" d="M994 522h6v13h-2v7h-1l-2-15z"/><path fill="#B4FCFE" d="M828 1263l9 2h16l7-2v2l-3 2-6 1h-11l-12-3z"/><path fill="#EEFEFE" d="M979 882h8l1 3-10 5h-4l1-4 4 1-1-4z"/><path fill="#0B0E5A" d="M895 550l4 1 4 5v3l-6 1-2-3-1-6z"/><path fill="#094845" d="M1341 1213l1 3v14l-4 4 1-7-2-6 2-7z"/><path fill="#0A7170" d="M1376 1198l2 2v4h2l1 3v11l-1 14h-1v-19l1-4-3-1-1-3z"/><path fill="#EDFEFE" d="M1040 824l1 2h2l-1 4-4 8-2-3v-3l-2-4 5-1z"/><path fill="#090D72" d="M999 822l2 3 1 7-5 3-2-5 1-5z"/><path fill="#191F84" d="M1032 594l2 1v15l-2-3-4 2 1-9 3-1z"/><path fill="#191F84" d="M1244 472h8l-1 11-2 1-2-7-6-3z"/><path fill="#AFFCFE" d="M938 1457l5 2 7 1h9l10-2-1 3-9 2-13-1-8-3z"/><path fill="#191F84" d="M1021 559l1 4-9 6-5 2 2-3v-7l4 1 5 1z"/><path fill="#0C7C7C" d="M1172 1176l7 1 5 5-1 2-4-4-6-1v8l-3-4-1-5z"/><path fill="#181E83" d="M1187 721h5l-2 5-4 5-3 1-2-4 4-4z"/><path fill="#F6FDFD" d="M1144 707l5 2 1 3-3 6-4-2-1-7h2z"/><path fill="#076464" d="M855 1414l4 1v2l4 1 3 5v2l-4 1-4-5z"/><path fill="#0A636B" d="M707 1216h12l-3 1v3l5 1-3 1h-10l1-5z"/><path fill="#EDFFFF" d="M1158 646l4 1v2l4 1-5 1h-20l-2-1v-2h5v1h10l4-2z"/><path fill="#0A0D5A" d="M1022 608l3 2 1 3h3l-2 4h-7l-1-3 1-5z"/><path fill="#076565" d="M431 1179h1v7l-5 2-2-1-3-6h9z"/><path fill="#0A0D55" d="M983 888h4l1 6-7 2-1-1v-5z"/><path fill="#737CB7" d="M1172 776h2l-1 5-8 6h-3l1-4 1-2 5-2z"/><path fill="#F5FDFD" d="M966 482l3 2v10l-3 2-3-7 2-5z"/><path fill="#0C4054" d="M956 1249h2v2h2l1 2 3 1 1 2 5 3 3 3-4 1-10-9-3-3z"/><path fill="#0D8080" d="M589 1232l2 4 6-2 2-1-2 4-1 4-3 3h-2l-2-9z"/><path fill="#094C49" d="M812 1224l2 4 3 5v5l-3 1-3-6v-8z"/><path fill="#EDFFFF" d="M1057 762l1 3 9-2v4h-2v2h-7l-3-2z"/><path fill="#EEFEFE" d="M1219 627h3l3 1v4h-2v5h-3l-2-4z"/><path fill="#EDFFFF" d="M1018 541l3 1v4l12-1v4h-13l-1-2-4-2z"/><path fill="#D8FEFF" d="M1467 1243l2 1v3l6 7 4 2-1 1h-5l-6-8h-3l2-5z"/><path fill="#0A7170" d="M1640 1189l1 3-4 6-4-1-1-4 1-2z"/><path fill="#EDFFFF" d="M1007 585l2 1 4 8-4 5-8 1v-2h7l-1-5-1-3z"/><path fill="#EDFFFF" d="M1210 575h4l2 4 4 2-3 2-6-1-4-5z"/><path fill="#090D72" d="M1378 362l4 2 2 5h-2l-1 3-4-1v-7z"/><path fill="#0C777B" d="M1021 1375l2 1-3 2-1 32h-1l-1-34z"/><path fill="#0A6F6E" d="M1586 1282h1v9l-1 3h-7l3-6 3-3z"/><path fill="#0A6F6E" d="M1579 1212l4 1 6-1 2 8-5-1-1-2-6-3z"/><path fill="#A1FEFE" d="M1548 1187l8 1 5 3-2 1-4-2h-5l-3 4-3 8-1-4 3-10z"/><path fill="#F5FDFD" d="M1126 747l4 1-1 7-5 2-3-1 4-6z"/><path fill="#191F84" d="M1267 464h1v9l-3 5h-2l1 6-4 1v3l-4-1 3-1 3-9 3-1z"/><path fill="#A1FFFE" d="M945 1390l4 1-8 4-10 10-3 4 1-5 9-10z"/><path fill="#094845" d="M942 1384h8l5 2v1l-8 2h-6z"/><path fill="#0D7C7E" d="M1432 1197l1 3 1 11-2-1v-5h-2v4l-3-1v-5l3-4h2z"/><path fill="#172C83" d="M1271 378h1v6l7 1 5 4v-8h1l1 12-4-2-5-4-6-2-1-2z"/><path fill="#F8FDFD" d="M1277 397l5 1-1 7h-4l-4-4 2-2 2 2z"/><path fill="#0C6B74" d="M629 1178h6l2 2-1 7-3-1v-2h-3l1-4z"/><path fill="#0C0F5F" d="M986 612l6 2-1 6-7-1-1-2z"/><path fill="#E9FEFE" d="M998 558h7l3 1-1 3-4-1v4h-2v-2l-5-2v-2z"/><path fill="#191F84" d="M1028 554l2 1 1 5-6 4-2-4 3-5z"/><path fill="#0C1075" d="M1022 520l3 1v2l5 2 3 3 3 2-6 1-8-8z"/><path fill="#C8F9FE" d="M856 1372v3l-10 7h-5l-1-3 9-2h2l1-3z"/><path fill="#191F84" d="M878 832l3 2-1 3h-3l-1 1-5 1-3-3 3-2z"/><path fill="#EDFEFE" d="M1119 681h2v4l-6 3h-9l2-2 10-4z"/><path fill="#FDFDFD" d="M995 551l5 1-1 4h5l1 2-10 1 1-6-2-1z"/><path fill="#14197E" d="M945 478l5 2 5 3-4 2h-4l-4-2z"/><path fill="#191F84" d="M551 236l3 4 1 3 1 12-2 1-2-4v-8z"/><path fill="#A2FEFE" d="M1524 1250h1l1 6v12l-3-2v-13z"/><path fill="#0B0E59" d="M975 533l3 2-1 4-3 5h-2l-1-7z"/><path fill="#A1FFFE" d="M581 1243l3 3 3 6-3 12-2 2 1-7v-9z"/><path fill="#0C1274" d="M700 1216h7l2 1v6h-3l-4-4-3-2z"/><path fill="#EDFFFF" d="M1105 821h5l-1 4h8v3l-7-1-3 1-2-3z"/><path fill="#115C82" d="M1326 1219h9l2 3-8-1-7 3-5 3h-2l1-3h4v-2z"/><path fill="#090D72" d="M1312 1216l12 1-3 4h-6v-2h-3z"/><path fill="#D8FEFF" d="M600 1208l1 3-8 3h-5l-3-4h8z"/><path fill="#D2FDFE" d="M966 1153h3v14l-2 9h-1z"/><path fill="#191F84" d="M1121 791l1 2 2 1-4 2-2 7-6-1 1-3h2l-1-3 5-2z"/><path fill="#F1FBFD" d="M915 600l4 1-9 6h-4l2-4z"/><path fill="#0B0F74" d="M608 395h4l2 1v5l-2 4-2 1-2-7z"/><path fill="#0C0F60" d="M788 89l7 1 12 4 2 3-12-3-9-4z"/><path fill="#0D1673" d="M1186 1438l2 1-7 9-7 5 2-4 3-4h2l2-4z"/><path fill="#191F84" d="M1450 1222l8 1-1 5-4 2-3-7z"/><path fill="#10587C" d="M714 1221h9l5 1 1 5-4 2-2-5-9-2z"/><path fill="#094845" d="M470 1221h1v15l-2-1v-3h-2l2-10z"/><path fill="#191F84" d="M1034 562h1v9l-2 7-5 2 1-4 4-8z"/><path fill="#094845" d="M1426 1248l9 1 5 1-3 2h-2l-1 2-5-2z"/><path fill="#ACFDFE" d="M1541 1173h1l1 10 2 2 2 1-3 3h-2l-2-4v-9z"/><path fill="#F0FEFE" d="M1116 774l2 1 2 10-5-1-1-4z"/><path fill="#ECFEFE" d="M944 561l1 3-1 2h3l1-3v3l2 1-2 1 1 4-5-2-2-3 1-4z"/><path fill="#D9FEFF" d="M839 1374l8 1h4v2l-4 2h-7z"/><path fill="#076565" d="M730 1219h1v11l-4 4-1-6 3-1-1-5h2z"/><path fill="#0E8383" d="M521 1203l4 2 3 4v20h-1l-1-15z"/><path fill="#0A6F6E" d="M1541 1196h2l-1 10-1 3h-2l-1-3 1-8z"/><path fill="#F6FDFD" d="M931 887h14l-3 3h-11z"/><path fill="#191F84" d="M1015 608l2 1 2 8-6-2-1-5z"/><path fill="#EFFEFE" d="M954 548h5v4l-6 4-2-1z"/><path fill="#090D56" d="M917 546l4 1 1 1v6h-5z"/><path fill="#0C6775" d="M893 1455l4 5 1 3h-7l-3-2 5-2z"/><path fill="#0E8383" d="M1412 1242l10 2v1h-5l-1 3h-3l-1 3z"/><path fill="#A4FEFE" d="M781 1197v3l-8 3-2 3-2 10h-1l1-11 5-6z"/><path fill="#0D8181" d="M430 1194l1 3v7l2 11-3-3-2-7 1-9z"/><path fill="#0B7776" d="M481 1197h7l-4 4-6 5 1-7h2z"/><path fill="#0A0D57" d="M892 539l4 1-1 8-2-1v-2h-2v-2h-2l1-3z"/><path fill="#191F84" d="M954 458l3 3-2 6h-2l-1 3h-1v-6z"/><path fill="#0D6B7A" d="M1341 1211h2l1 3v17h-1v-9h-2z"/><path fill="#F5FDFD" d="M1148 694l2 1-1 8-5 1v-5z"/><path fill="#F4FEFE" d="M1187 662h8l8 9h-3l-5-3-2-4h-7z"/><path fill="#FDFDFD" d="M1263 613l1 4-3 9h-1l-2-9z"/><path fill="#EBFEFF" d="M1274 530h1v17l-3 4v-8z"/><path fill="#0B0F60" d="M956 530l1 3-6 9-2-2v-3h3l2-6z"/><path fill="#0C6776" d="M1061 1372l10 1v1l-13 1-2 1h-6l2-2z"/><path fill="#B9FCFE" d="M995 1265l4 1-3 2h-14v-2z"/><path fill="#094845" d="M1265 1226h7l-1 4h-2v2h-4z"/><path fill="#084E4B" d="M880 1205l5 1v9h-3v-3h-2v-4z"/><path fill="#076565" d="M1151 1188h3v5l-7-1-4-2v-1z"/><path fill="#191F84" d="M1093 789h3l-1 4-4 3-2 4-2-1 1-6h3z"/><path fill="#ECFEFF" d="M1008 565l1 3-3 3h-3l-1 2-2-1v-6l4 1z"/><path fill="#191F84" d="M1037 551l5 1v6l-6 1z"/><path fill="#0A6F6E" d="M842 1394h2l2 3-1 5h-4v-7z"/><path fill="#0A6F6E" d="M1443 1259l5 1-1 3-5 1h-13v-1l14-1z"/><path fill="#CCF8FF" d="M1351 1196l4 2 1 3h-11v-3z"/><path fill="#0B1075" d="M990 478h4v5l-6 5h-2l1-4 3-2z"/><path fill="#097070" d="M864 1414l5 5 5 7-1 2-7-7-2-3z"/><path fill="#0D7F7F" d="M1155 1238h1l1 26-3-4z"/><path fill="#0B7473" d="M1246 1180l3 2-2 10-2-2v-9z"/><path fill="#0B7776" d="M486 1181h10l2 2-4 1h-14l2-2z"/><path fill="#090D5A" d="M1369 999l1 4-4 5h-3l1-5 3-1v-2z"/><path fill="#191F84" d="M979 538l2 4 1 4h-2l1 6-2 1-3-9-2-2 4 1z"/><path fill="#FDFDFD" d="M996 503h2l1 3-2 3h-6l1-4z"/><path fill="#D5F8FE" d="M959 472h2l-2 6-2 5-2-1v-7z"/><path fill="#0B7675" d="M931 1432l5 5 6 8-4-2-7-7z"/><path fill="#0E8383" d="M964 1390l10 1 5 3 1 7-3-4-3-3-10-3z"/><path fill="#0E8383" d="M882 1345h12l1 4-2 2v-3l-3-1h-7l-5 1 1-2z"/><path fill="#0A7372" d="M1419 1203h1l2 6v6h-3l-1-2v-7z"/><path fill="#0E8383" d="M832 1196l3 1-10 6-5 6-1-3 4-5z"/><path fill="#191F84" d="M1074 754l2 3h3l1 4-5 1-2 1z"/><path fill="#191F84" d="M1196 546l2 3 1 4v8l-2 1-1-9z"/><path fill="#181E83" d="M1060 548h4l2 4-5 2-3-1 1-2-2-1z"/><path fill="#191F84" d="M957 437h1v9l3 1v3l-4-1-3-3z"/><path fill="#171D82" d="M1252 348l1 2-2 7-3 1-2-1 1-5h2l1-3z"/><path fill="#191F84" d="M1262 325l8 4-1 3-5-1-3-5z"/><path fill="#0C0F5E" d="M1329 68l4 2 5 7-1 2-7-7-2-1z"/><path fill="#EDFFFF" d="M403 1218h7l1 2-1 2h-7l-1-2z"/><path fill="#CCF8FF" d="M1410 1198l4 4 5-1-2 6-4-2-1-3-3-1z"/><path fill="#AFFCFE" d="M716 1185l4 1 3 3v2l3 1 3 9-3-3-6-9z"/><path fill="#BFFAFE" d="M1513 1181l5 1-1 7-6-5z"/><path fill="#FCFDFD" d="M1414 1180l5 1-1 3-5 2-3-1z"/><path fill="#0D8181" d="M416 1176l3 4 1 8h-2l-1 4z"/><path fill="#076565" d="M416 1172l3 3h4v5l-4-1-1-3h-2z"/><path fill="#EFFCFE" d="M1052 851l3 4 3 1v2l-4 2-4-1z"/><path fill="#0C1061" d="M986 793h2l-1 3-8 5h-3v-2z"/><path fill="#191F84" d="M900 559l2 1-1 8-4 1v-6z"/><path fill="#F0FEFE" d="M936 539l6 4 1 6h-2l-1 2-1-5-3-5z"/><path fill="#0A0E73" d="M1375 376l4 1-1 7h-4v-7z"/><path fill="#0E8383" d="M820 1445h1l1 15 7 2v1h-9z"/><path fill="#C9FEFE" d="M1041 1376h5l-5 5-3 2-1-4 1-2z"/><path fill="#BAFAFE" d="M1102 1253l2 2 1 12h-3l-1-4z"/><path fill="#076565" d="M371 1254l4 1 3 5v1h-5z"/><path fill="#CBFBFE" d="M523 1207l3 4 1 3v7l-2 3-1-11-1-1z"/><path fill="#0A6F6E" d="M424 1200h4l2 10-3-2v-2h-2z"/><path fill="#0B0F61" d="M581 952l7 6 4 4-1 3-9-9z"/><path fill="#0C0F5C" d="M837 858l4 1 3 5v2l-4-2-3-3z"/><path fill="#090D72" d="M1236 623l3 1v10h-2l-2-6z"/><path fill="#191F84" d="M768 85h5l4 2 1 3-7-1-3-1z"/><path fill="#0D737A" d="M571 1283l1 2h3l-1 3-2-1-1 5 2 1-4-1-1-4z"/><path fill="#EAFEFE" d="M420 1220l3 2v4h-5l-1-4z"/><path fill="#CCF8FF" d="M740 1208l4 2v3l-5 2-3-4h3z"/><path fill="#0E4167" d="M1278 1188l2 1-6 7-5 6v-3l6-8z"/><path fill="#EDFFFF" d="M392 1186h3l1 6-5-1v-4z"/><path fill="#0F1369" d="M942 1023l16 2v1h-20z"/><path fill="#171D82" d="M1018 759h2v3l-5 4-4-2z"/><path fill="#191F84" d="M1109 719l1 4 3 1-1 3h-5l-3 2 2-4 2-2z"/><path fill="#0D1166" d="M1115 691h2l-2 5-4 4h-2l4-8z"/><path fill="#6266AA" d="M901 480l3 1v4l-4 2-2-1v-4z"/><path fill="#0D8080" d="M984 1451l4 1-1 6h5l-4 2-2-1-1-5h-5l1-2z"/><path fill="#CCF8FF" d="M685 1196l3 1h-2v2l-7 5h-2l2-4z"/><path fill="#DAFFFF" d="M548 1190l4 4v3l-3 2h-3l2-6z"/><path fill="#0B7878" d="M562 1178h7l3 5-3-1-1-2h-5l-2 5-2-2 1-4z"/><path fill="#0C546E" d="M1143 1149h5l-5 5-3 1 1-5z"/><path fill="#141A7F" d="M929 845h1l1 11-2 2-2-1v-5h1z"/><path fill="#191F84" d="M968 811h1l2 6 5 4-2 1-5-2-2-5-2-1h3z"/><path fill="#181E83" d="M1031 751l2 1v3l-5 1-2 3-5-1 4-3z"/><path fill="#EDFFFF" d="M1205 680l5 2 5 6-1 2-7-6z"/><path fill="#191F84" d="M905 605l1 2 4 1-5 1-1 2h-2l-1 2 1-4-4-1z"/><path fill="#090D72" d="M896 590l2 4 1 3h-2v-2h-2l-1 6-2-2 2-7z"/><path fill="#191F84" d="M1194 580l3 1 4-1-2 1-1 4-4 2-1-6z"/><path fill="#EFFEFE" d="M1025 549h3v2l3-1-1 4-7 1 2-4z"/><path fill="#B8FBFE" d="M1047 1179l2 2 1 10-3-3-1-2v-6z"/><path fill="#096D6D" d="M566 1179l3 1 1 2 5 3 2 5-3-1-5-5z"/><path fill="#F3FEFE" d="M1008 488l2 1v6h-3l-1-2-7-1v-1l7-1z"/><path fill="#0A0E73" d="M576 243h2l2 4v3h3l-1 5h-2z"/><path fill="#0C1176" d="M880 117l12 2 1 2-6 1-7-3z"/></svg>