<svg xmlns="http://www.w3.org/2000/svg" role="img" viewBox="-143.50 224.50 624.00 100.50"><style>svg {enable-background:new -153 -46 652 652}</style><path d="M462.1 280.8v-12.9c0-.2-.2-.3-.4-.4h-26.4c-.2 0-.4-.2-.4-.4V251c0-.2-.2-.4-.4-.4h-12.8c-.2 0-.4.2-.4.4v46.7c0 .2.2.4.4.4h12.8c.2 0 .4-.2.4-.4v-16.3c0-.2.1-.4.3-.4h26.4c.4.1.5 0 .5-.2zm-26.7-42.6h33.2c.2 0 .4.2.4.4v11.7c0 .2-.2.4-.4.4h-33.2c-.2 0-.4-.2-.4-.4v-11.7c0-.2.2-.4.4-.4zm0 59.9h33.2c.2 0 .4.2.4.4v12.8c0 .2-.2.4-.4.4h-33.2c-.2 0-.4-.2-.4-.4v-12.8c0-.2.2-.4.4-.4zm-20.7 13.6c.2 0 .4-.2.4-.4v-.2L399.8 281c-.1-.2 0-.4.1-.5 7.2-2.8 11.3-10.9 11.3-19.1 0-19.6-15-23.2-21.1-23.2H360c-.2 0-.4.2-.4.4v72.7c0 .2.2.4.4.4h12.6c.2 0 .4-.2.4-.4v-26c0-.2.2-.4.4-.4h12.7c.1 0 .3.1.3.2l13 26.3c.1.1.2.2.3.2h15zm-29.1-40.1h-12.2c-.2 0-.4-.2-.4-.4v-19.3c0-.2.2-.4.4-.4h14.4c7.8 0 9.9 6 9.9 10.2.1 6.8-4.6 9.9-12.1 9.9zm-71.2-34.8l-22.2 7.2c-.1 0-.1.1-.2.1L278.3 263c0 .1-.1.1-.1.2v23.3c0 .1 0 .2.1.2l13.7 18.9c0 .1.1.1.2.1l22.2 7.2h.2l22.2-7.2c.1 0 .1-.1.2-.1l13.8-18.9c0-.1.1-.1.1-.2v-23.4c0-.1 0-.2-.1-.2L337 244.2c0-.1-.1-.1-.2-.1l-22.2-7.2c0-.1-.1-.1-.2-.1zm23.5 45.9l-8.8 12.1c0 .1-.1.1-.2.1l-14.3 4.6h-.2l-14.3-4.6c-.1 0-.1-.1-.2-.1l-8.8-12.1c0-.1-.1-.1-.1-.2v-15c0-.1 0-.2.1-.2l8.8-12.1c0-.1.1-.1.2-.1l14.3-4.7h.2l14.3 4.6c.1 0 .1.1.2.1l8.8 12.1c0 .1.1.1.1.2v15c0 .1-.1.2-.1.3zm-71.5 7.4c-.1-.1-.4-.1-.5 0-3.5 3.3-8.1 9.2-17.5 9.2-13.1 0-23.3-8.5-23.3-24.3 0-16.3 9.9-24.6 23.3-24.6 6.7.1 13 3 17.5 7.8.1.1.3.2.5 0l8.6-9.3c.1-.1.1-.3 0-.4-7.2-7.5-17.1-11.8-27.4-11.8-22 0-36.7 16.1-36.7 38.3 0 24 18.6 38.1 37 38.1 11.8 0 22.1-7.4 27.6-13.1.1-.1.1-.3 0-.4l-9.1-9.5zm-78.6-22.5h-32c-.2 0-.4-.2-.4-.4v-28.7c0-.2-.2-.4-.4-.4h-12.8c-.2 0-.4.2-.4.4v72.7c0 .2.2.4.4.4H155c.2 0 .4-.2.4-.4v-29.7c0-.2.2-.4.4-.4h32c.2 0 .4.2.4.4v29.8c0 .2.2.4.4.4h12.8c.2 0 .4-.2.4-.4v-72.7c0-.2-.2-.4-.4-.4h-12.8c-.2 0-.4.2-.4.4v28.6c0 .2-.2.4-.4.4zM93 252v19.3c0 .2.2.4.4.4h25.9c.2 0 .4.2.4.4v12.6c0 .2-.2.4-.4.4H93.4c-.2 0-.4.2-.4.4v26c0 .2-.2.4-.4.4H80c-.2 0-.4-.2-.4-.4v-72.7c0-.2.2-.4.4-.4h39.3c.2 0 .4.2.4.4v12.6c0 .2-.2.4-.4.4h-26c-.1-.2-.3-.1-.3.2zm26.7-.2v19.3c0 .2.2.4.4.4h12.6c.2 0 .4-.2.4-.4v-19.3c0-.2-.2-.4-.4-.4h-12.6c-.2.1-.4.2-.4.4zm-89.8-13.4L7.4 286.6v24.8c0 .2.2.4.4.4h12.8c.2 0 .4-.2.4-.4v-19.6c0-.2.2-.4.4-.4h33.2c.2 0 .4.2.4.4v19.6c0 .2.2.4.4.4h12.8c.2 0 .4-.2.4-.4v-24.6-.2l-23-48.2c-.1-.1-.2-.2-.3-.2H30.2c-.1 0-.2.1-.3.2zm-3.5 38.9l10.9-23.6c.1-.2.3-.3.5-.2.1 0 .1.1.2.2l10.9 23.6c.1.2 0 .4-.2.5H26.8c-.2 0-.4-.2-.4-.4v-.1zM-5.5 276s.1 0 0 0l4.7-14.3v-.2l-4.6-14.2c0-.1-.1-.1-.1-.2l-12.3-8.7c-.1 0-.1-.1-.2-.1h-36c-.2 0-.4.2-.4.4v72.7c0 .2.2.4.4.4h11.5c.2 0 .4-.2.4-.4v-26c0-.2.2-.4.4-.4l13.9-.1c.1 0 .3.1.3.2l13.1 26.5c.1.1.2.2.3.2H-.8c.2 0 .4-.2.4-.4v-.2l-14.2-28.3c-.1-.2 0-.4.1-.5l9-6.4zm-36.6-4.1v-21.3c0-.2.2-.4.4-.4h19.8c.1 0 .2 0 .2.1l5.5 4c.1 0 .1.1.1.2l2.1 6.5v.2l-2.1 6.5c0 .1-.1.1-.1.2l-6 4.2c-.1 0-.1.1-.2.1h-19.3c-.2.1-.4-.1-.4-.3zm-38 35.9v3.5c0 .2.2.4.4.4H-67c.2 0 .4-.2.4-.4v-40c0-.2-.2-.4-.4-.4h-29.8c-.2 0-.4.2-.4.4v12.9c0 .2.2.4.4.4h16.2c.2 0 .4.2.4.4v7.2c0 .1-.1.2-.2.3l-10.3 6.3c-.1 0-.1.1-.2.1h-11.2c-.1 0-.1 0-.2-.1l-9.9-6.1c-.1 0-.1-.1-.1-.1l-5.9-10.4V267.9v-.2l6-10.4c0-.1.1-.1.1-.1l9.9-6.1c.1 0 .1-.1.2-.1h11.7c.1 0 .1 0 .2.1l9 5.9s.1 0 .1.1l4 4.9c.1.2.4.2.5.1l9.8-7.7c.2-.1.2-.4.1-.5l-4.7-6.1-.1-.1-15.1-9.5c-.1 0-.1-.1-.2-.1h-19c-.1 0-.1 0-.2.1l-15.9 9.7c-.1 0-.1.1-.1.1l-9.2 16.3V285.4l9.2 16.3.1.1 16 9.8c.1 0 .1.1.2.1h18.4c.1 0 .1 0 .2-.1l6.5-4c.1-.1.2 0 .3 0 0 .1 0 .1.1.2 0-.1 0 0 0 0z"/></svg>