<?xml version="1.0" encoding="utf-8"?>
<!-- Generator: Adobe Illustrator 16.0.0, SVG Export Plug-In . SVG Version: 6.00 Build 0)  -->
<!DOCTYPE svg PUBLIC "-//W3C//DTD SVG 1.1//EN" "http://www.w3.org/Graphics/SVG/1.1/DTD/svg11.dtd">
<svg version="1.1" id="Layer_1" xmlns="http://www.w3.org/2000/svg" xmlns:xlink="http://www.w3.org/1999/xlink" x="0px" y="0px"
	 width="874.667px" height="167.167px" viewBox="0 0 874.667 167.167" enable-background="new 0 0 874.667 167.167"
	 xml:space="preserve">
<title>LOGO-01</title>
<path fill="#2E3E5F" d="M8.833,128.864h4.154v21.267H8.833V128.864z"/>
<path fill="#2E3E5F" d="M17.62,128.864h6.791l5.026,16.033l0,0l5.026-16.033h6.771v21.267H37.08v-17.469l0,0l-5.567,17.469H27.36
	l-5.587-17.571l0,0v17.571h-4.154L17.62,128.864L17.62,128.864z"/>
<path fill="#2E3E5F" d="M52.284,128.864h4.797l8.309,21.267h-4.694l-1.828-4.86H50.29l-1.849,4.86h-4.403L52.284,128.864z
	 M54.631,133.018L54.631,133.018l-3.135,8.807h6.23L54.631,133.018z"/>
<path fill="#2E3E5F" d="M68.13,128.864h6.791l5.006,16.055l0,0l5.026-16.033h6.771v21.246H87.57v-17.466l0,0l-5.567,17.466h-4.154
	l-5.691-17.466l0,0v17.466h-4.154v-21.266h0.127V128.864z"/>
<path fill="#2E3E5F" d="M111.208,128.864h4.797l8.309,21.165h-4.714l-1.828-4.86h-8.579l-1.848,4.963h-4.383L111.208,128.864z
	 M113.553,133.018L113.553,133.018l-3.136,8.807h6.231L113.553,133.018z"/>
<path fill="#2E3E5F" d="M127.033,128.864h7.414c0.886-0.01,1.77,0.075,2.638,0.249c0.74,0.162,1.443,0.459,2.077,0.873
	c0.626,0.418,1.135,0.99,1.475,1.661c0.385,0.817,0.57,1.714,0.54,2.618c0.008,0.608-0.096,1.216-0.311,1.786
	c-0.2,0.517-0.496,0.988-0.873,1.393c-0.38,0.408-0.83,0.746-1.329,0.995c-0.539,0.266-1.112,0.455-1.703,0.562l0,0
	c0.649,0.056,1.287,0.21,1.89,0.456c0.566,0.232,1.087,0.563,1.538,0.977c0.444,0.414,0.798,0.916,1.038,1.476
	c0.259,0.607,0.386,1.267,0.374,1.931c0.026,0.979-0.181,1.957-0.602,2.844c-0.377,0.761-0.932,1.417-1.62,1.911
	c-0.714,0.505-1.518,0.864-2.368,1.059c-0.938,0.226-1.901,0.338-2.866,0.333h-7.311V128.864L127.033,128.864z M131.187,137.422
	h1.828c0.442,0.033,0.887,0.033,1.329,0c0.441-0.063,0.869-0.197,1.267-0.395c0.372-0.182,0.694-0.452,0.934-0.791
	c0.261-0.383,0.385-0.845,0.353-1.307c0.036-0.53-0.088-1.056-0.353-1.517c-0.226-0.351-0.551-0.626-0.934-0.788
	c-0.416-0.175-0.858-0.271-1.308-0.292h-1.496h-1.537v5.215L131.187,137.422z M131.187,146.706h2.077
	c0.508-0.004,1.015-0.045,1.517-0.124c0.491-0.069,0.968-0.219,1.413-0.437c0.414-0.207,0.771-0.515,1.038-0.892
	c0.292-0.442,0.437-0.967,0.416-1.497c0.005-0.525-0.093-1.05-0.29-1.537c-0.216-0.485-0.599-0.876-1.081-1.1l-0.685-0.312
	c-0.233-0.095-0.477-0.155-0.727-0.186h-0.789h-2.804v6.126L131.187,146.706z"/>
<path fill="#2E3E5F" d="M145.538,128.864h6.084c0.694,0,1.387,0.032,2.078,0.103c0.7,0.08,1.393,0.205,2.077,0.376
	c0.708,0.17,1.402,0.392,2.077,0.663c0.66,0.265,1.293,0.592,1.89,0.977c0.681,0.446,1.278,1.009,1.766,1.662
	c0.467,0.639,0.844,1.337,1.122,2.077c0.286,0.744,0.488,1.516,0.602,2.305c0.111,0.799,0.167,1.603,0.166,2.409
	c0.051,1.7-0.253,3.39-0.893,4.967c-0.544,1.277-1.402,2.399-2.493,3.26c-1.143,0.872-2.461,1.489-3.863,1.807
	c-1.627,0.377-3.294,0.559-4.964,0.54h-5.65v-21.145H145.538z M149.692,146.706h2.347c0.978,0.012,1.947-0.18,2.846-0.561
	c0.832-0.354,1.581-0.878,2.202-1.537c0.619-0.667,1.098-1.45,1.413-2.306c0.339-0.916,0.509-1.887,0.498-2.867
	c0.008-0.977-0.162-1.947-0.498-2.865c-0.313-0.849-0.793-1.626-1.413-2.286c-0.623-0.649-1.372-1.166-2.202-1.516
	c-0.9-0.379-1.869-0.57-2.846-0.561h-2.243v14.539L149.692,146.706z"/>
<path fill="#2E3E5F" d="M167.285,128.864h4.154v12.23c0,0.738,0.062,1.476,0.187,2.203c0.108,0.676,0.342,1.323,0.685,1.913
	c0.329,0.558,0.793,1.021,1.351,1.349c0.634,0.352,1.351,0.53,2.077,0.518c0.766,0.033,1.525-0.139,2.202-0.499
	c0.558-0.317,1.024-0.777,1.351-1.328c0.338-0.592,0.564-1.239,0.664-1.912c0.123-0.733,0.187-1.478,0.188-2.222v-12.232h4.154
	v13.521c0.028,1.246-0.177,2.485-0.602,3.654c-0.354,0.959-0.939,1.813-1.703,2.493c-0.789,0.669-1.72,1.152-2.721,1.413
	c-2.379,0.599-4.869,0.599-7.249,0c-0.994-0.263-1.917-0.746-2.7-1.413c-0.763-0.68-1.348-1.534-1.703-2.493
	c-0.418-1.173-0.616-2.412-0.581-3.654v-13.521L167.285,128.864z"/>
<path fill="#2E3E5F" d="M189.321,128.864h4.154v17.84h8.308v3.427h-12.461L189.321,128.864L189.321,128.864z"/>
<path fill="#2E3E5F" d="M204.109,128.864h5.795h2.077c0.696,0.025,1.391,0.103,2.077,0.227c0.62,0.112,1.227,0.292,1.807,0.54
	c0.553,0.231,1.054,0.57,1.474,0.998c0.435,0.459,0.768,1.005,0.977,1.599c0.254,0.755,0.373,1.549,0.352,2.347
	c0.008,0.63-0.097,1.256-0.311,1.847c-0.2,0.546-0.503,1.047-0.893,1.476c-0.395,0.43-0.868,0.781-1.392,1.038
	c-0.56,0.278-1.164,0.463-1.786,0.54l0,0c0.279,0.036,0.548,0.127,0.79,0.271c0.23,0.136,0.44,0.304,0.623,0.497
	c0.186,0.201,0.347,0.425,0.477,0.667c0.139,0.249,0.256,0.497,0.354,0.746l3.385,8.309h-4.714l-2.555-6.604
	c-0.129-0.355-0.283-0.702-0.456-1.039c-0.139-0.265-0.33-0.497-0.561-0.685c-0.234-0.18-0.503-0.307-0.79-0.375
	c-0.375-0.079-0.759-0.113-1.142-0.103h-1.372v8.973h-4.154v-21.266L204.109,128.864L204.109,128.864L204.109,128.864z
	 M208.263,137.899h1.392h1.101c0.392-0.028,0.782-0.093,1.164-0.187c0.376-0.093,0.74-0.23,1.08-0.416
	c0.323-0.168,0.595-0.419,0.789-0.727c0.148-0.227,0.248-0.479,0.291-0.748c0.022-0.268,0.022-0.54,0-0.809
	c0.034-0.557-0.111-1.11-0.416-1.58c-0.267-0.371-0.635-0.659-1.059-0.829c-0.464-0.186-0.955-0.29-1.455-0.312h-1.578h-1.393v5.69
	L208.263,137.899z"/>
<path fill="#2E3E5F" d="M229.032,128.864h4.798l8.308,21.165h-4.694l-1.744-4.86h-8.578l-1.932,4.963h-4.402L229.032,128.864z
	 M231.379,133.018L231.379,133.018l-3.053,8.724h6.231L231.379,133.018z"/>
<path fill="#2E3E5F" d="M244.88,128.864h4.154v8.559h8.475v-8.559h4.154v21.267h-4.154v-9.285h-8.475v9.285h-4.154V128.864
	L244.88,128.864z"/>
<path fill="#2E3E5F" d="M266.853,128.864h6.791l5.026,16.033l0,0l5.026-16.033h6.771v21.267h-4.153v-17.469l0,0l-5.671,17.469
	h-4.154l-5.69-17.469l0,0v17.469h-4.154v-21.267H266.853z"/>
<path fill="#2E3E5F" d="M301.414,128.864h4.798l8.308,21.165h-4.693l-1.828-4.86h-8.578l-1.848,4.963h-4.402L301.414,128.864z
	 M303.761,133.018L303.761,133.018l-3.053,8.724h6.231L303.761,133.018z"/>
<path fill="#2E3E5F" d="M317.033,128.864h5.214l8.059,15.825l0,0v-15.825h4.154v21.267h-5.298l-8.101-15.826l0,0v15.826h-4.153
	v-21.267H317.033z"/>
<path fill="#2E3E5F" d="M347.563,128.864h7.415c0.887-0.01,1.77,0.075,2.638,0.249c0.74,0.162,1.443,0.459,2.077,0.873
	c0.628,0.418,1.135,0.99,1.475,1.661c0.385,0.817,0.57,1.714,0.54,2.618c0.01,0.608-0.097,1.216-0.309,1.786
	c-0.199,0.517-0.496,0.988-0.873,1.393c-0.381,0.408-0.832,0.746-1.331,0.995c-0.54,0.266-1.113,0.455-1.704,0.562l0,0
	c0.65,0.056,1.287,0.21,1.89,0.456c0.565,0.232,1.087,0.563,1.537,0.977c0.445,0.414,0.799,0.916,1.039,1.476
	c0.26,0.607,0.389,1.267,0.374,1.931c0.026,0.979-0.18,1.957-0.6,2.844c-0.379,0.761-0.934,1.417-1.623,1.911
	c-0.713,0.505-1.515,0.864-2.368,1.059c-0.938,0.226-1.9,0.338-2.867,0.333h-7.413v-21.122H347.563z M351.718,137.422h1.827
	c0.443,0.033,0.888,0.033,1.331,0c0.439-0.063,0.87-0.197,1.266-0.395c0.373-0.182,0.693-0.452,0.934-0.791
	c0.261-0.383,0.386-0.845,0.353-1.307c0.034-0.53-0.089-1.056-0.353-1.517c-0.225-0.351-0.551-0.626-0.934-0.788
	c-0.416-0.175-0.858-0.271-1.308-0.292h-1.496h-1.537v5.215L351.718,137.422z M351.718,146.706h2.077
	c0.51-0.004,1.015-0.045,1.516-0.124c0.491-0.069,0.968-0.219,1.412-0.437c0.415-0.207,0.771-0.515,1.04-0.892
	c0.292-0.442,0.436-0.967,0.416-1.497c0.007-0.525-0.094-1.05-0.291-1.537c-0.216-0.485-0.597-0.876-1.081-1.1l-0.684-0.312
	c-0.233-0.095-0.478-0.155-0.727-0.186h-0.789h-2.804v6.126L351.718,146.706z"/>
<path fill="#2E3E5F" d="M365.696,128.864h4.152v21.267h-4.152V128.864z"/>
<path fill="#2E3E5F" d="M374.273,128.864h5.213l8.061,15.825l0,0v-15.825h4.152v21.267h-5.213l-8.101-15.826l0,0v15.826h-4.153
	v-21.267H374.273z"/>
<path fill="#2E3E5F" d="M404.805,128.864h11.755v3.343h-7.518v5.216h7.145v3.321h-7.145v9.387h-4.154v-21.267H404.805
	L404.805,128.864z"/>
<path fill="#2E3E5F" d="M425.075,128.864h4.8l8.308,21.165h-4.694l-1.828-4.86h-8.578l-1.869,4.963h-4.404L425.075,128.864z
	 M427.423,133.018L427.423,133.018l-3.137,8.807h6.231L427.423,133.018z"/>
<path fill="#2E3E5F" d="M440.527,128.864h4.155v21.267h-4.155V128.864z"/>
<path fill="#2E3E5F" d="M460.695,132.768c-0.667-0.294-1.363-0.521-2.077-0.683c-0.723-0.154-1.464-0.231-2.202-0.229
	c-0.443,0-0.884,0.063-1.31,0.188c-0.387,0.104-0.746,0.29-1.058,0.539c-0.303,0.247-0.543,0.559-0.705,0.915
	c-0.18,0.411-0.266,0.858-0.25,1.309c-0.006,0.35,0.103,0.692,0.31,0.975c0.227,0.3,0.511,0.555,0.831,0.748
	c0.385,0.234,0.787,0.436,1.205,0.602l1.433,0.582l1.516,0.643c0.507,0.228,0.994,0.5,1.454,0.809
	c0.465,0.311,0.89,0.673,1.267,1.081c0.379,0.422,0.681,0.906,0.894,1.432c0.146,0.367,0.242,0.751,0.29,1.143
	c0.021,0.395,0.021,0.789,0,1.184c0.037,1.034-0.186,2.063-0.644,2.991c-0.4,0.825-1,1.539-1.744,2.076
	c-0.768,0.524-1.628,0.897-2.535,1.101c-0.988,0.228-1.999,0.341-3.013,0.333c-0.894-0.047-1.784-0.173-2.658-0.373
	c-0.899-0.167-1.801-0.36-2.701-0.582l0.395-3.821c0.732,0.414,1.514,0.732,2.325,0.955c0.807,0.225,1.637,0.335,2.472,0.333
	c0.428,0,0.853-0.049,1.269-0.146c0.423-0.103,0.831-0.268,1.204-0.499c0.354-0.216,0.658-0.508,0.892-0.85
	c0.248-0.367,0.371-0.805,0.352-1.248c0.027-0.227,0.027-0.456,0-0.684c-0.05-0.224-0.143-0.434-0.269-0.622
	c-0.137-0.187-0.298-0.354-0.478-0.499c-0.182-0.155-0.375-0.294-0.58-0.416c-0.509-0.284-1.036-0.533-1.579-0.749l-1.621-0.642
	l-0.851-0.375l-0.811-0.456c-0.462-0.271-0.898-0.587-1.307-0.933c-0.359-0.315-0.677-0.68-0.934-1.082
	c-0.254-0.403-0.443-0.846-0.562-1.309c-0.131-0.521-0.193-1.06-0.186-1.599c0-0.487,0.043-0.973,0.126-1.454
	c0.083-0.471,0.223-0.93,0.416-1.37c0.188-0.438,0.433-0.85,0.725-1.225c0.3-0.381,0.656-0.71,1.058-0.977
	c0.735-0.497,1.551-0.862,2.411-1.081c0.862-0.219,1.748-0.33,2.638-0.33c0.86,0.002,1.721,0.063,2.575,0.186
	c0.855,0.122,1.694,0.314,2.514,0.582L460.695,132.768z"/>
<path fill="#2E3E5F" d="M472.222,128.864h4.8l8.309,21.165h-4.695l-1.827-4.86h-8.577l-1.912,4.963h-4.403L472.222,128.864z
	 M474.57,133.018L474.57,133.018l-3.053,8.724h6.229L474.57,133.018z"/>
<path fill="#2E3E5F" d="M488.068,128.864h4.154v17.84h8.309v3.427h-12.463V128.864z"/>
<path fill="#2E3E5F" d="M511.498,128.864h4.153v12.23c0,0.738,0.063,1.476,0.188,2.203c0.106,0.676,0.341,1.323,0.683,1.913
	c0.331,0.556,0.795,1.019,1.35,1.349c0.637,0.352,1.352,0.53,2.079,0.518c0.764,0.031,1.523-0.141,2.202-0.499
	c0.557-0.317,1.021-0.777,1.348-1.328c0.34-0.592,0.564-1.239,0.667-1.912c0.114-0.735,0.17-1.478,0.166-2.222v-12.232h4.151v13.521
	c0.035,1.244-0.162,2.483-0.58,3.654c-0.354,0.959-0.939,1.813-1.703,2.493c-0.791,0.669-1.719,1.152-2.721,1.413
	c-2.38,0.599-4.87,0.599-7.249,0c-0.994-0.263-1.916-0.746-2.699-1.413c-0.764-0.68-1.35-1.534-1.705-2.493
	c-0.418-1.173-0.615-2.412-0.582-3.654v-13.521L511.498,128.864z"/>
<path fill="#2E3E5F" d="M533.326,128.864h5.213l8.06,15.825l0,0v-15.825h4.153v21.267h-5.17l-8.104-15.826l0,0v15.826h-4.151
	V128.864L533.326,128.864z"/>
<path fill="#2E3E5F" d="M555.031,128.864h4.153v21.267h-4.153V128.864z"/>
<path fill="#2E3E5F" d="M561.676,128.864h4.548l5.424,16.615l0,0l5.379-16.615h4.153l-6.938,21.267h-5.213L561.676,128.864z"/>
<path fill="#2E3E5F" d="M584.046,128.864h12.46v3.343H588.2v5.216h7.539v3.321H588.2v5.939h8.307v3.447h-12.46V128.864z"/>
<path fill="#2E3E5F" d="M600.536,128.864h5.795h2.079c0.697,0.025,1.39,0.103,2.076,0.227c0.621,0.112,1.228,0.292,1.808,0.54
	c0.546,0.233,1.039,0.572,1.454,0.998c0.436,0.457,0.768,1.005,0.977,1.599c0.256,0.755,0.373,1.549,0.353,2.347
	c0.01,0.63-0.099,1.256-0.312,1.847c-0.199,0.546-0.503,1.047-0.894,1.476c-0.393,0.43-0.866,0.781-1.389,1.038
	c-0.563,0.278-1.167,0.463-1.788,0.54l0,0c0.278,0.036,0.547,0.127,0.789,0.271c0.229,0.136,0.44,0.304,0.624,0.497
	c0.186,0.201,0.349,0.425,0.476,0.667c0.142,0.249,0.258,0.497,0.354,0.746l3.386,8.309h-4.695l-2.554-6.604
	c-0.132-0.355-0.284-0.702-0.457-1.039c-0.141-0.265-0.33-0.497-0.561-0.685c-0.231-0.18-0.503-0.307-0.791-0.375
	c-0.375-0.079-0.758-0.113-1.141-0.103h-1.348v8.973h-4.155v-21.266h-0.085v-0.001H600.536z M604.691,137.899h1.389h1.102
	c0.391-0.028,0.781-0.091,1.162-0.187c0.377-0.093,0.739-0.23,1.081-0.416c0.319-0.172,0.592-0.421,0.789-0.727
	c0.143-0.227,0.232-0.481,0.269-0.748c0.023-0.268,0.023-0.54,0-0.809c0.035-0.557-0.112-1.11-0.414-1.58
	c-0.269-0.371-0.636-0.659-1.06-0.829c-0.464-0.186-0.955-0.29-1.454-0.312h-1.558h-1.225v5.69L604.691,137.899z"/>
<path fill="#2E3E5F" d="M630.777,132.768c-0.669-0.294-1.365-0.521-2.076-0.683c-0.726-0.154-1.464-0.231-2.204-0.229
	c-0.441,0-0.884,0.063-1.308,0.188c-0.387,0.104-0.748,0.29-1.058,0.539c-0.304,0.247-0.545,0.559-0.708,0.915
	c-0.178,0.411-0.265,0.858-0.249,1.309c-0.004,0.35,0.104,0.692,0.312,0.975c0.226,0.3,0.51,0.555,0.829,0.748
	c0.387,0.234,0.789,0.436,1.207,0.602l1.431,0.582l1.516,0.643c0.509,0.228,0.994,0.5,1.454,0.809
	c0.458,0.311,0.878,0.673,1.249,1.081c0.379,0.422,0.681,0.906,0.892,1.432c0.146,0.367,0.243,0.751,0.29,1.143
	c0.023,0.395,0.023,0.789,0,1.184c0.037,1.034-0.184,2.063-0.642,2.991c-0.4,0.825-1.002,1.539-1.746,2.076
	c-0.766,0.524-1.629,0.897-2.535,1.101c-0.986,0.228-1.999,0.341-3.011,0.333c-0.92,0-1.837-0.083-2.744-0.25
	c-0.896-0.166-1.798-0.357-2.699-0.58l0.393-3.82c0.728,0.41,1.503,0.73,2.305,0.955c0.807,0.223,1.636,0.334,2.472,0.332
	c0.429,0,0.853-0.05,1.267-0.146c0.425-0.101,0.833-0.268,1.204-0.497c0.356-0.219,0.659-0.509,0.894-0.85
	c0.247-0.367,0.371-0.806,0.352-1.248c0.027-0.228,0.027-0.458,0-0.684c-0.052-0.226-0.143-0.435-0.269-0.625
	c-0.139-0.187-0.298-0.351-0.478-0.497c-0.182-0.154-0.377-0.293-0.582-0.415c-0.507-0.286-1.034-0.536-1.578-0.749l-1.62-0.644
	l-0.851-0.373l-0.811-0.456c-0.462-0.271-0.898-0.589-1.307-0.936c-0.361-0.313-0.677-0.678-0.934-1.079
	c-0.256-0.403-0.445-0.847-0.562-1.309c-0.131-0.521-0.191-1.06-0.186-1.599c0-0.487,0.041-0.973,0.124-1.454
	c0.085-0.473,0.225-0.933,0.416-1.372c0.188-0.438,0.433-0.85,0.725-1.225c0.3-0.38,0.657-0.71,1.06-0.977
	c0.733-0.497,1.549-0.862,2.411-1.079c0.86-0.221,1.748-0.333,2.636-0.333c0.862,0.002,1.723,0.063,2.577,0.187
	c0.854,0.122,1.694,0.315,2.514,0.58L630.777,132.768z"/>
<path fill="#2E3E5F" d="M635.907,128.864h4.153v21.267h-4.153V128.864z"/>
<path fill="#2E3E5F" d="M648.536,132.207h-6.066v-3.343h16.366v3.343h-6.043v17.924h-4.155v-17.82L648.536,132.207z"/>
<path fill="#2E3E5F" d="M667.144,141.68l-7.748-12.814h4.966l5.006,8.89l5.089-8.89h4.486l-7.58,12.793v8.309h-4.155v-8.309
	L667.144,141.68z"/>
<rect x="667.083" y="107.208" fill="#2E3E5F" width="5.588" height="5.566"/>
<rect x="515.629" y="75.804" fill="#2E3E5F" width="7.687" height="28.745"/>
<path fill="#2E3E5F" d="M499.472,104.571L499.472,104.571c-0.893,0-1.848,0-2.867,0H499.472z"/>
<path fill="#2E3E5F" d="M499.472,99.482V84.655h-7.686v15.057h4.443C497.317,99.743,498.402,99.667,499.472,99.482z"/>
<path fill="#2E3E5F" d="M481.256,93.791c0.01-1.403-0.18-2.802-0.559-4.152c-0.353-1.258-0.969-2.426-1.807-3.427
	c-0.854-1-1.938-1.776-3.157-2.265c-1.601-0.58-3.303-0.847-5.006-0.789h-10.386v16.614h-4.963c-3.697,0-7.435-0.248-7.435-6.749
	V75.804h-7.688v15.6c0,10.882,4.155,13.168,14.81,13.168h15.743c1.403-0.026,2.798-0.223,4.153-0.582
	c1.178-0.309,2.271-0.891,3.179-1.704c0.998-0.863,1.787-1.943,2.305-3.156C481.073,97.422,481.349,95.607,481.256,93.791z
	 M474.361,97.634c-0.934,2.077-3.799,2.077-5.669,2.077h-2.454V88.016h2.454c1.752-0.121,3.496,0.314,4.982,1.247
	c0.94,1.358,1.361,3.01,1.184,4.651C474.943,95.177,474.773,96.44,474.361,97.634L474.361,97.634z"/>
<path fill="#2E3E5F" d="M222.718,92.959v-8.307l0,0v9.117C222.697,93.522,222.718,93.251,222.718,92.959z"/>
<path fill="#2E3E5F" d="M248.306,99.711c0.104-0.209,0.25-0.375,0.333-0.603c0.631-1.698,0.913-3.506,0.831-5.317
	c0.008-1.403-0.181-2.802-0.56-4.152c-0.353-1.259-0.969-2.425-1.807-3.427c-0.838-0.983-1.899-1.753-3.095-2.244
	c-1.603-0.58-3.302-0.847-5.005-0.789h-10.385v16.615h-5.795c0.009,1.62-0.124,3.239-0.394,4.838h6.479l0.312-4.838h19.212
	L248.306,99.711z M234.495,88.017h2.451c1.751-0.122,3.497,0.313,4.985,1.247c0.94,1.358,1.361,3.01,1.184,4.651
	c0.076,1.262-0.1,2.527-0.52,3.72c-0.934,2.076-3.8,2.076-5.669,2.076h-2.431V88.017L234.495,88.017z"/>
<path fill="#2E3E5F" d="M101.32,92.959v-8.307h-7.684v6.748c0,3.677-0.27,6.356-0.229,8.309h7.975
	C101.382,99.711,101.32,99.462,101.32,92.959z"/>
<rect x="543.191" y="75.743" fill="#2E3E5F" width="5.588" height="5.566"/>
<rect x="205.438" y="75.743" fill="#2E3E5F" width="5.588" height="5.566"/>
<rect x="112.37" y="75.743" fill="#2E3E5F" width="5.587" height="5.566"/>
<path fill="#2E3E5F" d="M435.772,91.569L426.01,78.94h-8.308l9.948,12.754l-5.193,7.495c-1.977-3.59-1.826-7.978,0.394-11.422
	l-4.382-5.711c-1.215,2.554-2.042,5.278-2.451,8.077c-4.86,1.018-11.86,8.308-12.815,14.54h6.459c0-4.009,3.695-7.955,6.48-7.955
	c0.021,2.825,0.81,5.59,2.285,7.995h7.893L435.772,91.569z"/>
<rect x="550.668" y="75.743" fill="#2E3E5F" width="5.588" height="5.566"/>
<path fill="#2E3E5F" d="M496.648,104.571c1.017,0,1.972,0,2.867,0c8.433-0.457,11.88-3.261,11.88-13.086V75.803h-7.767v17.156
	c0,4.55-1.83,6.023-4.154,6.521c-1.07,0.187-2.155,0.262-3.24,0.229H485.56v4.838h11.09v0.023H496.648z"/>
<polygon fill="#2E3E5F" points="55.731,91.091 49.521,85.442 49.521,99.711 55.731,99.711 "/>
<polygon fill="#2E3E5F" points="54.797,84.363 52.512,84.363 54.797,86.376 "/>
<rect x="318.777" y="75.804" fill="#2E3E5F" width="7.687" height="28.745"/>
<path fill="#2E3E5F" d="M306.856,92.959c0,5.193-2.388,6.398-5.234,6.667v1.081c0.007,1.283-0.069,2.567-0.228,3.842
	c9.367-0.249,13.147-2.847,13.147-13.127V75.804h-7.686V92.959L306.856,92.959z"/>
<path fill="#2E3E5F" d="M222.697,99.566V84.655h-8.08v16.614c0,6.397-3.469,7.04-7.103,7.103h-0.291v5.09h0.291
	c9.014,0,13.521-1.787,14.788-8.849c0.271-1.599,0.403-3.218,0.394-4.841C222.697,99.772,222.697,99.607,222.697,99.566z"/>
<path fill="#2E3E5F" d="M206.975,113.397L206.975,113.397z"/>
<path fill="#2E3E5F" d="M23.705,108.309v5.067c8.308-0.167,12.648-2.077,13.874-8.827h-7.499l0.312-4.84h7.581c0,0,0,0,0-0.144
	V75.745h-8.08v25.464c0,6.063-3.094,6.957-6.5,7.08h0.312V108.309z"/>
<path fill="#2E3E5F" d="M24.973,113.397L24.973,113.397L24.973,113.397z"/>
<path fill="#2E3E5F" d="M207.224,113.397L207.224,113.397z"/>
<path fill="#2E3E5F" d="M207.224,108.309h0.291c-3.635,0-7.103-0.685-7.103-7.103V90.198h-8.08v9.388
	c0,11.132,4.154,13.687,14.642,13.833h0.25V108.309z"/>
<path fill="#2E3E5F" d="M22.272,113.376h1.433v-5.067h-0.312c-3.405-0.125-6.5-1.017-6.5-7.082V90.198h-8.08v9.388
	C8.813,110.261,12.676,113.043,22.272,113.376z"/>
<path fill="#2E3E5F" d="M27.09,113.397L27.09,113.397z"/>
<path fill="#2E3E5F" d="M301.621,99.628V94.56h-7.768v7.706c0,6.498-3.737,6.748-7.436,6.748h-2.535v4.842h2.929
	c9.201,0,13.602-1.725,14.539-9.327c0.158-1.273,0.234-2.558,0.227-3.842v-1.059H301.621z"/>
<path fill="#2E3E5F" d="M620.164,86.231c-0.854-1-1.938-1.775-3.157-2.265c-1.604-0.58-3.301-0.846-5.005-0.789h-10.385v16.615
	h-20.313l7.934-6.126v-7.726l-12.462,9.739c-2.313-2.45-4.974-4.548-7.894-6.23c3.81-2.078,8.446-1.902,12.087,0.456l8.993-7.122
	l-1.181-0.394l-3.531,2.7c-7.062-2.761-13.729-3.386-21.102,0.81l0,0v7.645c2.947,1.6,5.611,3.669,7.894,6.126h-15.806V83.053
	h-11.404c-1.845-0.059-3.689,0.209-5.438,0.789c-1.306,0.476-2.479,1.253-3.429,2.265c-0.903,0.982-1.578,2.152-1.973,3.426
	c-0.409,1.348-0.612,2.747-0.603,4.155c-0.087,1.818,0.226,3.632,0.914,5.315c0.578,1.284,1.454,2.409,2.555,3.281
	c2.364,1.59,5.172,2.391,8.019,2.286h67.147c2.651,0.133,5.262-0.679,7.371-2.286c2.313-2.18,3.471-5.313,3.137-8.475
	c0.009-1.403-0.181-2.802-0.56-4.153C621.618,88.401,621,87.233,620.164,86.231z M549.735,99.711h-2.638
	c-2.077,0-5.13,0-6.232-2.078c-0.458-1.182-0.657-2.452-0.582-3.719c-0.186-1.659,0.275-3.324,1.29-4.651
	c1.646-0.937,3.53-1.371,5.422-1.247h2.68v11.672L549.735,99.711z M615.614,97.634c-0.932,2.077-3.802,2.077-5.669,2.077h-2.474
	V88.016h2.452c1.754-0.121,3.496,0.314,4.984,1.247c0.94,1.358,1.361,3.01,1.184,4.651C616.182,95.175,616.02,96.438,615.614,97.634
	z"/>
<path fill="#2E3E5F" d="M644.858,104.571h33.919v-7.062c0-6.232-4.153-13.17-14.808-13.17h-15.933v5.797h15.617
	c3.904-0.108,7.191,2.895,7.437,6.79v2.804h-25.92c-3.696,0-7.437-0.249-7.437-6.749V75.803h-7.686v15.599
	C630.05,102.286,634.265,104.571,644.858,104.571z"/>
<path fill="#2E3E5F" d="M266.292,104.571H284.3v-7.062c0-6.232-4.154-13.17-14.809-13.17h-15.93v5.797h15.618
	c3.904-0.108,7.192,2.895,7.436,6.79v2.804h-47.52l-0.312,4.841H266.292L266.292,104.571z"/>
<path fill="#2E3E5F" d="M30.081,104.571h29.368v-4.859h26.087v-2.202c0-6.232-4.154-13.17-14.809-13.17h-15.93v2.079l3.011,2.679
	l-0.956,1.059l0,0h13.521c3.911-0.132,7.221,2.866,7.478,6.771v2.804h-47.52L30.081,104.571z"/>
<rect x="359.112" y="88.661" fill="#2E3E5F" width="7.685" height="10.719"/>
<polygon fill="#2E3E5F" points="59.449,104.571 67.549,104.571 85.536,104.571 101.403,104.571 101.403,104.549 101.403,99.711 
	93.407,99.711 85.536,99.711 59.449,99.711 "/>
<path fill="#2E3E5F" d="M393.547,99.295h-2.305c-1.87,0-4.715,0-5.67-2.078c-0.419-1.191-0.597-2.456-0.519-3.718
	c-0.177-1.644,0.243-3.295,1.184-4.653c1.489-0.93,3.234-1.367,4.985-1.246h2.326v-4.818h-4.361
	c-1.704-0.059-3.403,0.211-5.005,0.791c-1.22,0.487-2.304,1.264-3.157,2.264c-0.838,1.001-1.454,2.167-1.805,3.427
	c-0.382,1.351-0.568,2.749-0.561,4.153c-0.082,1.809,0.2,3.617,0.831,5.316c0.104,0.25,0.25,0.436,0.375,0.665h13.687l0,0
	L393.547,99.295L393.547,99.295z"/>
<path fill="#2E3E5F" d="M349.931,97.737c0.38-1.352,0.567-2.749,0.559-4.153c0.083-1.811-0.2-3.617-0.831-5.317
	c-0.518-1.214-1.307-2.291-2.305-3.155c-0.909-0.813-1.999-1.397-3.178-1.704c-1.356-0.361-2.75-0.559-4.154-0.582h-5.088v4.924
	h3.032c1.871,0,4.716,0,5.671,2.076c0.418,1.191,0.597,2.456,0.519,3.719c0.178,1.642-0.243,3.293-1.183,4.652
	c-1.489,0.93-3.234,1.368-4.985,1.246h11.319C349.568,98.894,349.777,98.323,349.931,97.737z"/>
<polygon fill="#2E3E5F" points="393.443,104.571 393.443,104.216 393.443,99.711 393.443,99.379 379.798,99.379 366.796,99.379 
	359.112,99.379 349.225,99.379 337.906,99.379 334.853,99.379 334.853,104.216 334.853,104.571 373.92,104.571 "/>
<rect x="354.105" y="107.208" fill="#2E3E5F" width="5.587" height="5.566"/>
<rect x="93.324" y="107.208" fill="#2E3E5F" width="5.587" height="5.566"/>
<rect x="85.453" y="107.208" fill="#2E3E5F" width="5.587" height="5.566"/>
<polygon fill="#2E3E5F" points="56.833,90.156 56.874,90.115 57.809,89.055 54.797,86.376 52.512,84.363 48.025,80.374 
	47.174,81.329 47.049,81.476 "/>
<path fill="#2E3E5F" d="M127.531,89.657c-0.384-1.265-1.036-2.435-1.911-3.426c-0.854-1-1.937-1.775-3.157-2.265
	c-1.603-0.58-3.302-0.846-5.005-0.789h-10.384v16.615h-3.572v4.84h14.082c1.403-0.024,2.797-0.221,4.154-0.582
	c1.18-0.308,2.269-0.889,3.178-1.703c0.998-0.862,1.786-1.943,2.306-3.156c0.631-1.699,0.913-3.507,0.831-5.317
	C128.078,92.453,127.902,91.032,127.531,89.657z M121.196,97.634c-0.935,2.077-3.8,2.077-5.67,2.077h-2.368V88.016h2.452
	c1.751-0.121,3.497,0.314,4.984,1.247c0.941,1.358,1.361,3.01,1.184,4.651c0.051,1.267-0.154,2.533-0.602,3.72H121.196
	L121.196,97.634z"/>
<rect x="100.427" y="99.711" fill="#2E3E5F" width="3.053" height="4.817"/>
<path fill="#2E3E5F" d="M177.752,92.981c0,5.192-2.389,6.398-5.234,6.666v1.082c0.007,1.283-0.069,2.567-0.228,3.842
	c9.366-0.25,13.147-2.846,13.147-13.127v-6.791h-7.685v8.309L177.752,92.981L177.752,92.981z"/>
<path fill="#2E3E5F" d="M165.727,92.959v-8.307l0,0v9.117C165.706,93.522,165.727,93.251,165.727,92.959z"/>
<rect x="148.446" y="75.743" fill="#2E3E5F" width="5.588" height="5.566"/>
<rect x="171.292" y="107.5" fill="#2E3E5F" width="5.587" height="5.565"/>
<path fill="#2E3E5F" d="M165.706,99.566V84.655h-8.08v16.614c0,6.397-3.468,7.04-7.103,7.103h-0.291v5.09h0.312
	c9.014,0,13.52-1.787,14.788-8.849c0.271-1.599,0.403-3.218,0.395-4.841C165.727,99.772,165.706,99.607,165.706,99.566z"/>
<path fill="#2E3E5F" d="M150.232,108.309h0.312c-3.634,0-7.103-0.685-7.103-7.103V90.198h-8.101v9.388
	c0,11.132,4.154,13.687,14.643,13.833h0.249V108.309L150.232,108.309z"/>
<rect x="164.232" y="99.648" fill="#2E3E5F" width="8.287" height="4.901"/>
<path fill="#2E3E5F" d="M497.831,111.57h-0.622c-0.566,0.114-1.15-0.093-1.516-0.541c-0.116-0.317-0.165-0.657-0.146-0.996
	c-0.05-0.438,0.062-0.884,0.312-1.247c0.396-0.247,0.862-0.363,1.33-0.332h0.623v-1.288h-1.164
	c-0.453-0.018-0.903,0.056-1.331,0.208c-0.322,0.128-0.606,0.335-0.829,0.601c-0.223,0.269-0.385,0.58-0.478,0.914
	c-0.101,0.357-0.146,0.729-0.146,1.101c-0.019,0.481,0.061,0.962,0.229,1.413v0.186h3.636L497.831,111.57z"/>
<polygon fill="#2E3E5F" points="498.515,112.96 498.515,112.858 498.515,111.654 498.515,111.57 497.166,111.57 495.878,111.57 
	495.131,111.57 494.134,111.57 493.012,111.57 492.722,111.57 492.722,112.858 492.722,112.96 496.585,112.96 "/>
<polygon fill="#8599B6" points="807.234,93.6 819.24,105.607 826.566,78.194 814.576,66.202 "/>
<polygon points="842.998,73.831 848.986,79.819 859.367,69.42 847.376,57.415 "/>
<path fill="#8599B6" d="M832.103,35.222l10.533,10.532l7.838-5.462c0.26-0.177,0.59-0.206,0.873-0.075
	c0.332,0.174,0.486,0.564,0.361,0.917l-2.889,10.833l12.037,12.036l10.199-38.064l5.342-19.922c0.113-0.434-0.146-0.878-0.58-0.99
	c-0.23-0.061-0.475-0.018-0.668,0.118L832.103,35.222z"/>
<polygon fill="#8599B6" points="820.744,43.181 816.035,60.741 828.027,72.731 833.533,52.164 838.574,48.627 828.027,38.081 "/>
<path fill="#2E3E5F" d="M838.65,90.095l-42.479-42.31c-0.203-0.205-0.502-0.285-0.781-0.211l-65.117,17.453l0,0l-15.047,4.033
	c-0.436,0.11-0.693,0.558-0.582,0.989c0.037,0.146,0.113,0.275,0.221,0.379l11,10.998l60.756,60.756l10.395-10.396l-53.742-53.729
	c-0.322-0.313-0.328-0.826-0.02-1.147c0.105-0.105,0.236-0.185,0.379-0.221l47.455-12.714c0.279-0.074,0.578,0.006,0.783,0.21
	l36.381,36.381L838.65,90.095z"/>
<path fill="#2E3E5F" d="M740.64,33.852L740.64,33.852l-15.047,4.032c-0.434,0.113-0.693,0.558-0.582,0.991
	c0.039,0.146,0.113,0.275,0.223,0.378l11,10.999l71.137,71.138l10.395-10.396l-64.109-64.143c-0.322-0.313-0.33-0.826-0.02-1.148
	c0.105-0.106,0.234-0.183,0.379-0.22l47.365-12.685c0.279-0.074,0.578,0.006,0.781,0.21l46.809,46.81l10.396-10.396L806.554,16.61
	c-0.203-0.205-0.502-0.284-0.779-0.21L740.64,33.852z"/>
</svg>
