<svg xmlns="http://www.w3.org/2000/svg" role="img" viewBox="-19.98 -19.98 1038.96 440.96"><g fill="#1F70C1"><path d="M0 373.217h194.433v27.833H0z"/><path d="M0 319.83h194.433v27.931H0z"/><path d="M55.468 266.541h83.399v27.932H55.468z"/><path d="M55.468 213.253h83.399v27.932H55.468z"/><path d="M55.468 159.964h83.399v27.932H55.468z"/><path d="M55.468 106.577h83.399v27.932H55.468z"/><path d="M0 53.288h194.433V81.22H0z"/><path d="M0 0h194.433v27.932H0z"/><g><path d="M222.167 347.761h299.029c5.051-8.617 8.815-18.027 11.094-27.932H222.167v27.932z"/><path d="M497.92 213.253H277.734v27.932h243.463c-6.34-10.698-14.165-20.107-23.277-27.932z"/><path d="M277.734 159.964v27.932H497.92c9.311-7.825 17.135-17.235 23.277-27.932H277.734z"/><path d="M521.197 53.288h-299.03V81.22H532.29c-2.575-9.905-6.339-19.314-11.093-27.932z"/><path d="M429.279 0H222.167v27.932h278.526C482.072 10.697 456.815 0 429.279 0z"/><path d="M277.734 106.577h83.3v27.932h-83.3z"/><path d="M444.433 134.509h87.163c2.476-8.914 3.764-18.324 3.764-27.932h-90.927v27.932z"/><path d="M277.734 266.541h83.3v27.932h-83.3z"/><path d="M444.433 266.541v27.932h90.927c0-9.608-1.288-19.017-3.764-27.932h-87.163z"/><path d="M222.167 400.852l207.112.297c27.734 0 52.793-10.697 71.513-27.932H222.167v27.635z"/></g><g><path d="M555.567 373.217h138.866v27.833H555.567z"/><path d="M555.567 319.83h138.866v27.931H555.567z"/><path d="M611.034 266.541h83.399v27.932h-83.399z"/><path d="M611.034 213.253h83.399v27.932h-83.399z"/><path d="M733.063 53.288H555.567V81.22H742.67z"/><path d="M714.639 0H555.567v27.932h168.68z"/><path d="M861.034 373.217H1000v27.833H861.034z"/><path d="M861.034 319.83H1000v27.931H861.034z"/><path d="M861.034 266.541h83.399v27.932h-83.399z"/><path d="M861.034 213.253h83.399v27.932h-83.399z"/><path d="M861.034 187.896h83.399v-27.932H785.559l-7.825 22.584-7.825-22.584H611.034v27.932h83.399v-25.654l8.816 25.654h148.97l8.815-25.654z"/><path d="M944.433 106.577H803.982l-9.608 27.932h150.059z"/><path d="M840.927 0l-9.608 27.932H1000V0z"/><path d="M777.734 400.852l9.607-27.635h-19.215z"/><path d="M759.311 347.761h36.846l9.905-27.931h-56.557z"/><path d="M740.59 294.473h74.287l9.806-27.932h-93.899z"/><path d="M721.969 241.185h111.628l9.509-27.932H712.361z"/><path d="M611.034 134.509h150.059l-9.607-27.932H611.034z"/><path d="M812.896 81.22H1000V53.288H822.405z"/></g></g></svg>