<svg xmlns="http://www.w3.org/2000/svg" role="img" viewBox="48.35 100.85 1775.80 533.30"><path fill="#FEFEFE" d="M0 0h2048v707H0z"/><path fill="#524F52" d="M1620 210l3 1 8 14 10 16 11 20 10 17 8 15v2l-58 11-30 5-16 3-3 2h21l97-5 6 9 15 27 9 15 16 28 17 29 9 15 13 23 13 22 10 16 2 7-213 1-126-1 8-16 8-14 10-17 10-18 6-9 9-16 9-15 11-20 7-11 11-19 14-24 9-14 12-23 13-22 10-17 9-15 9-16z"/><path fill="#524F52" d="M1288 240l15 1 8 3 10 10 7 11 8 14v-37h39l1 307-2 19-3 10-6 10-9 7-8 4-16 3h-29l-15-3-9-5-8-8-4-8-2-9-1-22 1-24h38l1 25 2 7 4 5 4 2h11l8-5 2-6 1-7v-83l-8 18-7 11-6 7-11 8-3 1h-13l-7-3-6-5-6-10-4-11-2-20v-28l1-149 3-17 7-14 7-6z"/><path fill="#524F52" d="M1049 237h20l16 3 12 6 10 10 6 10 4 9 1 11 1 9v155l-2 14-4 13-6 10-9 10-11 7-16 4h-19l-13-2-10-5-11-10-6-10-4-10-2-9-1-11V301l1-16 4-16 8-15 7-8 14-7z"/><path fill="#524F52" d="M127 237h17l15 2 12 5 10 8 7 9 5 12 2 11v174l-2 10-5 12-6 9-10 10-11 7-11 2h-21l-13-2-12-6-10-10-7-14-3-12V278l2-8 7-14 9-10 8-5 10-3z"/><path fill="#524F52" d="M639 239h12l15 2 11 4 9 7 6 9 3 9 2 21v160l1 7 5 2 8 1 1 1v40l-2 2h-33l-12-2-4-5-2-11-1-21-2 1-7 16-8 12-7 6-10 4-15 1-9-5-6-10-4-11-1-8v-53l1-34 3-12 6-10 8-9 18-11 9-5 2-2 6-2 8-6 6-4 1-5v-26l-3-10-5-5-8-1-9 4-4 5-1 7v29l-6 1h-30v-40l2-13 4-10 8-10 6-5 8-3z"/><path fill="#524F52" d="M399 237h21l14 3 8 5 5 4 8 11 5 13 1 5 1 22v72l-1 4-68 1v68l2 9 5 8 4 2h9l5-2 2-5 2-4 1-11 1-41h38v40l-3 32-5 13-6 8-15 11-15 3h-21l-13-2-10-6-8-8-8-16-2-6-2-18V287l3-15 8-17 5-6 14-8 9-3z"/><path fill="#524F52" d="M299 240h9l9 3 7 6 6 12 2 8v232l-1 3h-21l-18-1-1-43v-45l-1-119-3-9-9-4h-8l-8 7-2 5-1 12-1 194-3 2h-34l-1-1V242h37l1 39 1 1 12-24 11-11 8-5z"/><path fill="#524F52" d="M772 237h17l14 3 14 7 6 7 6 13 2 9 1 26v17l-1 17-13 1h-24l-1-46-4-8-3-3-8-1-9 3-3 3-2 7-1 36v52l1 69 3 10 1 3 6 2h9l6-3 3-9 1-7 1-54h37l1 40v16l-2 21-4 13-6 10-6 7-11 7-12 3h-19l-16-2-7-3-12-9-8-13-4-12-2-13V289l2-15 5-12 6-9 8-7 8-6 3-1 11-1z"/><path fill="#524F52" d="M554 137h20l1 1v40l-10 2-18 4-1 1v55l29 1v43l-1 1h-29v114l-1 104h-40l-1-217-25-1-1-1v-43l27-1v-80l3-10 7-7 7-4 4-1z"/><path fill="#524F52" d="M874 153h40v87l26 1 1 2-1 41-1 1h-25l1 158 2 11 1 4 6 1 17 1v34l-1 9h-45l-9-2-6-5-4-8-2-8-1-10V285h-24l-1-6v-37l3-1 21-1 1-86z"/><path fill="#524F52" d="M1213 241h17l6 3 4 5 2 5v96l-1 11-2 1-34-1-1-65-3-8-9-3-5 1-3 3-2 6-1 207-1 1h-32l-6-2V242h39v42l2-1 11-26 9-10z"/><path fill="#FEFEFE" d="M1058 279l9 1 6 5 5 10 1 4v140l-1 12-3 6-9 7-7 1-6-3-5-8-3-13-1-31v-54l1-56 2-9 5-8z"/><path fill="#FEFEFE" d="M1315 280h7l6 3 5 4 3 6 1 27v116l-2 13-6 12-3 3h-7l-9-4-4-5-2-10-1-12V311l1-15 4-10z"/><path fill="#FEFEFE" d="M134 280h10l6 3 4 5 1 2v160l-5 10-6 4h-10l-7-6-3-7-2-14V300l1-10 5-7z"/><path fill="#FEFEFE" d="M1516 435h213l6 9 4 9-3 1h-229l-2-2 6-11z"/><path fill="#FEFEFE" d="M1496 468h251l5 5 3 8-1 1h-266l6-12z"/><path fill="#FEFEFE" d="M1536 401l173 1 6 8 5 10-34 1h-162l2-5 7-12z"/><path fill="#FEFEFE" d="M1554 369h136l7 10 3 7-3 1h-153l2-6 7-11z"/><path fill="#FEFEFE" d="M654 366l4 2v76l-4 16-5 4h-10l-5-3-6-8v-59l7-11 13-13z"/><path fill="#FEFEFE" d="M405 276h8l9 6 3 6v49l-7 2h-25l-1-1v-47l5-9 6-5z"/><path fill="#FEFEFE" d="M1658 334h12l6 9 5 9v2h-118l7-14 7-2z"/><path fill="#524F52" d="M978 465l4 4 12 22 6 10v2h-44l2-5 14-25z"/><path fill="#FEFEFE" d="M1620 254l4 1 2 4v6h-8l-2-3 3-7z"/><path fill="#FEFEFE" d="M1605 280l19 1-2 2-8 1h-10z"/></svg>