<?xml version="1.0" encoding="utf-8"?>
<!-- Generator: Adobe Illustrator 28.2.0, SVG Export Plug-In . SVG Version: 6.00 Build 0)  -->
<svg version="1.1" id="Layer_1" xmlns="http://www.w3.org/2000/svg" xmlns:xlink="http://www.w3.org/1999/xlink" x="0px" y="0px"
	 viewBox="0 0 460.001 80.987" enable-background="new 0 0 460.001 80.987" xml:space="preserve">
<g>
	<path d="M59.635,20.566c-2.58,0-5.095,0.471-7.548,1.416c-2.453,0.943-4.655,2.358-6.604,4.244
		c-1.95,1.887-3.524,4.279-4.717,7.172c-1.196,2.893-1.793,6.291-1.793,10.188c0,3.271,0.472,6.306,1.416,9.106
		c0.942,2.8,2.358,5.205,4.245,7.217c1.886,2.014,4.26,3.601,7.122,4.765c2.862,1.162,6.181,1.745,9.954,1.745
		c3.082,0,5.85-0.284,8.303-0.849c2.453-0.567,4.327-1.331,5.27-1.837l-1.214-6.371c-1.006,0.503-2.484,0.974-4.433,1.414
		c-1.95,0.442-4.309,0.661-7.077,0.661c-4.843,0-8.601-1.179-11.274-3.539c-2.673-2.357-4.167-5.802-4.482-10.329h31.324v-2.737
		c0-7.484-1.604-13.066-4.811-16.746C70.107,22.406,65.546,20.566,59.635,20.566 M46.992,39.246
		c0.189-1.508,0.597-2.985,1.227-4.434c0.628-1.446,1.478-2.735,2.548-3.868c1.068-1.132,2.342-2.042,3.82-2.735
		c1.477-0.691,3.129-1.038,4.953-1.038c3.208,0,5.787,1.085,7.737,3.255c1.949,2.17,2.924,5.11,2.924,8.82H46.992z"/>
	<path d="M345.133,20.675c-0.767-0.034-1.417,0-1.417,0c-5.151,0.229-9.099,1.729-11.842,4.5c-2.987,3.02-4.483,7.866-4.483,14.535
		v25.671h7.74V41.125c0-2.832,0.252-5.128,0.754-6.889c0.505-1.762,1.213-3.13,2.125-4.107c0.912-0.974,2.013-1.65,3.303-2.029
		c0,0,3.114-0.906,6.228,0c1.29,0.376,2.39,1.055,3.303,2.029c0.912,0.977,1.619,2.345,2.124,4.107
		c0.503,1.761,0.755,4.057,0.755,6.889v24.256h7.74V39.71c0-6.669-1.497-11.515-4.484-14.535
		C354.236,22.403,350.287,20.903,345.133,20.675"/>
	<path d="M120.128,26.982c-1.604-2.012-3.571-3.584-5.897-4.717c-2.327-1.132-4.969-1.699-7.925-1.699
		c-2.202,0-4.198,0.301-5.991,0.898c-1.793,0.597-3.16,1.178-4.104,1.743V0h-7.83v64.154c1.634,0.505,3.804,1.008,6.509,1.51
		c2.704,0.503,5.786,0.755,9.247,0.755c3.143,0,6.006-0.536,8.584-1.604c2.579-1.069,4.78-2.594,6.605-4.576
		c1.823-1.981,3.239-4.387,4.245-7.217c1.005-2.831,1.51-6.007,1.51-9.529c0-3.397-0.425-6.494-1.273-9.294
		C122.959,31.401,121.732,28.996,120.128,26.982 M113.383,55.521c-2.454,2.675-5.85,4.011-10.19,4.011
		c-1.07,0-2.202-0.078-3.397-0.236c-1.195-0.157-2.391-0.393-3.585-0.707V30.851c0.88-0.817,2.17-1.589,3.868-2.313
		c1.698-0.721,3.458-1.084,5.284-1.084c2.075,0,3.852,0.41,5.33,1.227c1.477,0.817,2.69,1.934,3.633,3.348
		c0.942,1.416,1.634,3.113,2.075,5.096c0.44,1.981,0.661,4.104,0.661,6.368C117.061,48.84,115.836,52.849,113.383,55.521"/>
	<path d="M154.362,20.566c-2.58,0-5.096,0.471-7.548,1.416c-2.453,0.943-4.656,2.358-6.604,4.244
		c-1.951,1.887-3.524,4.279-4.717,7.172c-1.197,2.893-1.794,6.291-1.794,10.188c0,3.271,0.472,6.306,1.416,9.106
		c0.943,2.8,2.359,5.205,4.246,7.217c1.886,2.014,4.259,3.601,7.122,4.765c2.862,1.162,6.181,1.745,9.954,1.745
		c3.081,0,5.849-0.284,8.303-0.849c2.453-0.567,4.326-1.331,5.27-1.837l-1.214-6.371c-1.006,0.503-2.485,0.974-4.433,1.414
		c-1.951,0.442-4.31,0.661-7.077,0.661c-4.844,0-8.602-1.179-11.274-3.539c-2.674-2.357-4.167-5.802-4.481-10.329h31.322v-2.737
		c0-7.484-1.604-13.066-4.811-16.746C164.833,22.406,160.273,20.566,154.362,20.566 M141.717,39.246
		c0.19-1.508,0.598-2.985,1.228-4.434c0.627-1.446,1.477-2.735,2.547-3.868c1.069-1.132,2.342-2.042,3.82-2.735
		c1.478-0.691,3.129-1.038,4.954-1.038c3.208,0,5.786,1.085,7.737,3.255c1.948,2.17,2.923,5.11,2.923,8.82H141.717z"/>
	<path d="M312.716,26.84c-1.762-1.981-3.869-3.521-6.322-4.622c-2.452-1.1-5.126-1.652-8.019-1.652
		c-2.831,0-5.457,0.552-7.877,1.652c-2.422,1.101-4.515,2.641-6.275,4.622c-1.761,1.983-3.129,4.388-4.104,7.218
		c-0.975,2.832-1.462,5.976-1.462,9.435c0,3.46,0.487,6.591,1.462,9.387c0.975,2.8,2.343,5.205,4.104,7.218
		c1.76,2.014,3.853,3.57,6.275,4.67c2.42,1.099,5.046,1.652,7.877,1.652c2.893,0,5.567-0.553,8.019-1.652
		c2.453-1.1,4.56-2.656,6.322-4.67c1.76-2.013,3.128-4.418,4.104-7.218c0.975-2.796,1.462-5.927,1.462-9.387
		c0-3.459-0.487-6.603-1.462-9.435C315.844,31.228,314.477,28.823,312.716,26.84 M307.055,55.145
		c-2.139,2.863-5.033,4.293-8.68,4.293c-3.584,0-6.431-1.43-8.538-4.293c-2.108-2.863-3.161-6.746-3.161-11.652
		c0-4.968,1.053-8.883,3.161-11.746c2.107-2.861,4.954-4.293,8.538-4.293c3.647,0,6.541,1.432,8.68,4.293
		c2.137,2.863,3.208,6.778,3.208,11.746C310.263,48.399,309.192,52.282,307.055,55.145"/>
	<path d="M399.813,43.777c-1.95-1.134-4.057-2.091-6.321-2.879c-2.265-0.786-4.372-1.556-6.32-2.31
		c-1.951-0.756-3.572-1.589-4.86-2.501c-1.29-0.91-1.934-2.03-1.934-3.35c0-3.711,3.396-5.566,10.189-5.566
		c1.195,0,2.437,0.063,3.727,0.189c1.288,0.126,2.5,0.299,3.632,0.518c1.133,0.222,2.138,0.472,3.019,0.755
		c0.88,0.284,1.572,0.552,2.077,0.802l2.043-6.618c-1.825-0.567-4.638-1.385-7.186-1.731c-2.547-0.345-5.016-0.52-7.406-0.52
		c-6.101,0-10.583,1.18-13.444,3.539c-2.863,2.358-4.293,5.299-4.293,8.822c0,2.516,0.644,4.56,1.934,6.132
		c1.289,1.573,2.893,2.893,4.812,3.963c1.917,1.07,4.01,1.966,6.273,2.688c2.265,0.725,4.355,1.463,6.275,2.216
		c1.917,0.756,3.521,1.638,4.811,2.643c1.288,1.007,1.934,2.297,1.934,3.867c0,3.586-3.553,5.378-10.661,5.378
		c-2.769,0-5.363-0.329-7.783-0.989c-2.422-0.66-3.988-1.161-6.188-2.168l-2.257,6.743c2.266,1.008,4.655,1.762,7.171,2.264
		c2.515,0.504,5.283,0.755,8.303,0.755c6.665,0,11.541-1.085,14.624-3.255c3.08-2.169,4.622-5.235,4.622-9.199
		c0-2.453-0.646-4.481-1.934-6.085C403.382,46.277,401.762,44.907,399.813,43.777"/>
	<path d="M5.479,27.544c-5.681,6.452-5.544,14.408-5.454,21.2l0.02,16.638H7.82L7.798,48.641c-0.074-5.6-0.187-11.755,3.516-15.96
		c4.301-4.883,11.389-6.148,19.401-2.857l3.339-7.041C22.975,18.233,11.97,20.173,5.479,27.544"/>
	<path d="M261.554,5.486c0-3.03-2.457-5.486-5.486-5.486c-3.031,0-5.487,2.456-5.487,5.486s2.456,5.486,5.487,5.486
		C259.096,10.972,261.554,8.516,261.554,5.486"/>
	<path d="M234.411,59.438c-1.196,0-2.233-0.156-3.113-0.471c-0.881-0.315-1.62-0.898-2.217-1.748
		c-0.598-0.849-1.037-1.964-1.321-3.348c-0.283-1.382-0.424-3.175-0.424-5.378V0h-17.989v6.604h10.252v41.889
		c0,2.958,0.22,5.552,0.661,7.784c0.439,2.233,1.193,4.104,2.263,5.613c1.069,1.51,2.516,2.642,4.34,3.396
		c1.825,0.756,4.119,1.133,6.888,1.133c1.194,0,2.343-0.095,3.444-0.284c0.907-0.154,2.048-0.337,2.85-0.536v-6.895
		c-0.082,0.024-0.155,0.048-0.24,0.072C238.231,59.219,236.235,59.438,234.411,59.438"/>
	<path d="M267.011,59.438c-1.195,0-2.232-0.156-3.113-0.471s-1.62-0.898-2.217-1.748c-0.598-0.849-1.037-1.964-1.321-3.348
		c-0.283-1.382-0.424-3.175-0.424-5.378V20.66h-7.737v27.833c0,2.958,0.22,5.552,0.661,7.784c0.439,2.233,1.193,4.104,2.263,5.613
		c1.069,1.51,2.516,2.642,4.341,3.396c1.824,0.756,4.118,1.133,6.887,1.133c1.194,0,2.343-0.095,3.444-0.284
		c0.907-0.154,2.049-0.337,2.85-0.536v-6.895c-0.082,0.024-0.155,0.048-0.24,0.072C270.831,59.219,268.835,59.438,267.011,59.438"/>
	<path d="M201.846,59.438c-1.196,0-2.233-0.156-3.113-0.471c-0.882-0.315-1.621-0.898-2.218-1.748
		c-0.597-0.849-1.037-1.964-1.32-3.348c-0.284-1.382-0.425-3.175-0.425-5.378V0h-17.987v6.604h10.251v41.889
		c0,2.958,0.22,5.552,0.661,7.784c0.439,2.233,1.193,4.104,2.263,5.613c1.069,1.51,2.515,2.642,4.34,3.396
		c1.825,0.756,4.119,1.133,6.888,1.133c1.194,0,2.342-0.095,3.443-0.284c0.908-0.154,2.049-0.337,2.851-0.536v-6.895
		c-0.083,0.024-0.156,0.048-0.24,0.072C205.666,59.219,203.67,59.438,201.846,59.438"/>
	<rect x="414.336" y="74.383" width="45.665" height="6.604"/>
</g>
</svg>
