<svg xmlns="http://www.w3.org/2000/svg" role="img" viewBox="-3.67 -3.17 191.10 50.60"><g fill="#29B5E8" fill-rule="nonzero" transform="translate(-.002 .531)" stroke="none" stroke-width="1"><path d="M37.26375 33.1289l-9.17578-5.30078c-1.28907-.74218-2.9375-.30078-3.6836.98829-.28906.5078-.40234 1.0664-.34765 1.60937v10.35938c0 1.48047 1.20312 2.68359 2.6875 2.68359 1.48046 0 2.68359-1.20313 2.68359-2.6836v-5.95703l5.14062 2.96876c1.28907.74609 2.9414.30078 3.6836-.98829.7461-1.28906.30469-2.9375-.98828-3.67968"/><path d="M14.44343 21.76953c.01563-.95703-.48828-1.84765-1.3164-2.32812l-9.17578-5.29688c-.39844-.23047-.85547-.35156-1.3125-.35156-.94141 0-1.81641.5039-2.28516 1.3164-.72656 1.25782-.29297 2.8711.96484 3.59766l5.28907 3.05078-5.28907 3.05469c-.60937.35156-1.04687.91797-1.22656 1.59766-.1836.67968-.08984 1.39062.26172 2 .46875.8125 1.34375 1.3164 2.28125 1.3164.46094 0 .91797-.1211 1.3164-.35156l9.17579-5.29688c.82031-.47656 1.32422-1.35937 1.3164-2.30859"/><path d="M6.03328 10.39063l9.17578 5.29687c1.07031.6211 2.39062.41797 3.23437-.40625.53516-.49219.8672-1.19531.8672-1.97656V2.6875C19.31062 1.20312 18.1075 0 16.62702 0c-1.48438 0-2.6875 1.20313-2.6875 2.6875v6.04297L8.72859 5.72266c-1.28906-.7461-2.9375-.3047-3.6836.98437-.74609 1.28906-.30077 2.9375.98829 3.6836"/><path d="M26.66609 22.19922c0 .20312-.11719.48437-.26172.63281l-3.63672 3.63672c-.14453.14453-.42968.26172-.63281.26172h-.92578c-.20313 0-.48828-.11719-.63281-.26172l-3.64063-3.63672c-.14453-.14844-.26172-.42969-.26172-.63281v-.92578c0-.20703.11719-.48828.26172-.63282L20.57625 17c.14453-.14453.42968-.26172.6328-.26172h.92579c.20313 0 .48828.11719.63281.26172l3.63672 3.64063c.14453.14453.26172.42578.26172.6328v.92579zm-3.2461-.44531v-.03907c0-.14843-.08593-.35546-.1914-.46484l-1.07422-1.07031c-.10547-.10938-.3125-.19532-.46484-.19532h-.03906c-.14844 0-.35547.08594-.46485.19532L20.11531 21.25c-.10547.10547-.1914.3125-.1914.46484v.03907c0 .15234.08593.35937.1914.46484l1.07031 1.07422c.10938.10547.3164.1914.46485.1914h.03906c.15234 0 .35937-.08593.46484-.1914l1.07422-1.07422c.10547-.10547.1914-.3125.1914-.46484z"/><path d="M28.08797 15.6875l9.17578-5.29688c1.28906-.74218 1.73437-2.39453.98828-3.68359-.7461-1.28906-2.39453-1.73047-3.6836-.98437L29.42781 8.6914V2.6875C29.4278 1.20312 28.22468 0 26.7442 0c-1.48437 0-2.6875 1.20313-2.6875 2.6875v10.40625c-.05078.53906.0547 1.10156.34766 1.60938.7461 1.28906 2.39453 1.73046 3.6836.98437"/><path d="M17.0489 27.51563c-.60937-.1172-1.26172-.01954-1.83984.3125L6.03328 33.1289c-1.28906.74218-1.73438 2.39062-.98828 3.67968.74609 1.29297 2.39453 1.73438 3.68359.98828l5.21094-3.0078v5.99609c0 1.48047 1.20312 2.68359 2.6875 2.68359 1.48047 0 2.6836-1.20313 2.6836-2.6836V30.16798c0-1.33985-.98048-2.44922-2.26173-2.65235"/><path d="M42.99812 15.07813c-.74219-1.29297-2.39453-1.73438-3.6836-.98829l-9.17577 5.29688c-.87891.50781-1.36328 1.4375-1.34766 2.38281-.00781.9414.47656 1.85938 1.34766 2.35938l9.17578 5.30078c1.28906.74218 2.9375.30078 3.6836-.98828.74609-1.28907.30077-2.9375-.9883-3.6836l-5.1953-3 5.19531-3c1.29297-.74218 1.73438-2.39062.98828-3.67968"/><path d="M183.99812 21.13672v.10156c0 .5-.41797.8711-.9336.8711H170.1739c.02344.30468.0625.60156.125.89453.59766 2.79296 2.98828 4.87109 5.82813 4.89453h.75c.0586 0 .11719 0 .17969-.0039.05468 0 .10937-.00391.16406-.00782.0039 0 .0078 0 .01172-.0039.9414-.07423 1.89062-.45313 2.73828-1.0625h.0039c.04297-.03126.08985-.06641.13282-.10157.0078-.0039.01562-.01172.02734-.01953.03516-.02735.07422-.0586.11328-.08985.01563-.01171.02734-.02343.04297-.03515.03125-.02344.0625-.05078.09375-.07813.01953-.01562.04297-.03515.0625-.05078.02344-.02343.04688-.04687.07422-.0664.02344-.02344.05078-.04688.07422-.07032.01953-.01562.03906-.03515.0586-.05468.03124-.02735.05858-.0547.08983-.08204.01563-.01562.03125-.03515.04688-.05078l.09375-.09375.04297-.04296.09375-.10547c.01562-.01172.02734-.02735.03906-.04297.03516-.03516.0664-.07032.09766-.10547.01172-.01563.02734-.03125.03906-.04688.03125-.03906.0586-.07421.08984-.10937l.04688-.0586c.02734-.03515.05469-.0664.07812-.09765.02344-.03125.04297-.0586.0625-.08594.01953-.02734.03907-.05078.0586-.07812.03125-.04297.0625-.08594.08984-.12891.01172-.01563.01953-.02734.02734-.03906.07813-.11328.15235-.23047.22657-.35157 0 0 0-.0039.0039-.0078.01563-.02735.03516-.05079.0547-.07813.0078-.01172.01562-.02344.02733-.03125.01172-.01953.02735-.03125.03907-.04688l.03515-.03515c.01563-.01172.02735-.02344.04297-.03516.01172-.01172.02344-.02344.03906-.03125.01954-.01563.04297-.03125.06641-.04297.01563-.01172.03516-.02344.05078-.03125.01953-.00781.03516-.01562.05078-.02344.01563-.0078.03125-.01171.04297-.01953.02344-.00781.04297-.01172.0664-.01953.01173-.0039.01954-.00781.03126-.01172.07422-.01562.15234-.02734.22656-.02734.08203 0 .16797.01172.2461.03515h.0078c.03126.01172.06641.01954.09766.03516.00782.0039.01563.0039.02344.00781.03516.01563.0664.03125.09766.05079l.01562.0078c.42969.3125.5625.85938.30078 1.3086l-.0039.0039c-.03125.05079-.0625.10157-.09375.14844l-.02344.03516c-.91406 1.39063-2.15625 2.5-3.54297 3.16406-.03125.01172-.0586.02735-.08984.04297-.0039 0-.01172.0039-.01563.0039-.64062.29688-1.32812.50391-2.0625.58985-.01562 0-.03125.0039-.04687.0039-.0625.00782-.125.01563-.1875.01954-.03516 0-.07031.0039-.10938.00781-.04297 0-.08984.0039-.13281.00782-.08594 0-.17188.0039-.25781.0039h-.75781c-4.33594-.03125-7.82813-3.64844-7.82813-8.07812 0-4.50391 3.51563-8.14063 7.88672-8.14063.1289 0 .25781.0039.38672.00781 1.52344.07813 2.92969.59766 4.09765 1.44922.0039.0039.00782.00782.01172.00782.0664.04687.1289.09765.1914.14453.03126.02734.06642.05468.10157.08203.03125.02343.0625.05078.09375.07422 1.64453 1.37109 2.7539 3.42968 2.9375 5.8125v.0078zm-13.69922-.86719h11.66797c-.57812-2.8125-2.9961-4.84765-5.78906-4.84765-2.84375 0-5.24219 1.99609-5.8789 4.84765z"/><path d="M151.04109 13.82422c.14453.14453.24219.33984.26563.5664 0 .03125.0039.0625.0039.09375v14.34766c0 .51172-.42969.9375-.9375.9375s-.9336-.42578-.9336-.9375v-1.90625c-.35546.42969-.74609.82031-1.17187 1.16016-.01172.01172-.02344.01953-.03515.03125-.03907.03125-.08203.0625-.1211.08984-1.28906.99219-2.85547 1.5625-4.49219 1.5625-2.63671 0-4.95703-1.40234-6.33984-3.52734-.01172-.01563-.02734-.03516-.03906-.05078-.03906-.06641-.07813-.13282-.1211-.20313-.02734-.04297-.05078-.08594-.07812-.1289-.02734-.04297-.05078-.08985-.07422-.13672a5.28523 5.28523 0 0 1-.11328-.20313c-.01172-.02344-.01953-.04687-.03125-.07031-.51172-1.01563-.82813-2.16016-.88281-3.375a7.22334 7.22334 0 0 1-.01172-.41406c0-.14063.0039-.27735.01172-.41407.05469-1.21484.3711-2.35937.8828-3.3789.01173-.01953.01954-.04297.03126-.0664a5.28598 5.28598 0 0 1 .11328-.20313c.02344-.04688.04688-.09375.07422-.13672.02344-.04297.05078-.08594.07813-.1289.03906-.06641.08203-.13673.12109-.20313.01172-.01563.02734-.03516.03906-.05079 1.38281-2.125 3.70313-3.52734 6.33984-3.52734 1.78125 0 3.46485.65235 4.8047 1.78906.36718.3086.70702.64844 1.01562 1.02344v-1.8789c0-.03125 0-.0625.0039-.09375.02344-.22657.1211-.42188.26563-.56641v-.0039c.01562-.01563.03516-.02735.05078-.04298l.01563-.01562c.01171-.01172.02734-.01953.03906-.02735.01172-.0078.02344-.01953.03515-.02734.00782-.0039.01563-.00781.02344-.01562.01953-.00782.03516-.01953.05469-.03125.0039 0 .00781-.00391.01172-.00391l.0703-.03516h.00392c.05468-.02343.11328-.03906.17187-.05078.0039 0 .01172-.0039.01563-.0039.02343-.00391.05078-.00782.07812-.01172.03125 0 .0625-.0039.09375-.0039.03516 0 .0664.0039.09766.0039.02734.0039.05078.00781.07812.01172.0039 0 .00781.0039.01563.0039.0586.01172.11719.02735.17187.05078h.0039c.02345.01172.04688.02344.06642.03516.0078 0 .01171.0039.01562.0039.01563.01173.03516.02344.05078.03126.00781.0078.01953.01172.02734.01562.01172.00781.02344.01953.03516.02735.01172.0078.02344.01562.03516.02734.0078.0039.01172.01172.01953.01562.01562.01563.03516.02735.04687.04297l.0039.0039zm-7.42188 14.07422c3.20704 0 5.82032-2.79688 5.82032-6.23828 0-3.45704-2.61328-6.26954-5.82031-6.26954-3.1836 0-5.82032 2.8086-5.82032 6.26954 0 .10937.0039.21484.00781.3203 0 .04688.00782.08985.00782.13282.0039.0625.0078.125.01562.1836.0039.05078.01172.09765.01563.14453.0078.05468.01172.11328.01953.16796.00781.04297.01562.08204.01953.1211.01172.0625.01953.125.03125.1875.00781.03125.01563.0586.01953.08594.01563.07421.03125.14453.04688.21875.0039.01562.0078.03125.01562.04687.66406 2.67188 2.94531 4.6289 5.6211 4.6289z"/><path d="M127.56062 6.78516h-.2539c-.03126 0-.06641 0-.09766.0039-.03516-.0039-.0664-.0039-.10156-.0039-.08985 0-.1797 0-.26954.0039-.01562 0-.03515.0039-.05078.0039-.0703 0-.14062.00392-.21093.01173h-.03907c-.07422.00781-.14453.01172-.21484.01953-.00781.0039-.01563.0039-.02344.0039-.07812.01172-.15234.01954-.22265.03125h-.00782c-.47265.07422-.89843.20704-1.27734.39454 0 .0039-.0039.0039-.00781.0039-.0547.03125-.11328.0625-.16797.09375-.01172.0039-.01953.01172-.03125.01953-.04688.02735-.09375.0547-.14063.08594-.01953.01172-.03515.02735-.05078.03906-.03906.02344-.07422.05079-.11328.07813-.02734.02344-.05469.04687-.08203.0664l-.07031.0586c-.04297.03906-.08203.07422-.1211.11328a517.91152 517.91152 0 0 0-.02343.02344c-.04688.05078-.09375.09765-.14063.14844-.00781.01171-.01562.02343-.02344.03125-.03906.04296-.07812.08593-.11328.1289-.01172.01953-.02734.03906-.03906.0586-.03125.03906-.0586.07421-.08594.11328-.00781.01562-.01562.02734-.02734.03906-.03125.04687-.0625.09375-.08984.14062-.00391.00782-.00782.01172-.01172.01953-.25391.41797-.4336.91016-.54688 1.50391 0 .00781 0 .01953-.0039.02735-.01563.07421-.02735.15234-.03907.23046-.0039.02344-.00781.04688-.00781.07032-.01172.0664-.01953.1328-.02734.20312a13.0708 13.0708 0 0 0-.01172.1211c-.00782.05468-.01563.10546-.01953.16406a42.32965 42.32965 0 0 0-.01172.17968c-.0039.03907-.0039.07813-.00782.1211-.0039.08203-.0078.16797-.01171.2539 0 .02344-.00391.03907-.00391.0586-.0039.10937-.0039.22265-.0039.33203v1.54297h-1.94532c-.1211-.0039-.24219.01953-.35156.0586-.35156.1289-.60156.46093-.60156.84765 0 .36328.17968.67187.46093.85156.14063.08985.3047.14453.48438.15235h.00781v.0039h1.94531v13.625c-.0039.01953 0 .03516 0 .05469v.03515c.01172.21876.10157.41797.2461.57032l.0039.0039c.01953.01954.04297.03907.0625.0586.0039.0039.00782.0039.01172.00781.01563.01563.03516.02734.05078.03906.00782.00782.01953.01563.02735.01953.0078.00782.01562.01172.02734.01563.15234.09765.33203.15234.52344.15234.03125 0 .0625-.0039.08984-.00781.1836-.01563.35156-.09375.48828-.20703l.0039-.0039a.31218.31218 0 0 0 .0508-.05079c.0039-.0039.0117-.00781.01562-.01172.01562-.01562.02734-.03125.03906-.04297.14844-.17968.23047-.40234.21875-.6328v-13.625h2.09375v-.00391h.00781c.55469-.02735.96094-.46094.94531-1v-.00782c.0039-.01953 0-.03906 0-.0586v-.01952c-.01562-.20703-.10547-.39453-.2461-.53907v-.0039h-.0039c-.01953-.01953-.03515-.03516-.05468-.05078-.00782-.00782-.01563-.01172-.01954-.01953-.01562-.01172-.02734-.01953-.04296-.03125-.01172-.00782-.02735-.01953-.03907-.02735-.0078-.0039-.01953-.01172-.02734-.01562-.01953-.01172-.03906-.02344-.0586-.03125-.0039-.0039-.01171-.00782-.01562-.00782-.02344-.01171-.04687-.02343-.07031-.03125-.0039-.0039-.00781-.0039-.01563-.0078l-.0703-.02345c-.00782 0-.01563-.0039-.02345-.0039-.02343-.0039-.04297-.01172-.0664-.01563-.01172 0-.02344 0-.03516-.0039-.01562-.0039-.03516-.0039-.05469-.00782h-.04297c-.01171 0-.02343-.0039-.03515-.0039h-2.125v-1.53906-.03125c.0039-.07813.0039-.15625.00781-.23047 0-.01953 0-.04297.0039-.0625 0-.0664.00391-.13282.00782-.19532 0-.01171.0039-.02734.0039-.03906.00391-.07422.01172-.14843.01954-.21875.07422-.76172.23828-1.24218.41015-1.53515.0039-.00782.0039-.01172.00782-.01953.01171-.01954.02734-.03907.03906-.0586.00781-.01562.01953-.03125.03125-.04687.0039-.00782.01172-.02344.01953-.03125.01953-.02735.03906-.05078.0625-.07422.2461-.27735.6289-.44532 1.1836-.51172.0078 0 .01171-.0039.02343-.0039.03125-.00391.0664-.00782.09766-.00782.01562-.0039.03515-.0039.05078-.00781.03125 0 .0586-.0039.08984-.0039.02344 0 .04297-.00391.07031-.00391.02735-.00391.0547-.00391.08204-.00391.02734 0 .05468-.0039.08203-.0039h.20312c.03125 0 .0586-.00391.08985-.00782.03515.0039.0703.00781.10546.00781h.25391c.52344 0 .95313-.42968.95313-.95703 0-.52734-.4297-.95312-.95313-.95312"/><path d="M132.59968 6.8125s-.0039-.0039-.0078-.0039c-.01954-.00782-.03517-.01563-.0586-.01954-.00781-.0039-.01953-.00781-.03125-.01172l-.04688-.01171c-.01562-.00391-.03125-.01172-.04297-.01172-.01953-.00391-.03515-.00782-.05468-.00782-.01563-.0039-.02735-.0039-.04297-.0078-.03125-.00392-.0664-.00392-.09766-.00392-.50781 0-.9375.42579-.9375.9336v21.16406c0 .51172.42969.9375.9375.9375.03125 0 .0664 0 .09766-.0039.0039 0 .01172-.00391.01562-.00391l.08203-.01172c.0039 0 .01172-.0039.01953-.0039.02344-.00782.04688-.01172.07032-.01954.0039 0 .0078 0 .01172-.0039.35937-.11329.625-.41797.66406-.79297.0039-.03125.00781-.0625.00781-.09766V7.66797c0-.03125-.0039-.0625-.00781-.09375-.03516-.34375-.26172-.6289-.57813-.76172"/><path d="M60.87703 24.78906c-.00781-.05468-.00781-.10547-.01563-.15625-.0039-.03906-.00781-.07422-.01172-.10937-.0078-.04297-.01171-.08203-.01953-.125-.00781-.03907-.01562-.07813-.02343-.1211-.00391-.03125-.01172-.0664-.01954-.09765-.01171-.04688-.01953-.08985-.03125-.13672-.0078-.02344-.01562-.05078-.02343-.07422-.01172-.05078-.02735-.09766-.04688-.14453-.0039-.01953-.01172-.03906-.01562-.05469-.01953-.05469-.03907-.10547-.0625-.16015-.00391-.00782-.00782-.01954-.01172-.03126-.02735-.05468-.05078-.11328-.07813-.16796-.0039-.00391-.0039-.00782-.00781-.01172-.22266-.44922-.53906-.82422-.92578-1.14063 0-.0039 0-.0039-.0039-.0039-.0547-.04297-.10938-.08985-.16798-.13282l-.0078-.0078c-.00391 0-.00782-.00391-.01173-.00782-.03515-.02344-.07031-.05078-.10156-.07422-.48047-.33984-1.01172-.60938-1.78516-.90625l-.03515-.01172c-.01172-.00781-.02735-.01172-.03906-.01953-.4375-.16406-.89063-.32031-1.35547-.47266h-.00391s-.0039 0-.0039-.0039c-.00782 0-.01563-.0039-.02735-.00782-.04297-.01562-.08984-.03124-.15234-.05078-.03125-.0078-.0547-.01562-.07813-.02343-.15625-.0547-.3164-.10547-.47656-.16016-.11328-.03906-.23438-.07813-.3789-.125-.03907-.01172-.13282-.04297-.21094-.0664-.00391 0-.00391-.00391-.00782-.00391-.04687-.01563-.09375-.03125-.14453-.04688-.39062-.125-.71094-.23437-.98437-.33593-.44532-.16407-.85157-.33985-1.1836-.55079-.00781-.0039-.01562-.0078-.01953-.01171-.45312-.28907-.76562-.64454-.83984-1.10938l-.0039-.0039c-.00391-.03126-.00782-.06641-.00782-.09766-.0039-.00782-.0039-.01172-.0039-.01563-.00391-.03906-.00391-.07422-.00391-.11328 0-.05469.0039-.10937.0078-.16015 0-.01563 0-.02735.00392-.03907a13.10614 13.10614 0 0 1 .01171-.1211c.0039-.01171.0039-.02343.00782-.03515.0078-.04297.01562-.08203.02343-.125.0039-.0039.0039-.01172.00782-.01953.01172-.04687.02343-.08984.03906-.13281v-.0039c.20312-.60548.6836-1.0547 1.25-1.3711.03906-.01953.07812-.03906.11328-.0586.03906-.01953.07422-.03906.10938-.05468.05859-.02735.11718-.05469.17578-.07813.03515-.01562.0664-.03125.10156-.04297l.1875-.0703c.03125-.01173.0664-.02345.10156-.03516.0625-.01954.1211-.03907.1836-.0547.03906-.01171.07421-.02343.11328-.03124.05859-.01563.11718-.02735.17187-.04297l.11719-.02344c.0625-.01172.1211-.02344.17578-.03125.03516-.0039.0664-.00781.10156-.01562.0664-.00782.13672-.01563.20703-.01953.01563-.00391.03125-.00391.05079-.00782.08593-.0039.17187-.00781.2539-.00781.09766 0 .19531.0039.28906.00781h.04297c.6914.04297 1.25.21094 1.71094.4336.03516.01562.07031.03515.10547.05078.01953.01172.03906.02343.0586.03125.04296.02343.08593.04687.1328.07422.00782.0039.01563.0078.02344.01172.04688.02734.09375.05859.14063.08593.0039.0039.00781.0039.00781.0039.05078.03126.10156.06641.15234.09766 0 .00391.0039.00391.0039.00782.0508.03125.09767.0625.14454.09765.01953.01563.03516.02735.05469.03907.10937.08203.28125.21484.4375.34375.01953.01171.03516.02343.04687.03515.1172.09766.22657.1836.33204.26172.01953.01563.03515.02735.04687.03516.0039.0039.00781.00781.01172.00781l.03516.02344c.02734.01953.05859.03906.08593.0586.01172.0078.02344.01171.03516.01952l.08203.04688c.01172.0039.01953.00781.03125.01172a.89368.89368 0 0 0 .08984.03906c.00782.0039.01172.0039.01954.00781.03515.01172.0703.02344.10546.02735l.0039.0039c.07814.01172.15235.01563.23048-.0039.00781 0 .01562-.00391.02344-.00391.01953-.0039.04297-.01172.0625-.01563.0078-.0039.01172-.0078.01953-.01171.00781 0 .01562-.00391.02344-.00782.03125-.01562.0625-.03125.09375-.05078.0078 0 .01171-.0039.01562-.00781.03516-.02344.0664-.04688.09766-.07422l.0039-.0039c.02735-.02344.05078-.05079.07422-.07813.01563-.01953.03125-.04297.04297-.0664.0039-.00391.00781-.00782.00781-.01173.16407-.27343.07032-.6328-.21875-1.02343-.0039-.00782-.00781-.01563-.01562-.02344-.01172-.01563-.01953-.02735-.03125-.04297-.66406-.85938-2.17578-1.80078-3.57813-2.10156-.00781 0-.01562 0-.02343-.0039-.0586-.01173-.1211-.02345-.1797-.03516-.01562 0-.03515-.00391-.05077-.00782-.05078-.00781-.10157-.01562-.15235-.01953-.01953-.0039-.03906-.00781-.0586-.00781-.04687-.0039-.09765-.00781-.14452-.01172-.01953-.0039-.03906-.0039-.05469-.00781-.0664 0-.1289-.0039-.1914-.0039-.10157 0-.20313 0-.30079.0039-.05468 0-.10937.0039-.16797.00781-.03906.0039-.08593.0039-.125.0039-.07812.00782-.15234.01173-.22656.01954-.01953 0-.04297 0-.0625.0039-.08594.00782-.17187.01563-.2539.02735h-.02735c-.08984.01172-.17578.02343-.26172.03906h-.01562c-.08594.01172-.17188.02734-.2539.04297-.00391 0-.00782.0039-.01563.0039-.17578.03125-.34766.07032-.51172.11329-.0039 0-.0039.0039-.0039.0039-.08204.01953-.16407.04297-.2461.0664-.07813.02345-.15235.05079-.22266.07423-.00781 0-.01172.0039-.01953.0039-.07031.02735-.14062.05078-.21094.07813-.00781.0039-.01562.00781-.01953.00781-.07031.02735-.13281.05469-.19922.08594-.00781.0039-.01953.0039-.02734.01172-.0586.02343-.1211.05468-.17578.08203-.01563.00781-.02735.01172-.03906.01953-.0586.02734-.11329.05469-.16797.08594-.01563.00781-.02735.01562-.04297.02343-.05078.02735-.10156.0586-.15235.08985-.01562.00781-.03125.01562-.04687.02734-.0664.03907-.1289.08203-.1914.1211-.07423.05468-.14844.10547-.21485.16015-.00781 0-.01172.0039-.01172.00782-.33203.24609-.61719.5078-.85156.8125-.00781.01171-.01953.02343-.02735.03515-.02734.04297-.0586.08203-.08593.1211l-.0586.09375c-.01562.02343-.03125.04687-.04297.0703-.03125.05079-.0586.10157-.08593.15626-.00391.00781-.00782.01172-.01172.01953-.21094.41797-.33203.89844-.3789 1.48047 0 .00781 0 .01562-.00391.02343-.00391.10157-.01172.20313-.01563.3125 0 .08204 0 .16407.0039.2461v.03515c.04298 1.1172.55079 1.95704 1.46876 2.60938.0078.0039.01562.01172.02343.01563l.1172.08203c.02734.01953.05859.03515.08593.05468.00781.00782.01953.01172.02734.01563.90625.57422 2.01563.90234 2.9414 1.16406.45313.13281.85938.2461.98048.28125.02734.00781.05469.01563.07812.02735.55469.18359.98047.33203 1.33203.47265.02735.00781.05079.01953.07813.02735.00781.0039.01953.0078.03125.01562.19922.08203.39453.16797.58203.26172.15625.07812.30078.16015.44531.2461.3711.23046.65625.48046.84766.7539.00781.00781.01172.01562.01562.02344.01954.02343.03516.04687.04688.07421.01172.01563.01953.02735.02734.04297.01172.01954.02344.03907.03125.0586.01172.01953.01953.04297.03125.0625l.02344.04687c.00781.02344.01953.04688.02734.07422.0039.01172.01172.02735.01563.04297l.02344.08203c.0039.01172.0078.02344.01172.03906.0078.02735.01562.0586.01953.08594.0039.01172.0078.02735.0078.03906l.01173.09375c.0039.01172.0039.02344.0039.03516.0039.04688.00782.08984.00782.13672 0 .07031-.00391.13672-.00782.20312 0 .01954-.0039.03907-.0039.0586a1.02694 1.02694 0 0 1-.02344.15234c0 .01563-.0039.03125-.00781.04688-.02344.13671-.0625.26562-.11328.39453-.00391.0039-.00391.00781-.00391.01172-.02734.05859-.05469.12109-.08594.17578-.0039.00781-.0039.01172-.00781.01562-.0664.125-.14453.2461-.24219.35938-.04687.0586-.09765.11328-.14843.16797-.00391 0-.00391 0-.00391.0039-.10547.10547-.22266.20313-.34375.29297-.0039.0039-.00781.0039-.00781.00781-.0586.03907-.1172.08204-.17578.1172-.00782.0078-.01563.01171-.02344.01562-.10156.0625-.21094.125-.32031.17968-.03907.01954-.07813.03907-.1211.0586-.04297.01953-.08984.04297-.13672.0625-.03906.01562-.07422.03125-.11328.04687-.10547.03907-.20703.07813-.3125.11328-.01562.00391-.03125.00782-.04687.01563-.0625.01953-.125.03515-.1875.05469-.01563.0039-.03516.01171-.05078.01562-.20704.05469-.41016.09766-.60157.1289h-.01172c-.09765.01563-.1914.02735-.28125.03907-.03515.0039-.0664.00781-.10156.00781-.03125.0039-.0625.0039-.09765.00782-.07422.0039-.15235.0078-.22266.0078-.14453 0-.28516-.0039-.42188-.01171-.05468 0-.10937-.0039-.16406-.00781-.07422-.00782-.15234-.01172-.22265-.01954-.06641-.0039-.13672-.01171-.19922-.01953a17.75623 17.75623 0 0 1-.16797-.02343c-.1211-.01954-.23438-.03516-.34766-.0586-.05078-.01172-.10547-.01953-.15625-.03125-.0586-.01562-.11719-.02734-.17578-.04297-.0664-.01562-.1289-.03125-.1914-.05078-.04297-.01172-.08985-.02343-.12891-.03515-.10547-.03125-.21094-.06641-.3125-.10547l-.07031-.02344c-.22657-.08594-.44922-.17969-.66797-.28906-.00782-.0039-.01953-.01172-.03125-.01563-.14063-.07031-.37891-.20312-.60547-.33203-.01953-.01172-.04297-.02344-.0625-.03515-.16016-.09376-.29688-.17188-.42578-.23438-.01172-.00781-.01953-.01172-.02735-.01563-.00781-.0039-.01562-.0078-.01953-.0078-.03515-.01563-.0625-.03126-.09375-.04298-.01172-.0039-.01953-.0078-.02734-.01171-.08203-.03126-.15625-.0547-.23047-.0625-.02344-.00391-.04688-.00391-.07031-.00391-.00782-.0039-.01563-.0039-.02344-.0039-.14844 0-.27734.05077-.39844.16406a.66567.66567 0 0 0-.07422.07421c-.0039.00782-.01172.01563-.01953.02344-.01562.01953-.02734.03516-.03906.05078-.00781.01172-.01563.02344-.01953.03125-.01172.01563-.02344.03125-.03125.04688-.00781.01172-.01172.02343-.01563.03515l-.02343.04688c-.00391.01172-.00782.01953-.01172.03125-.00782.01953-.01172.03515-.01563.05078-.0039.01172-.00781.01953-.00781.03125l-.01172.0586c0 .0078-.0039.01562-.0039.02343-.00391.02735-.00391.05078-.00391.07422v.01172c0 .03125.0039.0586.01172.08984v.01563c.0078.02343.01172.05078.01953.07422l.01172.03515c.0078.01953.01172.04297.02343.0625.0039.01172.00782.01953.01172.02735.05078.11718.13282.23828.23828.35546.11329.125.25782.25.42579.37891.0039 0 .0039 0 .0039.0039.04688.03126.09375.06641.14453.10157.01172.00781.01953.01563.03125.01953.13672.09375.28125.1836.44532.27735.03906.02343.07812.04687.11718.0664.03907.02344.07813.04297.11719.0625.04688.02735.10156.05469.15234.08203.03516.01563.0664.03516.10157.05078.07812.03907.16015.07813.24218.1172.01172.0078.01954.01171.03125.01562a4.01969 4.01969 0 0 0 .26954.11718c.03906.01563.07421.03125.11328.04688.0078.0039.01562.00781.02343.00781.83594.32813 1.8672.54688 2.77735.58594.0664.0039.13672.00781.20312.00781h.0039c.03126 0 .0586 0 .08985-.0039h.21094c.00781 0 .01563 0 .02344-.00391 1.48047-.04688 2.69531-.42969 3.73047-1.1875v-.0039c1.14843-.8672 1.78125-2.08985 1.78125-3.4375 0-.08594-.00391-.17188-.00782-.25391 0-.03125-.0039-.0625-.0039-.08985"/><path d="M70.4278 13.58203h-.01171c-1.82031 0-3.53906.74219-4.78125 2.05469v-1.11719c0-.51562-.39844-.9375-.90234-.9375-.03516 0-.06641.0039-.09766.0039-.22266.02345-.41797.1211-.5625.26563-.0039 0-.0039 0-.00781.0039-.01172.01563-.02735.03126-.03906.04688-.00782.00391-.01563.01172-.01954.01953-.01171.01172-.01953.02344-.02734.03516-.00781.01172-.01562.02344-.02734.03516l-.01172.02343c-.01172.01954-.02344.03907-.03516.0547 0 .0039 0 .0078-.0039.01171l-.03516.07031c-.01953.0586-.03906.1172-.05078.17578 0 .00391 0 .00782-.0039.00782-.00391.03125-.00782.0586-.01173.08593 0 .03125-.0039.0625-.0039.09766v14.50781l-.01172.0625.04687.03907c0 .01953.0039.04687.01563.07421 0 .00391.0039.01172.0039.01563.00782.01953.01954.04297.03907.0625.12109.23047.34375.40625.60547.48438l.01953.0039h.21875c.03515 0 .0703 0 .10547-.0039.02343-.00391.04687-.01172.0703-.01563.01173 0 .01954 0 .03126-.0039.03125-.00782.0625-.01563.09375-.02735h.0039c.16407-.0586.3047-.16016.39844-.29688l.01172-.01171c.0625-.06641.09766-.13672.13281-.23438.0039-.01172.00782-.01953.00782-.02734.0039-.0039.0039-.0039.0039-.00782.01563-.04687.02735-.09374.03906-.14062l.0039-.01563.00001-8.78124c.0625-2.6172 2.20313-4.7461 4.77344-4.75h.0078c2.6172 0 4.7461 2.1289 4.7461 4.74609v8.63281c0 .03516.0039.0664.00782.09766.01953.22656.11718.42187.26172.5664 0 0 .0039 0 .0039.00391.01563.01563.03125.02734.04688.04297.0078.00781.01172.01172.01953.01562.01172.01172.02344.01954.03515.02735.01172.01172.02344.01953.03516.02734.01172.0039.01953.00781.02734.01563.01563.01171.03516.01953.05079.03125.0039 0 .0078.0039.01562.0039.01953.01172.04297.02344.0664.03516h.00391c.05469.02344.11328.03906.17188.05078.0078 0 .01172.0039.01562.0039.02735.00391.05078.00782.07813.01172.03125.00391.0625.00391.09765.00391.03125 0 .0625 0 .09375-.0039.02735-.00391.0547-.00782.07813-.01172.0039 0 .01172-.00391.01562-.00391.0625-.01172.1172-.02734.17579-.05078l.0703-.03516c.00391 0 .00782-.0039.01173-.0039.01953-.01172.03515-.01954.05468-.03125.00782-.00782.01563-.01172.02344-.01563.01172-.00781.02344-.01562.03516-.02734.01172-.00782.02734-.01563.03906-.02735.0039-.0039.01172-.0078.01563-.01562.01562-.01563.03515-.02735.05078-.04297v-.0039c.14843-.14454.24609-.33985.26562-.56641.0039-.03125.0039-.0625.0039-.09766v-8.63281c0-3.64453-2.96093-6.60938-6.60546-6.61719"/><path d="M87.27937 13.55078c4.24219 0 7.6914 3.63672 7.6914 8.10938 0 4.47265-3.44921 8.10937-7.6914 8.10937a6.4236 6.4236 0 0 1-.39062-.01172c-.01953 0-.03516 0-.0547-.0039-.11327-.00391-.22655-.01563-.33593-.02735h-.01172c-1.67578-.1836-3.24218-.94922-4.48828-2.20312-.05078-.05078-.10547-.10157-.15234-.15625-.0039 0-.0039-.0039-.00781-.0039-.02735-.02735-.05079-.0586-.07813-.08985-.0586-.0625-.11719-.1289-.17578-.19532-.04688-.05078-.08984-.10937-.13672-.16406-.03125-.04297-.0664-.08593-.10156-.1289-.07031-.08594-.13672-.17579-.19922-.26563l-.02344-.03515c-.76172-1.06641-1.25781-2.29688-1.44531-3.60157-.01953-.1211-.03125-.24218-.04297-.36328-.0039-.01172-.0039-.02734-.00781-.04297-.01172-.11328-.01953-.22265-.02344-.33593-.0039-.02344-.0039-.04688-.0039-.07422a6.9518 6.9518 0 0 1-.01172-.40625c0-.13672.0039-.27344.01171-.40625 0-.02735 0-.05079.0039-.07422.00392-.11328.01173-.22657.02345-.33594.0039-.01563.0039-.03125.0078-.04297.01173-.1211.02345-.24219.04298-.36328.1875-1.30469.6836-2.53516 1.44531-3.60156.0039-.01172.01172-.02344.01953-.03125.0664-.09375.13282-.1836.20313-.27344.03125-.03906.0664-.07813.09765-.1211.04688-.05859.09375-.11328.14063-.17187.05469-.0625.10937-.1211.16797-.1836.02734-.03124.0586-.0664.08594-.09765.0039 0 .0039-.0039.0078-.0039.04298-.05079.09376-.09766.14063-.14454 1.2461-1.2578 2.8164-2.03125 4.5-2.21484h.01172c.10938-.01172.22266-.01953.33594-.02734.01953 0 .03516-.00391.05469-.00391a6.42442 6.42442 0 0 1 .39062-.01172zm5.78906 7.47266v-.00782c-.13671-1.40624-.71484-2.67578-1.57812-3.65624-.03906-.04297-.07422-.08594-.11328-.12891l-.07031-.07031c-.04688-.04688-.08985-.09375-.13672-.14063-.04297-.04297-.08985-.08203-.13282-.1211-.02734-.02343-.05078-.05077-.07812-.07421-.07031-.0625-.14063-.1211-.21094-.17969 0 0-.0039 0-.0039-.0039-.81641-.66016-1.79688-1.09376-2.85157-1.21485-.01172 0-.01953-.0039-.02734-.0039-.08203-.01172-.16016-.01563-.24219-.01954-.01953-.0039-.03515-.0039-.05078-.0039-.09766-.00782-.19531-.00782-.29297-.00782-.09765 0-.19531 0-.29297.00782-.01562 0-.03125 0-.05078.0039-.08203.00391-.16015.00782-.24219.01953-.0078 0-.01562.00391-.02734.00391-1.05469.1211-2.03516.55469-2.85156 1.21485 0 .0039-.0039.0039-.0039.0039-.07032.0586-.14063.11719-.21095.17969-.02734.02344-.05078.04687-.07812.07031-.04297.04297-.08984.08203-.13281.125-.04297.04297-.08594.08985-.13282.13672l-.07421.07422c-.03516.03906-.07032.08203-.10938.125-.86328.98047-1.44531 2.2539-1.58203 3.66015v.00782c-.00781.08984-.01563.17968-.01953.27343 0 .01563-.0039.03126-.0039.04688-.00391.10547-.00782.21094-.00782.3164 0 3.4336 2.64062 6.23829 5.82031 6.23829s5.82031-2.80469 5.82031-6.23828c0-.10547-.0039-.21094-.0078-.31641 0-.01563-.00391-.03125-.00391-.04688-.00391-.09374-.01172-.18359-.01954-.27343z"/><path d="M117.57625 13.95313c-.00782-.00782-.01172-.01563-.01954-.02344-.09374-.11719-.21874-.21094-.35937-.26953h-.0039c-.01563-.01172-.03516-.01563-.05079-.02344-.00781 0-.01562-.0039-.02734-.00781-.125-.04297-.26172-.05078-.39453-.03125h-.0039c-.26954.04297-.52735.20703-.67188.44922h-.00391c-.01953.03906-.04297.07812-.0586.11718l-.0039.0039v.00391l-4.47656 12.25391-3.51563-8.36719c-.03515-.07812-.08203-.14843-.13672-.21484-.1914-.22266-.48437-.36328-.78515-.36328-.04688 0-.08985 0-.13672.01172h-.01563c-.3125.05468-.60547.27343-.73828.5664v.00391l-3.51562 8.36719-1.70313-4.6289-2.80468-7.62891c-.01563-.04297-.03125-.07813-.05079-.1172l-.0078-.0078c-.08595-.16016-.22266-.28516-.38673-.36329 0 0-.0039 0-.0039-.0039-.08203-.03516-.16797-.0625-.25782-.07813-.0078 0-.01171 0-.01953-.0039-.04297-.00391-.08984-.00782-.13281-.00782h-.03125c-.01953 0-.03906 0-.0586.00391-.01171 0-.02734.0039-.03906.0039-.01953.00391-.03515.00391-.05078.00782-.01172.0039-.02343.0039-.03515.00781-.01953.0039-.03907.00781-.0586.01563-.00781.0039-.01562.0039-.02343.0078-.01954.00782-.03907.01173-.0586.02345h-.0039c-.16016.0703-.28907.1914-.38282.33203-.0039.00781-.00781.01172-.01172.01953l-.01171.02344c-.07032.11718-.11329.2539-.12891.39062-.01563.14453.0039.29688.0625.4375l3.2461 8.72266 2.08202 5.59375v.0039c.08594.21094.21094.35547.38282.4336.0039.0039.01171.00781.01562.01172.0039.0039.00781.0078.01563.01171 0 .00391.0039.00391.0078.00782.00782.0039.01173.00781.01954.01562h.00781c.03125.01953.07031.03516.1211.03907.0039 0 .0078.0039.01171.0039.01563.0039.03126.01172.04688.01563.00781 0 .01563.0039.02344.0039.09765.03125.16015.04297.23828.04297.04297 0 .08203-.0039.125-.01172.03125-.0039.0664-.01172.09766-.02343.0078-.00391.01562-.00391.02343-.00782.03125-.00781.0625-.01953.09375-.03515.01172-.00391.02344-.00782.03516-.01563.01953-.01172.04297-.02344.0664-.03515.01563-.01172.03516-.02344.0547-.03516.01171-.00781.02343-.01953.03515-.02735.02734-.01953.05078-.03906.07812-.0625.0039-.0039.00782-.0078.01172-.01562.02735-.02734.05469-.05469.08203-.08594 0-.0039.0039-.00781.00782-.01172.02343-.03125.04687-.0664.0664-.10156.01953-.03906.03906-.08203.05469-.125l.0039-.01172.01172-.01562.01172-.02735 3.52735-8.42187 3.5586 8.45312c.02733.08594.0703.16407.1289.23829.0078.01171.01562.01953.02343.03124.01954.02344.03907.04688.0625.07032.01172.00781.02344.01953.03516.02734.01953.01953.04297.03906.0664.0586.01173.0078.01954.01562.03126.01953.02734.01953.05468.03906.08203.05468l.02344.01172c.03125.01563.05859.03125.09375.04297.0078.0039.01562.00781.02734.00781.02734.01172.05469.02344.08594.03125.03906.00782.07812.01563.11328.02344h.11719c.04687 0 .08984-.0039.1328-.01172.01173 0 .01954 0 .03126-.0039.03906-.00782.07422-.01563.10937-.02735.01172-.0039.01953-.00781.02735-.01172.03906-.01171.07812-.03125.11328-.05078.0039 0 .00781-.0039.01172-.0039.04297-.02735.08593-.0547.1211-.08204.15624-.11718.26952-.26953.34765-.45703v-.0039l2.19922-5.92188 3.09375-8.33203c.12109-.29297.07421-.61328-.09375-.86328-.00782-.01563-.01954-.03125-.03125-.04688"/><path d="M167.25203 14.21484c0-.01562-.0039-.03515-.00781-.05078 0-.01172-.00391-.02343-.00782-.03515-.0039-.01953-.00781-.03907-.01172-.0547-.0039-.01171-.0078-.02343-.01172-.03124-.0039-.02344-.01171-.04297-.02343-.0625 0-.00781-.0039-.01172-.00781-.01953-.01172-.02735-.02344-.05078-.03907-.07422v-.0039c-.04687-.08204-.10547-.15235-.17187-.21485l-.0039-.0039-.00392-.00391c-.33203-.33203-.80078-.375-1.16796-.1172-.01172.00782-.01953.01563-.03125.01954l-.04688.03516c-.02344.02343-.04687.04297-.07031.0664 0 0-.0039 0-.0039.0039l-9.15235 8.92188V7.66797c0-.03125 0-.0625-.0039-.09375-.03516-.34375-.26563-.6289-.57813-.76172-.0039 0-.0039-.0039-.00781-.0039-.01954-.00782-.03907-.01563-.0586-.01954-.00781-.0039-.01953-.00781-.03125-.01172-.01562-.0039-.03125-.0078-.05078-.01171-.01172-.00391-.02734-.00782-.04297-.01172-.01562-.00391-.03516-.00782-.05078-.00782-.01563-.0039-.02734-.0039-.04297-.0078-.03516-.00392-.0664-.00392-.09766-.00392-.51171 0-.9375.42579-.9375.9336v21.16406c0 .51172.42579.9375.9375.9375.03125 0 .06641 0 .09766-.0039.0039 0 .00781-.00391.01563-.00391.02734-.0039.05468-.0039.07812-.01172.00781 0 .01563-.0039.02344-.0039.02344-.00782.04687-.01172.07031-.01954.0039 0 .00781-.0039.01172-.0039.35938-.11329.625-.42188.66406-.79297.0039-.03125.0039-.0625.0039-.09766v-3.57031l3.08204-3.07813 5.98828 7.22657c.03906.0625.08203.11718.13672.16015.01172.01172.01953.01953.03125.02735.01563.01171.03125.02343.04688.03125.01953.01562.03906.02343.05859.03515.00781.0039.01953.01172.02734.01563.02735.01172.05078.01953.07813.03125.0078.0039.01562.0039.01953.00781.03125.00781.0586.01563.08984.02344.0039 0 .01172.0039.01953.0039.03125.00782.0586.01172.09375.01563.00782 0 .01563 0 .02344.0039.03906 0 .07813.00391.1211.00391.0625 0 .12109-.0039.17578-.01172h.0039c.10938-.01562.21094-.05078.30469-.09765.0039 0 .0039-.00391.0039-.00391.04297-.02344.08594-.05078.12891-.08203l.01172-.01172c.35547-.35547.41016-.83984.15234-1.24219-.02343-.03515-.04687-.07031-.07421-.10547l-6.08203-7.38671 6.03906-5.83594c.16015-.16407.2578-.36328.28125-.57813 0-.0039 0-.00781.0039-.01172v-.0625c0-.01172.0039-.02343.0039-.03125v-.01562c0-.01563-.0039-.02735-.0039-.04297 0-.01172-.0039-.02344-.0039-.03516"/></g></svg>