<?xml version="1.0" encoding="utf-8"?>
<!-- Generator: Adobe Illustrator 25.4.1, SVG Export Plug-In . SVG Version: 6.00 Build 0)  -->
<svg version="1.0" id="Layer_1" xmlns="http://www.w3.org/2000/svg" xmlns:xlink="http://www.w3.org/1999/xlink" x="0px" y="0px"
	 viewBox="0 0 261.2 85.8" enable-background="new 0 0 261.2 85.8" xml:space="preserve">
<rect fill="#500000" width="85.1" height="85.8"/>
<polygon fill="#FFFFFF" points="73.8,34.1 67.5,34.1 67.1,34.1 66.9,34.4 62.4,44 57.8,34.4 57.6,34.1 57.2,34.1 51.1,34.1 
	50.6,34.1 50.6,34.7 50.6,37.9 50.6,38.5 51.1,38.5 52.2,38.5 52.2,52.2 51,52.2 50.5,52.2 50.5,52.7 50.5,56 50.5,56.6 51,56.6 
	57.9,56.6 58.5,56.6 58.5,56 58.5,52.7 58.5,52.2 57.9,52.2 56.7,52.2 56.7,42.5 61.8,53 62.4,54.1 62.9,53 68.1,42.4 68.1,52.2 
	66.9,52.2 66.4,52.2 66.4,52.7 66.4,56 66.4,56.6 66.9,56.6 73.8,56.6 74.4,56.6 74.4,56 74.4,52.7 74.4,52.2 73.8,52.2 72.6,52.2 
	72.6,38.5 73.8,38.5 74.4,38.5 74.4,37.9 74.4,34.7 74.4,34.1 "/>
<path fill="#FFFFFF" d="M34,52.1h-1.8l-6-13.7h1.2V34h-9.5v4.4h1.3l-5.9,13.7h-2.5v4.4h8.7v-4.4h-1.3l1-2.3h7.1l1,2.3H26v4.4h8.7
	v-4.4H34z M24.4,45.4h-3.3l1.7-3.8L24.4,45.4z"/>
<polygon fill="#FFFFFF" points="66.5,16.9 18.4,16.9 17.7,16.9 17.7,17.6 17.7,30.4 17.7,31.1 18.4,31.1 26.7,31.1 27.4,31.1 
	27.4,30.4 27.4,25.7 37.7,25.7 37.7,59.6 32.9,59.6 32.2,59.6 32.2,60.2 32.2,68.5 32.2,69.2 32.9,69.2 52.1,69.2 52.7,69.2 
	52.7,68.5 52.7,60.2 52.7,59.6 52.1,59.6 47.3,59.6 47.3,25.7 57.5,25.7 57.5,30.4 57.5,31.1 58.2,31.1 66.5,31.1 67.2,31.1 
	67.2,30.4 67.2,17.6 67.2,16.9 "/>
<polygon fill="#B1B3B6" points="48.7,63.5 50.8,61.4 50.8,67.2 48.7,65.2 "/>
<polygon fill="#B1B3B6" points="45.3,61.6 43.3,63.6 43.3,21.7 45.3,23.7 "/>
<polygon fill="#B1B3B6" points="21.8,20.9 19.7,18.9 64.2,18.9 61.6,20.9 "/>
<polygon fill="#B1B3B6" points="65.3,29.2 63.2,27.3 63.2,22.1 65.3,20 "/>
<path fill="#500000" d="M261,48.2L261,48.2L261,48.2z"/>
<path fill="#500000" d="M90.2,28.3v5.6h1.4c0-1,0.2-1.9,0.7-2.7c0.3-0.5,0.8-0.9,1.4-1.1c0.7-0.1,1.4-0.2,2.1-0.2h2.1v14.6
	c0.1,0.7-0.1,1.3-0.5,1.8c-0.7,0.4-1.5,0.6-2.4,0.5v1.3h10v-1.2c-0.6,0-1.3-0.1-1.9-0.3c-0.4-0.1-0.7-0.4-0.8-0.7
	c-0.1-0.4-0.2-0.9-0.2-1.3V30h2.5c0.6,0,1.1,0.1,1.7,0.2c0.6,0.2,1,0.6,1.3,1.1c0.5,0.8,0.8,1.8,0.8,2.7h1.4v-5.6L90.2,28.3z"/>
<path fill="#500000" d="M126.6,45c-0.5,0.6-1.1,1.1-1.8,1.3c-0.6,0.2-1.3,0.3-1.9,0.3h-1.6c-0.6,0-1.1,0-1.6-0.2
	c-0.3-0.1-0.6-0.3-0.8-0.5c-0.2-0.3-0.3-0.6-0.3-0.9c0-0.4-0.1-0.9-0.1-1.7v-4.7h2c0.5,0,1,0,1.5,0.2c0.3,0.1,0.6,0.4,0.7,0.7
	c0.2,0.5,0.3,1.1,0.3,1.6h1.3v-6.6H123c0,0.5-0.1,1.1-0.3,1.6c-0.1,0.3-0.4,0.6-0.7,0.7c-0.5,0.1-1,0.2-1.5,0.2h-2v-7h3.7
	c0.7,0,1.5,0,2.2,0.2c0.5,0.1,1,0.5,1.3,0.9c0.5,0.7,0.9,1.6,1.1,2.5h1.3l-0.3-5.2h-16.4v1.3c0.7,0,1.3,0.1,1.9,0.3
	c0.4,0.1,0.6,0.4,0.8,0.8c0.1,0.4,0.2,0.9,0.2,1.3v12.5c0.1,0.7-0.1,1.3-0.5,1.8c-0.7,0.4-1.5,0.6-2.4,0.5v1.3h17.7l0.2-6.5h-1.4
	C127.8,42.8,127.3,44,126.6,45z"/>
<path fill="#500000" d="M164.7,46.7c-0.6,0.1-1.2,0.2-1.7,0.2v1.4h9.4v-1.4c-0.5,0-1-0.1-1.5-0.3c-0.4-0.2-0.7-0.5-0.8-0.9
	c-0.2-0.4-0.5-1.1-1-2.2l-6-15.5h-1.4L156,43c-0.3,0.8-0.7,1.7-1.1,2.4c-0.3,0.5-0.6,0.9-1.1,1.2c-0.2,0.1-0.4,0.2-0.7,0.2
	s-0.7-0.1-1-0.3c-0.5-0.2-1-0.6-1.4-1c-0.6-0.7-1.2-1.4-1.8-2.2L144,37l3.5-4.1c0.8-0.9,1.4-1.5,1.8-1.9c0.4-0.4,0.9-0.7,1.4-1
	c0.6-0.3,1.3-0.4,1.9-0.4v-1.3h-8.2v1.3h0.6c0.5,0,0.9,0,1.4,0.2c0.2,0.1,0.4,0.4,0.4,0.7c0,0.2,0,0.4-0.1,0.6
	c-0.1,0.1-0.3,0.4-0.6,0.8l-3.1,3.7l-2.8-3.6c-0.4-0.5-0.7-1-0.9-1.6c0-0.3,0.1-0.6,0.4-0.7c0.4-0.1,0.8-0.1,1.2-0.1h0.8v-1.3h-10.8
	v1.3c0.6,0,1.2,0.1,1.8,0.2c0.4,0.1,0.8,0.4,1.1,0.7c0.3,0.3,0.8,1,1.6,1.9l4.8,6.3l-3.5,4.1c-0.7,0.9-1.6,1.8-2.4,2.5
	c-0.5,0.5-1,0.8-1.7,1.1c-0.5,0.2-1.1,0.3-1.7,0.3V48h8.8v-1.1c-0.5,0-0.9,0-1.4-0.1c-0.3,0-0.6-0.1-0.9-0.3
	c-0.2-0.2-0.4-0.5-0.4-0.8c0.2-0.7,0.5-1.4,1.1-1.9l3.1-3.6l3.2,4.2c0.4,0.4,0.6,0.9,0.8,1.4c0,0.4-0.2,0.8-0.6,0.9
	s-0.9,0.2-1.4,0.2h-0.9v1.4H159v-1.4c-0.5,0-1.1-0.1-1.6-0.2c-0.5-0.2-0.7-0.6-0.7-1.1c0.1-0.5,0.2-1.1,0.4-1.6l0.5-1.3h6.4l1,2.3
	c0.1,0.3,0.2,0.6,0.2,0.9C165.3,46.3,165.1,46.6,164.7,46.7z M158.2,41.2l2.6-6.9l2.7,6.9H158.2z"/>
<path fill="#500000" d="M185.8,46.1c0.5-0.6,0.9-1.2,1.2-1.9c0.3-0.6,0.4-1.3,0.4-1.9c0-1-0.3-1.9-0.8-2.7c-0.6-0.8-1.3-1.4-2.1-1.9
	c-1.1-0.6-2.2-1.2-3.4-1.8c-1.2-0.5-2-1-2.6-1.3c-0.5-0.3-0.9-0.6-1.3-1.1c-0.3-0.4-0.5-0.9-0.5-1.5c0-0.7,0.3-1.3,0.8-1.8
	c0.6-0.5,1.3-0.7,2.1-0.7c2.4,0,4,1.5,5,4.4h1.3v-5.4h-1.3c-0.1,0.6-0.3,1.2-0.5,1.7c-0.6-0.7-1.3-1.3-2.1-1.7
	c-0.8-0.4-1.7-0.6-2.6-0.6c-1.1,0-2.2,0.3-3.1,0.8c-0.9,0.5-1.6,1.2-2.1,2.1c-0.5,0.8-0.7,1.7-0.7,2.6c0,0.5,0.1,1,0.2,1.5
	c0.2,0.5,0.5,1.1,0.8,1.5c0.5,0.6,1.1,1.2,1.7,1.6c0.9,0.7,1.9,1.2,2.9,1.7c0.8,0.3,1.5,0.7,2,1c0.5,0.2,1,0.5,1.4,0.9
	c0.3,0.3,0.6,0.6,0.8,0.9c0.5,1.1,0.3,2.4-0.6,3.2c-0.7,0.6-1.5,0.8-2.3,0.8c-1,0-2-0.3-2.8-0.9c-0.7-0.6-1.4-1.3-1.8-2.2
	c-0.4-0.9-0.8-1.8-1-2.7h-1.3v6.6h1.3c0.1-0.7,0.3-1.3,0.6-1.9c0.7,0.9,1.6,1.6,2.6,2s2,0.7,3.1,0.7c1,0,1.9-0.2,2.8-0.6
	C184.6,47.3,185.2,46.8,185.8,46.1z"/>
<path fill="#500000" d="M215.3,45.6c-0.2-0.4-0.5-1.1-1-2.2l-6.1-15.5h-1.4l-5.7,15c-0.3,0.8-0.7,1.6-1.1,2.4
	c-0.3,0.5-0.6,0.9-1.1,1.2c-0.4,0.2-0.9,0.3-1.4,0.3v1.4h6.8v-1.3c-0.5,0-1.1-0.1-1.6-0.2c-0.5-0.2-0.7-0.6-0.7-1.1
	c0.1-0.5,0.2-1.1,0.4-1.6l0.5-1.3h6.4l1,2.3c0.1,0.3,0.2,0.6,0.2,0.9c0,0.4-0.2,0.7-0.5,0.8c-0.6,0.1-1.2,0.2-1.7,0.2v1.4h9.4v-1.4
	c-0.5,0-1.1-0.1-1.5-0.3C215.8,46.3,215.5,46,215.3,45.6z M203.6,41.2l2.6-6.9l2.7,6.9H203.6z"/>
<path fill="#500000" d="M253.7,45.9c-0.1,0.3-0.4,0.6-0.8,0.8c-0.6,0.2-1.3,0.3-1.9,0.3v1.4h10v-1.5c-0.7,0-1.3-0.1-1.9-0.3
	c-0.4-0.1-0.7-0.4-0.8-0.8s-0.2-0.9-0.2-1.3V32c-0.1-0.7,0.1-1.3,0.5-1.8c0.7-0.5,1.5-0.6,2.4-0.5v-1.3h-7.1l-6.6,14l-6.6-14h-7.3
	v1.3c0.7,0,1.4,0.1,2,0.3c0.4,0.1,0.6,0.5,0.7,0.8c0.1,0.6,0.2,1.2,0.1,1.8v11.3c0,0.5,0,1-0.1,1.4c0,0.3-0.1,0.6-0.3,0.8
	c-0.2,0.3-0.5,0.4-0.8,0.5c-0.5,0.1-1.1,0.2-1.6,0.2v1.3h7.3v-1.2c-0.5,0-1.1,0-1.6-0.2c-0.3-0.1-0.6-0.3-0.9-0.5
	c-0.2-0.2-0.3-0.5-0.3-0.8c-0.1-0.5-0.1-1-0.1-1.4V32.2l7.6,16.1h0.9l7.5-16.1v12.5C253.9,45,253.8,45.4,253.7,45.9z"/>
<path fill="#500000" d="M98.8,55.1c0.2,0,0.5,0,0.7,0.1c0.1,0,0.3,0.1,0.4,0.2c0.1,0.1,0.1,0.2,0.1,0.3c0,0.2,0,0.4,0,0.6v2.9
	c0,0.3,0,0.7,0,1s-0.1,0.5-0.2,0.8c-0.2,0.3-0.4,0.6-0.8,0.8c-0.4,0.2-0.8,0.3-1.2,0.3S97,62,96.7,61.8S96.1,61.4,96,61
	c-0.1-0.2-0.1-0.5-0.2-0.7c0-0.3-0.1-0.6,0-0.9V56c0-0.2,0-0.4,0.1-0.6c0.1-0.1,0.2-0.3,0.3-0.3C96.5,55,96.7,55,97,55v-0.6h-4.1V55
	c0.3,0,0.7,0,1,0.2c0.2,0.2,0.2,0.5,0.2,0.8v3.4c0,0.3,0,0.5,0,0.7s0,0.4,0.1,0.6c0.1,0.2,0.1,0.4,0.2,0.6c0.2,0.4,0.4,0.7,0.8,0.9
	c0.3,0.2,0.7,0.4,1.1,0.5s0.8,0.2,1.2,0.2c0.5,0,1.1-0.1,1.6-0.3c0.6-0.2,1-0.6,1.3-1.1c0.2-0.3,0.3-0.5,0.3-0.8
	c0-0.4,0.1-0.8,0.1-1.3v-3c0-0.2,0-0.5,0.1-0.7c0-0.2,0.1-0.3,0.3-0.4c0.2-0.1,0.5-0.1,0.8-0.1v-0.6h-3L98.8,55.1z"/>
<path fill="#500000" d="M118.1,54.5v0.6c0.3,0,0.5,0,0.8,0.1c0.2,0.1,0.3,0.2,0.3,0.4s0.1,0.5,0.1,0.7V60l-4.7-5.5h-2.4v0.6
	c0.2,0,0.4,0.1,0.6,0.2c0.1,0.1,0.3,0.2,0.3,0.3c0.1,0.1,0.1,0.3,0.1,0.4c0,0.2,0,0.4,0,0.8V61c0,0.3,0,0.5-0.1,0.8
	c0,0.2-0.2,0.3-0.3,0.4c-0.3,0.1-0.5,0.1-0.8,0.1v0.6h3.1v-0.6c-0.3,0-0.6,0-0.8-0.1c-0.2-0.1-0.3-0.2-0.3-0.4s-0.1-0.5-0.1-0.8
	v-4.5l5.4,6.4h0.6v-6.5c0-0.3,0-0.5,0.1-0.8c0-0.2,0.2-0.3,0.3-0.4c0.3-0.1,0.6-0.1,0.8-0.1v-0.5L118.1,54.5z"/>
<path fill="#500000" d="M131.5,55.1c0.3,0,0.7,0,1,0.2c0.2,0.2,0.3,0.5,0.2,0.8v5.1c0,0.2,0,0.4-0.1,0.6c-0.1,0.1-0.2,0.3-0.4,0.3
	c-0.3,0.1-0.5,0.1-0.8,0.1v0.6h4.2v-0.6c-0.3,0-0.5,0-0.8-0.1c-0.1,0-0.3-0.2-0.3-0.3c-0.1-0.2-0.1-0.4-0.1-0.6v-5.1
	c0-0.2,0-0.4,0.1-0.6c0.1-0.1,0.2-0.2,0.4-0.3c0.3-0.1,0.5-0.1,0.8-0.1v-0.6h-4.2C131.5,54.5,131.5,55.1,131.5,55.1z"/>
<path fill="#500000" d="M152,55.1c0.3,0,0.6,0,0.8,0.1s0.3,0.2,0.3,0.5s-0.1,0.5-0.2,0.7l-1.7,4.1l-1.9-4.4
	c-0.1-0.2-0.1-0.4-0.1-0.6c0-0.2,0.1-0.3,0.2-0.4c0.3-0.1,0.5-0.1,0.8-0.1v-0.6H146V55c0.2,0,0.5,0,0.7,0.1c0.2,0.1,0.3,0.2,0.4,0.3
	c0.2,0.3,0.3,0.6,0.4,0.8l2.8,6.5h0.6l2.6-6.2c0.2-0.4,0.3-0.7,0.4-0.8c0.1-0.2,0.2-0.3,0.3-0.4c0.1-0.1,0.2-0.2,0.4-0.2
	c0.2-0.1,0.3-0.1,0.5-0.1v-0.5h-3v0.6H152z"/>
<path fill="#500000" d="M171.7,61.4c-0.2,0.3-0.4,0.4-0.7,0.5s-0.5,0.1-0.8,0.1h-0.7c-0.2,0-0.5,0-0.7-0.1c-0.1,0-0.3-0.1-0.3-0.2
	c-0.1-0.1-0.1-0.2-0.1-0.4s0-0.4,0-0.7v-1.9h0.8c0.2,0,0.4,0,0.6,0.1c0.1,0,0.2,0.1,0.3,0.3s0.1,0.4,0.1,0.7h0.6v-2.7h-0.6
	c0,0.2,0,0.4-0.1,0.7c-0.1,0.1-0.2,0.2-0.3,0.3c-0.2,0.1-0.4,0.1-0.6,0.1h-0.8v-2.9h1.5c0.3,0,0.6,0,0.9,0.1
	c0.2,0.1,0.4,0.2,0.6,0.4c0.2,0.3,0.4,0.6,0.4,1h0.6l-0.1-2.1h-6.8v0.6c0.3,0,0.5,0,0.8,0.1c0.2,0.1,0.3,0.2,0.3,0.3
	c0.1,0.2,0.1,0.4,0.1,0.5v5.1c0,0.3-0.1,0.5-0.2,0.8c-0.3,0.2-0.6,0.3-1,0.2v0.6h7.3l0.1-2.7h-0.6C172.2,60.5,172,61,171.7,61.4z"/>
<path fill="#500000" d="M191.7,62c-0.2-0.1-0.3-0.2-0.5-0.4c-0.2-0.3-0.4-0.6-0.6-0.9c-0.4-0.7-0.8-1.2-1-1.4
	c-0.2-0.3-0.5-0.5-0.8-0.6c0.4-0.1,0.7-0.3,1-0.5c0.2-0.2,0.4-0.4,0.6-0.7c0.1-0.2,0.2-0.5,0.2-0.8s-0.1-0.7-0.3-1
	c-0.2-0.3-0.4-0.5-0.7-0.7s-0.6-0.3-0.9-0.4c-0.3-0.1-0.6-0.1-0.8-0.1c-0.4,0-0.7-0.1-1.1-0.1h-1.1h-0.5l-1.9,0.1v0.6
	c0.3,0,0.7,0,1,0.2c0.2,0.2,0.2,0.5,0.2,0.8v5.2c0,0.3,0,0.5-0.2,0.8c-0.3,0.2-0.6,0.3-1,0.2v0.6h4.1v-0.6c-0.3,0-0.5,0-0.8-0.1
	c-0.2,0-0.3-0.2-0.3-0.3c-0.1-0.2-0.1-0.4-0.1-0.5v-2.2h0.3c0.3,0,0.6,0,0.8,0.1c0.2,0,0.3,0.2,0.4,0.3c0.2,0.3,0.4,0.6,0.6,0.8
	l0.6,0.9l0.3,0.6c0.1,0.2,0.3,0.4,0.4,0.6c0.1,0.1,0.2,0.3,0.3,0.4h2.2v-0.5C192,62.1,191.9,62.1,191.7,62z M188.2,58.1
	c-0.5,0.2-1,0.3-1.5,0.3h-0.4v-3.2h0.4c0.5,0,1.1,0.1,1.6,0.3c0.4,0.3,0.7,0.8,0.6,1.3C188.9,57.4,188.7,57.9,188.2,58.1z"/>
<path fill="#500000" d="M207.5,58.4c-0.5-0.3-0.9-0.5-1.4-0.7s-0.9-0.4-1.1-0.5s-0.4-0.3-0.5-0.4c-0.1-0.2-0.2-0.4-0.2-0.6
	c0-0.3,0.1-0.6,0.3-0.7c0.2-0.2,0.6-0.3,0.9-0.3c1,0,1.7,0.6,2.1,1.9h0.6v-2.3h-0.6c0,0.2-0.1,0.5-0.2,0.7c-0.2-0.3-0.6-0.5-0.9-0.7
	s-0.7-0.3-1.1-0.3c-0.5,0-0.9,0.1-1.3,0.3c-0.4,0.2-0.7,0.5-0.9,0.9c-0.2,0.3-0.3,0.7-0.3,1.1c0,0.2,0,0.4,0.1,0.6
	c0.1,0.2,0.2,0.4,0.3,0.6c0.2,0.3,0.4,0.5,0.7,0.7c0.4,0.3,0.8,0.5,1.2,0.7l0.9,0.4c0.2,0.1,0.4,0.2,0.6,0.4
	c0.1,0.1,0.2,0.2,0.3,0.4s0.1,0.3,0.1,0.5c0,0.3-0.1,0.6-0.4,0.8s-0.6,0.3-1,0.3c-0.4,0-0.8-0.1-1.2-0.4c-0.3-0.2-0.6-0.6-0.8-0.9
	c-0.2-0.4-0.3-0.7-0.4-1.1h-0.6v2.8h0.6c0-0.3,0.1-0.6,0.2-0.8c0.3,0.4,0.7,0.7,1.1,0.8c0.4,0.2,0.8,0.3,1.3,0.3
	c0.4,0,0.8-0.1,1.2-0.2c0.3-0.2,0.6-0.4,0.8-0.7c0.2-0.2,0.4-0.5,0.5-0.8c0.1-0.3,0.2-0.5,0.2-0.8c0-0.4-0.1-0.8-0.4-1.2
	C208.1,58.9,207.8,58.6,207.5,58.4z"/>
<path fill="#500000" d="M219.4,55.1c0.3,0,0.7,0,1,0.2c0.2,0.2,0.3,0.5,0.2,0.8v5.1c0,0.2,0,0.4-0.1,0.6c-0.1,0.1-0.2,0.2-0.4,0.3
	c-0.3,0.1-0.5,0.1-0.8,0.1v0.6h4.2v-0.6c-0.3,0-0.5,0-0.8-0.1c-0.1-0.1-0.3-0.2-0.3-0.3c-0.1-0.2-0.1-0.4-0.1-0.6v-5.1
	c0-0.2,0-0.4,0.1-0.6c0.1-0.1,0.2-0.2,0.4-0.3c0.3-0.1,0.5-0.1,0.8-0.1v-0.6h-4.2L219.4,55.1z"/>
<path fill="#500000" d="M234,56.9h0.6c0-0.4,0.1-0.8,0.3-1.1c0.1-0.2,0.3-0.4,0.6-0.4c0.3-0.1,0.6-0.1,0.8-0.1h0.9v6
	c0,0.3,0,0.5-0.2,0.8c-0.3,0.2-0.6,0.3-1,0.2v0.6h4.1v-0.6c-0.3,0-0.5,0-0.8-0.1c-0.2,0-0.3-0.2-0.3-0.3c-0.1-0.2-0.1-0.4-0.1-0.6
	v-6h1c0.2,0,0.5,0,0.7,0.1s0.4,0.2,0.6,0.4c0.2,0.3,0.3,0.7,0.3,1.1h0.6v-2.3H234L234,56.9z"/>
<path fill="#500000" d="M258,55.1c0.2,0,0.5,0,0.7,0.1c0.2,0.1,0.3,0.2,0.3,0.5c-0.1,0.3-0.2,0.6-0.4,0.9l-1.2,1.9l-1.3-2.2
	c-0.1-0.2-0.2-0.4-0.3-0.6c0-0.1-0.1-0.2-0.1-0.3s0-0.2,0.1-0.3s0.2-0.1,0.3-0.1h0.5v-0.6h-3.8v0.5c0.2,0,0.4,0,0.6,0.1
	c0.2,0.2,0.4,0.3,0.5,0.6v0.1l0.1,0.1l2.1,3.4V61c0,0.2,0,0.4-0.1,0.6c-0.1,0.1-0.2,0.3-0.3,0.3c-0.3,0.1-0.5,0.1-0.8,0.1v0.6h4.1
	V62c-0.3,0-0.5,0-0.8-0.1c-0.1-0.1-0.3-0.2-0.3-0.3c-0.1-0.2-0.1-0.4-0.1-0.5v-1.9l1.7-2.7c0.3-0.4,0.5-0.8,0.7-1
	c0.1-0.2,0.3-0.3,0.4-0.4c0.2-0.1,0.4-0.1,0.6-0.2l0,0v-0.5h-3L258,55.1z"/>
<path fill="#500000" d="M233.5,43.5l0.1-0.3h-1.1l-0.1,0.1c-0.3,0.5-0.8,0.9-1.4,0.9c-0.4,0-0.9-0.1-1.3-0.4
	c-0.6-0.5-1.2-1.2-1.7-1.9c0.4-0.6,0.7-1.3,1-1.9c0.3-0.8,0.7-1.6,1.3-2.3c0.4-0.4,0.9-0.6,1.4-0.8h0.1h0.2v-1.3h-5.6v1.2h0.2h0.1
	c1.3,0.1,1.4,0.7,1.4,1.1c0,0.5-0.2,0.9-0.4,1.4s-0.4,0.9-0.7,1.3l-3.2-4.5c2-1.1,3.1-2.3,3.1-3.5c0-0.9-0.4-1.7-1.1-2.1
	c-0.7-0.5-1.6-0.8-2.4-0.8c-1,0-1.9,0.3-2.5,1c-0.6,0.6-1,1.5-1,2.3c0.1,1.2,0.5,2.3,1.2,3.2c-1,0.6-1.9,1.4-2.7,2.3
	c-0.6,0.7-0.9,1.7-0.9,2.6c0,0.8,0.2,1.7,0.7,2.4c0.9,1.3,2.4,2.1,4,2.2c1.6-0.1,3.1-0.8,4.2-2.1c0.9,1.2,2.4,2,3.9,2.1
	c0.7,0,1.4-0.2,2-0.6C232.8,44.9,233.2,44.3,233.5,43.5L233.5,43.5z M223.2,35.2c-0.6-0.7-1-1.6-1.1-2.5c0-0.4,0.1-0.8,0.4-1.1
	c0.6-0.6,1.5-0.6,2.1,0c0.3,0.3,0.4,0.8,0.4,1.2C225,33.7,224.4,34.5,223.2,35.2L223.2,35.2z M221.9,37.7c1,1.4,2.3,3.1,3.7,5.3
	c-0.6,0.7-1.5,1.2-2.4,1.2s-1.7-0.4-2.3-1.1c-0.6-0.6-1-1.5-1-2.4c0-0.6,0.2-1.2,0.6-1.7C220.9,38.5,221.4,38,221.9,37.7L221.9,37.7
	z"/>
</svg>
