<svg id="Layer_1" data-name="Layer 1" xmlns="http://www.w3.org/2000/svg" viewBox="0 0 280.03 51.21"><path d="M140.74,75.6l-.55.07c-.72.09-.89.39-.89,1.94v4.13c0,2.3-1.54,3.72-4.25,3.72s-4.3-1.32-4.3-3.57v-4.3c0-1.48-.17-1.83-.89-1.92l-.55-.07V75l2.2,0,2.38,0v.57l-.61.07c-.86.11-1,.47-1,1.92v3.93a2.68,2.68,0,0,0,3,3c1.87,0,3.1-.91,3.1-2.6V77.59c0-1.45-.17-1.81-1-1.92l-.62-.07V75l2.06,0,1.93,0Z" transform="translate(-38.55 -37.37)" fill="#231f20"/><path d="M159,75.6l-.56.07c-.72.09-.88.39-.88,1.94v7.83h-.51l-6.88-8.1v5.41c0,1.45.17,1.81,1,1.91l.61.08v.57l-2.08,0-1.93,0v-.57l.55-.08c.72-.09.89-.39.89-1.93V77.25a1.55,1.55,0,0,0-1.47-1.61l-.26,0V75c.33,0,.87,0,1.43,0s.85,0,1.29,0l6.41,7.54v-5c0-1.45-.17-1.81-1-1.92L155,75.6V75l2.08,0L159,75Z" transform="translate(-38.55 -37.37)" fill="#231f20"/><path d="M170.57,85.31l-2.32,0-2.34,0v-.57l.6-.08c.81-.1,1-.45,1-1.91V77.59c0-1.47-.16-1.81-1-1.92l-.6-.07V75l2.32,0,2.34,0v.57l-.6.07c-.81.11-1,.45-1,1.92v5.16c0,1.46.16,1.81,1,1.91l.6.08Z" transform="translate(-38.55 -37.37)" fill="#231f20"/><path d="M188.34,75.6l-.35,0c-.6.08-.88.39-1.27,1.32l-3.57,8.53h-.61L179,77.08c-.47-1.09-.69-1.3-1.32-1.41l-.38-.06V75l1.92,0,2.4,0v.57l-.55.07c-.42.07-.65.2-.65.53a2.34,2.34,0,0,0,.23.91l2.59,6.25,2.29-5.66a3.73,3.73,0,0,0,.3-1.29c0-.48-.25-.69-.72-.75l-.46-.06V75l1.91,0,1.82,0Z" transform="translate(-38.55 -37.37)" fill="#231f20"/><path d="M203.33,83.08,203,85.29h-4.82l-3.12,0v-.57l.56-.08c.72-.09.88-.4.88-1.93V77.59c0-1.51-.18-1.83-.88-1.92l-.56-.07V75l3.12,0h4.45l.31,2.21h-.51l-.22-.42c-.54-1-.85-1.14-2.26-1.14h-.56a4.5,4.5,0,0,0-1.38.18v3.73h1c1.44,0,1.82-.16,1.92-1L201,78h.52c0,.3,0,1.38,0,1.95s0,1.47,0,1.8H201l-.08-.57c-.09-.72-.51-.84-1.92-.84h-1v2.38c0,1.61.26,1.91,1.64,1.91h.67c1.41,0,1.74-.1,2.26-1.14l.21-.42Z" transform="translate(-38.55 -37.37)" fill="#231f20"/><path d="M220.48,85.28a5.48,5.48,0,0,1-1,.09,3.05,3.05,0,0,1-3-1.69l-2-2.91H213.3v2c0,1.48.17,1.83,1,1.93l.61.08v.57l-2.36,0-2.22,0v-.57l.55-.08c.72-.09.89-.4.89-1.93V77.59c0-1.51-.18-1.83-.89-1.92l-.55-.07V75l2.22,0H215c2.31,0,3.68.94,3.68,2.65,0,1.44-1,2.39-2.53,2.81L218,83.3c.86,1.23,1.36,1.51,2.4,1.44Zm-3.54-7.42a2,2,0,0,0-2.2-2.22,3.87,3.87,0,0,0-1.44.23v4.3h1.18C216.25,80.17,216.94,79.29,216.94,77.86Z" transform="translate(-38.55 -37.37)" fill="#231f20"/><path d="M233.91,82.51c0,1.83-1.6,2.95-3.79,2.95a6.61,6.61,0,0,1-2.83-.5l-.2-2.14h.59l.16.44a2.17,2.17,0,0,0,2.37,1.54c1.36,0,2.28-.66,2.28-1.83s-.56-1.63-2.13-2.16c-2-.66-3-1.35-3-3.11s1.5-2.82,3.42-2.82a6,6,0,0,1,2.65.49l.2,2.15H233l-.17-.44a2,2,0,0,0-2.17-1.54,1.69,1.69,0,0,0-1.9,1.71c0,1.12.55,1.53,1.94,2C233.12,80.08,233.91,80.8,233.91,82.51Z" transform="translate(-38.55 -37.37)" fill="#231f20"/><path d="M245.92,85.31l-2.32,0-2.34,0v-.57l.6-.08c.81-.1,1-.45,1-1.91V77.59c0-1.47-.16-1.81-1-1.92l-.6-.07V75l2.32,0,2.34,0v.57l-.6.07c-.81.11-1,.45-1,1.92v5.16c0,1.46.16,1.81,1,1.91l.6.08Z" transform="translate(-38.55 -37.37)" fill="#231f20"/><path d="M263.15,74.73l-.23,2.71h-.55l-.14-.58c-.22-1-.54-1.12-2-1.12H258.7v7c0,1.45.18,1.82,1,1.91l.69.08v.57l-2.46,0-2.47,0v-.57l.69-.08c.84-.09,1-.46,1-1.91v-7h-1.45c-1.42,0-1.78.11-2.17,1.12l-.23.58h-.55l.21-2.71h.45c.4.3.61.35,4.51.35s4.28,0,4.76-.35Z" transform="translate(-38.55 -37.37)" fill="#231f20"/><path d="M280.78,75.6l-.41,0a1.87,1.87,0,0,0-1.38,1l-2.9,4.3v1.82c0,1.45.18,1.82,1,1.91l.68.08v.57l-2.45,0-2.47,0v-.57l.68-.08c.84-.09,1-.46,1-1.91V81.1l-3-4.27c-.59-.83-.95-1.08-1.44-1.16l-.41-.06V75l2,0,2.64,0v.57l-.6.07c-.47.07-.56.26-.56.48a1.51,1.51,0,0,0,.33.8l2.18,3.19,1.8-2.68A2.57,2.57,0,0,0,278,76.3c0-.36-.24-.6-.69-.64l-.55-.06V75l2.14,0,1.92,0Z" transform="translate(-38.55 -37.37)" fill="#231f20"/><path d="M128.75,41.91,128,42c-1.25.14-1.8.93-2.38,2.52l-5.89,16.55h-1.16l-5-12.48-4.85,12.48h-1.16l-6-16.55c-.61-1.71-1.19-2.29-2.41-2.46l-.78-.12V40.81c.58,0,2.61.06,3.71.06s4-.06,4.62-.06v1.1l-1.08.15c-.84.11-1.24.4-1.24,1a6.11,6.11,0,0,0,.43,1.8l4.12,11.73,3.83-10.1-.63-1.63c-.87-2.17-1.28-2.61-2.47-2.78l-.79-.12V40.81c.59,0,2.53.06,3.63.06s4.07-.06,4.65-.06v1.1l-1,.15c-.87.11-1.25.37-1.25,1a5.07,5.07,0,0,0,.41,1.8l4.56,11.73,3.6-10.45a9.13,9.13,0,0,0,.63-2.64A1.3,1.3,0,0,0,122.65,42l-1-.12v-1.1c.58,0,2.5.06,3.6.06s2.94-.06,3.52-.06Z" transform="translate(-38.55 -37.37)" fill="#231f20"/><path d="M136.75,60.71l-3.66,0-3.69,0v-.89l.94-.12c1.28-.17,1.54-.71,1.54-3V48.54c0-2.32-.26-2.86-1.54-3l-.94-.11v-.9l3.66,0,3.69,0v.9l-.95.11c-1.27.17-1.53.71-1.53,3v8.13c0,2.32.26,2.86,1.53,3l.95.12Z" transform="translate(-38.55 -37.37)" fill="#231f20"/><path d="M151.43,56.84l-.52,3.85h-2.58l-4.75,0-4.92,0v-.89l.88-.12c1.13-.14,1.39-.64,1.39-3.05V48.56c0-2.41-.26-2.9-1.39-3.05l-.88-.11v-.9c.52,0,2.6,0,3.5,0l3.74,0v.9l-1,.11c-1.35.17-1.61.76-1.61,3v8.11c0,2.53.4,3,2.58,3h.73c2.22,0,2.81-.24,3.54-1.89l.41-.92Z" transform="translate(-38.55 -37.37)" fill="#231f20"/><path d="M165.85,56.84l-.53,3.85h-2.57l-4.75,0-4.92,0v-.89l.87-.12c1.14-.14,1.4-.64,1.4-3.05V48.56c0-2.41-.26-2.9-1.4-3.05l-.87-.11v-.9c.52,0,2.6,0,3.5,0l3.73,0v.9l-1,.11c-1.34.17-1.6.76-1.6,3v8.11c0,2.53.4,3,2.57,3h.74c2.22,0,2.81-.24,3.54-1.89l.4-.92Z" transform="translate(-38.55 -37.37)" fill="#231f20"/><path d="M174.28,60.71l-3.66,0-3.69,0v-.89l.95-.12c1.27-.17,1.53-.71,1.53-3V48.54c0-2.32-.26-2.86-1.53-3l-.95-.11v-.9l3.66,0,3.69,0v.9l-.94.11c-1.28.17-1.54.71-1.54,3v8.13c0,2.32.26,2.86,1.54,3l.94.12Z" transform="translate(-38.55 -37.37)" fill="#231f20"/><path d="M192.76,60.71c-.47,0-2.1,0-3,0l-3.64,0v-.89l.83-.1c.71-.07,1-.35,1-.87a4.12,4.12,0,0,0-.38-1.54l-.94-2.41h-5.91l-.71,1.77a4.59,4.59,0,0,0-.41,1.87c0,.76.38,1.09,1.12,1.18l.78.1v.89c-.48,0-2.15,0-3,0s-2.39,0-2.86,0v-.89l.61-.08c1-.11,1.37-.56,2.18-2.59L183,45.56l1.49-1.46h.43L190,57.31c.74,1.92,1,2.22,2.11,2.39l.63.09Zm-6.57-7-2.48-6.36-2.5,6.36Z" transform="translate(-38.55 -37.37)" fill="#231f20"/><path d="M215.29,60.71c-.52,0-2.62,0-3.52,0l-3.67,0v-.92l.9-.09c1.35-.14,1.68-.74,1.59-3l-.34-8.91-5.74,13.07h-.8l-5.63-13.07-.38,8.91c-.09,2.29.26,2.89,1.61,3l.87.09v.92c-.47,0-2.24,0-3.14,0s-2.53,0-3,0v-.89l.88-.12c1.13-.14,1.32-.66,1.41-3.05l.36-8.18c.09-1.94-.36-2.6-1.44-2.86l-.93-.21v-.9c.53,0,1.66,0,2.53,0s1.82,0,2.51,0l5.46,12.83,5.51-12.83c.47,0,2.06,0,2.53,0,.92,0,1.58,0,2.2,0v.9l-.88.11c-1.13.15-1.58.74-1.49,3l.36,8.11c.09,2.41.28,2.91,1.42,3.05l.87.12Z" transform="translate(-38.55 -37.37)" fill="#231f20"/><path d="M242.07,55.18l-.35,4.32a13.8,13.8,0,0,1-6.93,1.57c-6.13,0-10.68-3.89-10.68-10.31s5.1-10.3,10.68-10.3A13.54,13.54,0,0,1,241.58,42l.35,4.32h-1.16l-.35-.81a5.83,5.83,0,0,0-5.78-3.8c-4.44,0-7.11,3.25-7.11,8.76,0,5.69,3.05,9.29,7.55,9.29a5.36,5.36,0,0,0,5.51-3.8l.32-.81Z" transform="translate(-38.55 -37.37)" fill="#231f20"/><path d="M260.76,60.71c-.47,0-2.1,0-3,0l-3.64,0v-.89l.83-.1c.7-.07,1-.35,1-.87a4.12,4.12,0,0,0-.38-1.54l-1-2.41h-5.91L248,56.67a4.74,4.74,0,0,0-.4,1.87c0,.76.38,1.09,1.11,1.18l.78.1v.89c-.47,0-2.15,0-3.05,0s-2.39,0-2.86,0v-.89l.62-.08c1-.11,1.37-.56,2.17-2.59L251,45.56l1.49-1.46h.42L258,57.31c.73,1.92,1,2.22,2.1,2.39l.64.09Zm-6.57-7-2.48-6.36-2.51,6.36Z" transform="translate(-38.55 -37.37)" fill="#231f20"/><path d="M278.16,60.67a9.11,9.11,0,0,1-1.66.14c-2.43,0-3.4-.83-4.66-2.67l-3.09-4.59h-1.92v3.1c0,2.34.26,2.88,1.61,3.05l1,.12v.89l-3.74,0c-.89,0-3,0-3.49,0v-.89l.87-.12c1.14-.14,1.4-.64,1.4-3.05V48.54c0-2.39-.29-2.88-1.4-3l-.87-.11v-.9c.52,0,2.6,0,3.49,0l3.76,0c3.64,0,5.82,1.49,5.82,4.19,0,2.26-1.63,3.78-4,4.44l3,4.4c1.35,1.94,2.15,2.38,3.78,2.27ZM272.58,49c0-2.6-1.49-3.5-3.48-3.5a6,6,0,0,0-2.27.35v6.79h1.87C271.49,52.61,272.58,51.21,272.58,49Z" transform="translate(-38.55 -37.37)" fill="#231f20"/><path d="M292.12,57.19l-.49,3.5h-2.58l-5,0-4.92,0v-.89l.87-.12c1.14-.14,1.4-.64,1.4-3.05V48.54c0-2.39-.29-2.88-1.4-3l-.87-.11v-.9l4.92,0,5,0h2l.49,3.5h-.8l-.36-.66c-.85-1.58-1.34-1.8-3.57-1.8h-.87a7,7,0,0,0-2.18.28v5.89h1.57c2.26,0,2.86-.26,3-1.56l.12-1h.83c0,.47-.05,2.18-.05,3.07s.05,2.32.05,2.84h-.83l-.12-.9c-.14-1.13-.8-1.32-3-1.32h-1.57v3.76c0,2.53.41,3,2.58,3h1.06c2.23,0,2.75-.14,3.57-1.8l.34-.66Z" transform="translate(-38.55 -37.37)" fill="#231f20"/><path d="M310,45.4l-.64.07A2.89,2.89,0,0,0,307.15,47l-4.58,6.78v2.86c0,2.29.28,2.89,1.61,3l1.08.12v.89l-3.87,0-3.9,0v-.89l1.08-.12c1.33-.14,1.61-.74,1.61-3v-2.6l-4.77-6.74c-.93-1.3-1.49-1.7-2.27-1.82l-.64-.09V44.5c.47,0,2.22,0,3.12,0l4.16,0v.9l-.95.11c-.73.1-.87.41-.87.76a2.25,2.25,0,0,0,.52,1.25l3.43,5,2.83-4.23a4,4,0,0,0,.78-1.82c0-.57-.37-.95-1.08-1l-.88-.09v-.9c.47,0,2.48,0,3.38,0s2.56,0,3,0Z" transform="translate(-38.55 -37.37)" fill="#231f20"/><path d="M89.72,68.14c9.54-.22,19.07-.31,28.61-.46l28.6-.26c19.08-.16,38.15-.14,57.22-.22s38.14.07,57.21.21l28.61.27c9.53.15,19.07.24,28.61.46-9.54.21-19.08.3-28.61.45l-28.61.27c-19.07.14-38.14.14-57.21.21S166,69,146.93,68.85l-28.6-.26C108.79,68.44,99.26,68.35,89.72,68.14Z" transform="translate(-38.55 -37.37)" fill="#231f20"/><path d="M40.3,39.54a78.88,78.88,0,0,1,36.75,0,2.09,2.09,0,0,1,1.63,2c0,1.37,0,2.87.06,4.39.05,3.43.11,7,0,9.8A34.68,34.68,0,0,1,75.1,70.7c-2.54,5-6.78,10.38-13.81,16.85a3.83,3.83,0,0,1-5.23,0C49,81.08,44.79,75.73,42.25,70.7a34.68,34.68,0,0,1-3.63-14.94c-.12-2.8-.06-6.37,0-9.8,0-1.52,0-3,.06-4.39a2.09,2.09,0,0,1,1.63-2Zm18.38-.31a79.09,79.09,0,0,0-18,2.12.22.22,0,0,0-.14.08.25.25,0,0,0,0,.15c0,1.41,0,2.9-.06,4.41-.06,3.39-.11,6.92,0,9.69a32.83,32.83,0,0,0,3.43,14.19c2.44,4.82,6.55,10,13.41,16.32a2,2,0,0,0,1.36.53A2,2,0,0,0,60,86.19c6.85-6.32,11-11.5,13.4-16.33a32.75,32.75,0,0,0,3.43-14.18c.12-2.77.07-6.3,0-9.69,0-1.51,0-3-.06-4.41a.25.25,0,0,0,0-.15.22.22,0,0,0-.14-.08,79.07,79.07,0,0,0-17.95-2.12Z" transform="translate(-38.55 -37.37)"/><path d="M40.51,40.44a78.25,78.25,0,0,1,36.33,0,1.17,1.17,0,0,1,.91,1.14c0,4.5.23,10.12,0,14.14-.44,10.1-3.25,18.36-17.14,31.15a2.92,2.92,0,0,1-4,0C42.8,74.08,40,65.82,39.55,55.72c-.18-4,0-9.64.05-14.14a1.17,1.17,0,0,1,.91-1.14Z" transform="translate(-38.55 -37.37)" fill-rule="evenodd"/><path d="M40.45,40.19a78.32,78.32,0,0,1,36.45,0,1.47,1.47,0,0,1,.8.5,1.5,1.5,0,0,1,.31.89c0,1.38,0,2.87.06,4.39.05,3.42.11,7,0,9.77A34,34,0,0,1,74.5,70.4C72,75.35,67.8,80.64,60.84,87.06a3.18,3.18,0,0,1-4.33,0c-7-6.42-11.16-11.71-13.66-16.66a33.93,33.93,0,0,1-3.56-14.66c-.12-2.8-.06-6.35,0-9.77,0-1.52.06-3,.06-4.39a1.5,1.5,0,0,1,.31-.89,1.47,1.47,0,0,1,.8-.5Zm18.23-1.63a79.83,79.83,0,0,0-18.11,2.13.94.94,0,0,0-.51.32.88.88,0,0,0-.2.57c0,1.39,0,2.88-.06,4.4-.06,3.41-.12,7,0,9.73a33.57,33.57,0,0,0,3.5,14.46c2.48,4.9,6.63,10.14,13.55,16.51a2.67,2.67,0,0,0,3.63,0C67.41,80.31,71.56,75.07,74,70.17a33.57,33.57,0,0,0,3.5-14.46c.13-2.78.07-6.32,0-9.73,0-1.52,0-3-.06-4.4a.88.88,0,0,0-.2-.57.94.94,0,0,0-.51-.32,79.81,79.81,0,0,0-18.1-2.13Z" transform="translate(-38.55 -37.37)" fill="#fff"/><path d="M68.37,74.7a64.15,64.15,0,0,1-5.14,5.81,1.54,1.54,0,0,1-.79.43,1.61,1.61,0,0,1-.89-.09,1.51,1.51,0,0,1-.95-1.43V61.34a1.54,1.54,0,0,1,.45-1.09h0a1.53,1.53,0,0,1,1.09-.45h11a1.56,1.56,0,0,1,1.19.56,1.68,1.68,0,0,1,.31.61,1.51,1.51,0,0,1,0,.67,27.8,27.8,0,0,1-1,3.87,29.57,29.57,0,0,1-1.74,3.93,38.63,38.63,0,0,1-3.45,5.26Z" transform="translate(-38.55 -37.37)" fill="#fff" fill-rule="evenodd"/><path d="M43.79,65.51a27.8,27.8,0,0,1-1-3.87,1.51,1.51,0,0,1,0-.67,1.68,1.68,0,0,1,.31-.61,1.56,1.56,0,0,1,1.19-.56h11a1.53,1.53,0,0,1,1.09.45,1.54,1.54,0,0,1,.45,1.09V79.42a1.51,1.51,0,0,1-1,1.43,1.61,1.61,0,0,1-.89.09,1.54,1.54,0,0,1-.79-.43A65.71,65.71,0,0,1,49,74.71a39.31,39.31,0,0,1-3.45-5.27,29.57,29.57,0,0,1-1.74-3.93Z" transform="translate(-38.55 -37.37)" fill="#d01144" fill-rule="evenodd"/><path d="M49.38,41.84c2-.19,3.9-.3,5.84-.4a1.52,1.52,0,0,1,1.14.42,1.49,1.49,0,0,1,.36.51,1.54,1.54,0,0,1,.12.61V54.5a1.53,1.53,0,0,1-.45,1.09A1.54,1.54,0,0,1,55.3,56H43.68a1.51,1.51,0,0,1-1.08-.44,1.53,1.53,0,0,1-.46-1.07c0-2.23,0-4.8,0-7.3h0v0c0-1,0-2,0-3a1.46,1.46,0,0,1,.34-1,1.5,1.5,0,0,1,.87-.54,51.35,51.35,0,0,1,5.94-.89Z" transform="translate(-38.55 -37.37)" fill="#fff"/><path d="M73.67,56H62.05a1.54,1.54,0,0,1-1.54-1.54V42.9a1.54,1.54,0,0,1,.12-.61h0a1.49,1.49,0,0,1,.36-.51,1.52,1.52,0,0,1,1.14-.42c1.94.1,3.88.21,5.85.4a49.11,49.11,0,0,1,5.93.89,1.54,1.54,0,0,1,1.22,1.49c0,1,0,2,0,3h0c0,1.25,0,2.51,0,3.75s0,2.44,0,3.56a1.53,1.53,0,0,1-.46,1.07,1.55,1.55,0,0,1-1.08.44Z" transform="translate(-38.55 -37.37)" fill="#d01144" fill-rule="evenodd"/><polygon points="6.78 20.61 19.98 19.83 33.47 20.61 33.47 20.61 19.98 21.43 6.78 20.61 6.78 20.61 6.78 20.61" fill="#fff" fill-rule="evenodd"/><polygon points="20.09 6.17 20.09 6.17 21.03 19.26 20.09 45.04 20.09 45.04 19.22 19.4 20.09 6.17 20.09 6.17" fill="#fff" fill-rule="evenodd"/></svg>