<svg height="6" viewBox="0 0 25 6" width="25" xmlns="http://www.w3.org/2000/svg" xmlns:xlink="http://www.w3.org/1999/xlink"><mask id="a" fill="#fff"><path d="m0 .4815h4.81659091v4.768425h-4.81659091z" fill="#fff" fill-rule="evenodd"/></mask><mask id="b" fill="#fff"><path d="m.68356061.4815h4.81666666v4.768425h-4.81666666z" fill="#fff" fill-rule="evenodd"/></mask><mask id="c" fill="#fff"><path d="m.61030303.4815h4.81590909v4.768425h-4.81590909z" fill="#fff" fill-rule="evenodd"/></mask><g fill="#8c8c8c" fill-opacity=".5" fill-rule="evenodd"><path d="m-.00007576 2.865675c0-1.317 1.07878788-2.38425 2.40833334-2.38425 1.33030303 0 2.40833333 1.06725 2.40833333 2.38425s-1.0780303 2.38425-2.40833333 2.38425c-1.32954546 0-2.40833334-1.06725-2.40833334-2.38425" mask="url(#a)"/><path d="m.68356061 2.865675c0-1.317 1.07878787-2.38425 2.40909091-2.38425 1.33030303 0 2.40757575 1.06725 2.40757575 2.38425s-1.07727272 2.38425-2.40757575 2.38425c-1.33030304 0-2.40909091-1.06725-2.40909091-2.38425" mask="url(#b)" transform="translate(9)"/><path d="m.61030303 2.865675c0-1.317 1.0780303-2.38425 2.40833333-2.38425s2.40757576 1.06725 2.40757576 2.38425-1.07727273 2.38425-2.40757576 2.38425-2.40833333-1.06725-2.40833333-2.38425" mask="url(#c)" transform="translate(19)"/></g></svg>