<svg enable-background="new 0 0 181.13 105" viewBox="0 0 181.13 105" xmlns="http://www.w3.org/2000/svg"><path d="m26.84 52.6c0-1.78.18-3.51.52-5.18s.85-3.29 1.5-4.83 1.45-3 2.37-4.37 1.98-2.64 3.14-3.81l-17.45-17.45c-9.12 9.12-14.76 21.72-14.76 35.64s5.64 26.52 14.76 35.64l17.45-17.45c-4.65-4.66-7.53-11.09-7.53-18.19z" fill="#ffa800"/><path d="m52.56 26.87c6.84 0 13.03 2.68 17.64 7.03l14.23-20.35c-8.69-7.1-19.78-11.36-31.87-11.36-13.92 0-26.52 5.64-35.64 14.76l17.45 17.45c4.66-4.65 11.09-7.53 18.19-7.53z" fill="#ffdd3d"/><path d="m70.2 71.29c-4.61 4.35-10.8 7.03-17.64 7.03-7.1 0-13.53-2.88-18.19-7.53l-17.45 17.45c9.12 9.12 21.72 14.76 35.64 14.76 12.04 0 23.09-4.23 31.76-11.27z" fill="#ffdd3d"/><path d="m164.44 16.96-17.45 17.45c4.66 4.66 7.53 11.09 7.53 18.19 0 14.21-11.52 25.72-25.72 25.72-7.1 0-13.53-2.88-18.19-7.53l-17.45 17.45c9.12 9.12 21.72 14.76 35.64 14.76 27.84 0 50.4-22.57 50.4-50.4 0-13.92-5.64-26.52-14.76-35.64z" fill="#ffa800"/><path d="m103.07 52.6c0-14.21 11.52-25.72 25.72-25.72 7.1 0 13.53 2.88 18.19 7.53l17.45-17.45c-9.12-9.12-21.72-14.76-35.64-14.76-27.84 0-50.4 22.57-50.4 50.4 0 13.92 5.64 26.52 14.76 35.64l17.45-17.45c-4.65-4.66-7.53-11.09-7.53-18.19z" fill="#ffdd3d"/></svg>