<svg xmlns="http://www.w3.org/2000/svg" viewBox="0 0 288 61.36"><defs><style>.cls-1{fill:#46e691;}.cls-2{fill:#46c8a0;}.cls-3{fill:#3c96be;}.cls-4{fill:#3c7dcd;}.cls-5{fill:#41b4af;}.cls-6{fill:#3c3c3c;}</style></defs><title>Asset 1</title><g id="Layer_2" data-name="Layer 2"><g id="Logos"><path class="cls-1" d="M55.86,7.69H96A26.35,26.35,0,0,0,79.38,1.81H55.86a2.94,2.94,0,1,0,0,5.88Z"/><path class="cls-2" d="M9.76,19.45h94.58a26.36,26.36,0,0,0-2.95-5.88H9.76a2.94,2.94,0,1,0,0,5.88Z"/><path class="cls-3" d="M6,37.09A2.94,2.94,0,1,0,6,43h95.35a26.36,26.36,0,0,0,2.95-5.88Z"/><path class="cls-4" d="M26.46,48.85a2.94,2.94,0,1,0,0,5.88H79.38A26.35,26.35,0,0,0,96,48.85Z"/><path class="cls-5" d="M105.68,25.33H2.94a2.94,2.94,0,1,0,0,5.88H105.68A26.72,26.72,0,0,0,105.68,25.33Z"/><path class="cls-6" d="M128.21,47.62c-.34,0-.71,0-1.08,0h-5.58v7.09h-4V31.22h9.54c6,0,9.48,2.92,9.48,8,0,3.76-1.75,6.42-4.87,7.63L137,54.74h-4.5Zm-1.08-3.53c3.63,0,5.71-1.55,5.71-4.74s-2.08-4.57-5.71-4.57h-5.58v9.31Z"/><path class="cls-6" d="M157.24,47.28H143.73a5.44,5.44,0,0,0,5.54,4.47,7,7,0,0,0,5-2.08l2.05,2.18a9.73,9.73,0,0,1-7.39,3c-5.51,0-9.14-3.66-9.14-9a8.68,8.68,0,0,1,9-9.11C155.16,36.73,157.71,40.83,157.24,47.28Zm-3.36-2.82a4.59,4.59,0,0,0-5-4.64,5.09,5.09,0,0,0-5.24,4.64Z"/><path class="cls-6" d="M172,52.56c-1.28,1.58-3.33,2.35-5.91,2.35-3.86,0-6.28-2.39-6.28-5.54S162.25,44,166.55,44H172v-.54c0-2.25-1.44-3.6-4.27-3.6a9.42,9.42,0,0,0-5.28,1.82L160.84,39a13.1,13.1,0,0,1,7.7-2.25c4.6,0,7.19,2.35,7.23,6.28l0,11.73H172Zm0-4.1V46.81h-4.84c-2.52,0-3.7.67-3.7,2.39s1.31,2.65,3.46,2.65C169.64,51.85,171.76,50.41,172,48.46Z"/><path class="cls-6" d="M192.56,38.51l-1.41,2.86A10.52,10.52,0,0,0,186,39.79c-1.51,0-2.62.5-2.62,1.78,0,3.29,9.51,1.51,9.48,8,0,3.66-3.26,5.31-6.86,5.31a11.06,11.06,0,0,1-7.19-2.49l1.38-2.76a9.74,9.74,0,0,0,6,2.22c1.65,0,2.92-.57,2.92-1.92,0-3.66-9.41-1.61-9.38-8.07,0-3.63,3.16-5.18,6.59-5.18A11.3,11.3,0,0,1,192.56,38.51Z"/><path class="cls-6" d="M213.73,45.8c0,5.38-3.8,9.07-9.31,9.07s-9.34-3.7-9.34-9.07,3.8-9.07,9.34-9.07S213.73,40.39,213.73,45.8Zm-14.79,0c0,3.46,2.25,5.81,5.48,5.81s5.44-2.35,5.44-5.81-2.25-5.78-5.44-5.78S198.95,42.41,198.95,45.84Z"/><path class="cls-6" d="M234.87,43.62V54.74H231v-10a4,4,0,0,0-4.3-4.34,5,5,0,0,0-5.07,4.87v9.51h-3.86V36.87h3.86v3.43c1.28-2.49,3.56-3.56,6.59-3.56C232.38,36.73,234.87,39.35,234.87,43.62Z"/><path class="cls-6" d="M244.21,31.76A2.25,2.25,0,1,1,242,29.41,2.23,2.23,0,0,1,244.21,31.76Zm-4.17,23V36.87h3.83V54.74Z"/><path class="cls-6" d="M266.69,43.62V54.74h-3.86v-10a4,4,0,0,0-4.3-4.34,5,5,0,0,0-5.07,4.87v9.51h-3.86V36.87h3.86v3.43c1.28-2.49,3.56-3.56,6.59-3.56C264.21,36.73,266.69,39.35,266.69,43.62Z"/><path class="cls-6" d="M288,53c0,5.14-3.66,8.37-9.28,8.37A13,13,0,0,1,271.3,59l1.65-2.79a9,9,0,0,0,5.61,1.95c3.39,0,5.61-2,5.61-5.07V50.85a6.55,6.55,0,0,1-5.91,3c-4.84,0-8.07-3.5-8.07-8.64s3.19-8.47,7.93-8.5a6.67,6.67,0,0,1,6,3V36.87H288Zm-3.83-7.66c0-3.23-2.12-5.48-5.14-5.48s-5.18,2.29-5.21,5.48,2.12,5.51,5.21,5.51S284.17,48.56,284.17,45.33Z"/><path class="cls-6" d="M127.23,1.82c7.06,0,12.17,4.94,12.17,11.76s-5.14,11.76-12.27,11.76h-9.55V1.82Zm-5.68,20h5.78a7.89,7.89,0,0,0,8.07-8.17,8,8,0,0,0-8.24-8.24h-5.61Z"/><path class="cls-6" d="M147.44,2.35a2.25,2.25,0,1,1-4.5,0,2.25,2.25,0,1,1,4.5,0Zm-4.17,23V7.46h3.83V25.34Z"/><path class="cls-6" d="M168.95,23.6c0,5.14-3.66,8.37-9.28,8.37a13,13,0,0,1-7.43-2.35l1.65-2.79a9,9,0,0,0,5.61,1.95c3.39,0,5.61-2,5.61-5.08V21.44a6.55,6.55,0,0,1-5.92,3c-4.84,0-8.07-3.5-8.07-8.64s3.19-8.47,7.93-8.5a6.67,6.67,0,0,1,6,3V7.46h3.83Zm-3.83-7.66c0-3.23-2.12-5.48-5.14-5.48s-5.18,2.29-5.21,5.48,2.12,5.51,5.21,5.51S165.12,19.16,165.12,15.93Z"/><path class="cls-6" d="M178.49,2.35a2.25,2.25,0,1,1-4.5,0,2.25,2.25,0,1,1,4.5,0Zm-4.17,23V7.46h3.83V25.34Z"/><path class="cls-6" d="M194,24.2a8.58,8.58,0,0,1-4.4,1.31c-2.69,0-5-1.55-5-5.21V11h-2.52V8.13h2.52V3.23h3.83V8.13h5.28V11h-5.28V19.6c0,1.85.71,2.42,1.92,2.42a6.24,6.24,0,0,0,2.69-.77Z"/><path class="cls-6" d="M208.27,23.16c-1.28,1.58-3.33,2.35-5.92,2.35-3.87,0-6.29-2.39-6.29-5.55s2.45-5.34,6.76-5.38h5.41V14c0-2.25-1.45-3.6-4.27-3.6a9.43,9.43,0,0,0-5.28,1.81l-1.58-2.69a13.1,13.1,0,0,1,7.7-2.25c4.6,0,7.19,2.35,7.23,6.29l0,11.73h-3.8Zm0-4.1V17.41H203.4c-2.52,0-3.7.67-3.7,2.39s1.31,2.66,3.46,2.66C205.92,22.45,208,21,208.24,19.06Z"/><path class="cls-6" d="M217.41,25.34V.4h3.87V25.34Z"/></g></g></svg>