<svg height="40.200001" viewBox="0 0 40.200002 40.2" width="40.200001" xmlns="http://www.w3.org/2000/svg"><path d="m26.975479 12.199999c-1.3-1-1.8 3.9-4.4 3.9-3 0-4-12.9999998-6.3-12.9999998-.7 0-.8-.4-7.9000003 21.2999998-2.9000001 9 4.4000003 15.8 11.8000003 15.8 4.6 0 12.3-3 12.3-12.6 0-7.1-3.5-13.9-5.5-15.4zm-6.9 23.1c-3.7 0-6.7-3.1-6.7-7s3-7 6.7-7 6.7 3.1 6.7 7c0 3.8-3 7-6.7 7z" fill="#f05732"/><path d="m24.075479-.00000076c-.5 0-1.8 2.49999996-1.8 3.59999996 0 1.5 1 2 1.8 2s1.8-.5 1.8-2c-.1-1.1-1.4-3.59999996-1.8-3.59999996z" fill="#9e529f"/></svg>