<svg height="27" viewBox="0 0 195 27" width="195" xmlns="http://www.w3.org/2000/svg"><g fill="none" fill-rule="evenodd"><path d="m4.25242207 3.69783784h-2.49631424v8.26662166l2.44071188-.0571622c3.23767903-.0583784 4.99378686-1.4108108 4.99378686-4.20567568 0-2.56256757-1.72830665-4.00378378-4.9381845-4.00378378m-.16564869 9.93770266-2.33066555.027973v6.3364865h-1.75610783v-18h4.30686605c4.52695872 0 6.69313395 2.30351351 6.69313395 5.61527027 0 3.94662163-2.66080455 5.96189193-6.91322662 6.02027023" fill="#fff"/><path d="m19.8796712 20.0170479-1.0639014 2.8453558c-1.2072123 3.2178608-2.4727205 4.1375963-4.2568199 4.1375963-1.0056054 0-1.7537369-.2596615-2.5589499-.6042589l.5465247-1.6380514c.6315396.3445975 1.2934417.5751381 2.0124252.5751381 1.0068199 0 1.7549514-.5460171 2.7046899-3.0467755l.8914424-2.3272463-5.1482623-12.958806h1.9274103l4.1414424 10.8621003 4.0552131-10.8621003h1.8691143z" fill="#fff"/><path d="m30.8890751 3.72812648v16.27187352h-1.7781502v-16.27187352h-6.1109249v-1.72812648h14v1.72812648z" fill="#fff"/><path d="m44.4993845 7.61961263c-2.8274784 0-4.6935896 2.22788344-4.6935896 5.35107307 0 3.2392253 1.8956538 5.4097017 4.7231323 5.4097017 2.8274784 0 4.6935896-2.2278835 4.6935896-5.3510731 0-3.24044674-1.8944229-5.40970167-4.7231323-5.40970167m-.0578543 12.38038737c-3.7026797 0-6.4415302-2.7188972-6.4415302-6.9706857 0-4.22369573 2.8557902-7.0293143 6.5867816-7.0293143 3.7322223 0 6.4132184 2.71889723 6.4132184 6.9706857 0 4.2236957-2.8570211 7.0293143-6.5584698 7.0293143" fill="#fff"/><path d="m54.7914634 20h-1.7914634v-13.61341223l1.7914634-.38658777v2.91321499c.8658537-1.75345168 2.1646342-2.91321499 3.897561-2.91321499.8670732 0 1.704878.26734804 2.3109756.62506724l-.4621951 1.72332795c-.5780488-.35646404-1.2707317-.59494351-2.0207317-.59494351-1.3865854 0-2.6865854 1.0706473-3.7256098 3.50690332z" fill="#fff"/><path d="m68.6959266 20c-4.1248423 0-6.6959266-2.8642471-6.6959266-6.9706857 0-4.13697439 2.8399312-7.0293143 6.7262192-7.0293143 1.6749282 0 3.1087779.40551387 4.2737808 1.12859885l-.4783706 1.61961263c-1.0450947-.66567789-2.3602984-1.06997034-3.7954102-1.06997034-2.9585772 0-4.8127367 2.13994068-4.8127367 5.29244456 0 3.2392253 1.9437751 5.3522946 4.8430293 5.3522946 1.3745266 0 2.7503155-.4348281 3.7966724-1.0992846l.3874928 1.6489269c-1.1662651.6949921-2.6594378 1.1273774-4.2447504 1.1273774" fill="#fff"/><path d="m85.125406 20v-8.6170867c0-2.32821139-.9672854-3.37676702-2.9605568-3.37676702-1.6015081 0-3.1430395.78672403-4.2928074 1.89182545v10.10202827h-1.8720418v-19.6201598l1.8720418-.3798402v8.41303012c1.450928-1.39766442 3.2655452-2.12415489 4.8058004-2.12415489 2.6887471 0 4.3221578 1.65826675 4.3221578 4.57037497v9.1407498z" fill="#fff"/><g fill="#cc2faa"><path d="m90 20v-18h1.7162912v16.2718735h8.2837088v1.7281265z"/><path d="m110.922118 12.8265573c-4.474842.5215495-6.070335 1.5328913-6.070335 3.2978538 0 1.4168557 1.139466 2.3146048 2.679611 2.3146048 1.395755 0 2.592977-.8098063 3.390724-1.7356483zm.027674 5.2069447c-.883176 1.0992846-2.278932 1.966498-3.817873 1.966498-2.39324 0-4.131919-1.5609841-4.131919-3.672832 0-2.4013261 1.851783-4.3678241 7.922118-4.7147094v-.7817135c0-2.08253362-.912055-3.15250396-3.077883-3.15250396-1.424633 0-3.163312.75117781-4.2739 1.59029838l-.398272-1.67701972c1.167141-.83912057 3.133231-1.5915198 4.843032-1.5915198 3.02133 0 4.702254 1.38876287 4.673376 4.7440237v6.3636364c0 .9539347.17086 1.3594486 1.311529 1.3313558l-.114308 1.4742628c-1.709801.1160356-2.650732-.5777352-2.849267-1.8797767z"/><path d="m124.295824 20v-8.7986373c0-2.37726372-.879351-3.44791102-2.774942-3.44791102-1.37239 0-2.773782.80329926-3.819026 1.9316837v10.31486462h-1.701856v-13.61341223l1.701856-.38658777v2.22915546c1.319026-1.42711135 2.968678-2.22915546 4.287703-2.22915546 2.525522 0 4.010441 1.69320423 4.010441 4.6666667v9.3333333z"/><path d="m135.186406 14.4705468c1.995926 0 3.250301-1.4615023 3.250301-3.5051389 0-1.98566984-1.140013-3.47553887-3.335772-3.47553887-2.023613 0-3.277988 1.48986903-3.277988 3.56310567 0 1.927703 1.254375 3.4175721 3.363459 3.4175721m-4.475785 8.2954131c0 1.5762025 1.682934 2.7441711 4.448097 2.7441711 2.708585 0 4.90314-1.3431022 4.90314-3.1536384 0-1.5774358-1.368738-2.1324367-3.96296-2.1324367-.8836 0-1.994722-.0283667-2.737476-.0875668-1.566163.437834-2.650801 1.489869-2.650801 2.6294708m-.656079-5.1121747c0-1.1100018.941384-2.07447 2.13918-2.5406707-1.254376-.7881013-2.110288-2.2496036-2.110288-4.0897399 0-2.83297112 2.052505-5.0233746 5.131864-5.0233746 1.368738 0 2.365497.37986727 3.078155.78810125l3.621076-.29230046.085471 1.81176954-2.878322-.29106713c.625984.64133435 1.054542 1.92646973 1.054542 3.0068714 0 2.8342045-2.166867 4.9074412-5.075285 4.9074412-.712658 0-1.283267-.1467669-1.938142-.3798673-.683767.2910671-1.454209.846068-1.454209 1.6070359 0 .846068.627188 1.3727022 2.964997 1.3727022h1.682933c3.790814 0 5.415965 1.313502 5.415965 3.5051389 0 2.9489046-3.221409 4.9641745-6.870173 4.9641745-3.506714 0-5.902306-1.5774358-5.902306-3.9146062 0-1.5170024 1.141217-2.8613379 2.822947-3.2991719-1.112326-.408234-1.768405-1.1692019-1.768405-2.1324367"/><path d="m145.874594 7v8.7994262c0 2.3774769.967285 3.4469649 2.991183 3.4469649 1.602784 0 3.14304-.802116 4.262181-1.9318569v-10.3145342h1.872042v13.6146328l-1.872042.3853672v-2.1992289c-1.421577 1.4272393-3.234919 2.1992289-4.77645 2.1992289-2.688747 0-4.351508-1.693356-4.351508-4.6658298v-9.3341702z"/><path d="m165.922118 12.8265573c-4.473638.5215495-6.069132 1.5328913-6.069132 3.2978538 0 1.4168557 1.139466 2.3146048 2.678408 2.3146048 1.395755 0 2.592977-.8098063 3.390724-1.7356483zm.027674 5.2069447c-.883176 1.0992846-2.278932 1.966498-3.81667 1.966498-2.395647 0-4.133122-1.5609841-4.133122-3.672832 0-2.4013261 1.852986-4.3678241 7.922118-4.7147094v-.7817135c0-2.08253362-.912055-3.15250396-3.077883-3.15250396-1.424633 0-3.163312.75117781-4.2739 1.59029838l-.398272-1.67701972c1.167141-.83912057 3.133231-1.5915198 4.843032-1.5915198 3.02133 0 4.70105 1.38876287 4.673376 4.7440237v6.3636364c0 .9539347.17086 1.3594486 1.311529 1.3313558l-.114308 1.4742628c-1.709801.1160356-2.649529-.5777352-2.849267-1.8797767z"/><path d="m176.186406 14.4705468c1.995926 0 3.250301-1.4615023 3.250301-3.5051389 0-1.98566984-1.140013-3.47553887-3.335772-3.47553887-2.023613 0-3.277988 1.48986903-3.277988 3.56310567 0 1.927703 1.254375 3.4175721 3.363459 3.4175721m-4.475785 8.2954131c0 1.5762025 1.682934 2.7441711 4.448097 2.7441711 2.708585 0 4.90314-1.3431022 4.90314-3.1536384 0-1.5774358-1.368738-2.1324367-3.96296-2.1324367-.8836 0-1.994722-.0283667-2.737476-.0875668-1.566163.437834-2.650801 1.489869-2.650801 2.6294708m-.656079-5.1121747c0-1.1100018.941384-2.07447 2.13918-2.5406707-1.254376-.7881013-2.110288-2.2496036-2.110288-4.0897399 0-2.83297112 2.052505-5.0233746 5.131864-5.0233746 1.368738 0 2.365497.37986727 3.078155.78810125l3.621076-.29230046.085471 1.81176954-2.878322-.29106713c.625984.64133435 1.054542 1.92646973 1.054542 3.0068714 0 2.8342045-2.166867 4.9074412-5.075285 4.9074412-.712658 0-1.283267-.1467669-1.938142-.3798673-.683767.2910671-1.454209.846068-1.454209 1.6070359 0 .846068.627188 1.3727022 2.964997 1.3727022h1.682933c3.790814 0 5.415965 1.313502 5.415965 3.5051389 0 2.9489046-3.221409 4.9641745-6.870173 4.9641745-3.506714 0-5.902306-1.5774358-5.902306-3.9146062 0-1.5170024 1.141217-2.8613379 2.822947-3.2991719-1.112326-.408234-1.768405-1.1692019-1.768405-2.1324367"/><path d="m193.219821 11.6124586c.027891-.1441285.027891-.4336067.027891-.5789566 0-2.0251265-1.090177-3.41388937-3.157755-3.41388937-2.354977 0-3.87686 1.823591-4.165472 4.02093877zm-7.409326 1.5902983c.058207 2.9790613 1.837173 5.1202234 4.594752 5.1202234 1.435785 0 2.814574-.4336067 3.819866-1.0992846l.343182 1.6489269c-1.119282.6949921-2.58417 1.1273774-4.220042 1.1273774-3.790762 0-6.348253-2.8642471-6.348253-6.8839644 0-4.16506718 2.643589-7.1160356 6.203947-7.1160356 2.900672 0 4.796053 1.91031234 4.796053 4.8881522 0 .6949921-.115202 1.5341127-.287399 2.1130692l-8.902106.0574071z"/></g></g></svg>